<?xml version="1.0" encoding="UTF-8" standalone="no"?>
<!DOCTYPE svg PUBLIC "-//W3C//DTD SVG 1.1//EN"
 "http://www.w3.org/Graphics/SVG/1.1/DTD/svg11.dtd">
<!-- Generated by graphviz version 12.2.1 (20241206.2353)
 -->
<!-- Title: Inner with break Pages: 1 -->
<svg width="207pt" height="246pt"
 viewBox="0.00 0.00 207.31 245.50" xmlns="http://www.w3.org/2000/svg" xmlns:xlink="http://www.w3.org/1999/xlink">
<g id="graph0" class="graph" transform="scale(1 1) rotate(0) translate(4 241.5)">
<title>Inner with break</title>
<polygon fill="white" stroke="none" points="-4,4 -4,-241.5 203.31,-241.5 203.31,4 -4,4"/>
<text text-anchor="middle" x="99.65" y="-220.2" font-family="Times,serif" font-size="14.00">Inner with break</text>
<!-- node_0 -->
<g id="node1" class="node">
<title>node_0</title>
<polygon fill="#ececff" stroke="#9370db" points="90.88,-213 36.88,-213 36.88,-177 90.88,-177 90.88,-213"/>
<text text-anchor="middle" x="63.88" y="-189.95" font-family="Times,serif" font-size="14.00">Start</text>
</g>
<!-- node_1 -->
<g id="node2" class="node">
<title>node_1</title>
<polygon fill="#ececff" stroke="#9370db" points="127.75,-124.5 0,-124.5 0,-88.5 127.75,-88.5 127.75,-124.5"/>
<text text-anchor="middle" x="63.88" y="-101.45" font-family="Times,serif" font-size="14.00">is_end[ chat_mock ]</text>
</g>
<!-- node_0&#45;&gt;node_1 -->
<g id="edge1" class="edge">
<title>node_0&#45;&gt;node_1</title>
<path fill="none" stroke="blue" stroke-width="2" d="M63.88,-176.91C63.88,-165.26 63.88,-149.55 63.88,-136.02"/>
<polygon fill="blue" stroke="blue" stroke-width="2" points="67.38,-137.88 63.88,-127.88 60.38,-137.88 67.38,-137.88"/>
<text text-anchor="middle" x="101.75" y="-145.7" font-family="Times,serif" font-size="14.00">input &#45;&gt; input</text>
</g>
<!-- node_2 -->
<g id="node3" class="node">
<title>node_2</title>
<polygon fill="#ececff" stroke="#9370db" stroke-dasharray="5,2" points="84.75,-36 11,-36 11,0 84.75,0 84.75,-36"/>
<text text-anchor="middle" x="47.88" y="-12.95" font-family="Times,serif" font-size="14.00">breakpoint</text>
</g>
<!-- node_1&#45;&gt;node_2 -->
<g id="edge2" class="edge">
<title>node_1&#45;&gt;node_2</title>
<path fill="none" stroke="blue" stroke-width="2" d="M52.2,-88.04C49.21,-82.65 46.41,-76.53 44.88,-70.5 43.02,-63.21 42.71,-55.16 43.12,-47.63"/>
<polygon fill="blue" stroke="blue" stroke-width="2" points="46.43,-49.73 43.95,-39.43 39.47,-49.03 46.43,-49.73"/>
</g>
<!-- node_3 -->
<g id="node4" class="node">
<title>node_3</title>
<polygon fill="#ececff" stroke="#9370db" points="189.88,-36 135.88,-36 135.88,0 189.88,0 189.88,-36"/>
<text text-anchor="middle" x="162.88" y="-12.95" font-family="Times,serif" font-size="14.00">End</text>
</g>
<!-- node_1&#45;&gt;node_3 -->
<g id="edge3" class="edge">
<title>node_1&#45;&gt;node_3</title>
<path fill="none" stroke="blue" stroke-width="2" d="M111.98,-88.02C120.96,-83.29 129.75,-77.48 136.88,-70.5 143.72,-63.8 149.07,-54.92 153.1,-46.42"/>
<polygon fill="blue" stroke="blue" stroke-width="2" points="155.63,-49.41 156.32,-38.84 149.19,-46.68 155.63,-49.41"/>
<text text-anchor="middle" x="174.18" y="-57.2" font-family="Times,serif" font-size="14.00">?(is_end)</text>
</g>
<!-- node_2&#45;&gt;node_1 -->
<g id="edge4" class="edge">
<title>node_2&#45;&gt;node_1</title>
<path fill="none" stroke="blue" stroke-width="2" d="M51.08,-36.35C53.25,-48.06 56.16,-63.79 58.66,-77.28"/>
<polygon fill="blue" stroke="blue" stroke-width="2" points="54.9,-76.24 60.16,-85.43 61.79,-74.96 54.9,-76.24"/>
<text text-anchor="middle" x="95.18" y="-57.2" font-family="Times,serif" font-size="14.00">input &#45;&gt; input</text>
</g>
</g>
</svg>
