<?xml version="1.0" encoding="UTF-8" standalone="no"?>
<!DOCTYPE svg PUBLIC "-//W3C//DTD SVG 1.1//EN"
 "http://www.w3.org/Graphics/SVG/1.1/DTD/svg11.dtd">
<!-- Generated by graphviz version 12.2.1 (20241206.2353)
 -->
<!-- Title: edge_types Pages: 1 -->
<svg width="813pt" height="193pt"
 viewBox="0.00 0.00 813.00 192.50" xmlns="http://www.w3.org/2000/svg" xmlns:xlink="http://www.w3.org/1999/xlink">
<g id="graph0" class="graph" transform="scale(1 1) rotate(0) translate(4 188.5)">
<title>edge_types</title>
<polygon fill="white" stroke="none" points="-4,4 -4,-188.5 809,-188.5 809,4 -4,4"/>
<text text-anchor="middle" x="402.5" y="-167.2" font-family="Times,serif" font-size="14.00">edge_types</text>
<!-- node_0 -->
<g id="node1" class="node">
<title>node_0</title>
<polygon fill="#ececff" stroke="#9370db" points="208.25,-97.5 91,-97.5 91,-56.5 208.25,-56.5 208.25,-97.5"/>
<text text-anchor="middle" x="149.62" y="-80.2" font-family="Times,serif" font-size="14.00">Conditional_node[</text>
<text text-anchor="middle" x="149.62" y="-63.7" font-family="Times,serif" font-size="14.00">plus1 ]</text>
</g>
<!-- node_3 -->
<g id="node4" class="node">
<title>node_3</title>
<polygon fill="#ececff" stroke="#9370db" points="547.38,-160 449.62,-160 449.62,-124 547.38,-124 547.38,-160"/>
<text text-anchor="middle" x="498.5" y="-136.95" font-family="Times,serif" font-size="14.00">Default_option</text>
</g>
<!-- node_0&#45;&gt;node_3 -->
<g id="edge3" class="edge">
<title>node_0&#45;&gt;node_3</title>
<path fill="none" stroke="blue" stroke-width="2" d="M208.71,-93.7C214.61,-95.23 220.54,-96.69 226.25,-98 298.53,-114.59 383.04,-127.25 438.28,-134.65"/>
<polygon fill="blue" stroke="blue" stroke-width="2" points="436.24,-137.91 446.61,-135.75 437.15,-130.97 436.24,-137.91"/>
</g>
<!-- node_5 -->
<g id="node6" class="node">
<title>node_5</title>
<polygon fill="#ececff" stroke="#9370db" points="677.5,-105.75 319.5,-105.75 319.5,-48.25 677.5,-48.25 677.5,-105.75"/>
<text text-anchor="middle" x="498.5" y="-88.45" font-family="Times,serif" font-size="14.00">anon_from_Option1_to_Parallel_end[</text>
<text text-anchor="middle" x="498.5" y="-71.95" font-family="Times,serif" font-size="14.00">Diagram(anon_from_Option1_to_Parallel_end)@0x11f949df0</text>
<text text-anchor="middle" x="498.5" y="-55.45" font-family="Times,serif" font-size="14.00">]</text>
</g>
<!-- node_0&#45;&gt;node_5 -->
<g id="edge4" class="edge">
<title>node_0&#45;&gt;node_5</title>
<path fill="none" stroke="blue" stroke-width="2" d="M208.68,-77C236.56,-77 271.72,-77 307.82,-77"/>
<polygon fill="blue" stroke="blue" stroke-width="2" points="306.02,-80.5 316.02,-77 306.02,-73.5 306.02,-80.5"/>
<text text-anchor="middle" x="263.88" y="-80.2" font-family="Times,serif" font-size="14.00">?(mod2)</text>
</g>
<!-- node_1 -->
<g id="node2" class="node">
<title>node_1</title>
<polygon fill="#ececff" stroke="#9370db" points="54,-55 0,-55 0,-19 54,-19 54,-55"/>
<text text-anchor="middle" x="27" y="-31.95" font-family="Times,serif" font-size="14.00">Start</text>
</g>
<!-- node_1&#45;&gt;node_0 -->
<g id="edge5" class="edge">
<title>node_1&#45;&gt;node_0</title>
<path fill="none" stroke="blue" stroke-width="2" d="M54.47,-45.78C62.15,-48.32 70.91,-51.23 79.92,-54.22"/>
<polygon fill="blue" stroke="blue" stroke-width="2" points="77.1,-56.97 87.69,-56.79 79.3,-50.32 77.1,-56.97"/>
</g>
<!-- node_2 -->
<g id="node3" class="node">
<title>node_2</title>
<path fill="#ececff" stroke="#9370db" d="M301.5,-32.73C301.5,-34.53 284.64,-36 263.88,-36 243.11,-36 226.25,-34.53 226.25,-32.73 226.25,-32.73 226.25,-3.27 226.25,-3.27 226.25,-1.47 243.11,0 263.88,0 284.64,0 301.5,-1.47 301.5,-3.27 301.5,-3.27 301.5,-32.73 301.5,-32.73"/>
<path fill="none" stroke="#9370db" d="M301.5,-32.73C301.5,-30.92 284.64,-29.45 263.88,-29.45 243.11,-29.45 226.25,-30.92 226.25,-32.73"/>
<text text-anchor="middle" x="263.88" y="-12.95" font-family="Times,serif" font-size="14.00">State[start]</text>
</g>
<!-- node_1&#45;&gt;node_2 -->
<g id="edge1" class="edge">
<title>node_1&#45;&gt;node_2</title>
<path fill="none" stroke="black" stroke-dasharray="5,2" d="M54.49,-34.86C93.28,-31.72 166.18,-25.82 214.65,-21.9"/>
<polygon fill="black" stroke="black" points="214.91,-25.39 224.59,-21.1 214.34,-18.41 214.91,-25.39"/>
</g>
<!-- node_4 -->
<g id="node5" class="node">
<title>node_4</title>
<polygon fill="#ececff" stroke="#9370db" points="805,-95 751,-95 751,-59 805,-59 805,-95"/>
<text text-anchor="middle" x="778" y="-71.95" font-family="Times,serif" font-size="14.00">End</text>
</g>
<!-- node_2&#45;&gt;node_4 -->
<g id="edge2" class="edge">
<title>node_2&#45;&gt;node_4</title>
<path fill="none" stroke="black" stroke-dasharray="5,2" d="M301.82,-12.51C374.98,-2.91 542.87,12.74 677.5,-22.5 700.49,-28.52 723.91,-40.97 742.25,-52.45"/>
<polygon fill="black" stroke="black" points="740.31,-55.37 750.61,-57.86 744.12,-49.49 740.31,-55.37"/>
<text text-anchor="middle" x="498.5" y="-25.7" font-family="Times,serif" font-size="14.00">. &#45;&gt; start_state</text>
</g>
<!-- node_3&#45;&gt;node_4 -->
<g id="edge6" class="edge">
<title>node_3&#45;&gt;node_4</title>
<path fill="none" stroke="blue" stroke-width="2" d="M547.43,-138.18C595.66,-133.15 671.49,-121.95 733,-98 735.46,-97.04 737.98,-96 740.5,-94.92"/>
<polygon fill="blue" stroke="blue" stroke-width="2" points="740.31,-98.84 747.99,-91.55 737.44,-92.46 740.31,-98.84"/>
</g>
<!-- node_5&#45;&gt;node_4 -->
<g id="edge7" class="edge">
<title>node_5&#45;&gt;node_4</title>
<path fill="none" stroke="blue" stroke-width="2" d="M677.99,-77C701.07,-77 722.55,-77 739.56,-77"/>
<polygon fill="blue" stroke="blue" stroke-width="2" points="737.56,-80.5 747.56,-77 737.56,-73.5 737.56,-80.5"/>
<text text-anchor="middle" x="714.25" y="-80.2" font-family="Times,serif" font-size="14.00">. &#45;&gt; **</text>
</g>
</g>
</svg>
