<?xml version="1.0" encoding="UTF-8" standalone="no"?>
<!DOCTYPE svg PUBLIC "-//W3C//DTD SVG 1.1//EN"
 "http://www.w3.org/Graphics/SVG/1.1/DTD/svg11.dtd">
<!-- Generated by graphviz version 12.2.1 (20241206.2353)
 -->
<!-- Title: Outer_Diagram Pages: 1 -->
<svg width="153pt" height="324pt"
 viewBox="0.00 0.00 152.75 323.50" xmlns="http://www.w3.org/2000/svg" xmlns:xlink="http://www.w3.org/1999/xlink">
<g id="graph0" class="graph" transform="scale(1 1) rotate(0) translate(4 319.5)">
<title>Outer_Diagram</title>
<polygon fill="white" stroke="none" points="-4,4 -4,-319.5 148.75,-319.5 148.75,4 -4,4"/>
<text text-anchor="middle" x="72.38" y="-298.2" font-family="Times,serif" font-size="14.00">Outer_Diagram</text>
<!-- node_0 -->
<g id="node1" class="node">
<title>node_0</title>
<polygon fill="#ececff" stroke="#9370db" points="104.88,-291 50.88,-291 50.88,-255 104.88,-255 104.88,-291"/>
<text text-anchor="middle" x="77.88" y="-267.95" font-family="Times,serif" font-size="14.00">Start</text>
</g>
<!-- node_1 -->
<g id="node2" class="node">
<title>node_1</title>
<path fill="#ececff" stroke="#9370db" d="M79.75,-199.23C79.75,-201.03 61.88,-202.5 39.88,-202.5 17.87,-202.5 0,-201.03 0,-199.23 0,-199.23 0,-169.77 0,-169.77 0,-167.97 17.87,-166.5 39.88,-166.5 61.88,-166.5 79.75,-167.97 79.75,-169.77 79.75,-169.77 79.75,-199.23 79.75,-199.23"/>
<path fill="none" stroke="#9370db" d="M79.75,-199.23C79.75,-197.42 61.88,-195.95 39.88,-195.95 17.87,-195.95 0,-197.42 0,-199.23"/>
<text text-anchor="middle" x="39.88" y="-179.45" font-family="Times,serif" font-size="14.00">State[input]</text>
</g>
<!-- node_0&#45;&gt;node_1 -->
<g id="edge1" class="edge">
<title>node_0&#45;&gt;node_1</title>
<path fill="none" stroke="black" stroke-dasharray="5,2" d="M59.04,-254.56C54.45,-249.35 50.03,-243.32 47.12,-237 43.91,-230 42.03,-221.95 40.96,-214.32"/>
<polygon fill="black" stroke="black" points="44.45,-214.02 40,-204.4 37.48,-214.69 44.45,-214.02"/>
<text text-anchor="middle" x="74.5" y="-223.7" font-family="Times,serif" font-size="14.00">input &#45;&gt; 0</text>
</g>
<!-- node_2 -->
<g id="node3" class="node">
<title>node_2</title>
<polygon fill="#ececff" stroke="#9370db" points="144.75,-114 11,-114 11,-73 144.75,-73 144.75,-114"/>
<text text-anchor="middle" x="77.88" y="-96.7" font-family="Times,serif" font-size="14.00">Inner[ Diagram(Inner</text>
<text text-anchor="middle" x="77.88" y="-80.2" font-family="Times,serif" font-size="14.00">with break) ]</text>
</g>
<!-- node_0&#45;&gt;node_2 -->
<g id="edge3" class="edge">
<title>node_0&#45;&gt;node_2</title>
<path fill="none" stroke="blue" stroke-width="2" d="M92.84,-254.57C96.52,-249.26 99.96,-243.19 101.88,-237 115.69,-192.43 114.98,-176.79 101.88,-132 101.12,-129.43 100.14,-126.88 98.99,-124.37"/>
<polygon fill="blue" stroke="blue" stroke-width="2" points="102.91,-124.25 95.05,-117.15 96.77,-127.6 102.91,-124.25"/>
<text text-anchor="middle" x="127.35" y="-179.45" font-family="Times,serif" font-size="14.00">. &#45;&gt; _</text>
</g>
<!-- node_1&#45;&gt;node_2 -->
<g id="edge2" class="edge">
<title>node_1&#45;&gt;node_2</title>
<path fill="none" stroke="black" stroke-dasharray="5,2" d="M41.39,-166.23C42.76,-155.95 45.33,-142.84 50.12,-132 51.37,-129.18 52.86,-126.37 54.5,-123.63"/>
<polygon fill="black" stroke="black" points="57.37,-125.63 60.02,-115.37 51.55,-121.74 57.37,-125.63"/>
<text text-anchor="middle" x="76" y="-135.2" font-family="Times,serif" font-size="14.00">. &#45;&gt; input</text>
</g>
<!-- node_3 -->
<g id="node4" class="node">
<title>node_3</title>
<polygon fill="#ececff" stroke="#9370db" points="104.88,-36 50.88,-36 50.88,0 104.88,0 104.88,-36"/>
<text text-anchor="middle" x="77.88" y="-12.95" font-family="Times,serif" font-size="14.00">End</text>
</g>
<!-- node_2&#45;&gt;node_3 -->
<g id="edge4" class="edge">
<title>node_2&#45;&gt;node_3</title>
<path fill="none" stroke="blue" stroke-width="2" d="M77.88,-72.8C77.88,-65.06 77.88,-56.01 77.88,-47.57"/>
<polygon fill="blue" stroke="blue" stroke-width="2" points="81.38,-49.27 77.88,-39.27 74.38,-49.27 81.38,-49.27"/>
</g>
</g>
</svg>
