<?xml version="1.0" encoding="UTF-8" standalone="no"?>
<!DOCTYPE svg PUBLIC "-//W3C//DTD SVG 1.1//EN"
 "http://www.w3.org/Graphics/SVG/1.1/DTD/svg11.dtd">
<!-- Generated by graphviz version 12.2.1 (20241206.2353)
 -->
<!-- Title: edge_types Pages: 1 -->
<svg width="816pt" height="193pt"
 viewBox="0.00 0.00 816.00 192.50" xmlns="http://www.w3.org/2000/svg" xmlns:xlink="http://www.w3.org/1999/xlink">
<g id="graph0" class="graph" transform="scale(1 1) rotate(0) translate(4 188.5)">
<title>edge_types</title>
<polygon fill="white" stroke="none" points="-4,4 -4,-188.5 812,-188.5 812,4 -4,4"/>
<text text-anchor="middle" x="404" y="-167.2" font-family="Times,serif" font-size="14.00">edge_types</text>
<!-- node_0 -->
<g id="node1" class="node">
<title>node_0</title>
<polygon fill="#ececff" stroke="#9370db" points="208.25,-97.5 91,-97.5 91,-56.5 208.25,-56.5 208.25,-97.5"/>
<text text-anchor="middle" x="149.62" y="-80.2" font-family="Times,serif" font-size="14.00">Conditional_node[</text>
<text text-anchor="middle" x="149.62" y="-63.7" font-family="Times,serif" font-size="14.00">plus1 ]</text>
</g>
<!-- node_3 -->
<g id="node4" class="node">
<title>node_3</title>
<polygon fill="#ececff" stroke="#9370db" points="548.88,-160 451.12,-160 451.12,-124 548.88,-124 548.88,-160"/>
<text text-anchor="middle" x="500" y="-136.95" font-family="Times,serif" font-size="14.00">Default_option</text>
</g>
<!-- node_0&#45;&gt;node_3 -->
<g id="edge3" class="edge">
<title>node_0&#45;&gt;node_3</title>
<path fill="none" stroke="blue" stroke-width="2" d="M208.71,-93.7C214.61,-95.23 220.54,-96.69 226.25,-98 298.92,-114.68 383.9,-127.32 439.45,-134.69"/>
<polygon fill="blue" stroke="blue" stroke-width="2" points="437.47,-137.96 447.84,-135.78 438.38,-131.02 437.47,-137.96"/>
</g>
<!-- node_5 -->
<g id="node6" class="node">
<title>node_5</title>
<polygon fill="#ececff" stroke="#9370db" points="680.5,-105.75 319.5,-105.75 319.5,-48.25 680.5,-48.25 680.5,-105.75"/>
<text text-anchor="middle" x="500" y="-88.45" font-family="Times,serif" font-size="14.00">anon_from_Option1_to_Parallel_end[</text>
<text text-anchor="middle" x="500" y="-71.95" font-family="Times,serif" font-size="14.00">Diagram(anon_from_Option1_to_Parallel_end)@0x117e4b8c0</text>
<text text-anchor="middle" x="500" y="-55.45" font-family="Times,serif" font-size="14.00">]</text>
</g>
<!-- node_0&#45;&gt;node_5 -->
<g id="edge4" class="edge">
<title>node_0&#45;&gt;node_5</title>
<path fill="none" stroke="blue" stroke-width="2" d="M208.54,-77C236.42,-77 271.61,-77 307.8,-77"/>
<polygon fill="blue" stroke="blue" stroke-width="2" points="306.02,-80.5 316.02,-77 306.02,-73.5 306.02,-80.5"/>
<text text-anchor="middle" x="263.88" y="-80.2" font-family="Times,serif" font-size="14.00">?(mod2)</text>
</g>
<!-- node_1 -->
<g id="node2" class="node">
<title>node_1</title>
<polygon fill="#ececff" stroke="#9370db" points="54,-55 0,-55 0,-19 54,-19 54,-55"/>
<text text-anchor="middle" x="27" y="-31.95" font-family="Times,serif" font-size="14.00">Start</text>
</g>
<!-- node_1&#45;&gt;node_0 -->
<g id="edge5" class="edge">
<title>node_1&#45;&gt;node_0</title>
<path fill="none" stroke="blue" stroke-width="2" d="M54.47,-45.78C62.15,-48.32 70.91,-51.23 79.92,-54.22"/>
<polygon fill="blue" stroke="blue" stroke-width="2" points="77.1,-56.97 87.69,-56.79 79.3,-50.32 77.1,-56.97"/>
</g>
<!-- node_2 -->
<g id="node3" class="node">
<title>node_2</title>
<path fill="#ececff" stroke="#9370db" d="M301.5,-32.73C301.5,-34.53 284.64,-36 263.88,-36 243.11,-36 226.25,-34.53 226.25,-32.73 226.25,-32.73 226.25,-3.27 226.25,-3.27 226.25,-1.47 243.11,0 263.88,0 284.64,0 301.5,-1.47 301.5,-3.27 301.5,-3.27 301.5,-32.73 301.5,-32.73"/>
<path fill="none" stroke="#9370db" d="M301.5,-32.73C301.5,-30.92 284.64,-29.45 263.88,-29.45 243.11,-29.45 226.25,-30.92 226.25,-32.73"/>
<text text-anchor="middle" x="263.88" y="-12.95" font-family="Times,serif" font-size="14.00">State[start]</text>
</g>
<!-- node_1&#45;&gt;node_2 -->
<g id="edge1" class="edge">
<title>node_1&#45;&gt;node_2</title>
<path fill="none" stroke="black" stroke-dasharray="5,2" d="M54.49,-34.86C93.28,-31.72 166.18,-25.82 214.65,-21.9"/>
<polygon fill="black" stroke="black" points="214.91,-25.39 224.59,-21.1 214.34,-18.41 214.91,-25.39"/>
</g>
<!-- node_4 -->
<g id="node5" class="node">
<title>node_4</title>
<polygon fill="#ececff" stroke="#9370db" points="808,-95 754,-95 754,-59 808,-59 808,-95"/>
<text text-anchor="middle" x="781" y="-71.95" font-family="Times,serif" font-size="14.00">End</text>
</g>
<!-- node_2&#45;&gt;node_4 -->
<g id="edge2" class="edge">
<title>node_2&#45;&gt;node_4</title>
<path fill="none" stroke="black" stroke-dasharray="5,2" d="M301.8,-12.5C375.34,-2.83 544.72,13.03 680.5,-22.5 703.49,-28.52 726.91,-40.97 745.25,-52.45"/>
<polygon fill="black" stroke="black" points="743.31,-55.37 753.61,-57.86 747.12,-49.49 743.31,-55.37"/>
<text text-anchor="middle" x="500" y="-25.7" font-family="Times,serif" font-size="14.00">. &#45;&gt; start_state</text>
</g>
<!-- node_3&#45;&gt;node_4 -->
<g id="edge6" class="edge">
<title>node_3&#45;&gt;node_4</title>
<path fill="none" stroke="blue" stroke-width="2" d="M549.25,-138.24C597.79,-133.26 674.11,-122.09 736,-98 738.46,-97.04 740.98,-96 743.5,-94.92"/>
<polygon fill="blue" stroke="blue" stroke-width="2" points="743.31,-98.84 750.99,-91.55 740.44,-92.46 743.31,-98.84"/>
</g>
<!-- node_5&#45;&gt;node_4 -->
<g id="edge7" class="edge">
<title>node_5&#45;&gt;node_4</title>
<path fill="none" stroke="blue" stroke-width="2" d="M680.85,-77C703.98,-77 725.49,-77 742.53,-77"/>
<polygon fill="blue" stroke="blue" stroke-width="2" points="740.54,-80.5 750.54,-77 740.54,-73.5 740.54,-80.5"/>
<text text-anchor="middle" x="717.25" y="-80.2" font-family="Times,serif" font-size="14.00">. &#45;&gt; **</text>
</g>
</g>
</svg>
