<?xml version="1.0" encoding="UTF-8" standalone="no"?>
<!DOCTYPE svg PUBLIC "-//W3C//DTD SVG 1.1//EN"
 "http://www.w3.org/Graphics/SVG/1.1/DTD/svg11.dtd">
<!-- Generated by graphviz version 12.2.1 (20241206.2353)
 -->
<!-- Title: edge_types Pages: 1 -->
<svg width="817pt" height="193pt"
 viewBox="0.00 0.00 816.75 192.50" xmlns="http://www.w3.org/2000/svg" xmlns:xlink="http://www.w3.org/1999/xlink">
<g id="graph0" class="graph" transform="scale(1 1) rotate(0) translate(4 188.5)">
<title>edge_types</title>
<polygon fill="white" stroke="none" points="-4,4 -4,-188.5 812.75,-188.5 812.75,4 -4,4"/>
<text text-anchor="middle" x="404.38" y="-167.2" font-family="Times,serif" font-size="14.00">edge_types</text>
<!-- node_0 -->
<g id="node1" class="node">
<title>node_0</title>
<polygon fill="#ececff" stroke="#9370db" points="208.25,-97.5 91,-97.5 91,-56.5 208.25,-56.5 208.25,-97.5"/>
<text text-anchor="middle" x="149.62" y="-80.2" font-family="Times,serif" font-size="14.00">Conditional_node[</text>
<text text-anchor="middle" x="149.62" y="-63.7" font-family="Times,serif" font-size="14.00">plus1 ]</text>
</g>
<!-- node_3 -->
<g id="node4" class="node">
<title>node_3</title>
<polygon fill="#ececff" stroke="#9370db" points="549.25,-160 451.5,-160 451.5,-124 549.25,-124 549.25,-160"/>
<text text-anchor="middle" x="500.38" y="-136.95" font-family="Times,serif" font-size="14.00">Default_option</text>
</g>
<!-- node_0&#45;&gt;node_3 -->
<g id="edge3" class="edge">
<title>node_0&#45;&gt;node_3</title>
<path fill="none" stroke="blue" stroke-width="2" d="M208.71,-93.7C214.61,-95.23 220.54,-96.69 226.25,-98 299.02,-114.7 384.11,-127.34 439.74,-134.7"/>
<polygon fill="blue" stroke="blue" stroke-width="2" points="437.78,-137.97 448.15,-135.79 438.68,-131.03 437.78,-137.97"/>
</g>
<!-- node_5 -->
<g id="node6" class="node">
<title>node_5</title>
<polygon fill="#ececff" stroke="#9370db" points="681.25,-105.75 319.5,-105.75 319.5,-48.25 681.25,-48.25 681.25,-105.75"/>
<text text-anchor="middle" x="500.38" y="-88.45" font-family="Times,serif" font-size="14.00">anon_from_Option1_to_Parallel_end[</text>
<text text-anchor="middle" x="500.38" y="-71.95" font-family="Times,serif" font-size="14.00">Diagram(anon_from_Option1_to_Parallel_end)@0x123dcbb90</text>
<text text-anchor="middle" x="500.38" y="-55.45" font-family="Times,serif" font-size="14.00">]</text>
</g>
<!-- node_0&#45;&gt;node_5 -->
<g id="edge4" class="edge">
<title>node_0&#45;&gt;node_5</title>
<path fill="none" stroke="blue" stroke-width="2" d="M208.61,-77C236.51,-77 271.75,-77 307.97,-77"/>
<polygon fill="blue" stroke="blue" stroke-width="2" points="306.2,-80.5 316.2,-77 306.2,-73.5 306.2,-80.5"/>
<text text-anchor="middle" x="263.88" y="-80.2" font-family="Times,serif" font-size="14.00">?(mod2)</text>
</g>
<!-- node_1 -->
<g id="node2" class="node">
<title>node_1</title>
<polygon fill="#ececff" stroke="#9370db" points="54,-55 0,-55 0,-19 54,-19 54,-55"/>
<text text-anchor="middle" x="27" y="-31.95" font-family="Times,serif" font-size="14.00">Start</text>
</g>
<!-- node_1&#45;&gt;node_0 -->
<g id="edge5" class="edge">
<title>node_1&#45;&gt;node_0</title>
<path fill="none" stroke="blue" stroke-width="2" d="M54.47,-45.78C62.15,-48.32 70.91,-51.23 79.92,-54.22"/>
<polygon fill="blue" stroke="blue" stroke-width="2" points="77.1,-56.97 87.69,-56.79 79.3,-50.32 77.1,-56.97"/>
</g>
<!-- node_2 -->
<g id="node3" class="node">
<title>node_2</title>
<path fill="#ececff" stroke="#9370db" d="M301.5,-32.73C301.5,-34.53 284.64,-36 263.88,-36 243.11,-36 226.25,-34.53 226.25,-32.73 226.25,-32.73 226.25,-3.27 226.25,-3.27 226.25,-1.47 243.11,0 263.88,0 284.64,0 301.5,-1.47 301.5,-3.27 301.5,-3.27 301.5,-32.73 301.5,-32.73"/>
<path fill="none" stroke="#9370db" d="M301.5,-32.73C301.5,-30.92 284.64,-29.45 263.88,-29.45 243.11,-29.45 226.25,-30.92 226.25,-32.73"/>
<text text-anchor="middle" x="263.88" y="-12.95" font-family="Times,serif" font-size="14.00">State[start]</text>
</g>
<!-- node_1&#45;&gt;node_2 -->
<g id="edge1" class="edge">
<title>node_1&#45;&gt;node_2</title>
<path fill="none" stroke="black" stroke-dasharray="5,2" d="M54.49,-34.86C93.28,-31.72 166.18,-25.82 214.65,-21.9"/>
<polygon fill="black" stroke="black" points="214.91,-25.39 224.59,-21.1 214.34,-18.41 214.91,-25.39"/>
</g>
<!-- node_4 -->
<g id="node5" class="node">
<title>node_4</title>
<polygon fill="#ececff" stroke="#9370db" points="808.75,-95 754.75,-95 754.75,-59 808.75,-59 808.75,-95"/>
<text text-anchor="middle" x="781.75" y="-71.95" font-family="Times,serif" font-size="14.00">End</text>
</g>
<!-- node_2&#45;&gt;node_4 -->
<g id="edge2" class="edge">
<title>node_2&#45;&gt;node_4</title>
<path fill="none" stroke="black" stroke-dasharray="5,2" d="M301.87,-12.49C375.54,-2.8 545.22,13.1 681.25,-22.5 704.24,-28.52 727.66,-40.97 746,-52.45"/>
<polygon fill="black" stroke="black" points="744.06,-55.37 754.36,-57.86 747.87,-49.49 744.06,-55.37"/>
<text text-anchor="middle" x="500.38" y="-25.7" font-family="Times,serif" font-size="14.00">. &#45;&gt; start_state</text>
</g>
<!-- node_3&#45;&gt;node_4 -->
<g id="edge6" class="edge">
<title>node_3&#45;&gt;node_4</title>
<path fill="none" stroke="blue" stroke-width="2" d="M549.7,-138.26C598.32,-133.29 674.77,-122.13 736.75,-98 739.21,-97.04 741.73,-96 744.25,-94.92"/>
<polygon fill="blue" stroke="blue" stroke-width="2" points="744.06,-98.84 751.74,-91.55 741.19,-92.46 744.06,-98.84"/>
</g>
<!-- node_5&#45;&gt;node_4 -->
<g id="edge7" class="edge">
<title>node_5&#45;&gt;node_4</title>
<path fill="none" stroke="blue" stroke-width="2" d="M681.47,-77C704.63,-77 726.17,-77 743.23,-77"/>
<polygon fill="blue" stroke="blue" stroke-width="2" points="741.26,-80.5 751.26,-77 741.26,-73.5 741.26,-80.5"/>
<text text-anchor="middle" x="718" y="-80.2" font-family="Times,serif" font-size="14.00">. &#45;&gt; **</text>
</g>
</g>
</svg>
