<?xml version="1.0" encoding="UTF-8" standalone="no"?>
<!DOCTYPE svg PUBLIC "-//W3C//DTD SVG 1.1//EN"
 "http://www.w3.org/Graphics/SVG/1.1/DTD/svg11.dtd">
<!-- Generated by graphviz version 12.2.1 (20241206.2353)
 -->
<!-- Title: edge_types Pages: 1 -->
<svg width="815pt" height="193pt"
 viewBox="0.00 0.00 814.50 192.50" xmlns="http://www.w3.org/2000/svg" xmlns:xlink="http://www.w3.org/1999/xlink">
<g id="graph0" class="graph" transform="scale(1 1) rotate(0) translate(4 188.5)">
<title>edge_types</title>
<polygon fill="white" stroke="none" points="-4,4 -4,-188.5 810.5,-188.5 810.5,4 -4,4"/>
<text text-anchor="middle" x="403.25" y="-167.2" font-family="Times,serif" font-size="14.00">edge_types</text>
<!-- node_0 -->
<g id="node1" class="node">
<title>node_0</title>
<polygon fill="#ececff" stroke="#9370db" points="208.25,-97.5 91,-97.5 91,-56.5 208.25,-56.5 208.25,-97.5"/>
<text text-anchor="middle" x="149.62" y="-80.2" font-family="Times,serif" font-size="14.00">Conditional_node[</text>
<text text-anchor="middle" x="149.62" y="-63.7" font-family="Times,serif" font-size="14.00">plus1 ]</text>
</g>
<!-- node_3 -->
<g id="node4" class="node">
<title>node_3</title>
<polygon fill="#ececff" stroke="#9370db" points="548.12,-160 450.38,-160 450.38,-124 548.12,-124 548.12,-160"/>
<text text-anchor="middle" x="499.25" y="-136.95" font-family="Times,serif" font-size="14.00">Default_option</text>
</g>
<!-- node_0&#45;&gt;node_3 -->
<g id="edge3" class="edge">
<title>node_0&#45;&gt;node_3</title>
<path fill="none" stroke="blue" stroke-width="2" d="M208.71,-93.7C214.61,-95.23 220.54,-96.69 226.25,-98 298.72,-114.63 383.47,-127.29 438.86,-134.67"/>
<polygon fill="blue" stroke="blue" stroke-width="2" points="436.85,-137.93 447.22,-135.76 437.76,-130.99 436.85,-137.93"/>
</g>
<!-- node_5 -->
<g id="node6" class="node">
<title>node_5</title>
<polygon fill="#ececff" stroke="#9370db" points="679,-105.75 319.5,-105.75 319.5,-48.25 679,-48.25 679,-105.75"/>
<text text-anchor="middle" x="499.25" y="-88.45" font-family="Times,serif" font-size="14.00">anon_from_Option1_to_Parallel_end[</text>
<text text-anchor="middle" x="499.25" y="-71.95" font-family="Times,serif" font-size="14.00">Diagram(anon_from_Option1_to_Parallel_end)@0x118dcd1f0</text>
<text text-anchor="middle" x="499.25" y="-55.45" font-family="Times,serif" font-size="14.00">]</text>
</g>
<!-- node_0&#45;&gt;node_5 -->
<g id="edge4" class="edge">
<title>node_0&#45;&gt;node_5</title>
<path fill="none" stroke="blue" stroke-width="2" d="M208.42,-77C236.33,-77 271.58,-77 307.8,-77"/>
<polygon fill="blue" stroke="blue" stroke-width="2" points="306.04,-80.5 316.04,-77 306.04,-73.5 306.04,-80.5"/>
<text text-anchor="middle" x="263.88" y="-80.2" font-family="Times,serif" font-size="14.00">?(mod2)</text>
</g>
<!-- node_1 -->
<g id="node2" class="node">
<title>node_1</title>
<polygon fill="#ececff" stroke="#9370db" points="54,-55 0,-55 0,-19 54,-19 54,-55"/>
<text text-anchor="middle" x="27" y="-31.95" font-family="Times,serif" font-size="14.00">Start</text>
</g>
<!-- node_1&#45;&gt;node_0 -->
<g id="edge5" class="edge">
<title>node_1&#45;&gt;node_0</title>
<path fill="none" stroke="blue" stroke-width="2" d="M54.47,-45.78C62.15,-48.32 70.91,-51.23 79.92,-54.22"/>
<polygon fill="blue" stroke="blue" stroke-width="2" points="77.1,-56.97 87.69,-56.79 79.3,-50.32 77.1,-56.97"/>
</g>
<!-- node_2 -->
<g id="node3" class="node">
<title>node_2</title>
<path fill="#ececff" stroke="#9370db" d="M301.5,-32.73C301.5,-34.53 284.64,-36 263.88,-36 243.11,-36 226.25,-34.53 226.25,-32.73 226.25,-32.73 226.25,-3.27 226.25,-3.27 226.25,-1.47 243.11,0 263.88,0 284.64,0 301.5,-1.47 301.5,-3.27 301.5,-3.27 301.5,-32.73 301.5,-32.73"/>
<path fill="none" stroke="#9370db" d="M301.5,-32.73C301.5,-30.92 284.64,-29.45 263.88,-29.45 243.11,-29.45 226.25,-30.92 226.25,-32.73"/>
<text text-anchor="middle" x="263.88" y="-12.95" font-family="Times,serif" font-size="14.00">State[start]</text>
</g>
<!-- node_1&#45;&gt;node_2 -->
<g id="edge1" class="edge">
<title>node_1&#45;&gt;node_2</title>
<path fill="none" stroke="black" stroke-dasharray="5,2" d="M54.49,-34.86C93.28,-31.72 166.18,-25.82 214.65,-21.9"/>
<polygon fill="black" stroke="black" points="214.91,-25.39 224.59,-21.1 214.34,-18.41 214.91,-25.39"/>
</g>
<!-- node_4 -->
<g id="node5" class="node">
<title>node_4</title>
<polygon fill="#ececff" stroke="#9370db" points="806.5,-95 752.5,-95 752.5,-59 806.5,-59 806.5,-95"/>
<text text-anchor="middle" x="779.5" y="-71.95" font-family="Times,serif" font-size="14.00">End</text>
</g>
<!-- node_2&#45;&gt;node_4 -->
<g id="edge2" class="edge">
<title>node_2&#45;&gt;node_4</title>
<path fill="none" stroke="black" stroke-dasharray="5,2" d="M301.95,-12.49C375.38,-2.85 543.88,12.86 679,-22.5 701.99,-28.52 725.41,-40.97 743.75,-52.45"/>
<polygon fill="black" stroke="black" points="741.81,-55.37 752.11,-57.86 745.62,-49.49 741.81,-55.37"/>
<text text-anchor="middle" x="499.25" y="-25.7" font-family="Times,serif" font-size="14.00">. &#45;&gt; start_state</text>
</g>
<!-- node_3&#45;&gt;node_4 -->
<g id="edge6" class="edge">
<title>node_3&#45;&gt;node_4</title>
<path fill="none" stroke="blue" stroke-width="2" d="M548.34,-138.21C596.72,-133.2 672.8,-122.02 734.5,-98 736.96,-97.04 739.48,-96 742,-94.92"/>
<polygon fill="blue" stroke="blue" stroke-width="2" points="741.81,-98.84 749.49,-91.55 738.94,-92.46 741.81,-98.84"/>
</g>
<!-- node_5&#45;&gt;node_4 -->
<g id="edge7" class="edge">
<title>node_5&#45;&gt;node_4</title>
<path fill="none" stroke="blue" stroke-width="2" d="M679.22,-77C702.37,-77 723.9,-77 740.96,-77"/>
<polygon fill="blue" stroke="blue" stroke-width="2" points="738.99,-80.5 748.99,-77 738.99,-73.5 738.99,-80.5"/>
<text text-anchor="middle" x="715.75" y="-80.2" font-family="Times,serif" font-size="14.00">. &#45;&gt; **</text>
</g>
</g>
</svg>
