<?xml version="1.0" encoding="UTF-8" standalone="no"?>
<!DOCTYPE svg PUBLIC "-//W3C//DTD SVG 1.1//EN"
 "http://www.w3.org/Graphics/SVG/1.1/DTD/svg11.dtd">
<!-- Generated by graphviz version 12.2.1 (20241206.2353)
 -->
<!-- Pages: 1 -->
<svg width="197pt" height="254pt"
 viewBox="0.00 0.00 197.00 254.00" xmlns="http://www.w3.org/2000/svg" xmlns:xlink="http://www.w3.org/1999/xlink">
<g id="graph0" class="graph" transform="scale(1 1) rotate(0) translate(4 250)">
<polygon fill="white" stroke="none" points="-4,4 -4,-250 193,-250 193,4 -4,4"/>
<!-- plus -->
<g id="node1" class="node">
<title>plus</title>
<polygon fill="#ececff" stroke="#9370db" points="54,-141 0,-141 0,-105 54,-105 54,-141"/>
<text text-anchor="middle" x="27" y="-117.95" font-family="Times,serif" font-size="14.00">plus</text>
</g>
<!-- End -->
<g id="node3" class="node">
<title>End</title>
<polygon fill="#ececff" stroke="#9370db" points="54,-36 0,-36 0,0 54,0 54,-36"/>
<text text-anchor="middle" x="27" y="-12.95" font-family="Times,serif" font-size="14.00">End</text>
</g>
<!-- plus&#45;&gt;End -->
<g id="edge1" class="edge">
<title>plus&#45;&gt;End</title>
<path fill="none" stroke="black" d="M27,-104.53C27,-88.97 27,-65.92 27,-47.66"/>
<polygon fill="black" stroke="black" points="30.5,-47.73 27,-37.73 23.5,-47.73 30.5,-47.73"/>
<text text-anchor="middle" x="94.88" y="-73.7" font-family="Times,serif" font-size="14.00">type=DiagramType.flow</text>
<text text-anchor="middle" x="94.88" y="-57.2" font-family="Times,serif" font-size="14.00">mapping={0: (&#39;.&#39;,)}</text>
</g>
<!-- Start -->
<g id="node2" class="node">
<title>Start</title>
<polygon fill="#ececff" stroke="#9370db" points="54,-246 0,-246 0,-210 54,-210 54,-246"/>
<text text-anchor="middle" x="27" y="-222.95" font-family="Times,serif" font-size="14.00">Start</text>
</g>
<!-- Start&#45;&gt;plus -->
<g id="edge2" class="edge">
<title>Start&#45;&gt;plus</title>
<path fill="none" stroke="black" d="M27,-209.53C27,-193.97 27,-170.92 27,-152.66"/>
<polygon fill="black" stroke="black" points="30.5,-152.73 27,-142.73 23.5,-152.73 30.5,-152.73"/>
<text text-anchor="middle" x="108" y="-178.7" font-family="Times,serif" font-size="14.00">type=DiagramType.flow</text>
<text text-anchor="middle" x="108" y="-162.2" font-family="Times,serif" font-size="14.00">mapping={&#39;x&#39;: (&#39;a&#39;,), &#39;y&#39;: (&#39;b&#39;,)}</text>
</g>
</g>
</svg>
