<?xml version="1.0" encoding="UTF-8" standalone="no"?>
<!DOCTYPE svg PUBLIC "-//W3C//DTD SVG 1.1//EN"
 "http://www.w3.org/Graphics/SVG/1.1/DTD/svg11.dtd">
<!-- Generated by graphviz version 12.2.1 (20241206.2353)
 -->
<!-- Title: Remember Input Pages: 1 -->
<svg width="503pt" height="231pt"
 viewBox="0.00 0.00 502.50 230.50" xmlns="http://www.w3.org/2000/svg" xmlns:xlink="http://www.w3.org/1999/xlink">
<g id="graph0" class="graph" transform="scale(1 1) rotate(0) translate(4 226.5)">
<title>Remember Input</title>
<polygon fill="white" stroke="none" points="-4,4 -4,-226.5 498.5,-226.5 498.5,4 -4,4"/>
<text text-anchor="middle" x="247.25" y="-205.2" font-family="Times,serif" font-size="14.00">Remember Input</text>
<!-- node_0 -->
<g id="node1" class="node">
<title>node_0</title>
<polygon fill="#ececff" stroke="#9370db" points="308.12,-198 200.62,-198 200.62,-162 308.12,-162 308.12,-198"/>
<text text-anchor="middle" x="254.38" y="-174.95" font-family="Times,serif" font-size="14.00">square[ Pow(2) ]</text>
</g>
<!-- node_3 -->
<g id="node4" class="node">
<title>node_3</title>
<polygon fill="#ececff" stroke="#9370db" points="494.5,-113 440.5,-113 440.5,-77 494.5,-77 494.5,-113"/>
<text text-anchor="middle" x="467.5" y="-89.95" font-family="Times,serif" font-size="14.00">End</text>
</g>
<!-- node_0&#45;&gt;node_3 -->
<g id="edge4" class="edge">
<title>node_0&#45;&gt;node_3</title>
<path fill="none" stroke="blue" stroke-width="2" d="M308.32,-172.91C342.49,-166.72 387.03,-155.55 422.5,-136 429.79,-131.98 436.81,-126.49 443.02,-120.83"/>
<polygon fill="blue" stroke="blue" stroke-width="2" points="444.04,-124.72 448.76,-115.24 439.15,-119.7 444.04,-124.72"/>
<text text-anchor="middle" x="374.5" y="-171.68" font-family="Times,serif" font-size="14.00">. &#45;&gt; square_result</text>
</g>
<!-- node_1 -->
<g id="node2" class="node">
<title>node_1</title>
<polygon fill="#ececff" stroke="#9370db" points="54,-144 0,-144 0,-108 54,-108 54,-144"/>
<text text-anchor="middle" x="27" y="-120.95" font-family="Times,serif" font-size="14.00">Start</text>
</g>
<!-- node_1&#45;&gt;node_0 -->
<g id="edge5" class="edge">
<title>node_1&#45;&gt;node_0</title>
<path fill="none" stroke="blue" stroke-width="2" d="M54.06,-139.83C59.85,-142.51 66.04,-145.07 72,-147 110.06,-159.3 154.19,-167.46 189.38,-172.58"/>
<polygon fill="blue" stroke="blue" stroke-width="2" points="187.09,-175.8 197.48,-173.72 188.07,-168.86 187.09,-175.8"/>
<text text-anchor="middle" x="127.12" y="-174.18" font-family="Times,serif" font-size="14.00">?(is_b_even): b &#45;&gt; a</text>
</g>
<!-- node_2 -->
<g id="node3" class="node">
<title>node_2</title>
<path fill="#ececff" stroke="#9370db" d="M295.75,-140.73C295.75,-142.53 277.21,-144 254.38,-144 231.54,-144 213,-142.53 213,-140.73 213,-140.73 213,-111.27 213,-111.27 213,-109.47 231.54,-108 254.38,-108 277.21,-108 295.75,-109.47 295.75,-111.27 295.75,-111.27 295.75,-140.73 295.75,-140.73"/>
<path fill="none" stroke="#9370db" d="M295.75,-140.73C295.75,-138.92 277.21,-137.45 254.38,-137.45 231.54,-137.45 213,-138.92 213,-140.73"/>
<text text-anchor="middle" x="254.38" y="-120.95" font-family="Times,serif" font-size="14.00">State[init_a]</text>
</g>
<!-- node_1&#45;&gt;node_2 -->
<g id="edge1" class="edge">
<title>node_1&#45;&gt;node_2</title>
<path fill="none" stroke="black" stroke-dasharray="5,2" d="M54.29,-126C90.26,-126 155.57,-126 201.56,-126"/>
<polygon fill="black" stroke="black" points="201.29,-129.5 211.29,-126 201.29,-122.5 201.29,-129.5"/>
<text text-anchor="middle" x="127.12" y="-129.2" font-family="Times,serif" font-size="14.00">a &#45;&gt; 0</text>
</g>
<!-- node_5 -->
<g id="node6" class="node">
<title>node_5</title>
<polygon fill="#ececff" stroke="#9370db" points="303.25,-90 205.5,-90 205.5,-54 303.25,-54 303.25,-90"/>
<text text-anchor="middle" x="254.38" y="-66.95" font-family="Times,serif" font-size="14.00">cube[ Pow(3) ]</text>
</g>
<!-- node_1&#45;&gt;node_5 -->
<g id="edge6" class="edge">
<title>node_1&#45;&gt;node_5</title>
<path fill="none" stroke="blue" stroke-width="2" d="M54.09,-112.53C59.88,-109.91 66.06,-107.4 72,-105.5 111.77,-92.79 158.08,-84.34 193.95,-79.1"/>
<polygon fill="blue" stroke="blue" stroke-width="2" points="192.8,-82.8 202.21,-77.94 191.82,-75.87 192.8,-82.8"/>
<text text-anchor="middle" x="127.12" y="-108.7" font-family="Times,serif" font-size="14.00">b &#45;&gt; a</text>
</g>
<!-- node_2&#45;&gt;node_3 -->
<g id="edge2" class="edge">
<title>node_2&#45;&gt;node_3</title>
<path fill="none" stroke="black" stroke-dasharray="5,2" d="M296.08,-120.02C334.47,-114.39 391.53,-106.01 428.87,-100.53"/>
<polygon fill="black" stroke="black" points="429.37,-103.99 438.76,-99.07 428.35,-97.06 429.37,-103.99"/>
<text text-anchor="middle" x="374.5" y="-118.29" font-family="Times,serif" font-size="14.00">. &#45;&gt; init_a</text>
</g>
<!-- node_4 -->
<g id="node5" class="node">
<title>node_4</title>
<path fill="#ececff" stroke="#9370db" d="M308.5,-32.73C308.5,-34.53 284.24,-36 254.38,-36 224.51,-36 200.25,-34.53 200.25,-32.73 200.25,-32.73 200.25,-3.27 200.25,-3.27 200.25,-1.47 224.51,0 254.38,0 284.24,0 308.5,-1.47 308.5,-3.27 308.5,-3.27 308.5,-32.73 308.5,-32.73"/>
<path fill="none" stroke="#9370db" d="M308.5,-32.73C308.5,-30.92 284.24,-29.45 254.38,-29.45 224.51,-29.45 200.25,-30.92 200.25,-32.73"/>
<text text-anchor="middle" x="254.38" y="-12.95" font-family="Times,serif" font-size="14.00">State[remember]</text>
</g>
<!-- node_4&#45;&gt;node_3 -->
<g id="edge3" class="edge">
<title>node_4&#45;&gt;node_3</title>
<path fill="none" stroke="black" stroke-dasharray="5,2" d="M308.7,-21.88C342.83,-26.12 387.16,-34.98 422.5,-53.5 430.05,-57.45 437.23,-63.07 443.52,-68.9"/>
<polygon fill="black" stroke="black" points="440.87,-71.2 450.42,-75.77 445.8,-66.23 440.87,-71.2"/>
<text text-anchor="middle" x="374.5" y="-56.7" font-family="Times,serif" font-size="14.00">. &#45;&gt; remember</text>
</g>
<!-- node_5&#45;&gt;node_3 -->
<g id="edge7" class="edge">
<title>node_5&#45;&gt;node_3</title>
<path fill="none" stroke="blue" stroke-width="2" d="M303.56,-72.93C337.09,-74.16 382.75,-77 422.5,-83.5 424.66,-83.85 426.87,-84.27 429.1,-84.72"/>
<polygon fill="blue" stroke="blue" stroke-width="2" points="426.67,-87.75 437.2,-86.58 428.23,-80.93 426.67,-87.75"/>
<text text-anchor="middle" x="374.5" y="-86.7" font-family="Times,serif" font-size="14.00">. &#45;&gt; cube_result</text>
</g>
</g>
</svg>
