<?xml version="1.0" encoding="UTF-8" standalone="no"?>
<!DOCTYPE svg PUBLIC "-//W3C//DTD SVG 1.1//EN"
 "http://www.w3.org/Graphics/SVG/1.1/DTD/svg11.dtd">
<!-- Generated by graphviz version 12.2.1 (20241206.2353)
 -->
<!-- Title: react_action Pages: 1 -->
<svg width="749pt" height="190pt"
 viewBox="0.00 0.00 749.00 190.16" xmlns="http://www.w3.org/2000/svg" xmlns:xlink="http://www.w3.org/1999/xlink">
<g id="graph0" class="graph" transform="scale(1 1) rotate(0) translate(4 186.16)">
<title>react_action</title>
<polygon fill="white" stroke="none" points="-4,4 -4,-186.16 745,-186.16 745,4 -4,4"/>
<text text-anchor="middle" x="370.5" y="-164.86" font-family="Times,serif" font-size="14.00">react_action</text>
<!-- node_0 -->
<g id="node1" class="node">
<title>node_0</title>
<polygon fill="#ececff" stroke="#9370db" points="402.25,-146 155.25,-146 155.25,-39 402.25,-39 402.25,-146"/>
<text text-anchor="middle" x="278.75" y="-128.7" font-family="Times,serif" font-size="14.00">react_tool_step[</text>
<text text-anchor="middle" x="278.75" y="-112.2" font-family="Times,serif" font-size="14.00">Chat(model=&#39;gpt&#45;4o&#45;mini&#39;,</text>
<text text-anchor="middle" x="278.75" y="-95.7" font-family="Times,serif" font-size="14.00">required_keys={&#39;thought&#39;},</text>
<text text-anchor="middle" x="278.75" y="-79.2" font-family="Times,serif" font-size="14.00">tools=wikipedia_search,run_python_code,</text>
<text text-anchor="middle" x="278.75" y="-62.7" font-family="Times,serif" font-size="14.00">call_function=True,</text>
<text text-anchor="middle" x="278.75" y="-46.2" font-family="Times,serif" font-size="14.00">seed=42) ]</text>
</g>
<!-- node_2 -->
<g id="node3" class="node">
<title>node_2</title>
<polygon fill="#ececff" stroke="#9370db" points="650,-41 532.75,-41 532.75,0 650,0 650,-41"/>
<text text-anchor="middle" x="591.38" y="-23.7" font-family="Times,serif" font-size="14.00">format_cot[</text>
<text text-anchor="middle" x="591.38" y="-7.2" font-family="Times,serif" font-size="14.00">react_cot_format ]</text>
</g>
<!-- node_0&#45;&gt;node_2 -->
<g id="edge1" class="edge">
<title>node_0&#45;&gt;node_2</title>
<path fill="none" stroke="black" d="M402.52,-64.04C442.91,-54.68 486.39,-44.6 521.33,-36.5"/>
<polygon fill="black" stroke="black" points="521.93,-39.96 530.88,-34.29 520.35,-33.14 521.93,-39.96"/>
<text text-anchor="middle" x="467.5" y="-144.36" font-family="Times,serif" font-size="14.00">content.name &#45;&gt;</text>
<text text-anchor="middle" x="467.5" y="-127.86" font-family="Times,serif" font-size="14.00">tool_name,</text>
<text text-anchor="middle" x="467.5" y="-111.36" font-family="Times,serif" font-size="14.00">content.input &#45;&gt;</text>
<text text-anchor="middle" x="467.5" y="-94.86" font-family="Times,serif" font-size="14.00">input,</text>
<text text-anchor="middle" x="467.5" y="-78.36" font-family="Times,serif" font-size="14.00">content.output &#45;&gt;</text>
<text text-anchor="middle" x="467.5" y="-61.86" font-family="Times,serif" font-size="14.00">output</text>
</g>
<!-- node_1 -->
<g id="node2" class="node">
<title>node_1</title>
<polygon fill="#ececff" stroke="#9370db" points="54,-52.5 0,-52.5 0,-16.5 54,-16.5 54,-52.5"/>
<text text-anchor="middle" x="27" y="-29.45" font-family="Times,serif" font-size="14.00">Start</text>
</g>
<!-- node_1&#45;&gt;node_0 -->
<g id="edge2" class="edge">
<title>node_1&#45;&gt;node_0</title>
<path fill="none" stroke="black" d="M54.26,-40.6C76.29,-45.72 109.58,-53.45 143.78,-61.39"/>
<polygon fill="black" stroke="black" points="142.9,-64.78 153.43,-63.63 144.48,-57.96 142.9,-64.78"/>
<text text-anchor="middle" x="104.62" y="-61.51" font-family="Times,serif" font-size="14.00">. &#45;&gt; thought</text>
</g>
<!-- node_1&#45;&gt;node_2 -->
<g id="edge3" class="edge">
<title>node_1&#45;&gt;node_2</title>
<path fill="none" stroke="black" d="M54.16,-28.76C79.77,-23.46 119.97,-15.96 155.25,-13 284.1,-2.19 435.13,-9.19 521.1,-15.01"/>
<polygon fill="black" stroke="black" points="520.81,-18.5 531.03,-15.7 521.29,-11.52 520.81,-18.5"/>
<text text-anchor="middle" x="278.75" y="-16.2" font-family="Times,serif" font-size="14.00">. &#45;&gt; thought</text>
</g>
<!-- node_3 -->
<g id="node4" class="node">
<title>node_3</title>
<polygon fill="#ececff" stroke="#9370db" points="741,-38.5 687,-38.5 687,-2.5 741,-2.5 741,-38.5"/>
<text text-anchor="middle" x="714" y="-15.45" font-family="Times,serif" font-size="14.00">End</text>
</g>
<!-- node_2&#45;&gt;node_3 -->
<g id="edge4" class="edge">
<title>node_2&#45;&gt;node_3</title>
<path fill="none" stroke="black" d="M650.21,-20.5C658.83,-20.5 667.51,-20.5 675.55,-20.5"/>
<polygon fill="black" stroke="black" points="675.28,-24 685.28,-20.5 675.28,-17 675.28,-24"/>
</g>
</g>
</svg>
