<?xml version="1.0" encoding="UTF-8" standalone="no"?>
<!DOCTYPE svg PUBLIC "-//W3C//DTD SVG 1.1//EN"
 "http://www.w3.org/Graphics/SVG/1.1/DTD/svg11.dtd">
<!-- Generated by graphviz version 12.2.1 (20241206.2353)
 -->
<!-- Title: react_agent Pages: 1 -->
<svg width="833pt" height="240pt"
 viewBox="0.00 0.00 832.75 240.40" xmlns="http://www.w3.org/2000/svg" xmlns:xlink="http://www.w3.org/1999/xlink">
<g id="graph0" class="graph" transform="scale(1 1) rotate(0) translate(4 236.4)">
<title>react_agent</title>
<polygon fill="white" stroke="none" points="-4,4 -4,-236.4 828.75,-236.4 828.75,4 -4,4"/>
<text text-anchor="middle" x="412.38" y="-215.1" font-family="Times,serif" font-size="14.00">react_agent</text>
<!-- node_0 -->
<g id="node1" class="node">
<title>node_0</title>
<polygon fill="#ececff" stroke="#9370db" points="54,-106 0,-106 0,-70 54,-70 54,-106"/>
<text text-anchor="middle" x="27" y="-82.95" font-family="Times,serif" font-size="14.00">Start</text>
</g>
<!-- node_1 -->
<g id="node2" class="node">
<title>node_1</title>
<path fill="#ececff" stroke="#9370db" d="M180.5,-75.73C180.5,-77.53 160.44,-79 135.75,-79 111.06,-79 91,-77.53 91,-75.73 91,-75.73 91,-46.27 91,-46.27 91,-44.47 111.06,-43 135.75,-43 160.44,-43 180.5,-44.47 180.5,-46.27 180.5,-46.27 180.5,-75.73 180.5,-75.73"/>
<path fill="none" stroke="#9370db" d="M180.5,-75.73C180.5,-73.92 160.44,-72.45 135.75,-72.45 111.06,-72.45 91,-73.92 91,-75.73"/>
<text text-anchor="middle" x="135.75" y="-55.95" font-family="Times,serif" font-size="14.00">State[history]</text>
</g>
<!-- node_0&#45;&gt;node_1 -->
<g id="edge1" class="edge">
<title>node_0&#45;&gt;node_1</title>
<path fill="none" stroke="black" stroke-dasharray="5,2" d="M54.39,-81.33C62.12,-79.37 70.87,-77.16 79.68,-74.93"/>
<polygon fill="black" stroke="black" points="80.5,-78.33 89.34,-72.49 78.78,-71.55 80.5,-78.33"/>
</g>
<!-- node_2 -->
<g id="node3" class="node">
<title>node_2</title>
<polygon fill="#ececff" stroke="#9370db" points="454.5,-152 292.25,-152 292.25,-78 454.5,-78 454.5,-152"/>
<text text-anchor="middle" x="373.38" y="-134.7" font-family="Times,serif" font-size="14.00">react_thought_step[</text>
<text text-anchor="middle" x="373.38" y="-118.2" font-family="Times,serif" font-size="14.00">Chat(model=&#39;gpt&#45;4o&#45;mini&#39;,</text>
<text text-anchor="middle" x="373.38" y="-101.7" font-family="Times,serif" font-size="14.00">output_schema=Thought,</text>
<text text-anchor="middle" x="373.38" y="-85.2" font-family="Times,serif" font-size="14.00">seed=42) ]</text>
</g>
<!-- node_0&#45;&gt;node_2 -->
<g id="edge6" class="edge">
<title>node_0&#45;&gt;node_2</title>
<path fill="none" stroke="blue" stroke-width="2" d="M54.45,-90.07C102.16,-93.81 204.72,-101.86 280.51,-107.8"/>
<polygon fill="blue" stroke="blue" stroke-width="2" points="278.7,-111.17 288.95,-108.46 279.25,-104.19 278.7,-111.17"/>
<text text-anchor="middle" x="135.75" y="-103.13" font-family="Times,serif" font-size="14.00">. &#45;&gt; _</text>
</g>
<!-- node_1&#45;&gt;node_2 -->
<g id="edge2" class="edge">
<title>node_1&#45;&gt;node_2</title>
<path fill="none" stroke="black" stroke-dasharray="5,2" d="M180.71,-67C207.85,-71.08 243.28,-77.08 274.25,-84.5 276.4,-85.01 278.57,-85.55 280.75,-86.11"/>
<polygon fill="black" stroke="black" points="279.73,-89.46 290.29,-88.63 281.52,-82.69 279.73,-89.46"/>
<text text-anchor="middle" x="236.38" y="-87.7" font-family="Times,serif" font-size="14.00">. &#45;&gt; messages</text>
</g>
<!-- node_5 -->
<g id="node6" class="node">
<title>node_5</title>
<polygon fill="#ececff" stroke="#9370db" points="824.75,-36 770.75,-36 770.75,0 824.75,0 824.75,-36"/>
<text text-anchor="middle" x="797.75" y="-12.95" font-family="Times,serif" font-size="14.00">End</text>
</g>
<!-- node_1&#45;&gt;node_5 -->
<g id="edge5" class="edge">
<title>node_1&#45;&gt;node_5</title>
<path fill="none" stroke="black" stroke-dasharray="5,2" d="M180.9,-54.9C186.81,-54.19 192.8,-53.54 198.5,-53 409.87,-33.15 664.38,-22.71 758.96,-19.29"/>
<polygon fill="black" stroke="black" points="759.08,-22.78 768.95,-18.93 758.83,-15.79 759.08,-22.78"/>
<text text-anchor="middle" x="524.62" y="-35.91" font-family="Times,serif" font-size="14.00">. &#45;&gt; history</text>
</g>
<!-- node_3 -->
<g id="node4" class="node">
<title>node_3</title>
<polygon fill="#ececff" stroke="#9370db" points="731.12,-201.75 597.38,-201.75 597.38,-144.25 731.12,-144.25 731.12,-201.75"/>
<text text-anchor="middle" x="664.25" y="-184.45" font-family="Times,serif" font-size="14.00">format_final_answer[</text>
<text text-anchor="middle" x="664.25" y="-167.95" font-family="Times,serif" font-size="14.00">format_final_answer</text>
<text text-anchor="middle" x="664.25" y="-151.45" font-family="Times,serif" font-size="14.00">]</text>
</g>
<!-- node_2&#45;&gt;node_3 -->
<g id="edge7" class="edge">
<title>node_2&#45;&gt;node_3</title>
<path fill="none" stroke="blue" stroke-width="2" d="M454.74,-139.71C460.72,-141.25 466.69,-142.71 472.5,-144 509.53,-152.25 551.12,-158.87 586,-163.7"/>
<polygon fill="blue" stroke="blue" stroke-width="2" points="583.69,-166.91 594.07,-164.79 584.63,-159.98 583.69,-166.91"/>
<text text-anchor="middle" x="524.62" y="-181.96" font-family="Times,serif" font-size="14.00">?(is_final_answer):</text>
<text text-anchor="middle" x="524.62" y="-165.46" font-family="Times,serif" font-size="14.00">content.text &#45;&gt; 0</text>
</g>
<!-- node_4 -->
<g id="node5" class="node">
<title>node_4</title>
<polygon fill="#ececff" stroke="#9370db" points="733.75,-105.75 594.75,-105.75 594.75,-48.25 733.75,-48.25 733.75,-105.75"/>
<text text-anchor="middle" x="664.25" y="-88.45" font-family="Times,serif" font-size="14.00">action[</text>
<text text-anchor="middle" x="664.25" y="-71.95" font-family="Times,serif" font-size="14.00">Diagram(react_action)</text>
<text text-anchor="middle" x="664.25" y="-55.45" font-family="Times,serif" font-size="14.00">]</text>
</g>
<!-- node_2&#45;&gt;node_4 -->
<g id="edge8" class="edge">
<title>node_2&#45;&gt;node_4</title>
<path fill="none" stroke="blue" stroke-width="2" d="M454.89,-109.03C492.09,-105.76 536.79,-101.11 576.75,-95 578.91,-94.67 581.1,-94.32 583.3,-93.95"/>
<polygon fill="blue" stroke="blue" stroke-width="2" points="582.21,-97.7 591.45,-92.53 581,-90.8 582.21,-97.7"/>
<text text-anchor="middle" x="524.62" y="-126.66" font-family="Times,serif" font-size="14.00">content.text &#45;&gt;</text>
<text text-anchor="middle" x="524.62" y="-110.16" font-family="Times,serif" font-size="14.00">thought</text>
</g>
<!-- node_3&#45;&gt;node_1 -->
<g id="edge3" class="edge">
<title>node_3&#45;&gt;node_1</title>
<path fill="none" stroke="black" stroke-dasharray="5,2" d="M597.11,-195.01C590.29,-196.63 583.42,-198.02 576.75,-199 450.54,-217.56 411.04,-207.5 292.25,-161 247.06,-143.31 237.64,-133.69 198.5,-105 189.87,-98.67 189.03,-95.46 180.5,-89 178.97,-87.84 177.39,-86.68 175.78,-85.53"/>
<polygon fill="black" stroke="black" points="177.84,-82.69 167.61,-79.91 173.87,-88.46 177.84,-82.69"/>
</g>
<!-- node_3&#45;&gt;node_5 -->
<g id="edge9" class="edge">
<title>node_3&#45;&gt;node_5</title>
<path fill="none" stroke="blue" stroke-width="2" d="M703.68,-143.84C714.01,-135.13 724.79,-125.17 733.75,-115 752.51,-93.7 769.76,-66.35 781.45,-46.12"/>
<polygon fill="blue" stroke="blue" stroke-width="2" points="783.66,-49.32 785.54,-38.9 777.57,-45.87 783.66,-49.32"/>
</g>
<!-- node_4&#45;&gt;node_1 -->
<g id="edge4" class="edge">
<title>node_4&#45;&gt;node_1</title>
<path fill="none" stroke="black" stroke-dasharray="5,2" d="M594.42,-65.75C588.45,-65.05 582.5,-64.45 576.75,-64 438.87,-53.22 275.95,-56.19 192.37,-58.85"/>
<polygon fill="black" stroke="black" points="192.26,-55.35 182.38,-59.18 192.49,-62.35 192.26,-55.35"/>
</g>
<!-- node_4&#45;&gt;node_2 -->
<g id="edge10" class="edge">
<title>node_4&#45;&gt;node_2</title>
<path fill="none" stroke="blue" stroke-width="2" d="M594.65,-69.26C558.05,-66.85 512.46,-66.58 472.5,-74.5 470.33,-74.93 468.15,-75.41 465.96,-75.93"/>
<polygon fill="blue" stroke="blue" stroke-width="2" points="466.67,-72.12 457.92,-78.09 468.49,-78.88 466.67,-72.12"/>
<text text-anchor="middle" x="524.62" y="-77.7" font-family="Times,serif" font-size="14.00">. &#45;&gt; _</text>
</g>
</g>
</svg>
