<?xml version="1.0" encoding="UTF-8" standalone="no"?>
<!DOCTYPE svg PUBLIC "-//W3C//DTD SVG 1.1//EN"
 "http://www.w3.org/Graphics/SVG/1.1/DTD/svg11.dtd">
<!-- Generated by graphviz version 12.2.1 (20241206.2353)
 -->
<!-- Title: remember_history Pages: 1 -->
<svg width="493pt" height="196pt"
 viewBox="0.00 0.00 493.00 195.50" xmlns="http://www.w3.org/2000/svg" xmlns:xlink="http://www.w3.org/1999/xlink">
<g id="graph0" class="graph" transform="scale(1 1) rotate(0) translate(4 191.5)">
<title>remember_history</title>
<polygon fill="white" stroke="none" points="-4,4 -4,-191.5 489,-191.5 489,4 -4,4"/>
<text text-anchor="middle" x="242.5" y="-170.2" font-family="Times,serif" font-size="14.00">remember_history</text>
<!-- node_0 -->
<g id="node1" class="node">
<title>node_0</title>
<polygon fill="#ececff" stroke="#9370db" points="220.38,-37 121.88,-37 121.88,-1 220.38,-1 220.38,-37"/>
<text text-anchor="middle" x="171.12" y="-13.95" font-family="Times,serif" font-size="14.00">add_1[ add_1 ]</text>
</g>
<!-- node_0&#45;&gt;node_0 -->
<g id="edge5" class="edge">
<title>node_0&#45;&gt;node_0</title>
<path fill="none" stroke="blue" stroke-width="2" d="M155.91,-37.15C153.56,-46.54 158.64,-55 171.12,-55 178.15,-55 182.83,-52.32 185.16,-48.31"/>
<polygon fill="blue" stroke="blue" stroke-width="2" points="188.45,-50.48 186.02,-40.16 181.49,-49.74 188.45,-50.48"/>
</g>
<!-- node_1 -->
<g id="node2" class="node">
<title>node_1</title>
<path fill="#ececff" stroke="#9370db" d="M485,-32.73C485,-34.53 450.82,-36 408.75,-36 366.68,-36 332.5,-34.53 332.5,-32.73 332.5,-32.73 332.5,-3.27 332.5,-3.27 332.5,-1.47 366.68,0 408.75,0 450.82,0 485,-1.47 485,-3.27 485,-3.27 485,-32.73 485,-32.73"/>
<path fill="none" stroke="#9370db" d="M485,-32.73C485,-30.92 450.82,-29.45 408.75,-29.45 366.68,-29.45 332.5,-30.92 332.5,-32.73"/>
<text text-anchor="middle" x="408.75" y="-12.95" font-family="Times,serif" font-size="14.00">State[append_to_history]</text>
</g>
<!-- node_0&#45;&gt;node_1 -->
<g id="edge1" class="edge">
<title>node_0&#45;&gt;node_1</title>
<path fill="none" stroke="black" stroke-dasharray="5,2" d="M220.66,-18.79C249.59,-18.67 287.16,-18.51 321.03,-18.37"/>
<polygon fill="black" stroke="black" points="320.86,-21.87 330.85,-18.33 320.84,-14.87 320.86,-21.87"/>
</g>
<!-- node_3 -->
<g id="node4" class="node">
<title>node_3</title>
<polygon fill="#ececff" stroke="#9370db" points="435.75,-109 381.75,-109 381.75,-73 435.75,-73 435.75,-109"/>
<text text-anchor="middle" x="408.75" y="-85.95" font-family="Times,serif" font-size="14.00">End</text>
</g>
<!-- node_0&#45;&gt;node_3 -->
<g id="edge4" class="edge">
<title>node_0&#45;&gt;node_3</title>
<path fill="none" stroke="blue" stroke-width="2" d="M220.66,-33.83C265.14,-47.42 330.06,-67.26 370.56,-79.63"/>
<polygon fill="blue" stroke="blue" stroke-width="2" points="368.06,-82.53 378.65,-82.11 370.11,-75.84 368.06,-82.53"/>
<text text-anchor="middle" x="277.38" y="-64.65" font-family="Times,serif" font-size="14.00">?(is_mod_3)</text>
</g>
<!-- node_2 -->
<g id="node3" class="node">
<title>node_2</title>
<polygon fill="#ececff" stroke="#9370db" points="54,-37 0,-37 0,-1 54,-1 54,-37"/>
<text text-anchor="middle" x="27" y="-13.95" font-family="Times,serif" font-size="14.00">Start</text>
</g>
<!-- node_2&#45;&gt;node_0 -->
<g id="edge6" class="edge">
<title>node_2&#45;&gt;node_0</title>
<path fill="none" stroke="blue" stroke-width="2" d="M54.4,-19C70.1,-19 90.7,-19 110.16,-19"/>
<polygon fill="blue" stroke="blue" stroke-width="2" points="108.41,-22.5 118.41,-19 108.41,-15.5 108.41,-22.5"/>
<text text-anchor="middle" x="87" y="-22.2" font-family="Times,serif" font-size="14.00">. &#45;&gt; a</text>
</g>
<!-- node_4 -->
<g id="node5" class="node">
<title>node_4</title>
<path fill="#ececff" stroke="#9370db" d="M222.25,-159.73C222.25,-161.53 199.33,-163 171.12,-163 142.92,-163 120,-161.53 120,-159.73 120,-159.73 120,-130.27 120,-130.27 120,-128.47 142.92,-127 171.12,-127 199.33,-127 222.25,-128.47 222.25,-130.27 222.25,-130.27 222.25,-159.73 222.25,-159.73"/>
<path fill="none" stroke="#9370db" d="M222.25,-159.73C222.25,-157.92 199.33,-156.45 171.12,-156.45 142.92,-156.45 120,-157.92 120,-159.73"/>
<text text-anchor="middle" x="171.12" y="-139.95" font-family="Times,serif" font-size="14.00">State[last_item]</text>
</g>
<!-- node_4&#45;&gt;node_3 -->
<g id="edge2" class="edge">
<title>node_4&#45;&gt;node_3</title>
<path fill="none" stroke="black" stroke-dasharray="5,2" d="M222.67,-133.42C266.98,-123.26 330.37,-108.73 370.28,-99.59"/>
<polygon fill="black" stroke="black" points="370.93,-103.03 379.9,-97.38 369.37,-96.21 370.93,-103.03"/>
<text text-anchor="middle" x="277.38" y="-132.24" font-family="Times,serif" font-size="14.00">. &#45;&gt; last_item</text>
</g>
<!-- node_5 -->
<g id="node6" class="node">
<title>node_5</title>
<path fill="#ececff" stroke="#9370db" d="M215.88,-105.73C215.88,-107.53 195.82,-109 171.12,-109 146.43,-109 126.38,-107.53 126.38,-105.73 126.38,-105.73 126.38,-76.27 126.38,-76.27 126.38,-74.47 146.43,-73 171.12,-73 195.82,-73 215.88,-74.47 215.88,-76.27 215.88,-76.27 215.88,-105.73 215.88,-105.73"/>
<path fill="none" stroke="#9370db" d="M215.88,-105.73C215.88,-103.92 195.82,-102.45 171.12,-102.45 146.43,-102.45 126.38,-103.92 126.38,-105.73"/>
<text text-anchor="middle" x="171.12" y="-85.95" font-family="Times,serif" font-size="14.00">State[history]</text>
</g>
<!-- node_5&#45;&gt;node_3 -->
<g id="edge3" class="edge">
<title>node_5&#45;&gt;node_3</title>
<path fill="none" stroke="black" stroke-dasharray="5,2" d="M216.17,-91C260.51,-91 328.19,-91 370.11,-91"/>
<polygon fill="black" stroke="black" points="369.95,-94.5 379.95,-91 369.95,-87.5 369.95,-94.5"/>
<text text-anchor="middle" x="277.38" y="-94.2" font-family="Times,serif" font-size="14.00">. &#45;&gt; history</text>
</g>
</g>
</svg>
