<?xml version="1.0" encoding="UTF-8" standalone="no"?>
<!DOCTYPE svg PUBLIC "-//W3C//DTD SVG 1.1//EN"
 "http://www.w3.org/Graphics/SVG/1.1/DTD/svg11.dtd">
<!-- Generated by graphviz version 12.2.1 (20241206.2353)
 -->
<!-- Title: collect user data Pages: 1 -->
<svg width="623pt" height="765pt"
 viewBox="0.00 0.00 623.00 765.00" xmlns="http://www.w3.org/2000/svg" xmlns:xlink="http://www.w3.org/1999/xlink">
<g id="graph0" class="graph" transform="scale(1 1) rotate(0) translate(4 761)">
<title>collect user data</title>
<polygon fill="white" stroke="none" points="-4,4 -4,-761 619,-761 619,4 -4,4"/>
<text text-anchor="middle" x="307.5" y="-739.7" font-family="Times,serif" font-size="14.00">collect user data</text>
<!-- node_0 -->
<g id="node1" class="node">
<title>node_0</title>
<polygon fill="#ececff" stroke="#9370db" points="458,-732.5 404,-732.5 404,-696.5 458,-696.5 458,-732.5"/>
<text text-anchor="middle" x="431" y="-709.45" font-family="Times,serif" font-size="14.00">Start</text>
</g>
<!-- node_1 -->
<g id="node2" class="node">
<title>node_1</title>
<path fill="#ececff" stroke="#9370db" d="M490.38,-656.23C490.38,-658.03 463.76,-659.5 431,-659.5 398.24,-659.5 371.62,-658.03 371.62,-656.23 371.62,-656.23 371.62,-626.77 371.62,-626.77 371.62,-624.97 398.24,-623.5 431,-623.5 463.76,-623.5 490.38,-624.97 490.38,-626.77 490.38,-626.77 490.38,-656.23 490.38,-656.23"/>
<path fill="none" stroke="#9370db" d="M490.38,-656.23C490.38,-654.42 463.76,-652.95 431,-652.95 398.24,-652.95 371.62,-654.42 371.62,-656.23"/>
<text text-anchor="middle" x="431" y="-636.45" font-family="Times,serif" font-size="14.00">State[current_info]</text>
</g>
<!-- node_0&#45;&gt;node_1 -->
<g id="edge1" class="edge">
<title>node_0&#45;&gt;node_1</title>
<path fill="none" stroke="black" stroke-dasharray="5,2" d="M431,-696.31C431,-688.73 431,-679.6 431,-671.04"/>
<polygon fill="black" stroke="black" points="434.5,-671.04 431,-661.04 427.5,-671.04 434.5,-671.04"/>
</g>
<!-- node_2 -->
<g id="node3" class="node">
<title>node_2</title>
<polygon fill="#ececff" stroke="#9370db" points="316.62,-130.5 127.38,-130.5 127.38,-73 316.62,-73 316.62,-130.5"/>
<text text-anchor="middle" x="222" y="-113.2" font-family="Times,serif" font-size="14.00">get_missing_keys[</text>
<text text-anchor="middle" x="222" y="-96.7" font-family="Times,serif" font-size="14.00">MissingKeys.get_missing_keys</text>
<text text-anchor="middle" x="222" y="-80.2" font-family="Times,serif" font-size="14.00">]</text>
</g>
<!-- node_0&#45;&gt;node_2 -->
<g id="edge7" class="edge">
<title>node_0&#45;&gt;node_2</title>
<path fill="none" stroke="blue" stroke-width="2" d="M403.71,-711.9C308.97,-706 0,-683.59 0,-642.5 0,-642.5 0,-642.5 0,-293.25 0,-218.2 73.97,-166.32 136.52,-135.86"/>
<polygon fill="blue" stroke="blue" stroke-width="2" points="136.56,-139.71 144.1,-132.27 133.57,-133.39 136.56,-139.71"/>
<text text-anchor="middle" x="94.88" y="-465.7" font-family="Times,serif" font-size="14.00">?(MissingKeys.has_missing_keys)</text>
</g>
<!-- node_4 -->
<g id="node5" class="node">
<title>node_4</title>
<polygon fill="#ececff" stroke="#9370db" points="615,-119.75 561,-119.75 561,-83.75 615,-83.75 615,-119.75"/>
<text text-anchor="middle" x="588" y="-96.7" font-family="Times,serif" font-size="14.00">End</text>
</g>
<!-- node_0&#45;&gt;node_4 -->
<g id="edge8" class="edge">
<title>node_0&#45;&gt;node_4</title>
<path fill="none" stroke="blue" stroke-width="2" d="M458.34,-712.59C501.86,-709.52 582,-696.53 582,-642.5 582,-642.5 582,-642.5 582,-293.25 582,-235.87 584.75,-168.82 586.53,-131.53"/>
<polygon fill="blue" stroke="blue" stroke-width="2" points="589.95,-133.26 586.94,-123.1 582.96,-132.92 589.95,-133.26"/>
</g>
<!-- node_5 -->
<g id="node6" class="node">
<title>node_5</title>
<polygon fill="#ececff" stroke="#9370db" points="403.38,-571 206.62,-571 206.62,-497 403.38,-497 403.38,-571"/>
<text text-anchor="middle" x="305" y="-553.7" font-family="Times,serif" font-size="14.00">ask_missing_data[</text>
<text text-anchor="middle" x="305" y="-537.2" font-family="Times,serif" font-size="14.00">Chat(model=&#39;gpt&#45;4o&#45;mini&#39;,</text>
<text text-anchor="middle" x="305" y="-520.7" font-family="Times,serif" font-size="14.00">required_keys={&#39;missing_keys&#39;},</text>
<text text-anchor="middle" x="305" y="-504.2" font-family="Times,serif" font-size="14.00">seed=42) ]</text>
</g>
<!-- node_1&#45;&gt;node_5 -->
<g id="edge3" class="edge">
<title>node_1&#45;&gt;node_5</title>
<path fill="none" stroke="black" stroke-dasharray="5,2" d="M371.15,-631.06C354.78,-625.88 338.27,-617.88 326.25,-605.5 319.99,-599.05 315.56,-590.83 312.44,-582.29"/>
<polygon fill="black" stroke="black" points="315.83,-581.41 309.58,-572.86 309.13,-583.45 315.83,-581.41"/>
<text text-anchor="middle" x="371.62" y="-592.2" font-family="Times,serif" font-size="14.00">. &#45;&gt; current_info</text>
</g>
<!-- node_7 -->
<g id="node8" class="node">
<title>node_7</title>
<polygon fill="#ececff" stroke="#9370db" points="533,-356 343,-356 343,-232.5 533,-232.5 533,-356"/>
<text text-anchor="middle" x="438" y="-338.7" font-family="Times,serif" font-size="14.00">format_new_info[</text>
<text text-anchor="middle" x="438" y="-322.2" font-family="Times,serif" font-size="14.00">Chat(model=&#39;gpt&#45;4o&#45;mini&#39;,</text>
<text text-anchor="middle" x="438" y="-305.7" font-family="Times,serif" font-size="14.00">required_keys={&#39;missing_keys&#39;,</text>
<text text-anchor="middle" x="438" y="-289.2" font-family="Times,serif" font-size="14.00">&#39;current_info&#39;,</text>
<text text-anchor="middle" x="438" y="-272.7" font-family="Times,serif" font-size="14.00">&#39;input&#39;},</text>
<text text-anchor="middle" x="438" y="-256.2" font-family="Times,serif" font-size="14.00">output_schema=User,</text>
<text text-anchor="middle" x="438" y="-239.7" font-family="Times,serif" font-size="14.00">seed=42) ]</text>
</g>
<!-- node_1&#45;&gt;node_7 -->
<g id="edge4" class="edge">
<title>node_1&#45;&gt;node_7</title>
<path fill="none" stroke="black" stroke-dasharray="5,2" d="M439.47,-623.09C441.73,-617.6 443.86,-611.41 445,-605.5 464.46,-504.47 449.56,-476.79 445,-374 444.91,-371.93 444.8,-369.83 444.69,-367.71"/>
<polygon fill="black" stroke="black" points="448.18,-367.53 444.06,-357.77 441.2,-367.97 448.18,-367.53"/>
<text text-anchor="middle" x="498.57" y="-465.7" font-family="Times,serif" font-size="14.00">. &#45;&gt; current_info</text>
</g>
<!-- node_3 -->
<g id="node4" class="node">
<title>node_3</title>
<path fill="#ececff" stroke="#9370db" d="M404.12,-32.73C404.12,-34.53 375.83,-36 341,-36 306.17,-36 277.88,-34.53 277.88,-32.73 277.88,-32.73 277.88,-3.27 277.88,-3.27 277.88,-1.47 306.17,0 341,0 375.83,0 404.12,-1.47 404.12,-3.27 404.12,-3.27 404.12,-32.73 404.12,-32.73"/>
<path fill="none" stroke="#9370db" d="M404.12,-32.73C404.12,-30.92 375.83,-29.45 341,-29.45 306.17,-29.45 277.88,-30.92 277.88,-32.73"/>
<text text-anchor="middle" x="341" y="-12.95" font-family="Times,serif" font-size="14.00">State[missing_keys]</text>
</g>
<!-- node_2&#45;&gt;node_3 -->
<g id="edge2" class="edge">
<title>node_2&#45;&gt;node_3</title>
<path fill="none" stroke="black" stroke-dasharray="5,2" d="M262.95,-72.62C277.02,-62.95 292.62,-52.23 306.16,-42.94"/>
<polygon fill="black" stroke="black" points="308.09,-45.86 314.35,-37.31 304.12,-40.09 308.09,-45.86"/>
</g>
<!-- node_2&#45;&gt;node_5 -->
<g id="edge9" class="edge">
<title>node_2&#45;&gt;node_5</title>
<path fill="none" stroke="blue" stroke-width="2" d="M219.45,-130.82C217.82,-153.45 216.46,-186.08 219,-214.5 226.08,-293.67 229.46,-313.92 250.75,-390.5 259.82,-423.15 273.39,-458.78 284.68,-486.24"/>
<polygon fill="blue" stroke="blue" stroke-width="2" points="280.81,-486.04 287.88,-493.92 287.27,-483.35 280.81,-486.04"/>
<text text-anchor="middle" x="299.88" y="-377.2" font-family="Times,serif" font-size="14.00">. &#45;&gt; missing_keys</text>
</g>
<!-- node_3&#45;&gt;node_7 -->
<g id="edge5" class="edge">
<title>node_3&#45;&gt;node_7</title>
<path fill="none" stroke="black" stroke-dasharray="5,2" d="M358.06,-36.47C379.6,-59.78 415.66,-103.4 431,-148.5 438.76,-171.32 441.69,-197.34 442.33,-220.96"/>
<polygon fill="black" stroke="black" points="438.82,-220.87 442.44,-230.83 445.82,-220.79 438.82,-220.87"/>
<text text-anchor="middle" x="472.12" y="-96.7" font-family="Times,serif" font-size="14.00">. &#45;&gt; missing_keys</text>
</g>
<!-- node_6 -->
<g id="node7" class="node">
<title>node_6</title>
<polygon fill="#ececff" stroke="#9370db" stroke-dasharray="5,2" points="357,-444.5 303,-444.5 303,-408.5 357,-408.5 357,-444.5"/>
<text text-anchor="middle" x="330" y="-421.45" font-family="Times,serif" font-size="14.00">break</text>
</g>
<!-- node_5&#45;&gt;node_6 -->
<g id="edge10" class="edge">
<title>node_5&#45;&gt;node_6</title>
<path fill="none" stroke="blue" stroke-width="2" d="M313.6,-496.69C316.75,-483.41 320.26,-468.59 323.23,-456.08"/>
<polygon fill="blue" stroke="blue" stroke-width="2" points="326.27,-458.4 325.17,-447.86 319.46,-456.79 326.27,-458.4"/>
</g>
<!-- node_6&#45;&gt;node_7 -->
<g id="edge11" class="edge">
<title>node_6&#45;&gt;node_7</title>
<path fill="none" stroke="blue" stroke-width="2" d="M340.83,-408.36C347.52,-398.12 356.47,-385.01 365.25,-374 367.64,-371 370.12,-367.97 372.66,-364.94"/>
<polygon fill="blue" stroke="blue" stroke-width="2" points="374.15,-368.58 377.97,-358.7 368.82,-364.04 374.15,-368.58"/>
<text text-anchor="middle" x="391.12" y="-377.2" font-family="Times,serif" font-size="14.00">. &#45;&gt; input</text>
</g>
<!-- node_7&#45;&gt;node_1 -->
<g id="edge6" class="edge">
<title>node_7&#45;&gt;node_1</title>
<path fill="none" stroke="black" stroke-dasharray="5,2" d="M436.76,-356.29C435.24,-431.49 432.71,-556.14 431.58,-611.95"/>
<polygon fill="black" stroke="black" points="428.08,-611.8 431.38,-621.87 435.08,-611.94 428.08,-611.8"/>
</g>
<!-- node_7&#45;&gt;node_2 -->
<g id="edge12" class="edge">
<title>node_7&#45;&gt;node_2</title>
<path fill="none" stroke="blue" stroke-width="2" d="M342.75,-276.9C304.96,-265.6 264.52,-246.55 239,-214.5 222.9,-194.28 218.86,-165.27 218.74,-141.88"/>
<polygon fill="blue" stroke="blue" stroke-width="2" points="222.21,-143.67 218.92,-133.6 215.21,-143.53 222.21,-143.67"/>
<text text-anchor="middle" x="335" y="-201.2" font-family="Times,serif" font-size="14.00">?(Condition(</text>
<text text-anchor="middle" x="335" y="-184.7" font-family="Times,serif" font-size="14.00">(0=content) ) &#45;&gt;</text>
<text text-anchor="middle" x="335" y="-168.2" font-family="Times,serif" font-size="14.00">(MissingKeys.has_missing_keys)):</text>
<text text-anchor="middle" x="335" y="-151.7" font-family="Times,serif" font-size="14.00">content &#45;&gt; 0</text>
</g>
<!-- node_7&#45;&gt;node_4 -->
<g id="edge13" class="edge">
<title>node_7&#45;&gt;node_4</title>
<path fill="none" stroke="blue" stroke-width="2" d="M486.08,-232.19C513.55,-197.3 546.59,-155.34 567.44,-128.86"/>
<polygon fill="blue" stroke="blue" stroke-width="2" points="569.23,-132.24 572.67,-122.22 563.73,-127.91 569.23,-132.24"/>
</g>
</g>
</svg>
