<?xml version="1.0" encoding="UTF-8" standalone="no"?>
<!DOCTYPE svg PUBLIC "-//W3C//DTD SVG 1.1//EN"
 "http://www.w3.org/Graphics/SVG/1.1/DTD/svg11.dtd">
<!-- Generated by graphviz version 12.2.1 (20241206.2353)
 -->
<!-- Title: hello world Pages: 1 -->
<svg width="455pt" height="128pt"
 viewBox="0.00 0.00 454.50 128.00" xmlns="http://www.w3.org/2000/svg" xmlns:xlink="http://www.w3.org/1999/xlink">
<g id="graph0" class="graph" transform="scale(1 1) rotate(0) translate(4 124)">
<title>hello world</title>
<polygon fill="white" stroke="none" points="-4,4 -4,-124 450.5,-124 450.5,4 -4,4"/>
<text text-anchor="middle" x="223.25" y="-102.7" font-family="Times,serif" font-size="14.00">hello world</text>
<!-- node_0 -->
<g id="node1" class="node">
<title>node_0</title>
<polygon fill="#ececff" stroke="#9370db" points="248.5,-95.5 139.5,-95.5 139.5,-59.5 248.5,-59.5 248.5,-95.5"/>
<text text-anchor="middle" x="194" y="-72.45" font-family="Times,serif" font-size="14.00">add[ async_add ]</text>
</g>
<!-- node_2 -->
<g id="node3" class="node">
<title>node_2</title>
<polygon fill="#ececff" stroke="#9370db" points="446.5,-66.5 392.5,-66.5 392.5,-30.5 446.5,-30.5 446.5,-66.5"/>
<text text-anchor="middle" x="419.5" y="-43.45" font-family="Times,serif" font-size="14.00">End</text>
</g>
<!-- node_0&#45;&gt;node_2 -->
<g id="edge1" class="edge">
<title>node_0&#45;&gt;node_2</title>
<path fill="none" stroke="black" d="M248.82,-70.52C289.73,-65.21 344.96,-58.04 381.13,-53.35"/>
<polygon fill="black" stroke="black" points="381.2,-56.87 390.67,-52.11 380.3,-49.93 381.2,-56.87"/>
<text text-anchor="middle" x="326.5" y="-69.65" font-family="Times,serif" font-size="14.00">. &#45;&gt; add_result</text>
</g>
<!-- node_1 -->
<g id="node2" class="node">
<title>node_1</title>
<polygon fill="#ececff" stroke="#9370db" points="54,-66.5 0,-66.5 0,-30.5 54,-30.5 54,-66.5"/>
<text text-anchor="middle" x="27" y="-43.45" font-family="Times,serif" font-size="14.00">Start</text>
</g>
<!-- node_1&#45;&gt;node_0 -->
<g id="edge2" class="edge">
<title>node_1&#45;&gt;node_0</title>
<path fill="none" stroke="black" d="M54.14,-53.1C74.01,-56.59 102.23,-61.55 128.05,-66.08"/>
<polygon fill="black" stroke="black" points="127.37,-69.52 137.83,-67.8 128.59,-62.62 127.37,-69.52"/>
<text text-anchor="middle" x="90.75" y="-65.33" font-family="Times,serif" font-size="14.00">. &#45;&gt; **</text>
</g>
<!-- node_3 -->
<g id="node4" class="node">
<title>node_3</title>
<polygon fill="#ececff" stroke="#9370db" points="260.5,-41 127.5,-41 127.5,0 260.5,0 260.5,-41"/>
<text text-anchor="middle" x="194" y="-23.7" font-family="Times,serif" font-size="14.00">square[ AsyncPow(2)</text>
<text text-anchor="middle" x="194" y="-7.2" font-family="Times,serif" font-size="14.00">]</text>
</g>
<!-- node_1&#45;&gt;node_3 -->
<g id="edge3" class="edge">
<title>node_1&#45;&gt;node_3</title>
<path fill="none" stroke="black" d="M54.28,-38.86C60.06,-37.01 66.18,-35.27 72,-34 86.15,-30.91 101.4,-28.51 116.14,-26.65"/>
<polygon fill="black" stroke="black" points="116.27,-30.16 125.78,-25.51 115.44,-23.21 116.27,-30.16"/>
<text text-anchor="middle" x="90.75" y="-37.2" font-family="Times,serif" font-size="14.00">b &#45;&gt; a</text>
</g>
<!-- node_3&#45;&gt;node_2 -->
<g id="edge4" class="edge">
<title>node_3&#45;&gt;node_2</title>
<path fill="none" stroke="black" d="M260.74,-21.62C294.94,-23.16 337.26,-26.58 374.5,-34 376.78,-34.45 379.11,-34.99 381.44,-35.59"/>
<polygon fill="black" stroke="black" points="380.22,-38.88 390.8,-38.28 382.16,-32.15 380.22,-38.88"/>
<text text-anchor="middle" x="326.5" y="-37.2" font-family="Times,serif" font-size="14.00">. &#45;&gt; square_result</text>
</g>
</g>
</svg>
