<?xml version="1.0" encoding="UTF-8" standalone="no"?>
<!DOCTYPE svg PUBLIC "-//W3C//DTD SVG 1.1//EN"
 "http://www.w3.org/Graphics/SVG/1.1/DTD/svg11.dtd">
<!-- Generated by graphviz version 12.2.1 (20241206.2353)
 -->
<!-- Title: RAG Agent Pages: 1 -->
<svg width="610pt" height="137pt"
 viewBox="0.00 0.00 609.50 137.25" xmlns="http://www.w3.org/2000/svg" xmlns:xlink="http://www.w3.org/1999/xlink">
<g id="graph0" class="graph" transform="scale(1 1) rotate(0) translate(4 133.25)">
<title>RAG Agent</title>
<polygon fill="white" stroke="none" points="-4,4 -4,-133.25 605.5,-133.25 605.5,4 -4,4"/>
<text text-anchor="middle" x="300.75" y="-111.95" font-family="Times,serif" font-size="14.00">RAG Agent</text>
<!-- node_0 -->
<g id="node1" class="node">
<title>node_0</title>
<polygon fill="#ececff" stroke="#9370db" points="263.5,-104.75 127.5,-104.75 127.5,-63.75 263.5,-63.75 263.5,-104.75"/>
<text text-anchor="middle" x="195.5" y="-87.45" font-family="Times,serif" font-size="14.00">get_docs[</text>
<text text-anchor="middle" x="195.5" y="-70.95" font-family="Times,serif" font-size="14.00">ChromaClient.query ]</text>
</g>
<!-- node_2 -->
<g id="node3" class="node">
<title>node_2</title>
<polygon fill="#ececff" stroke="#9370db" points="510.5,-90.5 348.25,-90.5 348.25,0 510.5,0 510.5,-90.5"/>
<text text-anchor="middle" x="429.38" y="-73.2" font-family="Times,serif" font-size="14.00">chat[</text>
<text text-anchor="middle" x="429.38" y="-56.7" font-family="Times,serif" font-size="14.00">Chat(model=&#39;gpt&#45;4o&#45;mini&#39;,</text>
<text text-anchor="middle" x="429.38" y="-40.2" font-family="Times,serif" font-size="14.00">required_keys={&#39;docs&#39;,</text>
<text text-anchor="middle" x="429.38" y="-23.7" font-family="Times,serif" font-size="14.00">&#39;question&#39;},</text>
<text text-anchor="middle" x="429.38" y="-7.2" font-family="Times,serif" font-size="14.00">seed=42) ]</text>
</g>
<!-- node_0&#45;&gt;node_2 -->
<g id="edge1" class="edge">
<title>node_0&#45;&gt;node_2</title>
<path fill="none" stroke="black" d="M263.88,-72.92C286.72,-69.08 312.64,-64.72 337.03,-60.61"/>
<polygon fill="black" stroke="black" points="337.34,-64.11 346.62,-59 336.17,-57.21 337.34,-64.11"/>
<text text-anchor="middle" x="305.88" y="-72.59" font-family="Times,serif" font-size="14.00">. &#45;&gt; docs</text>
</g>
<!-- node_1 -->
<g id="node2" class="node">
<title>node_1</title>
<polygon fill="#ececff" stroke="#9370db" points="54,-69.25 0,-69.25 0,-33.25 54,-33.25 54,-69.25"/>
<text text-anchor="middle" x="27" y="-46.2" font-family="Times,serif" font-size="14.00">Start</text>
</g>
<!-- node_1&#45;&gt;node_0 -->
<g id="edge2" class="edge">
<title>node_1&#45;&gt;node_0</title>
<path fill="none" stroke="black" d="M54.38,-56.48C71.17,-59.81 93.87,-64.3 116.1,-68.71"/>
<polygon fill="black" stroke="black" points="115.32,-72.13 125.81,-70.64 116.68,-65.26 115.32,-72.13"/>
<text text-anchor="middle" x="90.75" y="-69.96" font-family="Times,serif" font-size="14.00">. &#45;&gt; **</text>
</g>
<!-- node_1&#45;&gt;node_2 -->
<g id="edge3" class="edge">
<title>node_1&#45;&gt;node_2</title>
<path fill="none" stroke="black" d="M54.1,-47.06C74.12,-44.07 102.48,-40.32 127.5,-38.75 197.55,-34.37 276.94,-36.37 336.57,-39.27"/>
<polygon fill="black" stroke="black" points="336.17,-42.76 346.34,-39.77 336.52,-35.76 336.17,-42.76"/>
<text text-anchor="middle" x="195.5" y="-41.95" font-family="Times,serif" font-size="14.00">query &#45;&gt; question</text>
</g>
<!-- node_3 -->
<g id="node4" class="node">
<title>node_3</title>
<polygon fill="#ececff" stroke="#9370db" points="601.5,-63.25 547.5,-63.25 547.5,-27.25 601.5,-27.25 601.5,-63.25"/>
<text text-anchor="middle" x="574.5" y="-40.2" font-family="Times,serif" font-size="14.00">End</text>
</g>
<!-- node_2&#45;&gt;node_3 -->
<g id="edge4" class="edge">
<title>node_2&#45;&gt;node_3</title>
<path fill="none" stroke="black" d="M510.72,-45.25C519.44,-45.25 527.98,-45.25 535.82,-45.25"/>
<polygon fill="black" stroke="black" points="535.59,-48.75 545.59,-45.25 535.59,-41.75 535.59,-48.75"/>
</g>
</g>
</svg>
