<?xml version="1.0" encoding="UTF-8" standalone="no"?>
<!DOCTYPE svg PUBLIC "-//W3C//DTD SVG 1.1//EN"
 "http://www.w3.org/Graphics/SVG/1.1/DTD/svg11.dtd">
<!-- Generated by graphviz version 12.2.1 (20241206.2353)
 -->
<!-- Title: hello world Pages: 1 -->
<svg width="429pt" height="123pt"
 viewBox="0.00 0.00 429.00 122.50" xmlns="http://www.w3.org/2000/svg" xmlns:xlink="http://www.w3.org/1999/xlink">
<g id="graph0" class="graph" transform="scale(1 1) rotate(0) translate(4 118.5)">
<title>hello world</title>
<polygon fill="white" stroke="none" points="-4,4 -4,-118.5 425,-118.5 425,4 -4,4"/>
<text text-anchor="middle" x="210.5" y="-97.2" font-family="Times,serif" font-size="14.00">hello world</text>
<!-- node_0 -->
<g id="node1" class="node">
<title>node_0</title>
<polygon fill="#ececff" stroke="#9370db" points="217,-90 145.5,-90 145.5,-54 217,-54 217,-90"/>
<text text-anchor="middle" x="181.25" y="-66.95" font-family="Times,serif" font-size="14.00">add[ add ]</text>
</g>
<!-- node_2 -->
<g id="node3" class="node">
<title>node_2</title>
<polygon fill="#ececff" stroke="#9370db" points="421,-63 367,-63 367,-27 421,-27 421,-63"/>
<text text-anchor="middle" x="394" y="-39.95" font-family="Times,serif" font-size="14.00">End</text>
</g>
<!-- node_0&#45;&gt;node_2 -->
<g id="edge1" class="edge">
<title>node_0&#45;&gt;node_2</title>
<path fill="none" stroke="black" d="M217.05,-67.54C255.28,-62.64 316.43,-54.81 355.64,-49.79"/>
<polygon fill="black" stroke="black" points="355.84,-53.29 365.31,-48.55 354.95,-46.35 355.84,-53.29"/>
<text text-anchor="middle" x="301" y="-65.7" font-family="Times,serif" font-size="14.00">. &#45;&gt; add_result</text>
</g>
<!-- node_1 -->
<g id="node2" class="node">
<title>node_1</title>
<polygon fill="#ececff" stroke="#9370db" points="54,-63 0,-63 0,-27 54,-27 54,-63"/>
<text text-anchor="middle" x="27" y="-39.95" font-family="Times,serif" font-size="14.00">Start</text>
</g>
<!-- node_1&#45;&gt;node_0 -->
<g id="edge2" class="edge">
<title>node_1&#45;&gt;node_0</title>
<path fill="none" stroke="black" d="M54.17,-49.64C76.02,-53.52 107.7,-59.13 133.83,-63.77"/>
<polygon fill="black" stroke="black" points="133.07,-67.19 143.53,-65.49 134.3,-60.3 133.07,-67.19"/>
<text text-anchor="middle" x="90.75" y="-62.51" font-family="Times,serif" font-size="14.00">. &#45;&gt; **</text>
</g>
<!-- node_3 -->
<g id="node4" class="node">
<title>node_3</title>
<polygon fill="#ececff" stroke="#9370db" points="235,-36 127.5,-36 127.5,0 235,0 235,-36"/>
<text text-anchor="middle" x="181.25" y="-12.95" font-family="Times,serif" font-size="14.00">square[ Pow(2) ]</text>
</g>
<!-- node_1&#45;&gt;node_3 -->
<g id="edge3" class="edge">
<title>node_1&#45;&gt;node_3</title>
<path fill="none" stroke="black" d="M54.37,-36.84C60.14,-35.25 66.25,-33.7 72,-32.5 86.06,-29.58 101.28,-27.11 115.74,-25.09"/>
<polygon fill="black" stroke="black" points="116.19,-28.57 125.64,-23.77 115.26,-21.63 116.19,-28.57"/>
<text text-anchor="middle" x="90.75" y="-35.7" font-family="Times,serif" font-size="14.00">b &#45;&gt; a</text>
</g>
<!-- node_3&#45;&gt;node_2 -->
<g id="edge4" class="edge">
<title>node_3&#45;&gt;node_2</title>
<path fill="none" stroke="black" d="M235.27,-18.69C268.26,-19.93 311.42,-23.02 349,-30.5 351.28,-30.95 353.61,-31.49 355.94,-32.08"/>
<polygon fill="black" stroke="black" points="354.72,-35.38 365.3,-34.78 356.66,-28.65 354.72,-35.38"/>
<text text-anchor="middle" x="301" y="-33.7" font-family="Times,serif" font-size="14.00">. &#45;&gt; square_result</text>
</g>
</g>
</svg>
