<?xml version="1.0" encoding="UTF-8" standalone="no"?>
<!DOCTYPE svg PUBLIC "-//W3C//DTD SVG 1.1//EN"
 "http://www.w3.org/Graphics/SVG/1.1/DTD/svg11.dtd">
<!-- Generated by graphviz version 12.2.1 (20241206.2353)
 -->
<!-- Title: React Agent Pages: 1 -->
<svg width="967pt" height="234pt"
 viewBox="0.00 0.00 967.25 233.69" xmlns="http://www.w3.org/2000/svg" xmlns:xlink="http://www.w3.org/1999/xlink">
<g id="graph0" class="graph" transform="scale(1 1) rotate(0) translate(4 229.69)">
<title>React Agent</title>
<polygon fill="white" stroke="none" points="-4,4 -4,-229.69 963.25,-229.69 963.25,4 -4,4"/>
<text text-anchor="middle" x="479.62" y="-208.39" font-family="Times,serif" font-size="14.00">React Agent</text>
<!-- node_0 -->
<g id="node1" class="node">
<title>node_0</title>
<polygon fill="#ececff" stroke="#9370db" points="328,-138.44 165.75,-138.44 165.75,-47.94 328,-47.94 328,-138.44"/>
<text text-anchor="middle" x="246.88" y="-121.14" font-family="Times,serif" font-size="14.00">thinker[</text>
<text text-anchor="middle" x="246.88" y="-104.64" font-family="Times,serif" font-size="14.00">Chat(model=&#39;gpt&#45;4o&#45;mini&#39;,</text>
<text text-anchor="middle" x="246.88" y="-88.14" font-family="Times,serif" font-size="14.00">output_schema=Thought,</text>
<text text-anchor="middle" x="246.88" y="-71.64" font-family="Times,serif" font-size="14.00">seed=42,</text>
<text text-anchor="middle" x="246.88" y="-55.14" font-family="Times,serif" font-size="14.00">save_history=True) ]</text>
</g>
<!-- node_2 -->
<g id="node3" class="node">
<title>node_2</title>
<polygon fill="#ececff" stroke="#9370db" points="615,-201.19 561,-201.19 561,-165.19 615,-165.19 615,-201.19"/>
<text text-anchor="middle" x="588" y="-178.14" font-family="Times,serif" font-size="14.00">End</text>
</g>
<!-- node_0&#45;&gt;node_2 -->
<g id="edge1" class="edge">
<title>node_0&#45;&gt;node_2</title>
<path fill="none" stroke="blue" stroke-width="2" d="M328.42,-124.61C334.33,-126.6 340.24,-128.48 346,-130.19 416.8,-151.2 501.53,-167.95 549.33,-176.65"/>
<polygon fill="blue" stroke="blue" stroke-width="2" points="547.21,-179.82 557.67,-178.15 548.45,-172.93 547.21,-179.82"/>
<text text-anchor="middle" x="396.25" y="-158.6" font-family="Times,serif" font-size="14.00">?(is_final_answer)</text>
</g>
<!-- node_3 -->
<g id="node4" class="node">
<title>node_3</title>
<polygon fill="#ececff" stroke="#9370db" points="711.5,-146.69 464.5,-146.69 464.5,-39.69 711.5,-39.69 711.5,-146.69"/>
<text text-anchor="middle" x="588" y="-129.39" font-family="Times,serif" font-size="14.00">use_tool[</text>
<text text-anchor="middle" x="588" y="-112.89" font-family="Times,serif" font-size="14.00">Chat(model=&#39;gpt&#45;4o&#45;mini&#39;,</text>
<text text-anchor="middle" x="588" y="-96.39" font-family="Times,serif" font-size="14.00">required_keys={&#39;thought&#39;},</text>
<text text-anchor="middle" x="588" y="-79.89" font-family="Times,serif" font-size="14.00">tools=wikipedia_search,run_python_code,</text>
<text text-anchor="middle" x="588" y="-63.39" font-family="Times,serif" font-size="14.00">call_function=True,</text>
<text text-anchor="middle" x="588" y="-46.89" font-family="Times,serif" font-size="14.00">seed=42) ]</text>
</g>
<!-- node_0&#45;&gt;node_3 -->
<g id="edge2" class="edge">
<title>node_0&#45;&gt;node_3</title>
<path fill="none" stroke="blue" stroke-width="2" d="M328.24,-93.19C365.38,-93.19 410.5,-93.19 452.6,-93.19"/>
<polygon fill="blue" stroke="blue" stroke-width="2" points="451.07,-96.69 461.07,-93.19 451.07,-89.69 451.07,-96.69"/>
<text text-anchor="middle" x="396.25" y="-112.89" font-family="Times,serif" font-size="14.00">content.text &#45;&gt;</text>
<text text-anchor="middle" x="396.25" y="-96.39" font-family="Times,serif" font-size="14.00">thought</text>
</g>
<!-- node_1 -->
<g id="node2" class="node">
<title>node_1</title>
<polygon fill="#ececff" stroke="#9370db" points="54,-111.19 0,-111.19 0,-75.19 54,-75.19 54,-111.19"/>
<text text-anchor="middle" x="27" y="-88.14" font-family="Times,serif" font-size="14.00">Start</text>
</g>
<!-- node_1&#45;&gt;node_0 -->
<g id="edge3" class="edge">
<title>node_1&#45;&gt;node_0</title>
<path fill="none" stroke="blue" stroke-width="2" d="M54.28,-93.19C79.21,-93.19 118.13,-93.19 154.41,-93.19"/>
<polygon fill="blue" stroke="blue" stroke-width="2" points="152.54,-96.69 162.54,-93.19 152.54,-89.69 152.54,-96.69"/>
<text text-anchor="middle" x="109.88" y="-96.39" font-family="Times,serif" font-size="14.00">. &#45;&gt; messages</text>
</g>
<!-- node_4 -->
<g id="node5" class="node">
<title>node_4</title>
<polygon fill="#ececff" stroke="#9370db" points="959.25,-41.69 842,-41.69 842,-0.69 959.25,-0.69 959.25,-41.69"/>
<text text-anchor="middle" x="900.62" y="-24.39" font-family="Times,serif" font-size="14.00">format_tool_call[</text>
<text text-anchor="middle" x="900.62" y="-7.89" font-family="Times,serif" font-size="14.00">react_cot_format ]</text>
</g>
<!-- node_3&#45;&gt;node_4 -->
<g id="edge4" class="edge">
<title>node_3&#45;&gt;node_4</title>
<path fill="none" stroke="blue" stroke-width="2" d="M711.77,-64.73C752.16,-55.37 795.64,-45.29 830.58,-37.19"/>
<polygon fill="blue" stroke="blue" stroke-width="2" points="829.71,-40.99 838.66,-35.32 828.13,-34.17 829.71,-40.99"/>
<text text-anchor="middle" x="776.75" y="-145.05" font-family="Times,serif" font-size="14.00">content.name &#45;&gt;</text>
<text text-anchor="middle" x="776.75" y="-128.55" font-family="Times,serif" font-size="14.00">tool_name,</text>
<text text-anchor="middle" x="776.75" y="-112.05" font-family="Times,serif" font-size="14.00">content.input &#45;&gt;</text>
<text text-anchor="middle" x="776.75" y="-95.55" font-family="Times,serif" font-size="14.00">input,</text>
<text text-anchor="middle" x="776.75" y="-79.05" font-family="Times,serif" font-size="14.00">content.output &#45;&gt;</text>
<text text-anchor="middle" x="776.75" y="-62.55" font-family="Times,serif" font-size="14.00">output</text>
</g>
<!-- node_4&#45;&gt;node_0 -->
<g id="edge5" class="edge">
<title>node_4&#45;&gt;node_0</title>
<path fill="none" stroke="blue" stroke-width="2" d="M841.7,-13.18C757.78,-3.16 597.84,10.01 464.5,-13.69 421.96,-21.25 376.81,-36.55 338.8,-51.73"/>
<polygon fill="blue" stroke="blue" stroke-width="2" points="339.03,-47.86 331.08,-54.86 341.67,-54.34 339.03,-47.86"/>
<text text-anchor="middle" x="588" y="-16.89" font-family="Times,serif" font-size="14.00">. &#45;&gt; messages</text>
</g>
</g>
</svg>
