<?xml version="1.0" encoding="UTF-8" standalone="no"?>
<!DOCTYPE svg PUBLIC "-//W3C//DTD SVG 1.1//EN"
 "http://www.w3.org/Graphics/SVG/1.1/DTD/svg11.dtd">
<!-- Generated by graphviz version 12.2.1 (20241206.2353)
 -->
<!-- Title: Stateful node example Pages: 1 -->
<svg width="674pt" height="179pt"
 viewBox="0.00 0.00 673.50 178.50" xmlns="http://www.w3.org/2000/svg" xmlns:xlink="http://www.w3.org/1999/xlink">
<g id="graph0" class="graph" transform="scale(1 1) rotate(0) translate(4 174.5)">
<title>Stateful node example</title>
<polygon fill="white" stroke="none" points="-4,4 -4,-174.5 669.5,-174.5 669.5,4 -4,4"/>
<text text-anchor="middle" x="332.75" y="-153.2" font-family="Times,serif" font-size="14.00">Stateful node example</text>
<!-- node_0 -->
<g id="node1" class="node">
<title>node_0</title>
<polygon fill="#ececff" stroke="#9370db" points="63.12,-133 9.12,-133 9.12,-97 63.12,-97 63.12,-133"/>
<text text-anchor="middle" x="36.12" y="-109.95" font-family="Times,serif" font-size="14.00">Start</text>
</g>
<!-- node_1 -->
<g id="node2" class="node">
<title>node_1</title>
<path fill="#ececff" stroke="#9370db" d="M324.5,-142.73C324.5,-144.53 301.42,-146 273,-146 244.58,-146 221.5,-144.53 221.5,-142.73 221.5,-142.73 221.5,-113.27 221.5,-113.27 221.5,-111.47 244.58,-110 273,-110 301.42,-110 324.5,-111.47 324.5,-113.27 324.5,-113.27 324.5,-142.73 324.5,-142.73"/>
<path fill="none" stroke="#9370db" d="M324.5,-142.73C324.5,-140.92 301.42,-139.45 273,-139.45 244.58,-139.45 221.5,-140.92 221.5,-142.73"/>
<text text-anchor="middle" x="273" y="-122.95" font-family="Times,serif" font-size="14.00">State[set_timer]</text>
</g>
<!-- node_0&#45;&gt;node_1 -->
<g id="edge1" class="edge">
<title>node_0&#45;&gt;node_1</title>
<path fill="none" stroke="black" stroke-dasharray="5,2" d="M63.61,-116.47C98.86,-118.42 162.26,-121.93 209.91,-124.56"/>
<polygon fill="black" stroke="black" points="209.66,-128.05 219.84,-125.11 210.05,-121.07 209.66,-128.05"/>
<text text-anchor="middle" x="146.88" y="-127.36" font-family="Times,serif" font-size="14.00">turns &#45;&gt; 0</text>
</g>
<!-- node_2 -->
<g id="node3" class="node">
<title>node_2</title>
<polygon fill="#ececff" stroke="#9370db" points="301.25,-79 244.75,-79 244.75,-43 301.25,-43 301.25,-79"/>
<text text-anchor="middle" x="273" y="-55.95" font-family="Times,serif" font-size="14.00">counter</text>
</g>
<!-- node_0&#45;&gt;node_2 -->
<g id="edge3" class="edge">
<title>node_0&#45;&gt;node_2</title>
<path fill="none" stroke="blue" stroke-width="2" d="M63.42,-105.65C71.92,-102.81 81.42,-99.83 90.25,-97.5 138.97,-84.63 196.07,-73.85 233.08,-67.42"/>
<polygon fill="blue" stroke="blue" stroke-width="2" points="232.11,-71.14 241.38,-66 230.93,-64.24 232.11,-71.14"/>
<text text-anchor="middle" x="146.88" y="-100.7" font-family="Times,serif" font-size="14.00">message &#45;&gt; message</text>
</g>
<!-- node_4 -->
<g id="node5" class="node">
<title>node_4</title>
<polygon fill="#ececff" stroke="#9370db" points="532.38,-136 478.38,-136 478.38,-100 532.38,-100 532.38,-136"/>
<text text-anchor="middle" x="505.38" y="-112.95" font-family="Times,serif" font-size="14.00">End</text>
</g>
<!-- node_2&#45;&gt;node_4 -->
<g id="edge4" class="edge">
<title>node_2&#45;&gt;node_4</title>
<path fill="none" stroke="blue" stroke-width="2" d="M301.52,-69.98C313.97,-73.9 328.91,-78.41 342.5,-82 384.95,-93.21 434.28,-103.84 467.22,-110.6"/>
<polygon fill="blue" stroke="blue" stroke-width="2" points="464.69,-113.66 475.18,-112.22 466.08,-106.8 464.69,-113.66"/>
<text text-anchor="middle" x="380.38" y="-103.21" font-family="Times,serif" font-size="14.00">?(is_time_up)</text>
</g>
<!-- node_5 -->
<g id="node6" class="node">
<title>node_5</title>
<polygon fill="#ececff" stroke="#9370db" points="574.5,-81.5 436.25,-81.5 436.25,-40.5 574.5,-40.5 574.5,-81.5"/>
<text text-anchor="middle" x="505.38" y="-64.2" font-family="Times,serif" font-size="14.00">message[ StatefulSum</text>
<text text-anchor="middle" x="505.38" y="-47.7" font-family="Times,serif" font-size="14.00">]</text>
</g>
<!-- node_2&#45;&gt;node_5 -->
<g id="edge5" class="edge">
<title>node_2&#45;&gt;node_5</title>
<path fill="none" stroke="blue" stroke-width="2" d="M301.33,-61C331.64,-61 381.92,-61 424.87,-61"/>
<polygon fill="blue" stroke="blue" stroke-width="2" points="423.16,-64.5 433.16,-61 423.16,-57.5 423.16,-64.5"/>
<text text-anchor="middle" x="380.38" y="-64.2" font-family="Times,serif" font-size="14.00">message &#45;&gt; 0</text>
</g>
<!-- node_3 -->
<g id="node4" class="node">
<title>node_3</title>
<path fill="#ececff" stroke="#9370db" d="M72.25,-62.73C72.25,-64.53 56.06,-66 36.12,-66 16.19,-66 0,-64.53 0,-62.73 0,-62.73 0,-33.27 0,-33.27 0,-31.47 16.19,-30 36.12,-30 56.06,-30 72.25,-31.47 72.25,-33.27 72.25,-33.27 72.25,-62.73 72.25,-62.73"/>
<path fill="none" stroke="#9370db" d="M72.25,-62.73C72.25,-60.92 56.06,-59.45 36.12,-59.45 16.19,-59.45 0,-60.92 0,-62.73"/>
<text text-anchor="middle" x="36.12" y="-42.95" font-family="Times,serif" font-size="14.00">State[tick]</text>
</g>
<!-- node_3&#45;&gt;node_2 -->
<g id="edge2" class="edge">
<title>node_3&#45;&gt;node_2</title>
<path fill="none" stroke="black" stroke-dasharray="5,2" d="M72.58,-46.71C106.32,-45.86 158.47,-45.54 203.5,-49.5 213.15,-50.35 223.49,-51.8 233.14,-53.38"/>
<polygon fill="black" stroke="black" points="232.52,-56.83 242.97,-55.1 233.72,-49.93 232.52,-56.83"/>
<text text-anchor="middle" x="146.88" y="-52.7" font-family="Times,serif" font-size="14.00">. &#45;&gt; timer</text>
</g>
<!-- node_6 -->
<g id="node7" class="node">
<title>node_6</title>
<polygon fill="#ececff" stroke="#9370db" stroke-dasharray="5,2" points="665.5,-36 611.5,-36 611.5,0 665.5,0 665.5,-36"/>
<text text-anchor="middle" x="638.5" y="-12.95" font-family="Times,serif" font-size="14.00">break</text>
</g>
<!-- node_5&#45;&gt;node_6 -->
<g id="edge6" class="edge">
<title>node_5&#45;&gt;node_6</title>
<path fill="none" stroke="blue" stroke-width="2" d="M570.4,-40C580.66,-36.64 590.97,-33.26 600.33,-30.19"/>
<polygon fill="blue" stroke="blue" stroke-width="2" points="599.91,-34.01 608.32,-27.57 597.73,-27.36 599.91,-34.01"/>
</g>
<!-- node_6&#45;&gt;node_2 -->
<g id="edge7" class="edge">
<title>node_6&#45;&gt;node_2</title>
<path fill="none" stroke="blue" stroke-width="2" d="M611.15,-16.21C599.87,-15.53 586.55,-14.83 574.5,-14.5 513.08,-12.8 497.1,-5.95 436.25,-14.5 392.9,-20.59 344.89,-35.41 312.43,-46.69"/>
<polygon fill="blue" stroke="blue" stroke-width="2" points="312.74,-42.87 304.48,-49.51 315.07,-49.47 312.74,-42.87"/>
<text text-anchor="middle" x="505.38" y="-17.7" font-family="Times,serif" font-size="14.00">message &#45;&gt; message</text>
</g>
</g>
</svg>
