<?xml version="1.0" encoding="UTF-8" standalone="no"?>
<!DOCTYPE svg PUBLIC "-//W3C//DTD SVG 1.1//EN"
 "http://www.w3.org/Graphics/SVG/1.1/DTD/svg11.dtd">
<!-- Generated by graphviz version 12.2.1 (20241206.2353)
 -->
<!-- Title: Positional Access Pages: 1 -->
<svg width="256pt" height="84pt"
 viewBox="0.00 0.00 256.25 83.50" xmlns="http://www.w3.org/2000/svg" xmlns:xlink="http://www.w3.org/1999/xlink">
<g id="graph0" class="graph" transform="scale(1 1) rotate(0) translate(4 79.5)">
<title>Positional Access</title>
<polygon fill="white" stroke="none" points="-4,4 -4,-79.5 252.25,-79.5 252.25,4 -4,4"/>
<text text-anchor="middle" x="124.12" y="-58.2" font-family="Times,serif" font-size="14.00">Positional Access</text>
<!-- node_0 -->
<g id="node1" class="node">
<title>node_0</title>
<polygon fill="#ececff" stroke="#9370db" points="54,-36 0,-36 0,0 54,0 54,-36"/>
<text text-anchor="middle" x="27" y="-12.95" font-family="Times,serif" font-size="14.00">Start</text>
</g>
<!-- node_1 -->
<g id="node2" class="node">
<title>node_1</title>
<polygon fill="#ececff" stroke="#9370db" points="248.25,-36 194.25,-36 194.25,0 248.25,0 248.25,-36"/>
<text text-anchor="middle" x="221.25" y="-12.95" font-family="Times,serif" font-size="14.00">End</text>
</g>
<!-- node_0&#45;&gt;node_1 -->
<g id="edge1" class="edge">
<title>node_0&#45;&gt;node_1</title>
<path fill="none" stroke="black" d="M54.33,-18C87.6,-18 145.07,-18 182.88,-18"/>
<polygon fill="black" stroke="black" points="182.42,-21.5 192.42,-18 182.42,-14.5 182.42,-21.5"/>
<text text-anchor="middle" x="124.12" y="-37.7" font-family="Times,serif" font-size="14.00">a &#45;&gt; 0, b &#45;&gt; 1, c &#45;&gt;</text>
<text text-anchor="middle" x="124.12" y="-21.2" font-family="Times,serif" font-size="14.00">x</text>
</g>
</g>
</svg>
