<?xml version="1.0" encoding="UTF-8" standalone="no"?>
<!DOCTYPE svg PUBLIC "-//W3C//DTD SVG 1.1//EN"
 "http://www.w3.org/Graphics/SVG/1.1/DTD/svg11.dtd">
<!-- Generated by graphviz version 12.2.1 (20241206.2353)
 -->
<!-- Title: Key Access Pages: 1 -->
<svg width="226pt" height="69pt"
 viewBox="0.00 0.00 226.25 68.50" xmlns="http://www.w3.org/2000/svg" xmlns:xlink="http://www.w3.org/1999/xlink">
<g id="graph0" class="graph" transform="scale(1 1) rotate(0) translate(4 64.5)">
<title>Key Access</title>
<polygon fill="white" stroke="none" points="-4,4 -4,-64.5 222.25,-64.5 222.25,4 -4,4"/>
<text text-anchor="middle" x="109.12" y="-43.2" font-family="Times,serif" font-size="14.00">Key Access</text>
<!-- node_0 -->
<g id="node1" class="node">
<title>node_0</title>
<polygon fill="#ececff" stroke="#9370db" points="54,-36 0,-36 0,0 54,0 54,-36"/>
<text text-anchor="middle" x="27" y="-12.95" font-family="Times,serif" font-size="14.00">Start</text>
</g>
<!-- node_1 -->
<g id="node2" class="node">
<title>node_1</title>
<polygon fill="#ececff" stroke="#9370db" points="218.25,-36 164.25,-36 164.25,0 218.25,0 218.25,-36"/>
<text text-anchor="middle" x="191.25" y="-12.95" font-family="Times,serif" font-size="14.00">End</text>
</g>
<!-- node_0&#45;&gt;node_1 -->
<g id="edge1" class="edge">
<title>node_0&#45;&gt;node_1</title>
<path fill="none" stroke="black" d="M54.43,-18C81.07,-18 122.43,-18 152.51,-18"/>
<polygon fill="black" stroke="black" points="152.32,-21.5 162.32,-18 152.32,-14.5 152.32,-21.5"/>
<text text-anchor="middle" x="109.12" y="-21.2" font-family="Times,serif" font-size="14.00">a &#45;&gt; x, b &#45;&gt; y</text>
</g>
</g>
</svg>
