<?xml version="1.0" encoding="UTF-8" standalone="no"?>
<!DOCTYPE svg PUBLIC "-//W3C//DTD SVG 1.1//EN"
 "http://www.w3.org/Graphics/SVG/1.1/DTD/svg11.dtd">
<!-- Generated by graphviz version 12.2.1 (20241206.2353)
 -->
<!-- Title: list_operations Pages: 1 -->
<svg width="227pt" height="84pt"
 viewBox="0.00 0.00 227.00 83.50" xmlns="http://www.w3.org/2000/svg" xmlns:xlink="http://www.w3.org/1999/xlink">
<g id="graph0" class="graph" transform="scale(1 1) rotate(0) translate(4 79.5)">
<title>list_operations</title>
<polygon fill="white" stroke="none" points="-4,4 -4,-79.5 223,-79.5 223,4 -4,4"/>
<text text-anchor="middle" x="109.5" y="-58.2" font-family="Times,serif" font-size="14.00">list_operations</text>
<!-- node_0 -->
<g id="node1" class="node">
<title>node_0</title>
<polygon fill="#ececff" stroke="#9370db" points="54,-36 0,-36 0,0 54,0 54,-36"/>
<text text-anchor="middle" x="27" y="-12.95" font-family="Times,serif" font-size="14.00">Start</text>
</g>
<!-- node_1 -->
<g id="node2" class="node">
<title>node_1</title>
<polygon fill="#ececff" stroke="#9370db" points="219,-36 165,-36 165,0 219,0 219,-36"/>
<text text-anchor="middle" x="192" y="-12.95" font-family="Times,serif" font-size="14.00">End</text>
</g>
<!-- node_0&#45;&gt;node_1 -->
<g id="edge1" class="edge">
<title>node_0&#45;&gt;node_1</title>
<path fill="none" stroke="black" d="M54.19,-18C80.96,-18 122.81,-18 153.18,-18"/>
<polygon fill="black" stroke="black" points="153.09,-21.5 163.09,-18 153.09,-14.5 153.09,-21.5"/>
<text text-anchor="middle" x="109.5" y="-37.7" font-family="Times,serif" font-size="14.00">lists.[].a &#45;&gt; 0,</text>
<text text-anchor="middle" x="109.5" y="-21.2" font-family="Times,serif" font-size="14.00">lists.[].b &#45;&gt; 1</text>
</g>
</g>
</svg>
