<?xml version="1.0" encoding="UTF-8" standalone="no"?>
<!DOCTYPE svg PUBLIC "-//W3C//DTD SVG 1.1//EN"
 "http://www.w3.org/Graphics/SVG/1.1/DTD/svg11.dtd">
<!-- Generated by graphviz version 12.2.1 (20241206.2353)
 -->
<!-- Title: naive_flow Pages: 1 -->
<svg width="311pt" height="123pt"
 viewBox="0.00 0.00 310.75 122.50" xmlns="http://www.w3.org/2000/svg" xmlns:xlink="http://www.w3.org/1999/xlink">
<g id="graph0" class="graph" transform="scale(1 1) rotate(0) translate(4 118.5)">
<title>naive_flow</title>
<polygon fill="white" stroke="none" points="-4,4 -4,-118.5 306.75,-118.5 306.75,4 -4,4"/>
<text text-anchor="middle" x="151.38" y="-97.2" font-family="Times,serif" font-size="14.00">naive_flow</text>
<!-- node_0 -->
<g id="node1" class="node">
<title>node_0</title>
<polygon fill="#ececff" stroke="#9370db" points="182,-90 91,-90 91,-54 182,-54 182,-90"/>
<text text-anchor="middle" x="136.5" y="-66.95" font-family="Times,serif" font-size="14.00">plus1[ plus1 ]</text>
</g>
<!-- node_2 -->
<g id="node3" class="node">
<title>node_2</title>
<polygon fill="#ececff" stroke="#9370db" points="302.75,-63 248.75,-63 248.75,-27 302.75,-27 302.75,-63"/>
<text text-anchor="middle" x="275.75" y="-39.95" font-family="Times,serif" font-size="14.00">End</text>
</g>
<!-- node_0&#45;&gt;node_2 -->
<g id="edge1" class="edge">
<title>node_0&#45;&gt;node_2</title>
<path fill="none" stroke="black" d="M182.44,-63.16C200.23,-59.66 220.43,-55.69 237.39,-52.35"/>
<polygon fill="black" stroke="black" points="237.93,-55.81 247.07,-50.45 236.58,-48.94 237.93,-55.81"/>
<text text-anchor="middle" x="215.38" y="-62.51" font-family="Times,serif" font-size="14.00">. &#45;&gt; x</text>
</g>
<!-- node_1 -->
<g id="node2" class="node">
<title>node_1</title>
<polygon fill="#ececff" stroke="#9370db" points="54,-62 0,-62 0,-26 54,-26 54,-62"/>
<text text-anchor="middle" x="27" y="-38.95" font-family="Times,serif" font-size="14.00">Start</text>
</g>
<!-- node_1&#45;&gt;node_0 -->
<g id="edge2" class="edge">
<title>node_1&#45;&gt;node_0</title>
<path fill="none" stroke="black" d="M54.3,-50.85C61.99,-52.85 70.71,-55.12 79.5,-57.42"/>
<polygon fill="black" stroke="black" points="78.6,-60.8 89.16,-59.93 80.36,-54.02 78.6,-60.8"/>
</g>
<!-- node_3 -->
<g id="node4" class="node">
<title>node_3</title>
<polygon fill="#ececff" stroke="#9370db" points="182,-36 91,-36 91,0 182,0 182,-36"/>
<text text-anchor="middle" x="136.5" y="-12.95" font-family="Times,serif" font-size="14.00">plus2[ plus2 ]</text>
</g>
<!-- node_1&#45;&gt;node_3 -->
<g id="edge3" class="edge">
<title>node_1&#45;&gt;node_3</title>
<path fill="none" stroke="black" d="M54.3,-37.64C61.99,-35.78 70.71,-33.67 79.5,-31.54"/>
<polygon fill="black" stroke="black" points="80.25,-34.96 89.15,-29.21 78.61,-28.16 80.25,-34.96"/>
</g>
<!-- node_3&#45;&gt;node_2 -->
<g id="edge4" class="edge">
<title>node_3&#45;&gt;node_2</title>
<path fill="none" stroke="black" d="M182.24,-24.59C197.67,-27.09 215.02,-30.14 230.75,-33.5 232.89,-33.96 235.09,-34.45 237.3,-34.97"/>
<polygon fill="black" stroke="black" points="236.3,-38.33 246.85,-37.31 237.97,-31.53 236.3,-38.33"/>
<text text-anchor="middle" x="215.38" y="-36.7" font-family="Times,serif" font-size="14.00">. &#45;&gt; y</text>
</g>
</g>
</svg>
