<?xml version="1.0" encoding="UTF-8" standalone="no"?>
<!DOCTYPE svg PUBLIC "-//W3C//DTD SVG 1.1//EN"
 "http://www.w3.org/Graphics/SVG/1.1/DTD/svg11.dtd">
<!-- Generated by graphviz version 12.2.1 (20241206.2353)
 -->
<!-- Title: parallel in decision Pages: 1 -->
<svg width="444pt" height="125pt"
 viewBox="0.00 0.00 443.75 124.50" xmlns="http://www.w3.org/2000/svg" xmlns:xlink="http://www.w3.org/1999/xlink">
<g id="graph0" class="graph" transform="scale(1 1) rotate(0) translate(4 120.5)">
<title>parallel in decision</title>
<polygon fill="white" stroke="none" points="-4,4 -4,-120.5 439.75,-120.5 439.75,4 -4,4"/>
<text text-anchor="middle" x="217.88" y="-99.2" font-family="Times,serif" font-size="14.00">parallel in decision</text>
<!-- node_0 -->
<g id="node1" class="node">
<title>node_0</title>
<polygon fill="#ececff" stroke="#9370db" points="54,-46.75 0,-46.75 0,-10.75 54,-10.75 54,-46.75"/>
<text text-anchor="middle" x="27" y="-23.7" font-family="Times,serif" font-size="14.00">Start</text>
</g>
<!-- node_2 -->
<g id="node3" class="node">
<title>node_2</title>
<polygon fill="#ececff" stroke="#9370db" points="344.75,-57.5 91,-57.5 91,0 344.75,0 344.75,-57.5"/>
<text text-anchor="middle" x="217.88" y="-40.2" font-family="Times,serif" font-size="14.00">anon_from_parallel_start_to_add[</text>
<text text-anchor="middle" x="217.88" y="-23.7" font-family="Times,serif" font-size="14.00">Diagram(anon_from_parallel_start_to_add)</text>
<text text-anchor="middle" x="217.88" y="-7.2" font-family="Times,serif" font-size="14.00">]</text>
</g>
<!-- node_0&#45;&gt;node_2 -->
<g id="edge1" class="edge">
<title>node_0&#45;&gt;node_2</title>
<path fill="none" stroke="blue" stroke-width="2" d="M54.26,-28.75C61.54,-28.75 69.98,-28.75 79.1,-28.75"/>
<polygon fill="blue" stroke="blue" stroke-width="2" points="77.51,-32.25 87.51,-28.75 77.51,-25.25 77.51,-32.25"/>
</g>
<!-- node_1 -->
<g id="node2" class="node">
<title>node_1</title>
<polygon fill="#ececff" stroke="#9370db" points="435.75,-46.75 381.75,-46.75 381.75,-10.75 435.75,-10.75 435.75,-46.75"/>
<text text-anchor="middle" x="408.75" y="-23.7" font-family="Times,serif" font-size="14.00">End</text>
</g>
<!-- node_2&#45;&gt;node_1 -->
<g id="edge3" class="edge">
<title>node_2&#45;&gt;node_1</title>
<path fill="none" stroke="blue" stroke-width="2" d="M345.12,-28.75C353.97,-28.75 362.4,-28.75 370.04,-28.75"/>
<polygon fill="blue" stroke="blue" stroke-width="2" points="368.32,-32.25 378.32,-28.75 368.32,-25.25 368.32,-32.25"/>
</g>
<!-- node_2&#45;&gt;node_2 -->
<g id="edge2" class="edge">
<title>node_2&#45;&gt;node_2</title>
<path fill="none" stroke="blue" stroke-width="2" d="M190.62,-57.97C190.62,-67.71 199.7,-75.5 217.88,-75.5 228.66,-75.5 236.25,-72.75 240.63,-68.48"/>
<polygon fill="blue" stroke="blue" stroke-width="2" points="243.23,-71.32 243.94,-60.75 236.79,-68.57 243.23,-71.32"/>
<text text-anchor="middle" x="217.88" y="-78.7" font-family="Times,serif" font-size="14.00">?(EqualsTo(12))</text>
</g>
</g>
</svg>
