<?xml version="1.0" encoding="UTF-8" standalone="no"?>
<!DOCTYPE svg PUBLIC "-//W3C//DTD SVG 1.1//EN"
 "http://www.w3.org/Graphics/SVG/1.1/DTD/svg11.dtd">
<!-- Generated by graphviz version 12.2.1 (20241206.2353)
 -->
<!-- Title: complex_state Pages: 1 -->
<svg width="282pt" height="123pt"
 viewBox="0.00 0.00 281.50 122.50" xmlns="http://www.w3.org/2000/svg" xmlns:xlink="http://www.w3.org/1999/xlink">
<g id="graph0" class="graph" transform="scale(1 1) rotate(0) translate(4 118.5)">
<title>complex_state</title>
<polygon fill="white" stroke="none" points="-4,4 -4,-118.5 277.5,-118.5 277.5,4 -4,4"/>
<text text-anchor="middle" x="136.75" y="-97.2" font-family="Times,serif" font-size="14.00">complex_state</text>
<!-- node_0 -->
<g id="node1" class="node">
<title>node_0</title>
<polygon fill="#ececff" stroke="#9370db" points="145,-63 91,-63 91,-27 145,-27 145,-63"/>
<text text-anchor="middle" x="118" y="-39.95" font-family="Times,serif" font-size="14.00">End</text>
</g>
<!-- node_1 -->
<g id="node2" class="node">
<title>node_1</title>
<path fill="#ececff" stroke="#9370db" d="M273.5,-86.73C273.5,-88.53 260.33,-90 244.12,-90 227.92,-90 214.75,-88.53 214.75,-86.73 214.75,-86.73 214.75,-57.27 214.75,-57.27 214.75,-55.47 227.92,-54 244.12,-54 260.33,-54 273.5,-55.47 273.5,-57.27 273.5,-57.27 273.5,-86.73 273.5,-86.73"/>
<path fill="none" stroke="#9370db" d="M273.5,-86.73C273.5,-84.92 260.33,-83.45 244.12,-83.45 227.92,-83.45 214.75,-84.92 214.75,-86.73"/>
<text text-anchor="middle" x="244.12" y="-66.95" font-family="Times,serif" font-size="14.00">State[x]</text>
</g>
<!-- node_0&#45;&gt;node_1 -->
<g id="edge1" class="edge">
<title>node_0&#45;&gt;node_1</title>
<path fill="none" stroke="black" stroke-dasharray="5,2" d="M145.32,-50.73C162.26,-54.41 184.58,-59.26 203.62,-63.41"/>
<polygon fill="black" stroke="black" points="202.68,-66.78 213.2,-65.49 204.17,-59.94 202.68,-66.78"/>
<text text-anchor="middle" x="179.88" y="-64.91" font-family="Times,serif" font-size="14.00">a &#45;&gt; 0</text>
</g>
<!-- node_2 -->
<g id="node3" class="node">
<title>node_2</title>
<path fill="#ececff" stroke="#9370db" d="M273.5,-32.73C273.5,-34.53 260.33,-36 244.12,-36 227.92,-36 214.75,-34.53 214.75,-32.73 214.75,-32.73 214.75,-3.27 214.75,-3.27 214.75,-1.47 227.92,0 244.12,0 260.33,0 273.5,-1.47 273.5,-3.27 273.5,-3.27 273.5,-32.73 273.5,-32.73"/>
<path fill="none" stroke="#9370db" d="M273.5,-32.73C273.5,-30.92 260.33,-29.45 244.12,-29.45 227.92,-29.45 214.75,-30.92 214.75,-32.73"/>
<text text-anchor="middle" x="244.12" y="-12.95" font-family="Times,serif" font-size="14.00">State[y]</text>
</g>
<!-- node_0&#45;&gt;node_2 -->
<g id="edge2" class="edge">
<title>node_0&#45;&gt;node_2</title>
<path fill="none" stroke="black" stroke-dasharray="5,2" d="M145.49,-38.54C151.26,-37.17 157.33,-35.76 163,-34.5 176.19,-31.57 190.64,-28.54 203.6,-25.89"/>
<polygon fill="black" stroke="black" points="203.94,-29.39 213.04,-23.97 202.54,-22.53 203.94,-29.39"/>
<text text-anchor="middle" x="179.88" y="-37.7" font-family="Times,serif" font-size="14.00">b &#45;&gt; 0</text>
</g>
<!-- node_3 -->
<g id="node4" class="node">
<title>node_3</title>
<polygon fill="#ececff" stroke="#9370db" points="54,-63 0,-63 0,-27 54,-27 54,-63"/>
<text text-anchor="middle" x="27" y="-39.95" font-family="Times,serif" font-size="14.00">Start</text>
</g>
<!-- node_3&#45;&gt;node_0 -->
<g id="edge3" class="edge">
<title>node_3&#45;&gt;node_0</title>
<path fill="none" stroke="blue" stroke-width="2" d="M54.22,-45C62.12,-45 70.94,-45 79.43,-45"/>
<polygon fill="blue" stroke="blue" stroke-width="2" points="77.63,-48.5 87.63,-45 77.63,-41.5 77.63,-48.5"/>
</g>
</g>
</svg>
