<?xml version="1.0" encoding="UTF-8" standalone="no"?>
<!DOCTYPE svg PUBLIC "-//W3C//DTD SVG 1.1//EN"
 "http://www.w3.org/Graphics/SVG/1.1/DTD/svg11.dtd">
<!-- Generated by graphviz version 12.2.1 (20241206.2353)
 -->
<!-- Pages: 1 -->
<svg width="406pt" height="368pt"
 viewBox="0.00 0.00 405.67 368.00" xmlns="http://www.w3.org/2000/svg" xmlns:xlink="http://www.w3.org/1999/xlink">
<g id="graph0" class="graph" transform="scale(1 1) rotate(0) translate(4 364)">
<polygon fill="white" stroke="none" points="-4,4 -4,-364 401.67,-364 401.67,4 -4,4"/>
<!-- plus1 -->
<g id="node1" class="node">
<title>plus1</title>
<polygon fill="#ececff" stroke="#9370db" points="172,-217 0,-217 0,-143 172,-143 172,-217"/>
<text text-anchor="middle" x="86" y="-199.7" font-family="Times,serif" font-size="14.00">plus1</text>
<text text-anchor="middle" x="86" y="-183.2" font-family="Times,serif" font-size="14.00">regular_fathers={&#39;Start&#39;}</text>
<text text-anchor="middle" x="86" y="-166.7" font-family="Times,serif" font-size="14.00">for_each_fathers=set()</text>
<text text-anchor="middle" x="86" y="-150.2" font-family="Times,serif" font-size="14.00">mapping={&#39;Start&#39;: {0: (&#39;.&#39;,)}}</text>
</g>
<!-- End -->
<g id="node3" class="node">
<title>End</title>
<polygon fill="#ececff" stroke="#9370db" points="321.12,-74 38.88,-74 38.88,0 321.12,0 321.12,-74"/>
<text text-anchor="middle" x="180" y="-56.7" font-family="Times,serif" font-size="14.00">End</text>
<text text-anchor="middle" x="180" y="-40.2" font-family="Times,serif" font-size="14.00">regular_fathers={&#39;plus1&#39;, &#39;plus2&#39;}</text>
<text text-anchor="middle" x="180" y="-23.7" font-family="Times,serif" font-size="14.00">for_each_fathers=set()</text>
<text text-anchor="middle" x="180" y="-7.2" font-family="Times,serif" font-size="14.00">mapping={&#39;plus1&#39;: {&#39;x&#39;: (&#39;.&#39;,)}, &#39;plus2&#39;: {&#39;y&#39;: (&#39;.&#39;,)}}</text>
</g>
<!-- plus1&#45;&gt;End -->
<g id="edge1" class="edge">
<title>plus1&#45;&gt;End</title>
<path fill="none" stroke="black" d="M90.81,-142.51C94.27,-126.04 100.19,-106.96 110.25,-92 112.45,-88.72 114.92,-85.56 117.57,-82.52"/>
<polygon fill="black" stroke="black" points="120.04,-85.01 124.44,-75.37 114.99,-80.16 120.04,-85.01"/>
<text text-anchor="middle" x="178.12" y="-111.7" font-family="Times,serif" font-size="14.00">type=DiagramType.flow</text>
<text text-anchor="middle" x="178.12" y="-95.2" font-family="Times,serif" font-size="14.00">mapping={&#39;x&#39;: (&#39;.&#39;,)}</text>
</g>
<!-- Start -->
<g id="node2" class="node">
<title>Start</title>
<polygon fill="#ececff" stroke="#9370db" points="249.5,-360 110.5,-360 110.5,-286 249.5,-286 249.5,-360"/>
<text text-anchor="middle" x="180" y="-342.7" font-family="Times,serif" font-size="14.00">Start</text>
<text text-anchor="middle" x="180" y="-326.2" font-family="Times,serif" font-size="14.00">regular_fathers=set()</text>
<text text-anchor="middle" x="180" y="-309.7" font-family="Times,serif" font-size="14.00">for_each_fathers=set()</text>
<text text-anchor="middle" x="180" y="-293.2" font-family="Times,serif" font-size="14.00">mapping={}</text>
</g>
<!-- Start&#45;&gt;plus1 -->
<g id="edge2" class="edge">
<title>Start&#45;&gt;plus1</title>
<path fill="none" stroke="black" d="M125.49,-285.72C119.79,-280.29 114.52,-274.35 110.25,-268 102.39,-256.31 97.06,-242.11 93.45,-228.6"/>
<polygon fill="black" stroke="black" points="96.88,-227.88 91.16,-218.96 90.07,-229.5 96.88,-227.88"/>
<text text-anchor="middle" x="178.12" y="-254.7" font-family="Times,serif" font-size="14.00">type=DiagramType.flow</text>
<text text-anchor="middle" x="178.12" y="-238.2" font-family="Times,serif" font-size="14.00">mapping={0: (&#39;.&#39;,)}</text>
</g>
<!-- plus2 -->
<g id="node4" class="node">
<title>plus2</title>
<polygon fill="#ececff" stroke="#9370db" points="362,-217 190,-217 190,-143 362,-143 362,-217"/>
<text text-anchor="middle" x="276" y="-199.7" font-family="Times,serif" font-size="14.00">plus2</text>
<text text-anchor="middle" x="276" y="-183.2" font-family="Times,serif" font-size="14.00">regular_fathers={&#39;Start&#39;}</text>
<text text-anchor="middle" x="276" y="-166.7" font-family="Times,serif" font-size="14.00">for_each_fathers=set()</text>
<text text-anchor="middle" x="276" y="-150.2" font-family="Times,serif" font-size="14.00">mapping={&#39;Start&#39;: {0: (&#39;.&#39;,)}}</text>
</g>
<!-- Start&#45;&gt;plus2 -->
<g id="edge3" class="edge">
<title>Start&#45;&gt;plus2</title>
<path fill="none" stroke="black" d="M230.55,-285.81C236.26,-280.29 241.6,-274.32 246,-268 254.29,-256.1 260.47,-241.71 265,-228.09"/>
<polygon fill="black" stroke="black" points="268.25,-229.42 267.84,-218.83 261.56,-227.36 268.25,-229.42"/>
<text text-anchor="middle" x="329.8" y="-254.7" font-family="Times,serif" font-size="14.00">type=DiagramType.flow</text>
<text text-anchor="middle" x="329.8" y="-238.2" font-family="Times,serif" font-size="14.00">mapping={0: (&#39;.&#39;,)}</text>
</g>
<!-- plus2&#45;&gt;End -->
<g id="edge4" class="edge">
<title>plus2&#45;&gt;End</title>
<path fill="none" stroke="black" d="M268.28,-142.62C263.62,-126.16 256.5,-107.07 246,-92 243.66,-88.64 241.06,-85.38 238.28,-82.24"/>
<polygon fill="black" stroke="black" points="241.05,-80.07 231.6,-75.28 236,-84.92 241.05,-80.07"/>
<text text-anchor="middle" x="329.8" y="-111.7" font-family="Times,serif" font-size="14.00">type=DiagramType.flow</text>
<text text-anchor="middle" x="329.8" y="-95.2" font-family="Times,serif" font-size="14.00">mapping={&#39;y&#39;: (&#39;.&#39;,)}</text>
</g>
</g>
</svg>
