<?xml version="1.0" encoding="UTF-8" standalone="no"?>
<!DOCTYPE svg PUBLIC "-//W3C//DTD SVG 1.1//EN"
 "http://www.w3.org/Graphics/SVG/1.1/DTD/svg11.dtd">
<!-- Generated by graphviz version 12.2.1 (20241206.2353)
 -->
<!-- Title: anon_from_parallel_start_to_add Pages: 1 -->
<svg width="377pt" height="123pt"
 viewBox="0.00 0.00 377.25 122.50" xmlns="http://www.w3.org/2000/svg" xmlns:xlink="http://www.w3.org/1999/xlink">
<g id="graph0" class="graph" transform="scale(1 1) rotate(0) translate(4 118.5)">
<title>anon_from_parallel_start_to_add</title>
<polygon fill="white" stroke="none" points="-4,4 -4,-118.5 373.25,-118.5 373.25,4 -4,4"/>
<text text-anchor="middle" x="184.62" y="-97.2" font-family="Times,serif" font-size="14.00">anon_from_parallel_start_to_add</text>
<!-- node_0 -->
<g id="node1" class="node">
<title>node_0</title>
<polygon fill="#ececff" stroke="#9370db" points="86.5,-62 0,-62 0,-26 86.5,-26 86.5,-62"/>
<text text-anchor="middle" x="43.25" y="-38.95" font-family="Times,serif" font-size="14.00">parallel_start</text>
</g>
<!-- node_1 -->
<g id="node2" class="node">
<title>node_1</title>
<polygon fill="#ececff" stroke="#9370db" points="231,-90 123.5,-90 123.5,-54 231,-54 231,-90"/>
<text text-anchor="middle" x="177.25" y="-66.95" font-family="Times,serif" font-size="14.00">square[ Pow(2) ]</text>
</g>
<!-- node_0&#45;&gt;node_1 -->
<g id="edge1" class="edge">
<title>node_0&#45;&gt;node_1</title>
<path fill="none" stroke="black" d="M86.74,-53.01C94.81,-54.73 103.42,-56.55 111.99,-58.37"/>
<polygon fill="black" stroke="black" points="111.2,-61.78 121.71,-60.43 112.65,-54.93 111.2,-61.78"/>
</g>
<!-- node_2 -->
<g id="node3" class="node">
<title>node_2</title>
<polygon fill="#ececff" stroke="#9370db" points="226.12,-36 128.38,-36 128.38,0 226.12,0 226.12,-36"/>
<text text-anchor="middle" x="177.25" y="-12.95" font-family="Times,serif" font-size="14.00">cube[ Pow(3) ]</text>
</g>
<!-- node_0&#45;&gt;node_2 -->
<g id="edge2" class="edge">
<title>node_0&#45;&gt;node_2</title>
<path fill="none" stroke="black" d="M86.74,-35.63C96.48,-33.71 107.01,-31.64 117.31,-29.61"/>
<polygon fill="black" stroke="black" points="117.72,-33.1 126.85,-27.73 116.37,-26.23 117.72,-33.1"/>
</g>
<!-- node_3 -->
<g id="node4" class="node">
<title>node_3</title>
<polygon fill="#ececff" stroke="#9370db" points="369.25,-63 297.75,-63 297.75,-27 369.25,-27 369.25,-63"/>
<text text-anchor="middle" x="333.5" y="-39.95" font-family="Times,serif" font-size="14.00">add[ add ]</text>
</g>
<!-- node_1&#45;&gt;node_3 -->
<g id="edge3" class="edge">
<title>node_1&#45;&gt;node_3</title>
<path fill="none" stroke="black" d="M231.33,-62.71C249.21,-59.58 268.99,-56.12 286.29,-53.09"/>
<polygon fill="black" stroke="black" points="286.52,-56.6 295.76,-51.43 285.31,-49.71 286.52,-56.6"/>
<text text-anchor="middle" x="264.38" y="-62.51" font-family="Times,serif" font-size="14.00">. &#45;&gt; a</text>
</g>
<!-- node_2&#45;&gt;node_3 -->
<g id="edge4" class="edge">
<title>node_2&#45;&gt;node_3</title>
<path fill="none" stroke="black" d="M226.58,-25.5C243.43,-28.21 262.45,-31.37 279.75,-34.5 281.89,-34.89 284.07,-35.29 286.27,-35.7"/>
<polygon fill="black" stroke="black" points="285.38,-39.09 295.86,-37.54 286.7,-32.22 285.38,-39.09"/>
<text text-anchor="middle" x="264.38" y="-37.7" font-family="Times,serif" font-size="14.00">. &#45;&gt; b</text>
</g>
</g>
</svg>
