<?xml version="1.0" encoding="UTF-8" standalone="no"?>
<!DOCTYPE svg PUBLIC "-//W3C//DTD SVG 1.1//EN"
 "http://www.w3.org/Graphics/SVG/1.1/DTD/svg11.dtd">
<!-- Generated by graphviz version 12.2.1 (20241206.2353)
 -->
<!-- Title: init_state_no_clash Pages: 1 -->
<svg width="636pt" height="123pt"
 viewBox="0.00 0.00 635.50 122.50" xmlns="http://www.w3.org/2000/svg" xmlns:xlink="http://www.w3.org/1999/xlink">
<g id="graph0" class="graph" transform="scale(1 1) rotate(0) translate(4 118.5)">
<title>init_state_no_clash</title>
<polygon fill="white" stroke="none" points="-4,4 -4,-118.5 631.5,-118.5 631.5,4 -4,4"/>
<text text-anchor="middle" x="313.75" y="-97.2" font-family="Times,serif" font-size="14.00">init_state_no_clash</text>
<!-- node_0 -->
<g id="node1" class="node">
<title>node_0</title>
<polygon fill="#ececff" stroke="#9370db" points="218,-63 136.75,-63 136.75,-27 218,-27 218,-63"/>
<text text-anchor="middle" x="177.38" y="-39.95" font-family="Times,serif" font-size="14.00">add1[ plus ]</text>
</g>
<!-- node_2 -->
<g id="node3" class="node">
<title>node_2</title>
<path fill="#ececff" stroke="#9370db" d="M388.5,-86.73C388.5,-88.53 365.25,-90 336.62,-90 308,-90 284.75,-88.53 284.75,-86.73 284.75,-86.73 284.75,-57.27 284.75,-57.27 284.75,-55.47 308,-54 336.62,-54 365.25,-54 388.5,-55.47 388.5,-57.27 388.5,-57.27 388.5,-86.73 388.5,-86.73"/>
<path fill="none" stroke="#9370db" d="M388.5,-86.73C388.5,-84.92 365.25,-83.45 336.62,-83.45 308,-83.45 284.75,-84.92 284.75,-86.73"/>
<text text-anchor="middle" x="336.62" y="-66.95" font-family="Times,serif" font-size="14.00">State[first_sum]</text>
</g>
<!-- node_0&#45;&gt;node_2 -->
<g id="edge2" class="edge">
<title>node_0&#45;&gt;node_2</title>
<path fill="none" stroke="black" stroke-dasharray="5,2" d="M218.46,-51.88C235.04,-54.73 254.66,-58.1 273.05,-61.26"/>
<polygon fill="black" stroke="black" points="272.36,-64.69 282.81,-62.93 273.55,-57.79 272.36,-64.69"/>
</g>
<!-- node_4 -->
<g id="node5" class="node">
<title>node_4</title>
<polygon fill="#ececff" stroke="#9370db" stroke-dasharray="5,2" points="363.62,-36 309.62,-36 309.62,0 363.62,0 363.62,-36"/>
<text text-anchor="middle" x="336.62" y="-12.95" font-family="Times,serif" font-size="14.00">break</text>
</g>
<!-- node_0&#45;&gt;node_4 -->
<g id="edge4" class="edge">
<title>node_0&#45;&gt;node_4</title>
<path fill="none" stroke="blue" stroke-width="2" d="M218.35,-37.63C224.26,-36.56 230.29,-35.49 236,-34.5 256.5,-30.93 279.41,-27.13 298.08,-24.07"/>
<polygon fill="blue" stroke="blue" stroke-width="2" points="297.09,-27.78 306.4,-22.71 295.97,-20.87 297.09,-27.78"/>
<text text-anchor="middle" x="251.38" y="-37.7" font-family="Times,serif" font-size="14.00">. &#45;&gt; x</text>
</g>
<!-- node_1 -->
<g id="node2" class="node">
<title>node_1</title>
<path fill="#ececff" stroke="#9370db" d="M70,-86.73C70,-88.53 54.31,-90 35,-90 15.69,-90 0,-88.53 0,-86.73 0,-86.73 0,-57.27 0,-57.27 0,-55.47 15.69,-54 35,-54 54.31,-54 70,-55.47 70,-57.27 70,-57.27 70,-86.73 70,-86.73"/>
<path fill="none" stroke="#9370db" d="M70,-86.73C70,-84.92 54.31,-83.45 35,-83.45 15.69,-83.45 0,-84.92 0,-86.73"/>
<text text-anchor="middle" x="35" y="-66.95" font-family="Times,serif" font-size="14.00">State[init]</text>
</g>
<!-- node_1&#45;&gt;node_0 -->
<g id="edge1" class="edge">
<title>node_1&#45;&gt;node_0</title>
<path fill="none" stroke="black" stroke-dasharray="5,2" d="M70.34,-65.4C86.87,-62.21 107.04,-58.34 125.33,-54.82"/>
<polygon fill="black" stroke="black" points="125.78,-58.3 134.93,-52.97 124.45,-51.42 125.78,-58.3"/>
<text text-anchor="middle" x="103.38" y="-64.91" font-family="Times,serif" font-size="14.00">. &#45;&gt; y</text>
</g>
<!-- node_5 -->
<g id="node6" class="node">
<title>node_5</title>
<polygon fill="#ececff" stroke="#9370db" points="536.5,-63 455.25,-63 455.25,-27 536.5,-27 536.5,-63"/>
<text text-anchor="middle" x="495.88" y="-39.95" font-family="Times,serif" font-size="14.00">add2[ plus ]</text>
</g>
<!-- node_2&#45;&gt;node_5 -->
<g id="edge3" class="edge">
<title>node_2&#45;&gt;node_5</title>
<path fill="none" stroke="black" stroke-dasharray="5,2" d="M388.68,-63.23C406.26,-60.22 425.95,-56.83 443.55,-53.81"/>
<polygon fill="black" stroke="black" points="444.02,-57.28 453.29,-52.14 442.84,-50.38 444.02,-57.28"/>
<text text-anchor="middle" x="421.88" y="-63.32" font-family="Times,serif" font-size="14.00">. &#45;&gt; y</text>
</g>
<!-- node_3 -->
<g id="node4" class="node">
<title>node_3</title>
<polygon fill="#ececff" stroke="#9370db" points="62,-36 8,-36 8,0 62,0 62,-36"/>
<text text-anchor="middle" x="35" y="-12.95" font-family="Times,serif" font-size="14.00">Start</text>
</g>
<!-- node_3&#45;&gt;node_0 -->
<g id="edge5" class="edge">
<title>node_3&#45;&gt;node_0</title>
<path fill="none" stroke="blue" stroke-width="2" d="M62.4,-23.08C80.04,-26.47 103.82,-31.04 125.1,-35.14"/>
<polygon fill="blue" stroke="blue" stroke-width="2" points="122.82,-38.26 133.3,-36.72 124.14,-31.39 122.82,-38.26"/>
<text text-anchor="middle" x="103.38" y="-36.32" font-family="Times,serif" font-size="14.00">. &#45;&gt; x</text>
</g>
<!-- node_4&#45;&gt;node_5 -->
<g id="edge6" class="edge">
<title>node_4&#45;&gt;node_5</title>
<path fill="none" stroke="blue" stroke-width="2" d="M363.86,-22.23C383.96,-25.49 412.38,-30.17 437.25,-34.5 439.39,-34.87 441.58,-35.26 443.78,-35.65"/>
<polygon fill="blue" stroke="blue" stroke-width="2" points="441.46,-38.79 451.92,-37.1 442.69,-31.9 441.46,-38.79"/>
<text text-anchor="middle" x="421.88" y="-37.7" font-family="Times,serif" font-size="14.00">. &#45;&gt; x</text>
</g>
<!-- node_6 -->
<g id="node7" class="node">
<title>node_6</title>
<polygon fill="#ececff" stroke="#9370db" points="627.5,-63 573.5,-63 573.5,-27 627.5,-27 627.5,-63"/>
<text text-anchor="middle" x="600.5" y="-39.95" font-family="Times,serif" font-size="14.00">End</text>
</g>
<!-- node_5&#45;&gt;node_6 -->
<g id="edge7" class="edge">
<title>node_5&#45;&gt;node_6</title>
<path fill="none" stroke="blue" stroke-width="2" d="M536.85,-45C545.01,-45 553.59,-45 561.67,-45"/>
<polygon fill="blue" stroke="blue" stroke-width="2" points="560.05,-48.5 570.05,-45 560.05,-41.5 560.05,-48.5"/>
</g>
</g>
</svg>
