<?xml version="1.0" encoding="UTF-8" standalone="no"?>
<!DOCTYPE svg PUBLIC "-//W3C//DTD SVG 1.1//EN"
 "http://www.w3.org/Graphics/SVG/1.1/DTD/svg11.dtd">
<!-- Generated by graphviz version 12.2.1 (20241206.2353)
 -->
<!-- Title: TestDef Pages: 1 -->
<svg width="547pt" height="125pt"
 viewBox="0.00 0.00 547.25 124.50" xmlns="http://www.w3.org/2000/svg" xmlns:xlink="http://www.w3.org/1999/xlink">
<g id="graph0" class="graph" transform="scale(1 1) rotate(0) translate(4 120.5)">
<title>TestDef</title>
<polygon fill="white" stroke="none" points="-4,4 -4,-120.5 543.25,-120.5 543.25,4 -4,4"/>
<text text-anchor="middle" x="269.62" y="-99.2" font-family="Times,serif" font-size="14.00">TestDef</text>
<!-- node_0 -->
<g id="node1" class="node">
<title>node_0</title>
<polygon fill="#ececff" stroke="#9370db" points="54,-61 0,-61 0,-25 54,-25 54,-61"/>
<text text-anchor="middle" x="27" y="-37.95" font-family="Times,serif" font-size="14.00">Start</text>
</g>
<!-- node_3 -->
<g id="node4" class="node">
<title>node_3</title>
<polygon fill="#ececff" stroke="#9370db" points="387.5,-71.75 91,-71.75 91,-14.25 387.5,-14.25 387.5,-71.75"/>
<text text-anchor="middle" x="239.25" y="-54.45" font-family="Times,serif" font-size="14.00">anon_from_add1_to_sum[</text>
<text text-anchor="middle" x="239.25" y="-37.95" font-family="Times,serif" font-size="14.00">Diagram(anon_from_add1_to_sum)@0x10d6ce3f0</text>
<text text-anchor="middle" x="239.25" y="-21.45" font-family="Times,serif" font-size="14.00">]</text>
</g>
<!-- node_0&#45;&gt;node_3 -->
<g id="edge1" class="edge">
<title>node_0&#45;&gt;node_3</title>
<path fill="none" stroke="blue" stroke-width="2" d="M54.2,-43C61.56,-43 70.14,-43 79.48,-43"/>
<polygon fill="blue" stroke="blue" stroke-width="2" points="77.76,-46.5 87.76,-43 77.76,-39.5 77.76,-46.5"/>
</g>
<!-- node_1 -->
<g id="node2" class="node">
<title>node_1</title>
<polygon fill="#ececff" stroke="#9370db" points="530.5,-36 476.5,-36 476.5,0 530.5,0 530.5,-36"/>
<text text-anchor="middle" x="503.5" y="-12.95" font-family="Times,serif" font-size="14.00">End</text>
</g>
<!-- node_2 -->
<g id="node3" class="node">
<title>node_2</title>
<polygon fill="#ececff" stroke="#9370db" points="539.25,-92 467.75,-92 467.75,-56 539.25,-56 539.25,-92"/>
<text text-anchor="middle" x="503.5" y="-68.95" font-family="Times,serif" font-size="14.00">add_again</text>
</g>
<!-- node_2&#45;&gt;node_3 -->
<g id="edge2" class="edge">
<title>node_2&#45;&gt;node_3</title>
<path fill="none" stroke="blue" stroke-width="2" d="M467.34,-61.36C461.53,-59.65 455.51,-58.1 449.75,-57 433.45,-53.88 416.32,-51.42 399.18,-49.5"/>
<polygon fill="blue" stroke="blue" stroke-width="2" points="401.24,-46.2 390.92,-48.63 400.5,-53.16 401.24,-46.2"/>
</g>
<!-- node_3&#45;&gt;node_1 -->
<g id="edge3" class="edge">
<title>node_3&#45;&gt;node_1</title>
<path fill="none" stroke="blue" stroke-width="2" d="M387.85,-28.93C416.42,-26.21 443.92,-23.58 464.83,-21.59"/>
<polygon fill="blue" stroke="blue" stroke-width="2" points="463.39,-25.24 473.01,-20.81 462.73,-18.28 463.39,-25.24"/>
</g>
<!-- node_3&#45;&gt;node_2 -->
<g id="edge4" class="edge">
<title>node_3&#45;&gt;node_2</title>
<path fill="none" stroke="blue" stroke-width="2" d="M387.85,-60.45C412.57,-63.37 436.48,-66.2 456.02,-68.51"/>
<polygon fill="blue" stroke="blue" stroke-width="2" points="453.94,-71.78 464.28,-69.48 454.76,-64.83 453.94,-71.78"/>
<text text-anchor="middle" x="427.62" y="-70.5" font-family="Times,serif" font-size="14.00">?(is112)</text>
</g>
</g>
</svg>
