<?xml version="1.0" encoding="UTF-8" standalone="no"?>
<!DOCTYPE svg PUBLIC "-//W3C//DTD SVG 1.1//EN"
 "http://www.w3.org/Graphics/SVG/1.1/DTD/svg11.dtd">
<!-- Generated by graphviz version 12.2.1 (20241206.2353)
 -->
<!-- Pages: 1 -->
<svg width="525pt" height="238pt"
 viewBox="0.00 0.00 525.38 237.50" xmlns="http://www.w3.org/2000/svg" xmlns:xlink="http://www.w3.org/1999/xlink">
<g id="graph0" class="graph" transform="scale(1 1) rotate(0) translate(4 233.5)">
<polygon fill="white" stroke="none" points="-4,4 -4,-233.5 521.38,-233.5 521.38,4 -4,4"/>
<!-- Start -->
<g id="node1" class="node">
<title>Start</title>
<polygon fill="#ececff" stroke="#9370db" points="215.69,-229.5 161.69,-229.5 161.69,-193.5 215.69,-193.5 215.69,-229.5"/>
<text text-anchor="middle" x="188.69" y="-206.45" font-family="Times,serif" font-size="14.00">Start</text>
</g>
<!-- anon_from_add1_to_sum -->
<g id="node4" class="node">
<title>anon_from_add1_to_sum</title>
<polygon fill="#ececff" stroke="#9370db" points="266.82,-141 110.57,-141 110.57,-105 266.82,-105 266.82,-141"/>
<text text-anchor="middle" x="188.69" y="-117.95" font-family="Times,serif" font-size="14.00">anon_from_add1_to_sum</text>
</g>
<!-- Start&#45;&gt;anon_from_add1_to_sum -->
<g id="edge1" class="edge">
<title>Start&#45;&gt;anon_from_add1_to_sum</title>
<path fill="none" stroke="black" d="M188.69,-193.41C188.69,-181.76 188.69,-166.05 188.69,-152.52"/>
<polygon fill="black" stroke="black" points="192.19,-152.86 188.69,-142.86 185.19,-152.86 192.19,-152.86"/>
<text text-anchor="middle" x="266.69" y="-162.2" font-family="Times,serif" font-size="14.00">type=DiagramType.decision</text>
</g>
<!-- End -->
<g id="node2" class="node">
<title>End</title>
<polygon fill="#ececff" stroke="#9370db" points="394.69,-36 340.69,-36 340.69,0 394.69,0 394.69,-36"/>
<text text-anchor="middle" x="367.69" y="-12.95" font-family="Times,serif" font-size="14.00">End</text>
</g>
<!-- add_again -->
<g id="node3" class="node">
<title>add_again</title>
<polygon fill="#ececff" stroke="#9370db" points="135.44,-36 63.94,-36 63.94,0 135.44,0 135.44,-36"/>
<text text-anchor="middle" x="99.69" y="-12.95" font-family="Times,serif" font-size="14.00">add_again</text>
</g>
<!-- add_again&#45;&gt;anon_from_add1_to_sum -->
<g id="edge2" class="edge">
<title>add_again&#45;&gt;anon_from_add1_to_sum</title>
<path fill="none" stroke="black" d="M135.62,-31.48C146.87,-36.89 158.48,-44.27 166.69,-54 176.11,-65.15 181.51,-80.4 184.61,-93.63"/>
<polygon fill="black" stroke="black" points="181.11,-93.97 186.48,-103.1 187.97,-92.61 181.11,-93.97"/>
<text text-anchor="middle" x="260.79" y="-65.45" font-family="Times,serif" font-size="14.00">type=DiagramType.decision</text>
</g>
<!-- anon_from_add1_to_sum&#45;&gt;End -->
<g id="edge3" class="edge">
<title>anon_from_add1_to_sum&#45;&gt;End</title>
<path fill="none" stroke="black" d="M267.02,-111.24C298.85,-105.46 330.9,-97.36 342.69,-87 354.14,-76.95 360.35,-61.19 363.72,-47.37"/>
<polygon fill="black" stroke="black" points="367.09,-48.37 365.63,-37.88 360.22,-46.99 367.09,-48.37"/>
<text text-anchor="middle" x="439.38" y="-65.45" font-family="Times,serif" font-size="14.00">type=DiagramType.decision</text>
</g>
<!-- anon_from_add1_to_sum&#45;&gt;add_again -->
<g id="edge4" class="edge">
<title>anon_from_add1_to_sum&#45;&gt;add_again</title>
<path fill="none" stroke="black" d="M110.49,-116.74C67.46,-112.03 20.12,-103.25 6.69,-87 -2.65,-75.69 -1.65,-66.06 6.69,-54 17.26,-38.73 35.39,-30.11 52.85,-25.25"/>
<polygon fill="black" stroke="black" points="53.18,-28.77 62.09,-23.04 51.55,-21.97 53.18,-28.77"/>
<text text-anchor="middle" x="84.69" y="-73.7" font-family="Times,serif" font-size="14.00">type=DiagramType.decision</text>
<text text-anchor="middle" x="84.69" y="-57.2" font-family="Times,serif" font-size="14.00">condition=is112</text>
</g>
</g>
</svg>
