<?xml version="1.0" encoding="UTF-8" standalone="no"?>
<!DOCTYPE svg PUBLIC "-//W3C//DTD SVG 1.1//EN"
 "http://www.w3.org/Graphics/SVG/1.1/DTD/svg11.dtd">
<!-- Generated by graphviz version 12.2.1 (20241206.2353)
 -->
<!-- Title: anon_from_add1_to_sum Pages: 1 -->
<svg width="388pt" height="123pt"
 viewBox="0.00 0.00 387.50 122.50" xmlns="http://www.w3.org/2000/svg" xmlns:xlink="http://www.w3.org/1999/xlink">
<g id="graph0" class="graph" transform="scale(1 1) rotate(0) translate(4 118.5)">
<title>anon_from_add1_to_sum</title>
<polygon fill="white" stroke="none" points="-4,4 -4,-118.5 383.5,-118.5 383.5,4 -4,4"/>
<text text-anchor="middle" x="189.75" y="-97.2" font-family="Times,serif" font-size="14.00">anon_from_add1_to_sum</text>
<!-- node_0 -->
<g id="node1" class="node">
<title>node_0</title>
<polygon fill="#ececff" stroke="#9370db" points="107.5,-63 0,-63 0,-27 107.5,-27 107.5,-63"/>
<text text-anchor="middle" x="53.75" y="-39.95" font-family="Times,serif" font-size="14.00">add1[ Adder(1) ]</text>
</g>
<!-- node_1 -->
<g id="node2" class="node">
<title>node_1</title>
<polygon fill="#ececff" stroke="#9370db" points="264.5,-90 143.5,-90 143.5,-54 264.5,-54 264.5,-90"/>
<text text-anchor="middle" x="204" y="-66.95" font-family="Times,serif" font-size="14.00">add10[ Adder(10) ]</text>
</g>
<!-- node_0&#45;&gt;node_1 -->
<g id="edge1" class="edge">
<title>node_0&#45;&gt;node_1</title>
<path fill="none" stroke="black" d="M107.85,-54.67C115.74,-56.11 123.96,-57.61 132.14,-59.09"/>
<polygon fill="black" stroke="black" points="131.26,-62.49 141.73,-60.84 132.52,-55.61 131.26,-62.49"/>
</g>
<!-- node_2 -->
<g id="node3" class="node">
<title>node_2</title>
<polygon fill="#ececff" stroke="#9370db" points="231.88,-36 176.12,-36 176.12,0 231.88,0 231.88,-36"/>
<text text-anchor="middle" x="204" y="-12.95" font-family="Times,serif" font-size="14.00">add100</text>
</g>
<!-- node_0&#45;&gt;node_2 -->
<g id="edge2" class="edge">
<title>node_0&#45;&gt;node_2</title>
<path fill="none" stroke="black" d="M107.85,-35.33C126.8,-31.88 147.74,-28.06 165.15,-24.89"/>
<polygon fill="black" stroke="black" points="165.32,-28.42 174.53,-23.19 164.06,-21.53 165.32,-28.42"/>
</g>
<!-- node_3 -->
<g id="node4" class="node">
<title>node_3</title>
<polygon fill="#ececff" stroke="#9370db" points="379.5,-63 300.5,-63 300.5,-27 379.5,-27 379.5,-63"/>
<text text-anchor="middle" x="340" y="-39.95" font-family="Times,serif" font-size="14.00">sum[ sum ]</text>
</g>
<!-- node_1&#45;&gt;node_3 -->
<g id="edge3" class="edge">
<title>node_1&#45;&gt;node_3</title>
<path fill="none" stroke="black" d="M264.95,-59.92C273,-58.3 281.19,-56.65 289.04,-55.07"/>
<polygon fill="black" stroke="black" points="289.66,-58.51 298.77,-53.11 288.28,-51.65 289.66,-58.51"/>
</g>
<!-- node_2&#45;&gt;node_3 -->
<g id="edge4" class="edge">
<title>node_2&#45;&gt;node_3</title>
<path fill="none" stroke="black" d="M232.12,-23.46C248.48,-26.76 269.84,-31.06 289.16,-34.96"/>
<polygon fill="black" stroke="black" points="288.26,-38.35 298.76,-36.89 289.65,-31.49 288.26,-38.35"/>
</g>
</g>
</svg>
