<?xml version="1.0" encoding="UTF-8" standalone="no"?>
<!DOCTYPE svg PUBLIC "-//W3C//DTD SVG 1.1//EN"
 "http://www.w3.org/Graphics/SVG/1.1/DTD/svg11.dtd">
<!-- Generated by graphviz version 12.2.1 (20241206.2353)
 -->
<!-- Title: TestDef Pages: 1 -->
<svg width="332pt" height="123pt"
 viewBox="0.00 0.00 332.00 122.50" xmlns="http://www.w3.org/2000/svg" xmlns:xlink="http://www.w3.org/1999/xlink">
<g id="graph0" class="graph" transform="scale(1 1) rotate(0) translate(4 118.5)">
<title>TestDef</title>
<polygon fill="white" stroke="none" points="-4,4 -4,-118.5 328,-118.5 328,4 -4,4"/>
<text text-anchor="middle" x="162" y="-97.2" font-family="Times,serif" font-size="14.00">TestDef</text>
<!-- node_0 -->
<g id="node1" class="node">
<title>node_0</title>
<polygon fill="#ececff" stroke="#9370db" points="54,-63 0,-63 0,-27 54,-27 54,-63"/>
<text text-anchor="middle" x="27" y="-39.95" font-family="Times,serif" font-size="14.00">Start</text>
</g>
<!-- node_2 -->
<g id="node3" class="node">
<title>node_2</title>
<polygon fill="#ececff" stroke="#9370db" points="144,-90 90,-90 90,-54 144,-54 144,-90"/>
<text text-anchor="middle" x="117" y="-66.95" font-family="Times,serif" font-size="14.00">split1</text>
</g>
<!-- node_0&#45;&gt;node_2 -->
<g id="edge1" class="edge">
<title>node_0&#45;&gt;node_2</title>
<path fill="none" stroke="black" d="M54.4,-53.1C62.06,-55.45 70.57,-58.06 78.76,-60.57"/>
<polygon fill="black" stroke="black" points="77.58,-63.87 88.17,-63.46 79.64,-57.18 77.58,-63.87"/>
</g>
<!-- node_3 -->
<g id="node4" class="node">
<title>node_3</title>
<polygon fill="#ececff" stroke="#9370db" points="144,-36 90,-36 90,0 144,0 144,-36"/>
<text text-anchor="middle" x="117" y="-12.95" font-family="Times,serif" font-size="14.00">split2</text>
</g>
<!-- node_0&#45;&gt;node_3 -->
<g id="edge2" class="edge">
<title>node_0&#45;&gt;node_3</title>
<path fill="none" stroke="black" d="M54.4,-36.9C62.06,-34.55 70.57,-31.94 78.76,-29.43"/>
<polygon fill="black" stroke="black" points="79.64,-32.82 88.17,-26.54 77.58,-26.13 79.64,-32.82"/>
</g>
<!-- node_1 -->
<g id="node2" class="node">
<title>node_1</title>
<polygon fill="#ececff" stroke="#9370db" points="324,-63 270,-63 270,-27 324,-27 324,-63"/>
<text text-anchor="middle" x="297" y="-39.95" font-family="Times,serif" font-size="14.00">End</text>
</g>
<!-- node_4 -->
<g id="node5" class="node">
<title>node_4</title>
<polygon fill="#ececff" stroke="#9370db" points="234,-63 180,-63 180,-27 234,-27 234,-63"/>
<text text-anchor="middle" x="207" y="-39.95" font-family="Times,serif" font-size="14.00">join</text>
</g>
<!-- node_2&#45;&gt;node_4 -->
<g id="edge3" class="edge">
<title>node_2&#45;&gt;node_4</title>
<path fill="none" stroke="black" d="M144.4,-63.9C152.06,-61.55 160.57,-58.94 168.76,-56.43"/>
<polygon fill="black" stroke="black" points="169.64,-59.82 178.17,-53.54 167.58,-53.13 169.64,-59.82"/>
</g>
<!-- node_3&#45;&gt;node_4 -->
<g id="edge4" class="edge">
<title>node_3&#45;&gt;node_4</title>
<path fill="none" stroke="black" d="M144.4,-26.1C152.06,-28.45 160.57,-31.06 168.76,-33.57"/>
<polygon fill="black" stroke="black" points="167.58,-36.87 178.17,-36.46 169.64,-30.18 167.58,-36.87"/>
</g>
<!-- node_4&#45;&gt;node_1 -->
<g id="edge5" class="edge">
<title>node_4&#45;&gt;node_1</title>
<path fill="none" stroke="blue" stroke-width="2" d="M234.4,-45C241.89,-45 250.18,-45 258.2,-45"/>
<polygon fill="blue" stroke="blue" stroke-width="2" points="256.59,-48.5 266.59,-45 256.59,-41.5 256.59,-48.5"/>
</g>
</g>
</svg>
