<?xml version="1.0" encoding="UTF-8" standalone="no"?>
<!DOCTYPE svg PUBLIC "-//W3C//DTD SVG 1.1//EN"
 "http://www.w3.org/Graphics/SVG/1.1/DTD/svg11.dtd">
<!-- Generated by graphviz version 12.2.1 (20241206.2353)
 -->
<!-- Title: TestDef Pages: 1 -->
<svg width="458pt" height="231pt"
 viewBox="0.00 0.00 458.00 230.50" xmlns="http://www.w3.org/2000/svg" xmlns:xlink="http://www.w3.org/1999/xlink">
<g id="graph0" class="graph" transform="scale(1 1) rotate(0) translate(4 226.5)">
<title>TestDef</title>
<polygon fill="white" stroke="none" points="-4,4 -4,-226.5 454,-226.5 454,4 -4,4"/>
<text text-anchor="middle" x="225" y="-205.2" font-family="Times,serif" font-size="14.00">TestDef</text>
<!-- node_0 -->
<g id="node1" class="node">
<title>node_0</title>
<polygon fill="#ececff" stroke="#9370db" points="54,-117 0,-117 0,-81 54,-81 54,-117"/>
<text text-anchor="middle" x="27" y="-93.95" font-family="Times,serif" font-size="14.00">Start</text>
</g>
<!-- node_1 -->
<g id="node2" class="node">
<title>node_1</title>
<polygon fill="#ececff" stroke="#9370db" points="148,-144 90,-144 90,-108 148,-108 148,-144"/>
<text text-anchor="middle" x="119" y="-120.95" font-family="Times,serif" font-size="14.00">choice1</text>
</g>
<!-- node_0&#45;&gt;node_1 -->
<g id="edge1" class="edge">
<title>node_0&#45;&gt;node_1</title>
<path fill="none" stroke="black" d="M54.03,-106.81C61.67,-109.1 70.2,-111.66 78.48,-114.14"/>
<polygon fill="black" stroke="black" points="77.47,-117.5 88.06,-117.02 79.48,-110.79 77.47,-117.5"/>
</g>
<!-- node_2 -->
<g id="node3" class="node">
<title>node_2</title>
<polygon fill="#ececff" stroke="#9370db" points="148,-90 90,-90 90,-54 148,-54 148,-90"/>
<text text-anchor="middle" x="119" y="-66.95" font-family="Times,serif" font-size="14.00">choice2</text>
</g>
<!-- node_0&#45;&gt;node_2 -->
<g id="edge2" class="edge">
<title>node_0&#45;&gt;node_2</title>
<path fill="none" stroke="black" d="M54.03,-91.19C61.67,-88.9 70.2,-86.34 78.48,-83.86"/>
<polygon fill="black" stroke="black" points="79.48,-87.21 88.06,-80.98 77.47,-80.5 79.48,-87.21"/>
</g>
<!-- node_6 -->
<g id="node7" class="node">
<title>node_6</title>
<polygon fill="#ececff" stroke="#9370db" points="238.88,-198 184.88,-198 184.88,-162 238.88,-162 238.88,-198"/>
<text text-anchor="middle" x="211.88" y="-174.95" font-family="Times,serif" font-size="14.00">add10</text>
</g>
<!-- node_1&#45;&gt;node_6 -->
<g id="edge3" class="edge">
<title>node_1&#45;&gt;node_6</title>
<path fill="none" stroke="blue" stroke-width="2" d="M148.26,-142.79C156.66,-147.78 165.98,-153.32 174.81,-158.57"/>
<polygon fill="blue" stroke="blue" stroke-width="2" points="171.51,-160.68 181.89,-162.78 175.09,-154.66 171.51,-160.68"/>
</g>
<!-- node_7 -->
<g id="node8" class="node">
<title>node_7</title>
<polygon fill="#ececff" stroke="#9370db" points="239.75,-144 184,-144 184,-108 239.75,-108 239.75,-144"/>
<text text-anchor="middle" x="211.88" y="-120.95" font-family="Times,serif" font-size="14.00">add100</text>
</g>
<!-- node_1&#45;&gt;node_7 -->
<g id="edge4" class="edge">
<title>node_1&#45;&gt;node_7</title>
<path fill="none" stroke="blue" stroke-width="2" d="M148.26,-126C155.82,-126 164.12,-126 172.14,-126"/>
<polygon fill="blue" stroke="blue" stroke-width="2" points="170.54,-129.5 180.54,-126 170.54,-122.5 170.54,-129.5"/>
</g>
<!-- node_8 -->
<g id="node9" class="node">
<title>node_8</title>
<polygon fill="#ececff" stroke="#9370db" points="238.88,-90 184.88,-90 184.88,-54 238.88,-54 238.88,-90"/>
<text text-anchor="middle" x="211.88" y="-66.95" font-family="Times,serif" font-size="14.00">square</text>
</g>
<!-- node_2&#45;&gt;node_8 -->
<g id="edge5" class="edge">
<title>node_2&#45;&gt;node_8</title>
<path fill="none" stroke="blue" stroke-width="2" d="M148.26,-72C156.12,-72 164.78,-72 173.1,-72"/>
<polygon fill="blue" stroke="blue" stroke-width="2" points="171.47,-75.5 181.47,-72 171.47,-68.5 171.47,-75.5"/>
</g>
<!-- node_9 -->
<g id="node10" class="node">
<title>node_9</title>
<polygon fill="#ececff" stroke="#9370db" points="238.88,-36 184.88,-36 184.88,0 238.88,0 238.88,-36"/>
<text text-anchor="middle" x="211.88" y="-12.95" font-family="Times,serif" font-size="14.00">cube</text>
</g>
<!-- node_2&#45;&gt;node_9 -->
<g id="edge6" class="edge">
<title>node_2&#45;&gt;node_9</title>
<path fill="none" stroke="blue" stroke-width="2" d="M148.26,-55.21C156.66,-50.22 165.98,-44.68 174.81,-39.43"/>
<polygon fill="blue" stroke="blue" stroke-width="2" points="175.09,-43.34 181.89,-35.22 171.51,-37.32 175.09,-43.34"/>
</g>
<!-- node_3 -->
<g id="node4" class="node">
<title>node_3</title>
<polygon fill="#ececff" stroke="#9370db" points="360,-144 275.75,-144 275.75,-108 360,-108 360,-144"/>
<text text-anchor="middle" x="317.88" y="-120.95" font-family="Times,serif" font-size="14.00">end_choice1</text>
</g>
<!-- node_4 -->
<g id="node5" class="node">
<title>node_4</title>
<polygon fill="#ececff" stroke="#9370db" points="450,-117 396,-117 396,-81 450,-81 450,-117"/>
<text text-anchor="middle" x="423" y="-93.95" font-family="Times,serif" font-size="14.00">end</text>
</g>
<!-- node_3&#45;&gt;node_4 -->
<g id="edge7" class="edge">
<title>node_3&#45;&gt;node_4</title>
<path fill="none" stroke="black" d="M360.23,-115.17C368.38,-113.04 376.88,-110.81 384.88,-108.72"/>
<polygon fill="black" stroke="black" points="385.52,-112.17 394.3,-106.25 383.74,-105.4 385.52,-112.17"/>
</g>
<!-- node_5 -->
<g id="node6" class="node">
<title>node_5</title>
<polygon fill="#ececff" stroke="#9370db" points="360,-90 275.75,-90 275.75,-54 360,-54 360,-90"/>
<text text-anchor="middle" x="317.88" y="-66.95" font-family="Times,serif" font-size="14.00">end_choice2</text>
</g>
<!-- node_5&#45;&gt;node_4 -->
<g id="edge8" class="edge">
<title>node_5&#45;&gt;node_4</title>
<path fill="none" stroke="black" d="M360.23,-82.83C368.38,-84.96 376.88,-87.19 384.88,-89.28"/>
<polygon fill="black" stroke="black" points="383.74,-92.6 394.3,-91.75 385.52,-85.83 383.74,-92.6"/>
</g>
<!-- node_6&#45;&gt;node_3 -->
<g id="edge9" class="edge">
<title>node_6&#45;&gt;node_3</title>
<path fill="none" stroke="blue" stroke-width="2" d="M239.12,-166.37C248.98,-161.25 260.49,-155.28 271.59,-149.52"/>
<polygon fill="blue" stroke="blue" stroke-width="2" points="271.65,-153.42 278.92,-145.71 268.43,-147.21 271.65,-153.42"/>
</g>
<!-- node_7&#45;&gt;node_3 -->
<g id="edge10" class="edge">
<title>node_7&#45;&gt;node_3</title>
<path fill="none" stroke="blue" stroke-width="2" d="M240.2,-126C247.65,-126 255.97,-126 264.32,-126"/>
<polygon fill="blue" stroke="blue" stroke-width="2" points="262.6,-129.5 272.6,-126 262.6,-122.5 262.6,-129.5"/>
</g>
<!-- node_8&#45;&gt;node_5 -->
<g id="edge11" class="edge">
<title>node_8&#45;&gt;node_5</title>
<path fill="none" stroke="blue" stroke-width="2" d="M239.12,-72C246.73,-72 255.33,-72 263.97,-72"/>
<polygon fill="blue" stroke="blue" stroke-width="2" points="262.23,-75.5 272.23,-72 262.23,-68.5 262.23,-75.5"/>
</g>
<!-- node_9&#45;&gt;node_5 -->
<g id="edge12" class="edge">
<title>node_9&#45;&gt;node_5</title>
<path fill="none" stroke="blue" stroke-width="2" d="M239.12,-31.63C248.98,-36.75 260.49,-42.72 271.59,-48.48"/>
<polygon fill="blue" stroke="blue" stroke-width="2" points="268.43,-50.79 278.92,-52.29 271.65,-44.58 268.43,-50.79"/>
</g>
</g>
</svg>
