<?xml version="1.0" encoding="UTF-8" standalone="no"?>
<!DOCTYPE svg PUBLIC "-//W3C//DTD SVG 1.1//EN"
 "http://www.w3.org/Graphics/SVG/1.1/DTD/svg11.dtd">
<!-- Generated by graphviz version 12.2.1 (20241206.2353)
 -->
<!-- Pages: 1 -->
<svg width="371pt" height="335pt"
 viewBox="0.00 0.00 370.72 335.00" xmlns="http://www.w3.org/2000/svg" xmlns:xlink="http://www.w3.org/1999/xlink">
<g id="graph0" class="graph" transform="scale(1 1) rotate(0) translate(4 331)">
<polygon fill="white" stroke="none" points="-4,4 -4,-331 366.72,-331 366.72,4 -4,4"/>
<!-- add1 -->
<g id="node1" class="node">
<title>add1</title>
<polygon fill="#ececff" stroke="#9370db" points="227.62,-327 88.62,-327 88.62,-253 227.62,-253 227.62,-327"/>
<text text-anchor="middle" x="158.12" y="-309.7" font-family="Times,serif" font-size="14.00">add1</text>
<text text-anchor="middle" x="158.12" y="-293.2" font-family="Times,serif" font-size="14.00">regular_fathers=set()</text>
<text text-anchor="middle" x="158.12" y="-276.7" font-family="Times,serif" font-size="14.00">for_each_fathers=set()</text>
<text text-anchor="middle" x="158.12" y="-260.2" font-family="Times,serif" font-size="14.00">mapping={}</text>
</g>
<!-- add10 -->
<g id="node2" class="node">
<title>add10</title>
<polygon fill="#ececff" stroke="#9370db" points="150.25,-200.5 0,-200.5 0,-126.5 150.25,-126.5 150.25,-200.5"/>
<text text-anchor="middle" x="75.12" y="-183.2" font-family="Times,serif" font-size="14.00">add10</text>
<text text-anchor="middle" x="75.12" y="-166.7" font-family="Times,serif" font-size="14.00">regular_fathers={&#39;add1&#39;}</text>
<text text-anchor="middle" x="75.12" y="-150.2" font-family="Times,serif" font-size="14.00">for_each_fathers=set()</text>
<text text-anchor="middle" x="75.12" y="-133.7" font-family="Times,serif" font-size="14.00">mapping={&#39;add1&#39;: {}}</text>
</g>
<!-- add1&#45;&gt;add10 -->
<g id="edge1" class="edge">
<title>add1&#45;&gt;add10</title>
<path fill="none" stroke="black" d="M96.38,-252.57C90.95,-247.28 86.11,-241.42 82.38,-235 78.34,-228.06 75.89,-220.08 74.48,-212.04"/>
<polygon fill="black" stroke="black" points="77.97,-211.74 73.3,-202.23 71.02,-212.58 77.97,-211.74"/>
<text text-anchor="middle" x="150.25" y="-221.7" font-family="Times,serif" font-size="14.00">type=DiagramType.flow</text>
</g>
<!-- add100 -->
<g id="node3" class="node">
<title>add100</title>
<polygon fill="#ececff" stroke="#9370db" points="318.25,-200.5 168,-200.5 168,-126.5 318.25,-126.5 318.25,-200.5"/>
<text text-anchor="middle" x="243.12" y="-183.2" font-family="Times,serif" font-size="14.00">add100</text>
<text text-anchor="middle" x="243.12" y="-166.7" font-family="Times,serif" font-size="14.00">regular_fathers={&#39;add1&#39;}</text>
<text text-anchor="middle" x="243.12" y="-150.2" font-family="Times,serif" font-size="14.00">for_each_fathers=set()</text>
<text text-anchor="middle" x="243.12" y="-133.7" font-family="Times,serif" font-size="14.00">mapping={&#39;add1&#39;: {}}</text>
</g>
<!-- add1&#45;&gt;add100 -->
<g id="edge2" class="edge">
<title>add1&#45;&gt;add100</title>
<path fill="none" stroke="black" d="M203.69,-252.63C209.01,-247.11 214,-241.17 218.12,-235 222.89,-227.87 226.87,-219.72 230.13,-211.56"/>
<polygon fill="black" stroke="black" points="233.36,-212.93 233.51,-202.33 226.79,-210.52 233.36,-212.93"/>
<text text-anchor="middle" x="294.85" y="-221.7" font-family="Times,serif" font-size="14.00">type=DiagramType.flow</text>
</g>
<!-- sum -->
<g id="node4" class="node">
<title>sum</title>
<polygon fill="#ececff" stroke="#9370db" points="266.62,-74 49.62,-74 49.62,0 266.62,0 266.62,-74"/>
<text text-anchor="middle" x="158.12" y="-56.7" font-family="Times,serif" font-size="14.00">sum</text>
<text text-anchor="middle" x="158.12" y="-40.2" font-family="Times,serif" font-size="14.00">regular_fathers={&#39;add10&#39;, &#39;add100&#39;}</text>
<text text-anchor="middle" x="158.12" y="-23.7" font-family="Times,serif" font-size="14.00">for_each_fathers=set()</text>
<text text-anchor="middle" x="158.12" y="-7.2" font-family="Times,serif" font-size="14.00">mapping={&#39;add10&#39;: {}, &#39;add100&#39;: {}}</text>
</g>
<!-- add10&#45;&gt;sum -->
<g id="edge3" class="edge">
<title>add10&#45;&gt;sum</title>
<path fill="none" stroke="black" d="M73.12,-126.27C73.93,-114.68 76.43,-102.21 82.38,-92 84.24,-88.79 86.39,-85.72 88.74,-82.79"/>
<polygon fill="black" stroke="black" points="91.2,-85.29 95.36,-75.55 86.03,-80.57 91.2,-85.29"/>
<text text-anchor="middle" x="150.25" y="-95.2" font-family="Times,serif" font-size="14.00">type=DiagramType.flow</text>
</g>
<!-- add100&#45;&gt;sum -->
<g id="edge4" class="edge">
<title>add100&#45;&gt;sum</title>
<path fill="none" stroke="black" d="M234.03,-126.09C230.19,-114.61 224.98,-102.26 218.12,-92 216.06,-88.91 213.78,-85.89 211.35,-82.94"/>
<polygon fill="black" stroke="black" points="213.97,-80.62 204.7,-75.5 208.75,-85.28 213.97,-80.62"/>
<text text-anchor="middle" x="294.85" y="-95.2" font-family="Times,serif" font-size="14.00">type=DiagramType.flow</text>
</g>
</g>
</svg>
