<?xml version="1.0" encoding="UTF-8" standalone="no"?>
<!DOCTYPE svg PUBLIC "-//W3C//DTD SVG 1.1//EN"
 "http://www.w3.org/Graphics/SVG/1.1/DTD/svg11.dtd">
<!-- Generated by graphviz version 12.2.1 (20241206.2353)
 -->
<!-- Pages: 1 -->
<svg width="527pt" height="487pt"
 viewBox="0.00 0.00 526.78 487.00" xmlns="http://www.w3.org/2000/svg" xmlns:xlink="http://www.w3.org/1999/xlink">
<g id="graph0" class="graph" transform="scale(1 1) rotate(0) translate(4 483)">
<polygon fill="white" stroke="none" points="-4,4 -4,-483 522.78,-483 522.78,4 -4,4"/>
<!-- Start -->
<g id="node1" class="node">
<title>Start</title>
<polygon fill="#ececff" stroke="#9370db" points="163.75,-479 109.75,-479 109.75,-443 163.75,-443 163.75,-479"/>
<text text-anchor="middle" x="136.75" y="-455.95" font-family="Times,serif" font-size="14.00">Start</text>
</g>
<!-- Process4 -->
<g id="node3" class="node">
<title>Process4</title>
<polygon fill="#ececff" stroke="#9370db" points="95.5,-315 0,-315 0,-274 95.5,-274 95.5,-315"/>
<text text-anchor="middle" x="47.75" y="-297.7" font-family="Times,serif" font-size="14.00">Process4</text>
<text text-anchor="middle" x="47.75" y="-281.2" font-family="Times,serif" font-size="14.00">is_break=True</text>
</g>
<!-- Start&#45;&gt;Process4 -->
<g id="edge2" class="edge">
<title>Start&#45;&gt;Process4</title>
<path fill="none" stroke="black" d="M109.54,-457.75C88,-454.38 59.2,-445.96 44.75,-425 24.78,-396.04 30.34,-354.11 37.68,-325.88"/>
<polygon fill="black" stroke="black" points="40.97,-327.09 40.34,-316.52 34.24,-325.18 40.97,-327.09"/>
<text text-anchor="middle" x="122.75" y="-403.45" font-family="Times,serif" font-size="14.00">type=DiagramType.decision</text>
</g>
<!-- Process1 -->
<g id="node4" class="node">
<title>Process1</title>
<polygon fill="#ececff" stroke="#9370db" points="320.62,-374 132.88,-374 132.88,-333 320.62,-333 320.62,-374"/>
<text text-anchor="middle" x="226.75" y="-356.7" font-family="Times,serif" font-size="14.00">Process1</text>
<text text-anchor="middle" x="226.75" y="-340.2" font-family="Times,serif" font-size="14.00">write_state={&#39;result&#39;: {0: (&#39;.&#39;,)}}</text>
</g>
<!-- Start&#45;&gt;Process1 -->
<g id="edge1" class="edge">
<title>Start&#45;&gt;Process1</title>
<path fill="none" stroke="black" d="M164.23,-451.6C178.13,-446.07 194.24,-437.5 204.75,-425 214.07,-413.92 219.44,-398.89 222.55,-385.56"/>
<polygon fill="black" stroke="black" points="225.95,-386.4 224.44,-375.91 219.08,-385.05 225.95,-386.4"/>
<text text-anchor="middle" x="298.59" y="-411.7" font-family="Times,serif" font-size="14.00">type=DiagramType.decision</text>
<text text-anchor="middle" x="298.59" y="-395.2" font-family="Times,serif" font-size="14.00">condition=is_even</text>
</g>
<!-- End -->
<g id="node2" class="node">
<title>End</title>
<polygon fill="#ececff" stroke="#9370db" points="90.75,-36 36.75,-36 36.75,0 90.75,0 90.75,-36"/>
<text text-anchor="middle" x="63.75" y="-12.95" font-family="Times,serif" font-size="14.00">End</text>
</g>
<!-- Process4&#45;&gt;End -->
<g id="edge3" class="edge">
<title>Process4&#45;&gt;End</title>
<path fill="none" stroke="black" d="M48.9,-273.76C51.69,-225.89 58.83,-103.46 62.08,-47.58"/>
<polygon fill="black" stroke="black" points="65.56,-48.11 62.65,-37.92 58.57,-47.7 65.56,-48.11"/>
<text text-anchor="middle" x="133.1" y="-183.7" font-family="Times,serif" font-size="14.00">type=DiagramType.decision</text>
<text text-anchor="middle" x="133.1" y="-167.2" font-family="Times,serif" font-size="14.00">mapping={&#39;**&#39;: (&#39;a&#39;,)}</text>
</g>
<!-- Process2 -->
<g id="node5" class="node">
<title>Process2</title>
<polygon fill="#ececff" stroke="#9370db" points="270.38,-256 183.12,-256 183.12,-215 270.38,-215 270.38,-256"/>
<text text-anchor="middle" x="226.75" y="-238.7" font-family="Times,serif" font-size="14.00">Process2</text>
<text text-anchor="middle" x="226.75" y="-222.2" font-family="Times,serif" font-size="14.00">for_each=[0]</text>
</g>
<!-- Process1&#45;&gt;Process2 -->
<g id="edge4" class="edge">
<title>Process1&#45;&gt;Process2</title>
<path fill="none" stroke="black" d="M226.75,-332.56C226.75,-314.69 226.75,-288.19 226.75,-267.55"/>
<polygon fill="black" stroke="black" points="230.25,-267.69 226.75,-257.69 223.25,-267.69 230.25,-267.69"/>
<text text-anchor="middle" x="294.62" y="-289.45" font-family="Times,serif" font-size="14.00">type=DiagramType.flow</text>
</g>
<!-- Process3 -->
<g id="node6" class="node">
<title>Process3</title>
<polygon fill="#ececff" stroke="#9370db" points="417.75,-253.5 353.75,-253.5 353.75,-217.5 417.75,-217.5 417.75,-253.5"/>
<text text-anchor="middle" x="385.75" y="-230.45" font-family="Times,serif" font-size="14.00">Process3</text>
</g>
<!-- Process1&#45;&gt;Process3 -->
<g id="edge5" class="edge">
<title>Process1&#45;&gt;Process3</title>
<path fill="none" stroke="black" d="M321,-340.53C336.84,-334.89 351.94,-326.73 363.75,-315 376.84,-301.99 382.3,-281.88 384.51,-265.27"/>
<polygon fill="black" stroke="black" points="387.98,-265.74 385.46,-255.45 381.01,-265.06 387.98,-265.74"/>
<text text-anchor="middle" x="450.9" y="-289.45" font-family="Times,serif" font-size="14.00">type=DiagramType.flow</text>
</g>
<!-- identity -->
<g id="node7" class="node">
<title>identity</title>
<polygon fill="#ececff" stroke="#9370db" points="331.12,-146 122.38,-146 122.38,-88.5 331.12,-88.5 331.12,-146"/>
<text text-anchor="middle" x="226.75" y="-128.7" font-family="Times,serif" font-size="14.00">identity</text>
<text text-anchor="middle" x="226.75" y="-112.2" font-family="Times,serif" font-size="14.00">for_each=[&#39;x&#39;]</text>
<text text-anchor="middle" x="226.75" y="-95.7" font-family="Times,serif" font-size="14.00">read_state={&#39;result&#39;: {&#39;input&#39;: (&#39;.&#39;,)}}</text>
</g>
<!-- Process2&#45;&gt;identity -->
<g id="edge6" class="edge">
<title>Process2&#45;&gt;identity</title>
<path fill="none" stroke="black" d="M226.75,-214.52C226.75,-198.93 226.75,-176.78 226.75,-157.66"/>
<polygon fill="black" stroke="black" points="230.25,-157.75 226.75,-147.75 223.25,-157.75 230.25,-157.75"/>
<text text-anchor="middle" x="294.62" y="-183.7" font-family="Times,serif" font-size="14.00">type=DiagramType.flow</text>
<text text-anchor="middle" x="294.62" y="-167.2" font-family="Times,serif" font-size="14.00">mapping={&#39;x&#39;: (&#39;a&#39;,)}</text>
</g>
<!-- Process3&#45;&gt;identity -->
<g id="edge7" class="edge">
<title>Process3&#45;&gt;identity</title>
<path fill="none" stroke="black" d="M384.71,-217.17C382.86,-201.34 377.75,-178.28 363.75,-164 357.13,-157.24 349.48,-151.48 341.25,-146.58"/>
<polygon fill="black" stroke="black" points="343.14,-143.62 332.69,-141.92 339.8,-149.77 343.14,-143.62"/>
<text text-anchor="middle" x="448.29" y="-183.7" font-family="Times,serif" font-size="14.00">type=DiagramType.flow</text>
<text text-anchor="middle" x="448.29" y="-167.2" font-family="Times,serif" font-size="14.00">mapping={&#39;y&#39;: (&#39;b&#39;,)}</text>
</g>
<!-- identity&#45;&gt;End -->
<g id="edge8" class="edge">
<title>identity&#45;&gt;End</title>
<path fill="none" stroke="black" d="M179.6,-88.12C154.54,-73.17 124.17,-55.05 100.82,-41.12"/>
<polygon fill="black" stroke="black" points="102.63,-38.12 92.25,-36 99.04,-44.13 102.63,-38.12"/>
<text text-anchor="middle" x="223.25" y="-57.2" font-family="Times,serif" font-size="14.00">type=DiagramType.decision</text>
</g>
</g>
</svg>
