<?xml version="1.0" encoding="UTF-8" standalone="no"?>
<!DOCTYPE svg PUBLIC "-//W3C//DTD SVG 1.1//EN"
 "http://www.w3.org/Graphics/SVG/1.1/DTD/svg11.dtd">
<!-- Generated by graphviz version 12.2.1 (20241206.2353)
 -->
<!-- Pages: 1 -->
<svg width="598pt" height="253pt"
 viewBox="0.00 0.00 598.22 252.50" xmlns="http://www.w3.org/2000/svg" xmlns:xlink="http://www.w3.org/1999/xlink">
<g id="graph0" class="graph" transform="scale(1 1) rotate(0) translate(4 248.5)">
<polygon fill="white" stroke="none" points="-4,4 -4,-248.5 594.22,-248.5 594.22,4 -4,4"/>
<!-- Start -->
<g id="node1" class="node">
<title>Start</title>
<polygon fill="#ececff" stroke="#9370db" points="303.62,-244.5 217.88,-244.5 217.88,-203.5 303.62,-203.5 303.62,-244.5"/>
<text text-anchor="middle" x="260.75" y="-227.2" font-family="Times,serif" font-size="14.00">Start</text>
<text text-anchor="middle" x="260.75" y="-210.7" font-family="Times,serif" font-size="14.00">mapping={}</text>
</g>
<!-- anon_from_add1_to_sum -->
<g id="node4" class="node">
<title>anon_from_add1_to_sum</title>
<polygon fill="#ececff" stroke="#9370db" points="373.38,-151 148.12,-151 148.12,-110 373.38,-110 373.38,-151"/>
<text text-anchor="middle" x="260.75" y="-133.7" font-family="Times,serif" font-size="14.00">anon_from_add1_to_sum</text>
<text text-anchor="middle" x="260.75" y="-117.2" font-family="Times,serif" font-size="14.00">mapping={&#39;Start&#39;: {}, &#39;add_again&#39;: {}}</text>
</g>
<!-- Start&#45;&gt;anon_from_add1_to_sum -->
<g id="edge1" class="edge">
<title>Start&#45;&gt;anon_from_add1_to_sum</title>
<path fill="none" stroke="black" d="M260.75,-203.15C260.75,-191.28 260.75,-175.94 260.75,-162.5"/>
<polygon fill="black" stroke="black" points="264.25,-162.83 260.75,-152.83 257.25,-162.83 264.25,-162.83"/>
<text text-anchor="middle" x="338.75" y="-172.2" font-family="Times,serif" font-size="14.00">type=DiagramType.decision</text>
</g>
<!-- End -->
<g id="node2" class="node">
<title>End</title>
<polygon fill="#ececff" stroke="#9370db" points="565.5,-41 314,-41 314,0 565.5,0 565.5,-41"/>
<text text-anchor="middle" x="439.75" y="-23.7" font-family="Times,serif" font-size="14.00">End</text>
<text text-anchor="middle" x="439.75" y="-7.2" font-family="Times,serif" font-size="14.00">mapping={&#39;anon_from_add1_to_sum&#39;: {}}</text>
</g>
<!-- add_again -->
<g id="node3" class="node">
<title>add_again</title>
<polygon fill="#ececff" stroke="#9370db" points="251.5,-41 0,-41 0,0 251.5,0 251.5,-41"/>
<text text-anchor="middle" x="125.75" y="-23.7" font-family="Times,serif" font-size="14.00">add_again</text>
<text text-anchor="middle" x="125.75" y="-7.2" font-family="Times,serif" font-size="14.00">mapping={&#39;anon_from_add1_to_sum&#39;: {}}</text>
</g>
<!-- add_again&#45;&gt;anon_from_add1_to_sum -->
<g id="edge2" class="edge">
<title>add_again&#45;&gt;anon_from_add1_to_sum</title>
<path fill="none" stroke="black" d="M214.27,-41.38C223.31,-46.06 231.73,-51.85 238.75,-59 249.14,-69.58 254.63,-84.98 257.53,-98.69"/>
<polygon fill="black" stroke="black" points="254.02,-98.91 259.15,-108.18 260.92,-97.73 254.02,-98.91"/>
<text text-anchor="middle" x="333.43" y="-70.45" font-family="Times,serif" font-size="14.00">type=DiagramType.decision</text>
</g>
<!-- anon_from_add1_to_sum&#45;&gt;End -->
<g id="edge3" class="edge">
<title>anon_from_add1_to_sum&#45;&gt;End</title>
<path fill="none" stroke="black" d="M373.81,-116.48C389.2,-110.81 403.79,-102.92 415.75,-92 426.86,-81.85 432.83,-66.36 436.04,-52.47"/>
<polygon fill="black" stroke="black" points="439.44,-53.31 437.85,-42.83 432.56,-52.01 439.44,-53.31"/>
<text text-anchor="middle" x="512.22" y="-70.45" font-family="Times,serif" font-size="14.00">type=DiagramType.decision</text>
</g>
<!-- anon_from_add1_to_sum&#45;&gt;add_again -->
<g id="edge4" class="edge">
<title>anon_from_add1_to_sum&#45;&gt;add_again</title>
<path fill="none" stroke="black" d="M147.8,-117.93C116.57,-112.28 88.53,-104 78.75,-92 69.48,-80.63 72.39,-72.21 78.75,-59 80.38,-55.61 82.48,-52.44 84.89,-49.48"/>
<polygon fill="black" stroke="black" points="87.35,-51.97 91.81,-42.36 82.33,-47.09 87.35,-51.97"/>
<text text-anchor="middle" x="156.75" y="-78.7" font-family="Times,serif" font-size="14.00">type=DiagramType.decision</text>
<text text-anchor="middle" x="156.75" y="-62.2" font-family="Times,serif" font-size="14.00">condition=is112</text>
</g>
</g>
</svg>
