<?xml version="1.0" encoding="UTF-8" standalone="no"?>
<!DOCTYPE svg PUBLIC "-//W3C//DTD SVG 1.1//EN"
 "http://www.w3.org/Graphics/SVG/1.1/DTD/svg11.dtd">
<!-- Generated by graphviz version 12.2.1 (20241206.2353)
 -->
<!-- Title: TestDef Pages: 1 -->
<svg width="308pt" height="90pt"
 viewBox="0.00 0.00 308.25 90.00" xmlns="http://www.w3.org/2000/svg" xmlns:xlink="http://www.w3.org/1999/xlink">
<g id="graph0" class="graph" transform="scale(1 1) rotate(0) translate(4 86)">
<title>TestDef</title>
<polygon fill="white" stroke="none" points="-4,4 -4,-86 304.25,-86 304.25,4 -4,4"/>
<text text-anchor="middle" x="150.12" y="-64.7" font-family="Times,serif" font-size="14.00">TestDef</text>
<!-- node_0 -->
<g id="node1" class="node">
<title>node_0</title>
<polygon fill="#ececff" stroke="#9370db" points="300.25,-46.75 246.25,-46.75 246.25,-10.75 300.25,-10.75 300.25,-46.75"/>
<text text-anchor="middle" x="273.25" y="-23.7" font-family="Times,serif" font-size="14.00">End</text>
</g>
<!-- node_1 -->
<g id="node2" class="node">
<title>node_1</title>
<polygon fill="#ececff" stroke="#9370db" points="210.25,-57.5 0,-57.5 0,0 210.25,0 210.25,-57.5"/>
<text text-anchor="middle" x="105.12" y="-40.2" font-family="Times,serif" font-size="14.00">anon_from_Start_to_join[</text>
<text text-anchor="middle" x="105.12" y="-23.7" font-family="Times,serif" font-size="14.00">Diagram(anon_from_Start_to_join)</text>
<text text-anchor="middle" x="105.12" y="-7.2" font-family="Times,serif" font-size="14.00">]</text>
</g>
<!-- node_1&#45;&gt;node_0 -->
<g id="edge1" class="edge">
<title>node_1&#45;&gt;node_0</title>
<path fill="none" stroke="blue" stroke-width="2" d="M210.39,-28.75C218.85,-28.75 226.99,-28.75 234.43,-28.75"/>
<polygon fill="blue" stroke="blue" stroke-width="2" points="232.83,-32.25 242.83,-28.75 232.83,-25.25 232.83,-32.25"/>
</g>
</g>
</svg>
