<?xml version="1.0" encoding="UTF-8" standalone="no"?>
<!DOCTYPE svg PUBLIC "-//W3C//DTD SVG 1.1//EN"
 "http://www.w3.org/Graphics/SVG/1.1/DTD/svg11.dtd">
<!-- Generated by graphviz version 12.2.1 (20241206.2353)
 -->
<!-- Pages: 1 -->
<svg width="318pt" height="221pt"
 viewBox="0.00 0.00 317.74 221.00" xmlns="http://www.w3.org/2000/svg" xmlns:xlink="http://www.w3.org/1999/xlink">
<g id="graph0" class="graph" transform="scale(1 1) rotate(0) translate(4 217)">
<polygon fill="white" stroke="none" points="-4,4 -4,-217 313.74,-217 313.74,4 -4,4"/>
<!-- Start -->
<g id="node1" class="node">
<title>Start</title>
<polygon fill="#ececff" stroke="#9370db" points="133,-213 79,-213 79,-177 133,-177 133,-213"/>
<text text-anchor="middle" x="106" y="-189.95" font-family="Times,serif" font-size="14.00">Start</text>
</g>
<!-- split1 -->
<g id="node2" class="node">
<title>split1</title>
<polygon fill="#ececff" stroke="#9370db" points="54,-124.5 0,-124.5 0,-88.5 54,-88.5 54,-124.5"/>
<text text-anchor="middle" x="27" y="-101.45" font-family="Times,serif" font-size="14.00">split1</text>
</g>
<!-- Start&#45;&gt;split1 -->
<g id="edge1" class="edge">
<title>Start&#45;&gt;split1</title>
<path fill="none" stroke="black" d="M78.87,-189.39C61.26,-184.86 39.55,-176.02 28.25,-159 23.8,-152.29 22.32,-143.93 22.28,-135.91"/>
<polygon fill="black" stroke="black" points="25.76,-136.37 22.96,-126.15 18.77,-135.88 25.76,-136.37"/>
<text text-anchor="middle" x="96.12" y="-145.7" font-family="Times,serif" font-size="14.00">type=DiagramType.flow</text>
</g>
<!-- split2 -->
<g id="node3" class="node">
<title>split2</title>
<polygon fill="#ececff" stroke="#9370db" points="213,-124.5 159,-124.5 159,-88.5 213,-88.5 213,-124.5"/>
<text text-anchor="middle" x="186" y="-101.45" font-family="Times,serif" font-size="14.00">split2</text>
</g>
<!-- Start&#45;&gt;split2 -->
<g id="edge2" class="edge">
<title>Start&#45;&gt;split2</title>
<path fill="none" stroke="black" d="M133.38,-182.04C144.04,-176.31 155.67,-168.58 164,-159 169.88,-152.24 174.37,-143.68 177.72,-135.48"/>
<polygon fill="black" stroke="black" points="180.98,-136.76 181.08,-126.17 174.4,-134.38 180.98,-136.76"/>
<text text-anchor="middle" x="241.86" y="-145.7" font-family="Times,serif" font-size="14.00">type=DiagramType.flow</text>
</g>
<!-- join -->
<g id="node4" class="node">
<title>join</title>
<polygon fill="#ececff" stroke="#9370db" points="133,-36 79,-36 79,0 133,0 133,-36"/>
<text text-anchor="middle" x="106" y="-12.95" font-family="Times,serif" font-size="14.00">join</text>
</g>
<!-- split1&#45;&gt;join -->
<g id="edge3" class="edge">
<title>split1&#45;&gt;join</title>
<path fill="none" stroke="black" d="M23.07,-88.36C21.59,-77.63 21.62,-63.98 28.25,-54 37.34,-40.3 53.18,-31.91 68.19,-26.78"/>
<polygon fill="black" stroke="black" points="68.84,-30.24 77.42,-24.04 66.84,-23.53 68.84,-30.24"/>
<text text-anchor="middle" x="96.12" y="-57.2" font-family="Times,serif" font-size="14.00">type=DiagramType.flow</text>
</g>
<!-- split2&#45;&gt;join -->
<g id="edge4" class="edge">
<title>split2&#45;&gt;join</title>
<path fill="none" stroke="black" d="M181.6,-88.26C178.18,-77.48 172.55,-63.83 164,-54 158.2,-47.34 150.82,-41.57 143.27,-36.75"/>
<polygon fill="black" stroke="black" points="145.09,-33.76 134.69,-31.72 141.55,-39.8 145.09,-33.76"/>
<text text-anchor="middle" x="241.86" y="-57.2" font-family="Times,serif" font-size="14.00">type=DiagramType.flow</text>
</g>
</g>
</svg>
