<?xml version="1.0" encoding="UTF-8" standalone="no"?>
<!DOCTYPE svg PUBLIC "-//W3C//DTD SVG 1.1//EN"
 "http://www.w3.org/Graphics/SVG/1.1/DTD/svg11.dtd">
<!-- Generated by graphviz version 12.2.1 (20241206.2353)
 -->
<!-- Title: anon_from_add1_to_sum Pages: 1 -->
<svg width="401pt" height="123pt"
 viewBox="0.00 0.00 401.00 122.50" xmlns="http://www.w3.org/2000/svg" xmlns:xlink="http://www.w3.org/1999/xlink">
<g id="graph0" class="graph" transform="scale(1 1) rotate(0) translate(4 118.5)">
<title>anon_from_add1_to_sum</title>
<polygon fill="white" stroke="none" points="-4,4 -4,-118.5 397,-118.5 397,4 -4,4"/>
<text text-anchor="middle" x="196.5" y="-97.2" font-family="Times,serif" font-size="14.00">anon_from_add1_to_sum</text>
<!-- node_0 -->
<g id="node1" class="node">
<title>node_0</title>
<polygon fill="#ececff" stroke="#9370db" points="107.5,-63 0,-63 0,-27 107.5,-27 107.5,-63"/>
<text text-anchor="middle" x="53.75" y="-39.95" font-family="Times,serif" font-size="14.00">add1[ Adder(1) ]</text>
</g>
<!-- node_1 -->
<g id="node2" class="node">
<title>node_1</title>
<polygon fill="#ececff" stroke="#9370db" points="271.25,-90 150.25,-90 150.25,-54 271.25,-54 271.25,-90"/>
<text text-anchor="middle" x="210.75" y="-66.95" font-family="Times,serif" font-size="14.00">add10[ Adder(10) ]</text>
</g>
<!-- node_0&#45;&gt;node_1 -->
<g id="edge1" class="edge">
<title>node_0&#45;&gt;node_1</title>
<path fill="none" stroke="black" d="M107.66,-54.22C117.64,-55.96 128.23,-57.8 138.67,-59.62"/>
<polygon fill="black" stroke="black" points="137.95,-63.04 148.4,-61.31 139.15,-56.15 137.95,-63.04"/>
</g>
<!-- node_2 -->
<g id="node3" class="node">
<title>node_2</title>
<polygon fill="#ececff" stroke="#9370db" points="278,-36 143.5,-36 143.5,0 278,0 278,-36"/>
<text text-anchor="middle" x="210.75" y="-12.95" font-family="Times,serif" font-size="14.00">add100[ Adder(100) ]</text>
</g>
<!-- node_0&#45;&gt;node_2 -->
<g id="edge2" class="edge">
<title>node_0&#45;&gt;node_2</title>
<path fill="none" stroke="black" d="M107.66,-35.78C115.5,-34.42 123.71,-32.99 131.93,-31.56"/>
<polygon fill="black" stroke="black" points="132.36,-35.03 141.61,-29.87 131.16,-28.14 132.36,-35.03"/>
</g>
<!-- node_3 -->
<g id="node4" class="node">
<title>node_3</title>
<polygon fill="#ececff" stroke="#9370db" points="393,-63 314,-63 314,-27 393,-27 393,-63"/>
<text text-anchor="middle" x="353.5" y="-39.95" font-family="Times,serif" font-size="14.00">sum[ sum ]</text>
</g>
<!-- node_1&#45;&gt;node_3 -->
<g id="edge3" class="edge">
<title>node_1&#45;&gt;node_3</title>
<path fill="none" stroke="black" d="M271.44,-60.55C281.78,-58.57 292.44,-56.52 302.49,-54.59"/>
<polygon fill="black" stroke="black" points="302.89,-58.08 312.05,-52.76 301.57,-51.21 302.89,-58.08"/>
</g>
<!-- node_2&#45;&gt;node_3 -->
<g id="edge4" class="edge">
<title>node_2&#45;&gt;node_3</title>
<path fill="none" stroke="black" d="M278.42,-30.79C286.53,-32.35 294.71,-33.91 302.53,-35.41"/>
<polygon fill="black" stroke="black" points="301.7,-38.82 312.18,-37.26 303.01,-31.94 301.7,-38.82"/>
</g>
</g>
</svg>
