<?xml version="1.0" encoding="UTF-8" standalone="no"?>
<!DOCTYPE svg PUBLIC "-//W3C//DTD SVG 1.1//EN"
 "http://www.w3.org/Graphics/SVG/1.1/DTD/svg11.dtd">
<!-- Generated by graphviz version 12.2.1 (20241206.2353)
 -->
<!-- Title: TestDef Pages: 1 -->
<svg width="547pt" height="125pt"
 viewBox="0.00 0.00 546.50 124.50" xmlns="http://www.w3.org/2000/svg" xmlns:xlink="http://www.w3.org/1999/xlink">
<g id="graph0" class="graph" transform="scale(1 1) rotate(0) translate(4 120.5)">
<title>TestDef</title>
<polygon fill="white" stroke="none" points="-4,4 -4,-120.5 542.5,-120.5 542.5,4 -4,4"/>
<text text-anchor="middle" x="269.25" y="-99.2" font-family="Times,serif" font-size="14.00">TestDef</text>
<!-- node_0 -->
<g id="node1" class="node">
<title>node_0</title>
<polygon fill="#ececff" stroke="#9370db" points="54,-61 0,-61 0,-25 54,-25 54,-61"/>
<text text-anchor="middle" x="27" y="-37.95" font-family="Times,serif" font-size="14.00">Start</text>
</g>
<!-- node_3 -->
<g id="node4" class="node">
<title>node_3</title>
<polygon fill="#ececff" stroke="#9370db" points="386.75,-71.75 91,-71.75 91,-14.25 386.75,-14.25 386.75,-71.75"/>
<text text-anchor="middle" x="238.88" y="-54.45" font-family="Times,serif" font-size="14.00">anon_from_add1_to_sum[</text>
<text text-anchor="middle" x="238.88" y="-37.95" font-family="Times,serif" font-size="14.00">Diagram(anon_from_add1_to_sum)@0x11d5f8f80</text>
<text text-anchor="middle" x="238.88" y="-21.45" font-family="Times,serif" font-size="14.00">]</text>
</g>
<!-- node_0&#45;&gt;node_3 -->
<g id="edge1" class="edge">
<title>node_0&#45;&gt;node_3</title>
<path fill="none" stroke="blue" stroke-width="2" d="M54.16,-43C61.5,-43 70.06,-43 79.39,-43"/>
<polygon fill="blue" stroke="blue" stroke-width="2" points="77.64,-46.5 87.64,-43 77.64,-39.5 77.64,-46.5"/>
</g>
<!-- node_1 -->
<g id="node2" class="node">
<title>node_1</title>
<polygon fill="#ececff" stroke="#9370db" points="529.75,-36 475.75,-36 475.75,0 529.75,0 529.75,-36"/>
<text text-anchor="middle" x="502.75" y="-12.95" font-family="Times,serif" font-size="14.00">End</text>
</g>
<!-- node_2 -->
<g id="node3" class="node">
<title>node_2</title>
<polygon fill="#ececff" stroke="#9370db" points="538.5,-92 467,-92 467,-56 538.5,-56 538.5,-92"/>
<text text-anchor="middle" x="502.75" y="-68.95" font-family="Times,serif" font-size="14.00">add_again</text>
</g>
<!-- node_2&#45;&gt;node_3 -->
<g id="edge2" class="edge">
<title>node_2&#45;&gt;node_3</title>
<path fill="none" stroke="blue" stroke-width="2" d="M466.59,-61.36C460.78,-59.65 454.76,-58.1 449,-57 432.66,-53.87 415.48,-51.41 398.29,-49.48"/>
<polygon fill="blue" stroke="blue" stroke-width="2" points="400.32,-46.18 390,-48.61 399.58,-53.14 400.32,-46.18"/>
</g>
<!-- node_3&#45;&gt;node_1 -->
<g id="edge3" class="edge">
<title>node_3&#45;&gt;node_1</title>
<path fill="none" stroke="blue" stroke-width="2" d="M386.89,-28.97C415.68,-26.22 443.41,-23.57 464.41,-21.56"/>
<polygon fill="blue" stroke="blue" stroke-width="2" points="463.02,-25.21 472.64,-20.78 462.35,-18.25 463.02,-25.21"/>
</g>
<!-- node_3&#45;&gt;node_2 -->
<g id="edge4" class="edge">
<title>node_3&#45;&gt;node_2</title>
<path fill="none" stroke="blue" stroke-width="2" d="M386.89,-60.4C411.72,-63.34 435.77,-66.19 455.39,-68.51"/>
<polygon fill="blue" stroke="blue" stroke-width="2" points="453.36,-71.8 463.7,-69.5 454.18,-64.84 453.36,-71.8"/>
<text text-anchor="middle" x="426.88" y="-70.5" font-family="Times,serif" font-size="14.00">?(is112)</text>
</g>
</g>
</svg>
