<?xml version="1.0" encoding="UTF-8" standalone="no"?>
<!DOCTYPE svg PUBLIC "-//W3C//DTD SVG 1.1//EN"
 "http://www.w3.org/Graphics/SVG/1.1/DTD/svg11.dtd">
<!-- Generated by graphviz version 12.2.1 (20241206.2353)
 -->
<!-- Title: anon_from_choice1_to_end_choice1 Pages: 1 -->
<svg width="278pt" height="123pt"
 viewBox="0.00 0.00 278.00 122.50" xmlns="http://www.w3.org/2000/svg" xmlns:xlink="http://www.w3.org/1999/xlink">
<g id="graph0" class="graph" transform="scale(1 1) rotate(0) translate(4 118.5)">
<title>anon_from_choice1_to_end_choice1</title>
<polygon fill="white" stroke="none" points="-4,4 -4,-118.5 274,-118.5 274,4 -4,4"/>
<text text-anchor="middle" x="135" y="-97.2" font-family="Times,serif" font-size="14.00">anon_from_choice1_to_end_choice1</text>
<!-- node_0 -->
<g id="node1" class="node">
<title>node_0</title>
<polygon fill="#ececff" stroke="#9370db" points="58,-63 0,-63 0,-27 58,-27 58,-63"/>
<text text-anchor="middle" x="29" y="-39.95" font-family="Times,serif" font-size="14.00">choice1</text>
</g>
<!-- node_2 -->
<g id="node3" class="node">
<title>node_2</title>
<polygon fill="#ececff" stroke="#9370db" points="148.88,-90 94.88,-90 94.88,-54 148.88,-54 148.88,-90"/>
<text text-anchor="middle" x="121.88" y="-66.95" font-family="Times,serif" font-size="14.00">add10</text>
</g>
<!-- node_0&#45;&gt;node_2 -->
<g id="edge1" class="edge">
<title>node_0&#45;&gt;node_2</title>
<path fill="none" stroke="blue" stroke-width="2" d="M58.26,-53.39C66.3,-55.78 75.18,-58.42 83.67,-60.95"/>
<polygon fill="blue" stroke="blue" stroke-width="2" points="81.01,-63.81 91.6,-63.3 83.01,-57.1 81.01,-63.81"/>
</g>
<!-- node_3 -->
<g id="node4" class="node">
<title>node_3</title>
<polygon fill="#ececff" stroke="#9370db" points="149.75,-36 94,-36 94,0 149.75,0 149.75,-36"/>
<text text-anchor="middle" x="121.88" y="-12.95" font-family="Times,serif" font-size="14.00">add100</text>
</g>
<!-- node_0&#45;&gt;node_3 -->
<g id="edge2" class="edge">
<title>node_0&#45;&gt;node_3</title>
<path fill="none" stroke="blue" stroke-width="2" d="M58.26,-36.61C65.99,-34.31 74.51,-31.78 82.7,-29.34"/>
<polygon fill="blue" stroke="blue" stroke-width="2" points="82.08,-33.18 90.67,-26.97 80.09,-26.47 82.08,-33.18"/>
</g>
<!-- node_1 -->
<g id="node2" class="node">
<title>node_1</title>
<polygon fill="#ececff" stroke="#9370db" points="270,-63 185.75,-63 185.75,-27 270,-27 270,-63"/>
<text text-anchor="middle" x="227.88" y="-39.95" font-family="Times,serif" font-size="14.00">end_choice1</text>
</g>
<!-- node_2&#45;&gt;node_1 -->
<g id="edge3" class="edge">
<title>node_2&#45;&gt;node_1</title>
<path fill="none" stroke="blue" stroke-width="2" d="M149.12,-65.19C156.82,-63.19 165.53,-60.93 174.26,-58.66"/>
<polygon fill="blue" stroke="blue" stroke-width="2" points="173.53,-62.47 182.33,-56.57 171.77,-55.69 173.53,-62.47"/>
</g>
<!-- node_3&#45;&gt;node_1 -->
<g id="edge4" class="edge">
<title>node_3&#45;&gt;node_1</title>
<path fill="none" stroke="blue" stroke-width="2" d="M150.2,-25.09C157.73,-27.05 166.16,-29.24 174.6,-31.43"/>
<polygon fill="blue" stroke="blue" stroke-width="2" points="172.14,-34.41 182.7,-33.53 173.9,-27.63 172.14,-34.41"/>
</g>
</g>
</svg>
