<?xml version="1.0" encoding="UTF-8" standalone="no"?>
<!DOCTYPE svg PUBLIC "-//W3C//DTD SVG 1.1//EN"
 "http://www.w3.org/Graphics/SVG/1.1/DTD/svg11.dtd">
<!-- Generated by graphviz version 12.2.1 (20241206.2353)
 -->
<!-- Title: TestDef Pages: 1 -->
<svg width="454pt" height="427pt"
 viewBox="0.00 0.00 454.38 426.50" xmlns="http://www.w3.org/2000/svg" xmlns:xlink="http://www.w3.org/1999/xlink">
<g id="graph0" class="graph" transform="scale(1 1) rotate(0) translate(4 422.5)">
<title>TestDef</title>
<polygon fill="white" stroke="none" points="-4,4 -4,-422.5 450.38,-422.5 450.38,4 -4,4"/>
<text text-anchor="middle" x="223.19" y="-401.2" font-family="Times,serif" font-size="14.00">TestDef</text>
<!-- node_0 -->
<g id="node1" class="node">
<title>node_0</title>
<polygon fill="#ececff" stroke="#9370db" points="117,-394 63,-394 63,-358 117,-358 117,-394"/>
<text text-anchor="middle" x="90" y="-370.95" font-family="Times,serif" font-size="14.00">Start</text>
</g>
<!-- node_2 -->
<g id="node3" class="node">
<title>node_2</title>
<polygon fill="#ececff" stroke="#9370db" stroke-dasharray="5,2" points="100,-251.5 36,-251.5 36,-215.5 100,-215.5 100,-251.5"/>
<text text-anchor="middle" x="68" y="-228.45" font-family="Times,serif" font-size="14.00">Process4</text>
</g>
<!-- node_0&#45;&gt;node_2 -->
<g id="edge4" class="edge">
<title>node_0&#45;&gt;node_2</title>
<path fill="none" stroke="blue" stroke-width="2" d="M87.3,-357.77C83.61,-334.18 76.93,-291.5 72.48,-263.08"/>
<polygon fill="blue" stroke="blue" stroke-width="2" points="76.19,-264.2 71.19,-254.86 69.28,-265.28 76.19,-264.2"/>
</g>
<!-- node_3 -->
<g id="node4" class="node">
<title>node_3</title>
<polygon fill="#ececff" stroke="#9370db" points="211.38,-305.5 104.62,-305.5 104.62,-269.5 211.38,-269.5 211.38,-305.5"/>
<text text-anchor="middle" x="158" y="-282.45" font-family="Times,serif" font-size="14.00">Process1[ add1 ]</text>
</g>
<!-- node_0&#45;&gt;node_3 -->
<g id="edge3" class="edge">
<title>node_0&#45;&gt;node_3</title>
<path fill="none" stroke="blue" stroke-width="2" d="M103.43,-357.91C113.15,-345.55 126.45,-328.63 137.49,-314.58"/>
<polygon fill="blue" stroke="blue" stroke-width="2" points="139.06,-318.25 142.49,-308.23 133.56,-313.93 139.06,-318.25"/>
<text text-anchor="middle" x="158.22" y="-326.7" font-family="Times,serif" font-size="14.00">?(is_even)</text>
</g>
<!-- node_1 -->
<g id="node2" class="node">
<title>node_1</title>
<polygon fill="#ececff" stroke="#9370db" points="54,-36 0,-36 0,0 54,0 54,-36"/>
<text text-anchor="middle" x="27" y="-12.95" font-family="Times,serif" font-size="14.00">End</text>
</g>
<!-- node_2&#45;&gt;node_1 -->
<g id="edge5" class="edge">
<title>node_2&#45;&gt;node_1</title>
<path fill="none" stroke="blue" stroke-width="2" d="M46.38,-215.19C41.43,-210.06 36.8,-204.04 34,-197.5 12.86,-148.2 17.09,-84.04 22.06,-47.61"/>
<polygon fill="blue" stroke="blue" stroke-width="2" points="25.27,-49.77 23.29,-39.37 18.35,-48.74 25.27,-49.77"/>
<text text-anchor="middle" x="39.95" y="-130.2" font-family="Times,serif" font-size="14.00">a &#45;&gt; **</text>
</g>
<!-- node_4 -->
<g id="node5" class="node">
<title>node_4</title>
<path fill="#ececff" stroke="#9370db" d="M125,-194.23C125,-196.03 106.62,-197.5 84,-197.5 61.38,-197.5 43,-196.03 43,-194.23 43,-194.23 43,-164.77 43,-164.77 43,-162.97 61.38,-161.5 84,-161.5 106.62,-161.5 125,-162.97 125,-164.77 125,-164.77 125,-194.23 125,-194.23"/>
<path fill="none" stroke="#9370db" d="M125,-194.23C125,-192.42 106.62,-190.95 84,-190.95 61.38,-190.95 43,-192.42 43,-194.23"/>
<text text-anchor="middle" x="84" y="-174.45" font-family="Times,serif" font-size="14.00">State[result]</text>
</g>
<!-- node_3&#45;&gt;node_4 -->
<g id="edge1" class="edge">
<title>node_3&#45;&gt;node_4</title>
<path fill="none" stroke="black" stroke-dasharray="5,2" d="M146.2,-269.23C136.32,-254.82 121.82,-233.76 109,-215.5 107.11,-212.81 105.13,-210 103.15,-207.21"/>
<polygon fill="black" stroke="black" points="106.05,-205.25 97.4,-199.14 100.35,-209.32 106.05,-205.25"/>
</g>
<!-- node_5 -->
<g id="node6" class="node">
<title>node_5</title>
<polygon fill="#ececff" stroke="#9370db" stroke-width="2" points="321.38,-197.5 142.62,-197.5 142.62,-161.5 321.38,-161.5 321.38,-197.5"/>
<text text-anchor="middle" x="232" y="-174.45" font-family="Times,serif" font-size="14.00">Process2[ add2, foreach=[0] ]</text>
</g>
<!-- node_3&#45;&gt;node_5 -->
<g id="edge6" class="edge">
<title>node_3&#45;&gt;node_5</title>
<path fill="none" stroke="black" d="M169.89,-269.47C181.63,-252.65 199.77,-226.67 213.41,-207.12"/>
<polygon fill="black" stroke="black" points="216.17,-209.28 219.03,-199.08 210.43,-205.28 216.17,-209.28"/>
</g>
<!-- node_6 -->
<g id="node7" class="node">
<title>node_6</title>
<polygon fill="#ececff" stroke="#9370db" points="446.38,-197.5 339.62,-197.5 339.62,-161.5 446.38,-161.5 446.38,-197.5"/>
<text text-anchor="middle" x="393" y="-174.45" font-family="Times,serif" font-size="14.00">Process3[ add5 ]</text>
</g>
<!-- node_3&#45;&gt;node_6 -->
<g id="edge7" class="edge">
<title>node_3&#45;&gt;node_6</title>
<path fill="none" stroke="black" d="M196.54,-269.11C236.84,-250.94 300.2,-222.36 344.02,-202.59"/>
<polygon fill="black" stroke="black" points="345.38,-205.82 353.06,-198.52 342.5,-199.44 345.38,-205.82"/>
</g>
<!-- node_7 -->
<g id="node8" class="node">
<title>node_7</title>
<polygon fill="#ececff" stroke="#9370db" stroke-width="2" points="222.12,-109 83.88,-109 83.88,-73 222.12,-73 222.12,-109"/>
<text text-anchor="middle" x="153" y="-85.95" font-family="Times,serif" font-size="14.00">identity[ foreach=[x] ]</text>
</g>
<!-- node_4&#45;&gt;node_7 -->
<g id="edge2" class="edge">
<title>node_4&#45;&gt;node_7</title>
<path fill="none" stroke="black" stroke-dasharray="5,2" d="M97.63,-161.41C107.49,-149.05 120.99,-132.13 132.19,-118.08"/>
<polygon fill="black" stroke="black" points="134.72,-120.53 138.22,-110.53 129.24,-116.17 134.72,-120.53"/>
<text text-anchor="middle" x="150.56" y="-130.2" font-family="Times,serif" font-size="14.00">. &#45;&gt; input</text>
</g>
<!-- node_5&#45;&gt;node_7 -->
<g id="edge8" class="edge">
<title>node_5&#45;&gt;node_7</title>
<path fill="none" stroke="black" d="M216.39,-161.41C205,-148.93 189.35,-131.8 176.46,-117.68"/>
<polygon fill="black" stroke="black" points="179.19,-115.49 169.87,-110.47 174.03,-120.21 179.19,-115.49"/>
<text text-anchor="middle" x="216.08" y="-130.2" font-family="Times,serif" font-size="14.00">a &#45;&gt; x</text>
</g>
<!-- node_6&#45;&gt;node_7 -->
<g id="edge9" class="edge">
<title>node_6&#45;&gt;node_7</title>
<path fill="none" stroke="black" d="M344.72,-161.1C306.4,-147.29 252.66,-127.92 211.82,-113.2"/>
<polygon fill="black" stroke="black" points="213.22,-109.98 202.63,-109.89 210.85,-116.57 213.22,-109.98"/>
<text text-anchor="middle" x="311.37" y="-130.2" font-family="Times,serif" font-size="14.00">b &#45;&gt; y</text>
</g>
<!-- node_7&#45;&gt;node_1 -->
<g id="edge10" class="edge">
<title>node_7&#45;&gt;node_1</title>
<path fill="none" stroke="blue" stroke-width="2" d="M122.18,-72.63C104.6,-62.72 82.45,-50.24 63.94,-39.81"/>
<polygon fill="blue" stroke="blue" stroke-width="2" points="67.15,-37.61 56.72,-35.75 63.71,-43.71 67.15,-37.61"/>
</g>
</g>
</svg>
