<?xml version="1.0" encoding="UTF-8" standalone="no"?>
<!DOCTYPE svg PUBLIC "-//W3C//DTD SVG 1.1//EN"
 "http://www.w3.org/Graphics/SVG/1.1/DTD/svg11.dtd">
<!-- Generated by graphviz version 12.2.1 (20241206.2353)
 -->
<!-- Title: TestDef Pages: 1 -->
<svg width="464pt" height="125pt"
 viewBox="0.00 0.00 464.00 124.50" xmlns="http://www.w3.org/2000/svg" xmlns:xlink="http://www.w3.org/1999/xlink">
<g id="graph0" class="graph" transform="scale(1 1) rotate(0) translate(4 120.5)">
<title>TestDef</title>
<polygon fill="white" stroke="none" points="-4,4 -4,-120.5 460,-120.5 460,4 -4,4"/>
<text text-anchor="middle" x="228" y="-99.2" font-family="Times,serif" font-size="14.00">TestDef</text>
<!-- node_0 -->
<g id="node1" class="node">
<title>node_0</title>
<polygon fill="#ececff" stroke="#9370db" points="54,-61 0,-61 0,-25 54,-25 54,-61"/>
<text text-anchor="middle" x="27" y="-37.95" font-family="Times,serif" font-size="14.00">Start</text>
</g>
<!-- node_3 -->
<g id="node4" class="node">
<title>node_3</title>
<polygon fill="#ececff" stroke="#9370db" points="304.25,-71.75 91,-71.75 91,-14.25 304.25,-14.25 304.25,-71.75"/>
<text text-anchor="middle" x="197.62" y="-54.45" font-family="Times,serif" font-size="14.00">anon_from_add1_to_sum[</text>
<text text-anchor="middle" x="197.62" y="-37.95" font-family="Times,serif" font-size="14.00">Diagram(anon_from_add1_to_sum)</text>
<text text-anchor="middle" x="197.62" y="-21.45" font-family="Times,serif" font-size="14.00">]</text>
</g>
<!-- node_0&#45;&gt;node_3 -->
<g id="edge1" class="edge">
<title>node_0&#45;&gt;node_3</title>
<path fill="none" stroke="blue" stroke-width="2" d="M54.35,-43C61.72,-43 70.25,-43 79.38,-43"/>
<polygon fill="blue" stroke="blue" stroke-width="2" points="77.76,-46.5 87.76,-43 77.76,-39.5 77.76,-46.5"/>
</g>
<!-- node_1 -->
<g id="node2" class="node">
<title>node_1</title>
<polygon fill="#ececff" stroke="#9370db" points="447.25,-36 393.25,-36 393.25,0 447.25,0 447.25,-36"/>
<text text-anchor="middle" x="420.25" y="-12.95" font-family="Times,serif" font-size="14.00">End</text>
</g>
<!-- node_2 -->
<g id="node3" class="node">
<title>node_2</title>
<polygon fill="#ececff" stroke="#9370db" points="456,-92 384.5,-92 384.5,-56 456,-56 456,-92"/>
<text text-anchor="middle" x="420.25" y="-68.95" font-family="Times,serif" font-size="14.00">add_again</text>
</g>
<!-- node_2&#45;&gt;node_3 -->
<g id="edge2" class="edge">
<title>node_2&#45;&gt;node_3</title>
<path fill="none" stroke="blue" stroke-width="2" d="M384.08,-61.44C378.26,-59.72 372.26,-58.15 366.5,-57 350.15,-53.73 332.76,-51.22 315.6,-49.3"/>
<polygon fill="blue" stroke="blue" stroke-width="2" points="317.69,-46 307.38,-48.43 316.95,-52.96 317.69,-46"/>
</g>
<!-- node_3&#45;&gt;node_1 -->
<g id="edge3" class="edge">
<title>node_3&#45;&gt;node_1</title>
<path fill="none" stroke="blue" stroke-width="2" d="M304.74,-30.98C332.31,-27.85 360.23,-24.69 381.6,-22.27"/>
<polygon fill="blue" stroke="blue" stroke-width="2" points="380.2,-25.95 389.74,-21.34 379.41,-18.99 380.2,-25.95"/>
</g>
<!-- node_3&#45;&gt;node_2 -->
<g id="edge4" class="edge">
<title>node_3&#45;&gt;node_2</title>
<path fill="none" stroke="blue" stroke-width="2" d="M304.74,-57.91C328.73,-61.28 352.99,-64.69 372.96,-67.5"/>
<polygon fill="blue" stroke="blue" stroke-width="2" points="370.81,-70.73 381.2,-68.65 371.78,-63.8 370.81,-70.73"/>
<text text-anchor="middle" x="344.38" y="-69.71" font-family="Times,serif" font-size="14.00">?(is112)</text>
</g>
</g>
</svg>
