<?xml version="1.0" encoding="UTF-8" standalone="no"?>
<!DOCTYPE svg PUBLIC "-//W3C//DTD SVG 1.1//EN"
 "http://www.w3.org/Graphics/SVG/1.1/DTD/svg11.dtd">
<!-- Generated by graphviz version 12.2.1 (20241206.2353)
 -->
<!-- Title: TestDef Pages: 1 -->
<svg width="735pt" height="221pt"
 viewBox="0.00 0.00 735.25 220.50" xmlns="http://www.w3.org/2000/svg" xmlns:xlink="http://www.w3.org/1999/xlink">
<g id="graph0" class="graph" transform="scale(1 1) rotate(0) translate(4 216.5)">
<title>TestDef</title>
<polygon fill="white" stroke="none" points="-4,4 -4,-216.5 731.25,-216.5 731.25,4 -4,4"/>
<text text-anchor="middle" x="363.62" y="-195.2" font-family="Times,serif" font-size="14.00">TestDef</text>
<!-- node_0 -->
<g id="node1" class="node">
<title>node_0</title>
<polygon fill="#ececff" stroke="#9370db" points="54,-147 0,-147 0,-111 54,-111 54,-147"/>
<text text-anchor="middle" x="27" y="-123.95" font-family="Times,serif" font-size="14.00">Start</text>
</g>
<!-- node_2 -->
<g id="node3" class="node">
<title>node_2</title>
<polygon fill="#ececff" stroke="#9370db" stroke-dasharray="5,2" points="335,-188 271,-188 271,-152 335,-152 335,-188"/>
<text text-anchor="middle" x="303" y="-164.95" font-family="Times,serif" font-size="14.00">Process4</text>
</g>
<!-- node_0&#45;&gt;node_2 -->
<g id="edge4" class="edge">
<title>node_0&#45;&gt;node_2</title>
<path fill="none" stroke="blue" stroke-width="2" d="M54.47,-134.7C60.24,-135.86 66.31,-137.02 72,-138 137.06,-149.17 212.99,-159.14 259.27,-164.88"/>
<polygon fill="blue" stroke="blue" stroke-width="2" points="257.3,-168.16 267.65,-165.91 258.15,-161.22 257.3,-168.16"/>
</g>
<!-- node_3 -->
<g id="node4" class="node">
<title>node_3</title>
<polygon fill="#ececff" stroke="#9370db" points="253,-106 146.25,-106 146.25,-70 253,-70 253,-106"/>
<text text-anchor="middle" x="199.62" y="-82.95" font-family="Times,serif" font-size="14.00">Process1[ add1 ]</text>
</g>
<!-- node_0&#45;&gt;node_3 -->
<g id="edge3" class="edge">
<title>node_0&#45;&gt;node_3</title>
<path fill="none" stroke="blue" stroke-width="2" d="M54.29,-122.68C75.74,-117.53 106.97,-110.02 134.89,-103.31"/>
<polygon fill="blue" stroke="blue" stroke-width="2" points="133.96,-107.14 142.87,-101.4 132.33,-100.33 133.96,-107.14"/>
<text text-anchor="middle" x="100.12" y="-121.2" font-family="Times,serif" font-size="14.00">?(is_even)</text>
</g>
<!-- node_1 -->
<g id="node2" class="node">
<title>node_1</title>
<polygon fill="#ececff" stroke="#9370db" points="727.25,-171 673.25,-171 673.25,-135 727.25,-135 727.25,-171"/>
<text text-anchor="middle" x="700.25" y="-147.95" font-family="Times,serif" font-size="14.00">End</text>
</g>
<!-- node_2&#45;&gt;node_1 -->
<g id="edge5" class="edge">
<title>node_2&#45;&gt;node_1</title>
<path fill="none" stroke="blue" stroke-width="2" d="M335.34,-168.65C407.33,-165.56 584.24,-157.95 661.79,-154.61"/>
<polygon fill="blue" stroke="blue" stroke-width="2" points="660.06,-158.19 669.9,-154.26 659.75,-151.2 660.06,-158.19"/>
<text text-anchor="middle" x="503.62" y="-165.63" font-family="Times,serif" font-size="14.00">a &#45;&gt; **</text>
</g>
<!-- node_4 -->
<g id="node5" class="node">
<title>node_4</title>
<path fill="#ececff" stroke="#9370db" d="M447.38,-146.73C447.38,-148.53 429,-150 406.38,-150 383.75,-150 365.38,-148.53 365.38,-146.73 365.38,-146.73 365.38,-117.27 365.38,-117.27 365.38,-115.47 383.75,-114 406.38,-114 429,-114 447.38,-115.47 447.38,-117.27 447.38,-117.27 447.38,-146.73 447.38,-146.73"/>
<path fill="none" stroke="#9370db" d="M447.38,-146.73C447.38,-144.92 429,-143.45 406.38,-143.45 383.75,-143.45 365.38,-144.92 365.38,-146.73"/>
<text text-anchor="middle" x="406.38" y="-126.95" font-family="Times,serif" font-size="14.00">State[result]</text>
</g>
<!-- node_3&#45;&gt;node_4 -->
<g id="edge1" class="edge">
<title>node_3&#45;&gt;node_4</title>
<path fill="none" stroke="black" stroke-dasharray="5,2" d="M253.35,-99.33C284.38,-106 323.43,-114.39 354.19,-121"/>
<polygon fill="black" stroke="black" points="353.12,-124.35 363.63,-123.03 354.59,-117.51 353.12,-124.35"/>
</g>
<!-- node_5 -->
<g id="node6" class="node">
<title>node_5</title>
<polygon fill="#ececff" stroke="#9370db" stroke-width="2" points="457.5,-95.5 355.25,-95.5 355.25,-54.5 457.5,-54.5 457.5,-95.5"/>
<text text-anchor="middle" x="406.38" y="-78.2" font-family="Times,serif" font-size="14.00">Process2[ add2,</text>
<text text-anchor="middle" x="406.38" y="-61.7" font-family="Times,serif" font-size="14.00">foreach=[0] ]</text>
</g>
<!-- node_3&#45;&gt;node_5 -->
<g id="edge6" class="edge">
<title>node_3&#45;&gt;node_5</title>
<path fill="none" stroke="black" d="M253.35,-84.65C280.97,-82.9 314.94,-80.74 343.76,-78.91"/>
<polygon fill="black" stroke="black" points="343.67,-82.42 353.43,-78.3 343.23,-75.44 343.67,-82.42"/>
</g>
<!-- node_6 -->
<g id="node7" class="node">
<title>node_6</title>
<polygon fill="#ececff" stroke="#9370db" points="459.75,-36 353,-36 353,0 459.75,0 459.75,-36"/>
<text text-anchor="middle" x="406.38" y="-12.95" font-family="Times,serif" font-size="14.00">Process3[ add5 ]</text>
</g>
<!-- node_3&#45;&gt;node_6 -->
<g id="edge7" class="edge">
<title>node_3&#45;&gt;node_6</title>
<path fill="none" stroke="black" d="M253.35,-69.97C280.46,-60.71 313.69,-49.34 342.17,-39.61"/>
<polygon fill="black" stroke="black" points="343.06,-43 351.39,-36.46 340.8,-36.38 343.06,-43"/>
</g>
<!-- node_7 -->
<g id="node8" class="node">
<title>node_7</title>
<polygon fill="#ececff" stroke="#9370db" stroke-width="2" points="636.25,-122.5 547.5,-122.5 547.5,-81.5 636.25,-81.5 636.25,-122.5"/>
<text text-anchor="middle" x="591.88" y="-105.2" font-family="Times,serif" font-size="14.00">identity[</text>
<text text-anchor="middle" x="591.88" y="-88.7" font-family="Times,serif" font-size="14.00">foreach=[x] ]</text>
</g>
<!-- node_4&#45;&gt;node_7 -->
<g id="edge2" class="edge">
<title>node_4&#45;&gt;node_7</title>
<path fill="none" stroke="black" stroke-dasharray="5,2" d="M447.64,-125.42C473.63,-121.17 507.76,-115.59 536.19,-110.94"/>
<polygon fill="black" stroke="black" points="536.37,-114.46 545.68,-109.39 535.25,-107.55 536.37,-114.46"/>
<text text-anchor="middle" x="503.62" y="-122.89" font-family="Times,serif" font-size="14.00">. &#45;&gt; input</text>
</g>
<!-- node_5&#45;&gt;node_7 -->
<g id="edge8" class="edge">
<title>node_5&#45;&gt;node_7</title>
<path fill="none" stroke="black" d="M457.84,-77.33C479.95,-78.87 506.13,-81.39 529.5,-85.5 531.66,-85.88 533.85,-86.3 536.06,-86.75"/>
<polygon fill="black" stroke="black" points="535.17,-90.14 545.69,-88.91 536.7,-83.31 535.17,-90.14"/>
<text text-anchor="middle" x="503.62" y="-88.7" font-family="Times,serif" font-size="14.00">a &#45;&gt; x</text>
</g>
<!-- node_6&#45;&gt;node_7 -->
<g id="edge9" class="edge">
<title>node_6&#45;&gt;node_7</title>
<path fill="none" stroke="black" d="M460.14,-31.76C482.18,-38.45 507.67,-47.46 529.5,-58.5 538.48,-63.04 547.6,-68.79 555.98,-74.6"/>
<polygon fill="black" stroke="black" points="553.68,-77.26 563.85,-80.25 557.77,-71.57 553.68,-77.26"/>
<text text-anchor="middle" x="503.62" y="-61.7" font-family="Times,serif" font-size="14.00">b &#45;&gt; y</text>
</g>
<!-- node_7&#45;&gt;node_1 -->
<g id="edge10" class="edge">
<title>node_7&#45;&gt;node_1</title>
<path fill="none" stroke="blue" stroke-width="2" d="M636.45,-122.89C645.16,-127.07 654.23,-131.42 662.68,-135.47"/>
<polygon fill="blue" stroke="blue" stroke-width="2" points="659.72,-137.93 670.25,-139.09 662.74,-131.62 659.72,-137.93"/>
</g>
</g>
</svg>
