<?xml version="1.0" encoding="UTF-8" standalone="no"?>
<!DOCTYPE svg PUBLIC "-//W3C//DTD SVG 1.1//EN"
 "http://www.w3.org/Graphics/SVG/1.1/DTD/svg11.dtd">
<!-- Generated by graphviz version 12.2.1 (20241206.2353)
 -->
<!-- Title: TestDef Pages: 1 -->
<svg width="550pt" height="125pt"
 viewBox="0.00 0.00 549.50 124.50" xmlns="http://www.w3.org/2000/svg" xmlns:xlink="http://www.w3.org/1999/xlink">
<g id="graph0" class="graph" transform="scale(1 1) rotate(0) translate(4 120.5)">
<title>TestDef</title>
<polygon fill="white" stroke="none" points="-4,4 -4,-120.5 545.5,-120.5 545.5,4 -4,4"/>
<text text-anchor="middle" x="270.75" y="-99.2" font-family="Times,serif" font-size="14.00">TestDef</text>
<!-- node_0 -->
<g id="node1" class="node">
<title>node_0</title>
<polygon fill="#ececff" stroke="#9370db" points="54,-61 0,-61 0,-25 54,-25 54,-61"/>
<text text-anchor="middle" x="27" y="-37.95" font-family="Times,serif" font-size="14.00">Start</text>
</g>
<!-- node_3 -->
<g id="node4" class="node">
<title>node_3</title>
<polygon fill="#ececff" stroke="#9370db" points="389.75,-71.75 91,-71.75 91,-14.25 389.75,-14.25 389.75,-71.75"/>
<text text-anchor="middle" x="240.38" y="-54.45" font-family="Times,serif" font-size="14.00">anon_from_add1_to_sum[</text>
<text text-anchor="middle" x="240.38" y="-37.95" font-family="Times,serif" font-size="14.00">Diagram(anon_from_add1_to_sum)@0x11edc6030</text>
<text text-anchor="middle" x="240.38" y="-21.45" font-family="Times,serif" font-size="14.00">]</text>
</g>
<!-- node_0&#45;&gt;node_3 -->
<g id="edge1" class="edge">
<title>node_0&#45;&gt;node_3</title>
<path fill="none" stroke="blue" stroke-width="2" d="M54.34,-43C61.66,-43 70.18,-43 79.45,-43"/>
<polygon fill="blue" stroke="blue" stroke-width="2" points="77.65,-46.5 87.65,-43 77.65,-39.5 77.65,-46.5"/>
</g>
<!-- node_1 -->
<g id="node2" class="node">
<title>node_1</title>
<polygon fill="#ececff" stroke="#9370db" points="532.75,-36 478.75,-36 478.75,0 532.75,0 532.75,-36"/>
<text text-anchor="middle" x="505.75" y="-12.95" font-family="Times,serif" font-size="14.00">End</text>
</g>
<!-- node_2 -->
<g id="node3" class="node">
<title>node_2</title>
<polygon fill="#ececff" stroke="#9370db" points="541.5,-92 470,-92 470,-56 541.5,-56 541.5,-92"/>
<text text-anchor="middle" x="505.75" y="-68.95" font-family="Times,serif" font-size="14.00">add_again</text>
</g>
<!-- node_2&#45;&gt;node_3 -->
<g id="edge2" class="edge">
<title>node_2&#45;&gt;node_3</title>
<path fill="none" stroke="blue" stroke-width="2" d="M469.59,-61.36C463.78,-59.65 457.76,-58.1 452,-57 435.69,-53.88 418.55,-51.42 401.39,-49.5"/>
<polygon fill="blue" stroke="blue" stroke-width="2" points="403.44,-46.19 393.13,-48.62 402.7,-53.16 403.44,-46.19"/>
</g>
<!-- node_3&#45;&gt;node_1 -->
<g id="edge3" class="edge">
<title>node_3&#45;&gt;node_1</title>
<path fill="none" stroke="blue" stroke-width="2" d="M390,-28.89C418.61,-26.18 446.14,-23.56 467.06,-21.58"/>
<polygon fill="blue" stroke="blue" stroke-width="2" points="465.63,-25.23 475.25,-20.8 464.97,-18.26 465.63,-25.23"/>
</g>
<!-- node_3&#45;&gt;node_2 -->
<g id="edge4" class="edge">
<title>node_3&#45;&gt;node_2</title>
<path fill="none" stroke="blue" stroke-width="2" d="M390,-60.49C414.75,-63.41 438.7,-66.23 458.25,-68.53"/>
<polygon fill="blue" stroke="blue" stroke-width="2" points="456.18,-71.81 466.52,-69.5 457,-64.86 456.18,-71.81"/>
<text text-anchor="middle" x="429.88" y="-70.5" font-family="Times,serif" font-size="14.00">?(is112)</text>
</g>
</g>
</svg>
