<?xml version="1.0" encoding="UTF-8" standalone="no"?>
<!DOCTYPE svg PUBLIC "-//W3C//DTD SVG 1.1//EN"
 "http://www.w3.org/Graphics/SVG/1.1/DTD/svg11.dtd">
<!-- Generated by graphviz version 12.2.1 (20241206.2353)
 -->
<!-- Title: TestDef Pages: 1 -->
<svg width="462pt" height="166pt"
 viewBox="0.00 0.00 462.00 166.00" xmlns="http://www.w3.org/2000/svg" xmlns:xlink="http://www.w3.org/1999/xlink">
<g id="graph0" class="graph" transform="scale(1 1) rotate(0) translate(4 162)">
<title>TestDef</title>
<polygon fill="white" stroke="none" points="-4,4 -4,-162 458,-162 458,4 -4,4"/>
<text text-anchor="middle" x="227" y="-140.7" font-family="Times,serif" font-size="14.00">TestDef</text>
<!-- node_0 -->
<g id="node1" class="node">
<title>node_0</title>
<polygon fill="#ececff" stroke="#9370db" points="54,-84.75 0,-84.75 0,-48.75 54,-48.75 54,-84.75"/>
<text text-anchor="middle" x="27" y="-61.7" font-family="Times,serif" font-size="14.00">Start</text>
</g>
<!-- node_2 -->
<g id="node3" class="node">
<title>node_2</title>
<polygon fill="#ececff" stroke="#9370db" points="364,-133.5 90,-133.5 90,-76 364,-76 364,-133.5"/>
<text text-anchor="middle" x="227" y="-116.2" font-family="Times,serif" font-size="14.00">anon_from_choice2_to_end_choice2[</text>
<text text-anchor="middle" x="227" y="-99.7" font-family="Times,serif" font-size="14.00">Diagram(anon_from_choice2_to_end_choice2)</text>
<text text-anchor="middle" x="227" y="-83.2" font-family="Times,serif" font-size="14.00">]</text>
</g>
<!-- node_0&#45;&gt;node_2 -->
<g id="edge1" class="edge">
<title>node_0&#45;&gt;node_2</title>
<path fill="none" stroke="black" d="M54.29,-71.8C61.4,-73.16 69.62,-74.74 78.53,-76.45"/>
<polygon fill="black" stroke="black" points="77.75,-79.86 88.23,-78.31 79.07,-72.99 77.75,-79.86"/>
</g>
<!-- node_3 -->
<g id="node4" class="node">
<title>node_3</title>
<polygon fill="#ececff" stroke="#9370db" points="364,-57.5 90,-57.5 90,0 364,0 364,-57.5"/>
<text text-anchor="middle" x="227" y="-40.2" font-family="Times,serif" font-size="14.00">anon_from_choice1_to_end_choice1[</text>
<text text-anchor="middle" x="227" y="-23.7" font-family="Times,serif" font-size="14.00">Diagram(anon_from_choice1_to_end_choice1)</text>
<text text-anchor="middle" x="227" y="-7.2" font-family="Times,serif" font-size="14.00">]</text>
</g>
<!-- node_0&#45;&gt;node_3 -->
<g id="edge2" class="edge">
<title>node_0&#45;&gt;node_3</title>
<path fill="none" stroke="black" d="M54.29,-61.7C61.4,-60.34 69.62,-58.76 78.53,-57.05"/>
<polygon fill="black" stroke="black" points="79.07,-60.51 88.23,-55.19 77.75,-53.64 79.07,-60.51"/>
</g>
<!-- node_1 -->
<g id="node2" class="node">
<title>node_1</title>
<polygon fill="#ececff" stroke="#9370db" points="454,-84.75 400,-84.75 400,-48.75 454,-48.75 454,-84.75"/>
<text text-anchor="middle" x="427" y="-61.7" font-family="Times,serif" font-size="14.00">end</text>
</g>
<!-- node_2&#45;&gt;node_1 -->
<g id="edge3" class="edge">
<title>node_2&#45;&gt;node_1</title>
<path fill="none" stroke="black" d="M364.44,-78.57C372.95,-76.93 381.03,-75.38 388.37,-73.97"/>
<polygon fill="black" stroke="black" points="388.95,-77.42 398.11,-72.1 387.63,-70.55 388.95,-77.42"/>
</g>
<!-- node_3&#45;&gt;node_1 -->
<g id="edge4" class="edge">
<title>node_3&#45;&gt;node_1</title>
<path fill="none" stroke="black" d="M364.44,-54.93C372.95,-56.57 381.03,-58.12 388.37,-59.53"/>
<polygon fill="black" stroke="black" points="387.63,-62.95 398.11,-61.4 388.95,-56.08 387.63,-62.95"/>
</g>
</g>
</svg>
