<?xml version="1.0" encoding="UTF-8" standalone="no"?>
<!DOCTYPE svg PUBLIC "-//W3C//DTD SVG 1.1//EN"
 "http://www.w3.org/Graphics/SVG/1.1/DTD/svg11.dtd">
<!-- Generated by graphviz version 12.2.1 (20241206.2353)
 -->
<!-- Title: anon_from_choice2_to_end_choice2 Pages: 1 -->
<svg width="276pt" height="123pt"
 viewBox="0.00 0.00 276.25 122.50" xmlns="http://www.w3.org/2000/svg" xmlns:xlink="http://www.w3.org/1999/xlink">
<g id="graph0" class="graph" transform="scale(1 1) rotate(0) translate(4 118.5)">
<title>anon_from_choice2_to_end_choice2</title>
<polygon fill="white" stroke="none" points="-4,4 -4,-118.5 272.25,-118.5 272.25,4 -4,4"/>
<text text-anchor="middle" x="134.12" y="-97.2" font-family="Times,serif" font-size="14.00">anon_from_choice2_to_end_choice2</text>
<!-- node_0 -->
<g id="node1" class="node">
<title>node_0</title>
<polygon fill="#ececff" stroke="#9370db" points="148,-90 94,-90 94,-54 148,-54 148,-90"/>
<text text-anchor="middle" x="121" y="-66.95" font-family="Times,serif" font-size="14.00">square</text>
</g>
<!-- node_1 -->
<g id="node2" class="node">
<title>node_1</title>
<polygon fill="#ececff" stroke="#9370db" points="268.25,-63 184,-63 184,-27 268.25,-27 268.25,-63"/>
<text text-anchor="middle" x="226.12" y="-39.95" font-family="Times,serif" font-size="14.00">end_choice2</text>
</g>
<!-- node_0&#45;&gt;node_1 -->
<g id="edge1" class="edge">
<title>node_0&#45;&gt;node_1</title>
<path fill="none" stroke="blue" stroke-width="2" d="M148.29,-65.12C155.76,-63.16 164.17,-60.96 172.61,-58.75"/>
<polygon fill="blue" stroke="blue" stroke-width="2" points="171.94,-62.54 180.72,-56.63 170.16,-55.77 171.94,-62.54"/>
</g>
<!-- node_2 -->
<g id="node3" class="node">
<title>node_2</title>
<polygon fill="#ececff" stroke="#9370db" points="148,-36 94,-36 94,0 148,0 148,-36"/>
<text text-anchor="middle" x="121" y="-12.95" font-family="Times,serif" font-size="14.00">cube</text>
</g>
<!-- node_2&#45;&gt;node_1 -->
<g id="edge2" class="edge">
<title>node_2&#45;&gt;node_1</title>
<path fill="none" stroke="blue" stroke-width="2" d="M148.29,-24.88C155.76,-26.84 164.17,-29.04 172.61,-31.25"/>
<polygon fill="blue" stroke="blue" stroke-width="2" points="170.16,-34.23 180.72,-33.37 171.94,-27.46 170.16,-34.23"/>
</g>
<!-- node_3 -->
<g id="node4" class="node">
<title>node_3</title>
<polygon fill="#ececff" stroke="#9370db" points="58,-63 0,-63 0,-27 58,-27 58,-63"/>
<text text-anchor="middle" x="29" y="-39.95" font-family="Times,serif" font-size="14.00">choice2</text>
</g>
<!-- node_3&#45;&gt;node_0 -->
<g id="edge3" class="edge">
<title>node_3&#45;&gt;node_0</title>
<path fill="none" stroke="blue" stroke-width="2" d="M58.48,-53.54C66.19,-55.86 74.67,-58.4 82.79,-60.84"/>
<polygon fill="blue" stroke="blue" stroke-width="2" points="80.06,-63.67 90.65,-63.19 82.07,-56.97 80.06,-63.67"/>
</g>
<!-- node_3&#45;&gt;node_2 -->
<g id="edge4" class="edge">
<title>node_3&#45;&gt;node_2</title>
<path fill="none" stroke="blue" stroke-width="2" d="M58.48,-36.46C66.19,-34.14 74.67,-31.6 82.79,-29.16"/>
<polygon fill="blue" stroke="blue" stroke-width="2" points="82.07,-33.03 90.65,-26.81 80.06,-26.33 82.07,-33.03"/>
</g>
</g>
</svg>
