<?xml version="1.0" encoding="UTF-8" standalone="no"?>
<!DOCTYPE svg PUBLIC "-//W3C//DTD SVG 1.1//EN"
 "http://www.w3.org/Graphics/SVG/1.1/DTD/svg11.dtd">
<!-- Generated by graphviz version 12.2.1 (20241206.2353)
 -->
<!-- Title: TestDef Pages: 1 -->
<svg width="646pt" height="163pt"
 viewBox="0.00 0.00 645.75 162.50" xmlns="http://www.w3.org/2000/svg" xmlns:xlink="http://www.w3.org/1999/xlink">
<g id="graph0" class="graph" transform="scale(1 1) rotate(0) translate(4 158.5)">
<title>TestDef</title>
<polygon fill="white" stroke="none" points="-4,4 -4,-158.5 641.75,-158.5 641.75,4 -4,4"/>
<text text-anchor="middle" x="318.88" y="-137.2" font-family="Times,serif" font-size="14.00">TestDef</text>
<!-- node_0 -->
<g id="node1" class="node">
<title>node_0</title>
<polygon fill="#ececff" stroke="#9370db" points="54,-76 0,-76 0,-40 54,-40 54,-76"/>
<text text-anchor="middle" x="27" y="-52.95" font-family="Times,serif" font-size="14.00">Start</text>
</g>
<!-- node_2 -->
<g id="node3" class="node">
<title>node_2</title>
<polygon fill="#ececff" stroke="#9370db" points="198.5,-76 91,-76 91,-40 198.5,-40 198.5,-76"/>
<text text-anchor="middle" x="144.75" y="-52.95" font-family="Times,serif" font-size="14.00">add1[ Adder(1) ]</text>
</g>
<!-- node_0&#45;&gt;node_2 -->
<g id="edge1" class="edge">
<title>node_0&#45;&gt;node_2</title>
<path fill="none" stroke="blue" stroke-width="2" d="M54.27,-58C61.86,-58 70.51,-58 79.36,-58"/>
<polygon fill="blue" stroke="blue" stroke-width="2" points="77.59,-61.5 87.59,-58 77.59,-54.5 77.59,-61.5"/>
</g>
<!-- node_1 -->
<g id="node2" class="node">
<title>node_1</title>
<polygon fill="#ececff" stroke="#9370db" points="629,-95 575,-95 575,-59 629,-59 629,-95"/>
<text text-anchor="middle" x="602" y="-71.95" font-family="Times,serif" font-size="14.00">End</text>
</g>
<!-- node_3 -->
<g id="node4" class="node">
<title>node_3</title>
<polygon fill="#ececff" stroke="#9370db" points="363.25,-130 242.25,-130 242.25,-94 363.25,-94 363.25,-130"/>
<text text-anchor="middle" x="302.75" y="-106.95" font-family="Times,serif" font-size="14.00">add10[ Adder(10) ]</text>
</g>
<!-- node_2&#45;&gt;node_3 -->
<g id="edge2" class="edge">
<title>node_2&#45;&gt;node_3</title>
<path fill="none" stroke="black" d="M198.56,-76.28C211.13,-80.63 224.68,-85.32 237.69,-89.83"/>
<polygon fill="black" stroke="black" points="236.43,-93.09 247.03,-93.06 238.72,-86.48 236.43,-93.09"/>
</g>
<!-- node_4 -->
<g id="node5" class="node">
<title>node_4</title>
<polygon fill="#ececff" stroke="#9370db" points="370,-76 235.5,-76 235.5,-40 370,-40 370,-76"/>
<text text-anchor="middle" x="302.75" y="-52.95" font-family="Times,serif" font-size="14.00">add100[ Adder(100) ]</text>
</g>
<!-- node_2&#45;&gt;node_4 -->
<g id="edge3" class="edge">
<title>node_2&#45;&gt;node_4</title>
<path fill="none" stroke="black" d="M198.56,-58C206.74,-58 215.33,-58 223.91,-58"/>
<polygon fill="black" stroke="black" points="223.65,-61.5 233.65,-58 223.65,-54.5 223.65,-61.5"/>
</g>
<!-- node_5 -->
<g id="node6" class="node">
<title>node_5</title>
<polygon fill="#ececff" stroke="#9370db" points="486,-85 407,-85 407,-49 486,-49 486,-85"/>
<text text-anchor="middle" x="446.5" y="-61.95" font-family="Times,serif" font-size="14.00">sum[ sum ]</text>
</g>
<!-- node_3&#45;&gt;node_5 -->
<g id="edge4" class="edge">
<title>node_3&#45;&gt;node_5</title>
<path fill="none" stroke="black" d="M361.81,-93.57C373.17,-89.96 384.98,-86.21 396.02,-82.71"/>
<polygon fill="black" stroke="black" points="396.85,-86.12 405.32,-79.76 394.73,-79.45 396.85,-86.12"/>
</g>
<!-- node_4&#45;&gt;node_5 -->
<g id="edge5" class="edge">
<title>node_4&#45;&gt;node_5</title>
<path fill="none" stroke="black" d="M370.47,-62.24C378.77,-62.76 387.15,-63.3 395.14,-63.8"/>
<polygon fill="black" stroke="black" points="394.81,-67.29 405.02,-64.43 395.26,-60.3 394.81,-67.29"/>
</g>
<!-- node_5&#45;&gt;node_1 -->
<g id="edge6" class="edge">
<title>node_5&#45;&gt;node_1</title>
<path fill="none" stroke="blue" stroke-width="2" d="M486.23,-69.52C509.94,-71.07 540.12,-73.03 563.58,-74.56"/>
<polygon fill="blue" stroke="blue" stroke-width="2" points="561.6,-77.94 571.81,-75.1 562.06,-70.96 561.6,-77.94"/>
</g>
<!-- node_6 -->
<g id="node7" class="node">
<title>node_6</title>
<polygon fill="#ececff" stroke="#9370db" points="637.75,-36 566.25,-36 566.25,0 637.75,0 637.75,-36"/>
<text text-anchor="middle" x="602" y="-12.95" font-family="Times,serif" font-size="14.00">add_again</text>
</g>
<!-- node_5&#45;&gt;node_6 -->
<g id="edge7" class="edge">
<title>node_5&#45;&gt;node_6</title>
<path fill="none" stroke="blue" stroke-width="2" d="M486.23,-54.64C507.2,-47.94 533.24,-39.63 555.21,-32.62"/>
<polygon fill="blue" stroke="blue" stroke-width="2" points="554.61,-36.48 563.07,-30.11 552.48,-29.82 554.61,-36.48"/>
<text text-anchor="middle" x="526.12" y="-51.53" font-family="Times,serif" font-size="14.00">?(is112)</text>
</g>
<!-- node_6&#45;&gt;node_2 -->
<g id="edge8" class="edge">
<title>node_6&#45;&gt;node_2</title>
<path fill="none" stroke="blue" stroke-width="2" d="M565.93,-16.28C500.47,-13.73 355.46,-11.16 235.5,-31 227.13,-32.38 218.44,-34.33 209.92,-36.54"/>
<polygon fill="blue" stroke="blue" stroke-width="2" points="210.48,-32.75 201.77,-38.78 212.34,-39.5 210.48,-32.75"/>
</g>
</g>
</svg>
