<?xml version="1.0" encoding="UTF-8" standalone="no"?>
<!DOCTYPE svg PUBLIC "-//W3C//DTD SVG 1.1//EN"
 "http://www.w3.org/Graphics/SVG/1.1/DTD/svg11.dtd">
<!-- Generated by graphviz version 12.2.1 (20241206.2353)
 -->
<!-- Title: RAG Agent Pages: 1 -->
<svg width="658pt" height="154pt"
 viewBox="0.00 0.00 658.25 153.50" xmlns="http://www.w3.org/2000/svg" xmlns:xlink="http://www.w3.org/1999/xlink">
<g id="graph0" class="graph" transform="scale(1 1) rotate(0) translate(4 149.5)">
<title>RAG Agent</title>
<polygon fill="white" stroke="none" points="-4,4 -4,-149.5 654.25,-149.5 654.25,4 -4,4"/>
<text text-anchor="middle" x="325.12" y="-128.2" font-family="Times,serif" font-size="14.00">RAG Agent</text>
<!-- node_0 -->
<g id="node1" class="node">
<title>node_0</title>
<polygon fill="#ececff" stroke="#9370db" points="312.25,-121 127.5,-121 127.5,-63.5 312.25,-63.5 312.25,-121"/>
<text text-anchor="middle" x="219.88" y="-103.7" font-family="Times,serif" font-size="14.00">get_docs[</text>
<text text-anchor="middle" x="219.88" y="-87.2" font-family="Times,serif" font-size="14.00">RagFactory.&lt;locals&gt;.db_query</text>
<text text-anchor="middle" x="219.88" y="-70.7" font-family="Times,serif" font-size="14.00">]</text>
</g>
<!-- node_2 -->
<g id="node3" class="node">
<title>node_2</title>
<polygon fill="#ececff" stroke="#9370db" points="559.25,-90.5 397,-90.5 397,0 559.25,0 559.25,-90.5"/>
<text text-anchor="middle" x="478.12" y="-73.2" font-family="Times,serif" font-size="14.00">chat[</text>
<text text-anchor="middle" x="478.12" y="-56.7" font-family="Times,serif" font-size="14.00">Chat(model=&#39;gpt&#45;4o&#45;mini&#39;,</text>
<text text-anchor="middle" x="478.12" y="-40.2" font-family="Times,serif" font-size="14.00">required_keys={&#39;docs&#39;,</text>
<text text-anchor="middle" x="478.12" y="-23.7" font-family="Times,serif" font-size="14.00">&#39;question&#39;},</text>
<text text-anchor="middle" x="478.12" y="-7.2" font-family="Times,serif" font-size="14.00">seed=42) ]</text>
</g>
<!-- node_0&#45;&gt;node_2 -->
<g id="edge1" class="edge">
<title>node_0&#45;&gt;node_2</title>
<path fill="none" stroke="black" d="M312.66,-75.41C336.34,-71.07 361.83,-66.4 385.5,-62.06"/>
<polygon fill="black" stroke="black" points="385.9,-65.54 395.11,-60.29 384.64,-58.66 385.9,-65.54"/>
<text text-anchor="middle" x="354.62" y="-74.76" font-family="Times,serif" font-size="14.00">. &#45;&gt; docs</text>
</g>
<!-- node_1 -->
<g id="node2" class="node">
<title>node_1</title>
<polygon fill="#ececff" stroke="#9370db" points="54,-71.25 0,-71.25 0,-35.25 54,-35.25 54,-71.25"/>
<text text-anchor="middle" x="27" y="-48.2" font-family="Times,serif" font-size="14.00">Start</text>
</g>
<!-- node_1&#45;&gt;node_0 -->
<g id="edge2" class="edge">
<title>node_1&#45;&gt;node_0</title>
<path fill="none" stroke="black" d="M54.14,-58.59C70.55,-61.94 92.89,-66.51 115.81,-71.19"/>
<polygon fill="black" stroke="black" points="115.11,-74.62 125.61,-73.19 116.51,-67.76 115.11,-74.62"/>
<text text-anchor="middle" x="90.75" y="-72.46" font-family="Times,serif" font-size="14.00">. &#45;&gt; **</text>
</g>
<!-- node_1&#45;&gt;node_2 -->
<g id="edge3" class="edge">
<title>node_1&#45;&gt;node_2</title>
<path fill="none" stroke="black" d="M54.48,-47.98C74.45,-44.29 102.57,-39.68 127.5,-37.75 214.98,-30.98 315.11,-34.24 385.73,-38.37"/>
<polygon fill="black" stroke="black" points="385.1,-41.84 395.3,-38.95 385.53,-34.85 385.1,-41.84"/>
<text text-anchor="middle" x="219.88" y="-40.95" font-family="Times,serif" font-size="14.00">query &#45;&gt; question</text>
</g>
<!-- node_3 -->
<g id="node4" class="node">
<title>node_3</title>
<polygon fill="#ececff" stroke="#9370db" points="650.25,-63.25 596.25,-63.25 596.25,-27.25 650.25,-27.25 650.25,-63.25"/>
<text text-anchor="middle" x="623.25" y="-40.2" font-family="Times,serif" font-size="14.00">End</text>
</g>
<!-- node_2&#45;&gt;node_3 -->
<g id="edge4" class="edge">
<title>node_2&#45;&gt;node_3</title>
<path fill="none" stroke="black" d="M559.47,-45.25C568.19,-45.25 576.73,-45.25 584.57,-45.25"/>
<polygon fill="black" stroke="black" points="584.34,-48.75 594.34,-45.25 584.34,-41.75 584.34,-48.75"/>
</g>
</g>
</svg>
