<?xml version="1.0" encoding="UTF-8" standalone="no"?>
<!DOCTYPE svg PUBLIC "-//W3C//DTD SVG 1.1//EN"
 "http://www.w3.org/Graphics/SVG/1.1/DTD/svg11.dtd">
<!-- Generated by graphviz version 12.2.1 (20241206.2353)
 -->
<!-- Title: test_d Pages: 1 -->
<svg width="738pt" height="221pt"
 viewBox="0.00 0.00 738.00 220.50" xmlns="http://www.w3.org/2000/svg" xmlns:xlink="http://www.w3.org/1999/xlink">
<g id="graph0" class="graph" transform="scale(1 1) rotate(0) translate(4 216.5)">
<title>test_d</title>
<polygon fill="white" stroke="none" points="-4,4 -4,-216.5 734,-216.5 734,4 -4,4"/>
<text text-anchor="middle" x="365" y="-195.2" font-family="Times,serif" font-size="14.00">test_d</text>
<!-- node_0 -->
<g id="node1" class="node">
<title>node_0</title>
<polygon fill="#ececff" stroke="#9370db" stroke-dasharray="5,2" points="333.5,-188 270.25,-188 270.25,-152 333.5,-152 333.5,-188"/>
<text text-anchor="middle" x="301.88" y="-164.95" font-family="Times,serif" font-size="14.00">process4</text>
</g>
<!-- node_2 -->
<g id="node3" class="node">
<title>node_2</title>
<polygon fill="#ececff" stroke="#9370db" points="730,-173 676,-173 676,-137 730,-137 730,-173"/>
<text text-anchor="middle" x="703" y="-149.95" font-family="Times,serif" font-size="14.00">End</text>
</g>
<!-- node_0&#45;&gt;node_2 -->
<g id="edge3" class="edge">
<title>node_0&#45;&gt;node_2</title>
<path fill="none" stroke="blue" stroke-width="2" d="M333.77,-169.31C395.43,-167.86 538.17,-164.11 658,-158 660.18,-157.89 662.42,-157.77 664.68,-157.63"/>
<polygon fill="blue" stroke="blue" stroke-width="2" points="663.17,-161.24 672.93,-157.11 662.73,-154.25 663.17,-161.24"/>
<text text-anchor="middle" x="501.38" y="-168.5" font-family="Times,serif" font-size="14.00">a &#45;&gt; **</text>
</g>
<!-- node_1 -->
<g id="node2" class="node">
<title>node_1</title>
<polygon fill="#ececff" stroke="#9370db" points="54,-138 0,-138 0,-102 54,-102 54,-138"/>
<text text-anchor="middle" x="27" y="-114.95" font-family="Times,serif" font-size="14.00">Start</text>
</g>
<!-- node_1&#45;&gt;node_0 -->
<g id="edge4" class="edge">
<title>node_1&#45;&gt;node_0</title>
<path fill="none" stroke="blue" stroke-width="2" d="M54.42,-127.67C60.18,-129.22 66.28,-130.75 72,-132 136.61,-146.14 212.5,-157.77 258.62,-164.3"/>
<polygon fill="blue" stroke="blue" stroke-width="2" points="256.57,-167.55 266.96,-165.47 257.54,-160.61 256.57,-167.55"/>
</g>
<!-- node_3 -->
<g id="node4" class="node">
<title>node_3</title>
<polygon fill="#ececff" stroke="#9370db" points="252.25,-106 146.25,-106 146.25,-70 252.25,-70 252.25,-106"/>
<text text-anchor="middle" x="199.25" y="-82.95" font-family="Times,serif" font-size="14.00">process1[ add1 ]</text>
</g>
<!-- node_1&#45;&gt;node_3 -->
<g id="edge5" class="edge">
<title>node_1&#45;&gt;node_3</title>
<path fill="none" stroke="blue" stroke-width="2" d="M54.23,-115.07C75.63,-111.05 106.76,-105.2 134.61,-99.96"/>
<polygon fill="blue" stroke="blue" stroke-width="2" points="133.74,-103.69 142.93,-98.4 132.45,-96.81 133.74,-103.69"/>
<text text-anchor="middle" x="100.12" y="-114.62" font-family="Times,serif" font-size="14.00">?(is_even)</text>
</g>
<!-- node_4 -->
<g id="node5" class="node">
<title>node_4</title>
<path fill="#ececff" stroke="#9370db" d="M445.5,-146.73C445.5,-148.53 427.12,-150 404.5,-150 381.88,-150 363.5,-148.53 363.5,-146.73 363.5,-146.73 363.5,-117.27 363.5,-117.27 363.5,-115.47 381.88,-114 404.5,-114 427.12,-114 445.5,-115.47 445.5,-117.27 445.5,-117.27 445.5,-146.73 445.5,-146.73"/>
<path fill="none" stroke="#9370db" d="M445.5,-146.73C445.5,-144.92 427.12,-143.45 404.5,-143.45 381.88,-143.45 363.5,-144.92 363.5,-146.73"/>
<text text-anchor="middle" x="404.5" y="-126.95" font-family="Times,serif" font-size="14.00">State[result]</text>
</g>
<!-- node_3&#45;&gt;node_4 -->
<g id="edge1" class="edge">
<title>node_3&#45;&gt;node_4</title>
<path fill="none" stroke="black" stroke-dasharray="5,2" d="M252.59,-99.33C283.15,-105.95 321.55,-114.26 351.97,-120.85"/>
<polygon fill="black" stroke="black" points="351.21,-124.26 361.73,-122.96 352.69,-117.42 351.21,-124.26"/>
</g>
<!-- node_6 -->
<g id="node7" class="node">
<title>node_6</title>
<polygon fill="#ececff" stroke="#9370db" stroke-width="2" points="455.25,-95.5 353.75,-95.5 353.75,-54.5 455.25,-54.5 455.25,-95.5"/>
<text text-anchor="middle" x="404.5" y="-78.2" font-family="Times,serif" font-size="14.00">process2[ add2,</text>
<text text-anchor="middle" x="404.5" y="-61.7" font-family="Times,serif" font-size="14.00">foreach=[0] ]</text>
</g>
<!-- node_3&#45;&gt;node_6 -->
<g id="edge6" class="edge">
<title>node_3&#45;&gt;node_6</title>
<path fill="none" stroke="black" d="M252.59,-84.65C279.88,-82.91 313.43,-80.76 341.96,-78.94"/>
<polygon fill="black" stroke="black" points="342.17,-82.43 351.93,-78.3 341.72,-75.44 342.17,-82.43"/>
</g>
<!-- node_7 -->
<g id="node8" class="node">
<title>node_7</title>
<polygon fill="#ececff" stroke="#9370db" points="457.5,-36 351.5,-36 351.5,0 457.5,0 457.5,-36"/>
<text text-anchor="middle" x="404.5" y="-12.95" font-family="Times,serif" font-size="14.00">process3[ add5 ]</text>
</g>
<!-- node_3&#45;&gt;node_7 -->
<g id="edge7" class="edge">
<title>node_3&#45;&gt;node_7</title>
<path fill="none" stroke="black" d="M252.59,-69.97C279.5,-60.71 312.49,-49.34 340.76,-39.61"/>
<polygon fill="black" stroke="black" points="341.59,-43.02 349.9,-36.46 339.31,-36.41 341.59,-43.02"/>
</g>
<!-- node_5 -->
<g id="node6" class="node">
<title>node_5</title>
<polygon fill="#ececff" stroke="#9370db" points="602.5,-122 545.25,-122 545.25,-86 602.5,-86 602.5,-122"/>
<text text-anchor="middle" x="573.88" y="-98.95" font-family="Times,serif" font-size="14.00">identity</text>
</g>
<!-- node_4&#45;&gt;node_5 -->
<g id="edge2" class="edge">
<title>node_4&#45;&gt;node_5</title>
<path fill="none" stroke="black" stroke-dasharray="5,2" d="M445.59,-125.29C472.3,-120.83 507.22,-114.98 533.73,-110.55"/>
<polygon fill="black" stroke="black" points="534.11,-114.03 543.4,-108.93 532.96,-107.13 534.11,-114.03"/>
<text text-anchor="middle" x="501.38" y="-122.88" font-family="Times,serif" font-size="14.00">. &#45;&gt; input</text>
</g>
<!-- node_5&#45;&gt;node_2 -->
<g id="edge8" class="edge">
<title>node_5&#45;&gt;node_2</title>
<path fill="none" stroke="blue" stroke-width="2" d="M602.77,-115.19C621.15,-122.56 645.41,-132.3 665.34,-140.29"/>
<polygon fill="blue" stroke="blue" stroke-width="2" points="662.51,-142.93 673.09,-143.4 665.11,-136.43 662.51,-142.93"/>
<text text-anchor="middle" x="639.25" y="-140.25" font-family="Times,serif" font-size="14.00">. &#45;&gt; **</text>
</g>
<!-- node_6&#45;&gt;node_5 -->
<g id="edge9" class="edge">
<title>node_6&#45;&gt;node_5</title>
<path fill="none" stroke="black" d="M455.51,-80.26C477.61,-82.97 503.84,-86.73 527.25,-91.5 529.42,-91.94 531.64,-92.43 533.88,-92.95"/>
<polygon fill="black" stroke="black" points="533.01,-96.34 543.56,-95.37 534.71,-89.55 533.01,-96.34"/>
<text text-anchor="middle" x="501.38" y="-94.7" font-family="Times,serif" font-size="14.00">a &#45;&gt; x</text>
</g>
<!-- node_7&#45;&gt;node_5 -->
<g id="edge10" class="edge">
<title>node_7&#45;&gt;node_5</title>
<path fill="none" stroke="black" d="M457.86,-32.21C480.15,-39.48 505.88,-49.57 527.25,-62.5 534.43,-66.85 541.49,-72.42 547.83,-78.06"/>
<polygon fill="black" stroke="black" points="545.18,-80.38 554.87,-84.66 549.96,-75.27 545.18,-80.38"/>
<text text-anchor="middle" x="501.38" y="-65.7" font-family="Times,serif" font-size="14.00">b &#45;&gt; y</text>
</g>
</g>
</svg>
