<?xml version="1.0" encoding="UTF-8" standalone="no"?>
<!DOCTYPE svg PUBLIC "-//W3C//DTD SVG 1.1//EN"
 "http://www.w3.org/Graphics/SVG/1.1/DTD/svg11.dtd">
<!-- Generated by graphviz version 12.2.1 (20241206.2353)
 -->
<!-- Title: test_d2 Pages: 1 -->
<svg width="302pt" height="74pt"
 viewBox="0.00 0.00 301.50 73.50" xmlns="http://www.w3.org/2000/svg" xmlns:xlink="http://www.w3.org/1999/xlink">
<g id="graph0" class="graph" transform="scale(1 1) rotate(0) translate(4 69.5)">
<title>test_d2</title>
<polygon fill="white" stroke="none" points="-4,4 -4,-69.5 297.5,-69.5 297.5,4 -4,4"/>
<text text-anchor="middle" x="146.75" y="-48.2" font-family="Times,serif" font-size="14.00">test_d2</text>
<!-- node_0 -->
<g id="node1" class="node">
<title>node_0</title>
<polygon fill="#ececff" stroke="#9370db" points="203.5,-41 90,-41 90,0 203.5,0 203.5,-41"/>
<text text-anchor="middle" x="146.75" y="-23.7" font-family="Times,serif" font-size="14.00">proc[</text>
<text text-anchor="middle" x="146.75" y="-7.2" font-family="Times,serif" font-size="14.00">Diagram(test_d) ]</text>
</g>
<!-- node_2 -->
<g id="node3" class="node">
<title>node_2</title>
<polygon fill="#ececff" stroke="#9370db" points="293.5,-38.5 239.5,-38.5 239.5,-2.5 293.5,-2.5 293.5,-38.5"/>
<text text-anchor="middle" x="266.5" y="-15.45" font-family="Times,serif" font-size="14.00">End</text>
</g>
<!-- node_0&#45;&gt;node_2 -->
<g id="edge1" class="edge">
<title>node_0&#45;&gt;node_2</title>
<path fill="none" stroke="blue" stroke-width="2" d="M203.87,-20.5C211.95,-20.5 220.11,-20.5 227.72,-20.5"/>
<polygon fill="blue" stroke="blue" stroke-width="2" points="226.12,-24 236.12,-20.5 226.12,-17 226.12,-24"/>
</g>
<!-- node_1 -->
<g id="node2" class="node">
<title>node_1</title>
<polygon fill="#ececff" stroke="#9370db" points="54,-38.5 0,-38.5 0,-2.5 54,-2.5 54,-38.5"/>
<text text-anchor="middle" x="27" y="-15.45" font-family="Times,serif" font-size="14.00">Start</text>
</g>
<!-- node_1&#45;&gt;node_0 -->
<g id="edge2" class="edge">
<title>node_1&#45;&gt;node_0</title>
<path fill="none" stroke="blue" stroke-width="2" d="M54.43,-20.5C61.6,-20.5 69.72,-20.5 78.08,-20.5"/>
<polygon fill="blue" stroke="blue" stroke-width="2" points="76.53,-24 86.53,-20.5 76.53,-17 76.53,-24"/>
</g>
</g>
</svg>
