<?xml version="1.0" encoding="UTF-8" standalone="no"?>
<!DOCTYPE svg PUBLIC "-//W3C//DTD SVG 1.1//EN"
 "http://www.w3.org/Graphics/SVG/1.1/DTD/svg11.dtd">
<!-- Generated by graphviz version 12.2.1 (20241206.2353)
 -->
<!-- Pages: 1 -->
<svg width="179pt" height="335pt"
 viewBox="0.00 0.00 179.25 335.00" xmlns="http://www.w3.org/2000/svg" xmlns:xlink="http://www.w3.org/1999/xlink">
<g id="graph0" class="graph" transform="scale(1 1) rotate(0) translate(4 331)">
<polygon fill="white" stroke="none" points="-4,4 -4,-331 175.25,-331 175.25,4 -4,4"/>
<!-- A -->
<g id="node1" class="node">
<title>A</title>
<polygon fill="#ececff" stroke="#9370db" points="135.62,-327 35.62,-327 35.62,-269.5 135.62,-269.5 135.62,-327"/>
<text text-anchor="middle" x="85.62" y="-309.7" font-family="Times,serif" font-size="14.00">A</text>
<text text-anchor="middle" x="85.62" y="-293.2" font-family="Times,serif" font-size="14.00">role=start</text>
<text text-anchor="middle" x="85.62" y="-276.7" font-family="Times,serif" font-size="14.00">color=lightblue</text>
</g>
<!-- B -->
<g id="node2" class="node">
<title>B</title>
<polygon fill="#ececff" stroke="#9370db" points="139,-200.5 32.25,-200.5 32.25,-143 139,-143 139,-200.5"/>
<text text-anchor="middle" x="85.62" y="-183.2" font-family="Times,serif" font-size="14.00">B</text>
<text text-anchor="middle" x="85.62" y="-166.7" font-family="Times,serif" font-size="14.00">role=process</text>
<text text-anchor="middle" x="85.62" y="-150.2" font-family="Times,serif" font-size="14.00">color=lightgreen</text>
</g>
<!-- A&#45;&gt;B -->
<g id="edge1" class="edge">
<title>A&#45;&gt;B</title>
<path fill="none" stroke="black" d="M85.62,-269.31C85.62,-252.41 85.62,-230.6 85.62,-211.99"/>
<polygon fill="black" stroke="black" points="89.13,-212.11 85.63,-202.11 82.13,-212.11 89.13,-212.11"/>
<text text-anchor="middle" x="119" y="-238.2" font-family="Times,serif" font-size="14.00">weight=5</text>
<text text-anchor="middle" x="119" y="-221.7" font-family="Times,serif" font-size="14.00">label=step 1</text>
</g>
<!-- C -->
<g id="node3" class="node">
<title>C</title>
<polygon fill="#ececff" stroke="#9370db" points="171.25,-74 0,-74 0,0 171.25,0 171.25,-74"/>
<text text-anchor="middle" x="85.62" y="-56.7" font-family="Times,serif" font-size="14.00">C</text>
<text text-anchor="middle" x="85.62" y="-40.2" font-family="Times,serif" font-size="14.00">role=end</text>
<text text-anchor="middle" x="85.62" y="-23.7" font-family="Times,serif" font-size="14.00">color=pink</text>
<text text-anchor="middle" x="85.62" y="-7.2" font-family="Times,serif" font-size="14.00">nested_param={&#39;x&#39;: {&#39;y&#39;: 1}}</text>
</g>
<!-- B&#45;&gt;C -->
<g id="edge2" class="edge">
<title>B&#45;&gt;C</title>
<path fill="none" stroke="black" d="M85.62,-142.6C85.62,-126.01 85.62,-104.58 85.62,-85.45"/>
<polygon fill="black" stroke="black" points="89.13,-85.71 85.63,-75.71 82.13,-85.71 89.13,-85.71"/>
<text text-anchor="middle" x="111.5" y="-111.7" font-family="Times,serif" font-size="14.00">weight=3</text>
<text text-anchor="middle" x="111.5" y="-95.2" font-family="Times,serif" font-size="14.00">label=*</text>
</g>
</g>
</svg>
