<?xml version="1.0" encoding="UTF-8" standalone="no"?>
<!DOCTYPE svg PUBLIC "-//W3C//DTD SVG 1.1//EN"
 "http://www.w3.org/Graphics/SVG/1.1/DTD/svg11.dtd">
<!-- Generated by graphviz version 12.2.1 (20241206.2353)
 -->
<!-- Title: Router Pages: 1 -->
<svg width="761pt" height="291pt"
 viewBox="0.00 0.00 761.00 290.50" xmlns="http://www.w3.org/2000/svg" xmlns:xlink="http://www.w3.org/1999/xlink">
<g id="graph0" class="graph" transform="scale(1 1) rotate(0) translate(4 286.5)">
<title>Router</title>
<polygon fill="white" stroke="none" points="-4,4 -4,-286.5 757,-286.5 757,4 -4,4"/>
<text text-anchor="middle" x="376.5" y="-265.2" font-family="Times,serif" font-size="14.00">Router</text>
<!-- node_0 -->
<g id="node1" class="node">
<title>node_0</title>
<polygon fill="#ececff" stroke="#9370db" points="54,-146 0,-146 0,-110 54,-110 54,-146"/>
<text text-anchor="middle" x="27" y="-122.95" font-family="Times,serif" font-size="14.00">Start</text>
</g>
<!-- node_1 -->
<g id="node2" class="node">
<title>node_1</title>
<path fill="#ececff" stroke="#9370db" d="M273.25,-98.73C273.25,-100.53 260.08,-102 243.88,-102 227.67,-102 214.5,-100.53 214.5,-98.73 214.5,-98.73 214.5,-69.27 214.5,-69.27 214.5,-67.47 227.67,-66 243.88,-66 260.08,-66 273.25,-67.47 273.25,-69.27 273.25,-69.27 273.25,-98.73 273.25,-98.73"/>
<path fill="none" stroke="#9370db" d="M273.25,-98.73C273.25,-96.92 260.08,-95.45 243.88,-95.45 227.67,-95.45 214.5,-96.92 214.5,-98.73"/>
<text text-anchor="middle" x="243.88" y="-78.95" font-family="Times,serif" font-size="14.00">State[q]</text>
</g>
<!-- node_0&#45;&gt;node_1 -->
<g id="edge1" class="edge">
<title>node_0&#45;&gt;node_1</title>
<path fill="none" stroke="black" stroke-dasharray="5,2" d="M54.35,-122.6C91.51,-115 159.61,-101.05 202.99,-92.17"/>
<polygon fill="black" stroke="black" points="203.68,-95.6 212.78,-90.16 202.28,-88.74 203.68,-95.6"/>
</g>
<!-- node_2 -->
<g id="node3" class="node">
<title>node_2</title>
<polygon fill="#ececff" stroke="#9370db" points="328,-238.5 159.75,-238.5 159.75,-131.5 328,-131.5 328,-238.5"/>
<text text-anchor="middle" x="243.88" y="-221.2" font-family="Times,serif" font-size="14.00">router[</text>
<text text-anchor="middle" x="243.88" y="-204.7" font-family="Times,serif" font-size="14.00">Chat(model=&#39;gpt&#45;4o&#45;mini&#39;,</text>
<text text-anchor="middle" x="243.88" y="-188.2" font-family="Times,serif" font-size="14.00">required_keys={&#39;question&#39;},</text>
<text text-anchor="middle" x="243.88" y="-171.7" font-family="Times,serif" font-size="14.00">choices=[&#39;rhyme&#39;,</text>
<text text-anchor="middle" x="243.88" y="-155.2" font-family="Times,serif" font-size="14.00">&#39;joke&#39;, &#39;yo_mama&#39;],</text>
<text text-anchor="middle" x="243.88" y="-138.7" font-family="Times,serif" font-size="14.00">seed=42) ]</text>
</g>
<!-- node_0&#45;&gt;node_2 -->
<g id="edge5" class="edge">
<title>node_0&#45;&gt;node_2</title>
<path fill="none" stroke="blue" stroke-width="2" d="M54.35,-134.99C78.01,-141.27 114.22,-150.87 148.6,-159.99"/>
<polygon fill="blue" stroke="blue" stroke-width="2" points="146.19,-162.97 156.76,-162.16 147.99,-156.21 146.19,-162.97"/>
<text text-anchor="middle" x="106.88" y="-159.7" font-family="Times,serif" font-size="14.00">. &#45;&gt; question</text>
</g>
<!-- node_3 -->
<g id="node4" class="node">
<title>node_3</title>
<polygon fill="#ececff" stroke="#9370db" points="662,-166 493.75,-166 493.75,-92 662,-92 662,-166"/>
<text text-anchor="middle" x="577.88" y="-148.7" font-family="Times,serif" font-size="14.00">rhyme[</text>
<text text-anchor="middle" x="577.88" y="-132.2" font-family="Times,serif" font-size="14.00">Chat(model=&#39;gpt&#45;4o&#45;mini&#39;,</text>
<text text-anchor="middle" x="577.88" y="-115.7" font-family="Times,serif" font-size="14.00">required_keys={&#39;question&#39;},</text>
<text text-anchor="middle" x="577.88" y="-99.2" font-family="Times,serif" font-size="14.00">seed=42) ]</text>
</g>
<!-- node_1&#45;&gt;node_3 -->
<g id="edge2" class="edge">
<title>node_1&#45;&gt;node_3</title>
<path fill="none" stroke="black" stroke-dasharray="5,2" d="M273.75,-72.47C319.01,-56.29 408.46,-32.03 475.75,-62.5 486.8,-67.5 484.31,-75.4 493.75,-83 494.57,-83.66 495.39,-84.31 496.23,-84.96"/>
<polygon fill="black" stroke="black" points="494.13,-87.76 504.27,-90.82 498.25,-82.1 494.13,-87.76"/>
<text text-anchor="middle" x="410.88" y="-65.7" font-family="Times,serif" font-size="14.00">. &#45;&gt; question</text>
</g>
<!-- node_4 -->
<g id="node5" class="node">
<title>node_4</title>
<polygon fill="#ececff" stroke="#9370db" points="662,-258 493.75,-258 493.75,-184 662,-184 662,-258"/>
<text text-anchor="middle" x="577.88" y="-240.7" font-family="Times,serif" font-size="14.00">joke[</text>
<text text-anchor="middle" x="577.88" y="-224.2" font-family="Times,serif" font-size="14.00">Chat(model=&#39;gpt&#45;4o&#45;mini&#39;,</text>
<text text-anchor="middle" x="577.88" y="-207.7" font-family="Times,serif" font-size="14.00">required_keys={&#39;question&#39;},</text>
<text text-anchor="middle" x="577.88" y="-191.2" font-family="Times,serif" font-size="14.00">seed=42) ]</text>
</g>
<!-- node_1&#45;&gt;node_4 -->
<g id="edge3" class="edge">
<title>node_1&#45;&gt;node_4</title>
<path fill="none" stroke="black" stroke-dasharray="5,2" d="M273.66,-95.5C289.99,-102.43 310.58,-111.86 328,-122 336.53,-126.96 336.86,-131.27 346,-135 399.99,-157.03 424.57,-126.56 475.75,-154.5 486.39,-160.31 484.31,-167.4 493.75,-175 494.57,-175.66 495.39,-176.31 496.23,-176.96"/>
<polygon fill="black" stroke="black" points="494.13,-179.76 504.27,-182.82 498.25,-174.1 494.13,-179.76"/>
<text text-anchor="middle" x="410.88" y="-157.7" font-family="Times,serif" font-size="14.00">. &#45;&gt; question</text>
</g>
<!-- node_5 -->
<g id="node6" class="node">
<title>node_5</title>
<polygon fill="#ececff" stroke="#9370db" points="662,-74 493.75,-74 493.75,0 662,0 662,-74"/>
<text text-anchor="middle" x="577.88" y="-56.7" font-family="Times,serif" font-size="14.00">yo_mama[</text>
<text text-anchor="middle" x="577.88" y="-40.2" font-family="Times,serif" font-size="14.00">Chat(model=&#39;gpt&#45;4o&#45;mini&#39;,</text>
<text text-anchor="middle" x="577.88" y="-23.7" font-family="Times,serif" font-size="14.00">required_keys={&#39;question&#39;},</text>
<text text-anchor="middle" x="577.88" y="-7.2" font-family="Times,serif" font-size="14.00">seed=42) ]</text>
</g>
<!-- node_1&#45;&gt;node_5 -->
<g id="edge4" class="edge">
<title>node_1&#45;&gt;node_5</title>
<path fill="none" stroke="black" stroke-dasharray="5,2" d="M267.91,-66.6C287.5,-52.95 317,-35.05 346,-27.5 389.74,-16.11 439.7,-16.59 481.93,-20.69"/>
<polygon fill="black" stroke="black" points="481.52,-24.17 491.84,-21.74 482.26,-17.2 481.52,-24.17"/>
<text text-anchor="middle" x="410.88" y="-30.7" font-family="Times,serif" font-size="14.00">. &#45;&gt; question</text>
</g>
<!-- node_2&#45;&gt;node_3 -->
<g id="edge6" class="edge">
<title>node_2&#45;&gt;node_3</title>
<path fill="none" stroke="blue" stroke-width="2" d="M328.48,-189.02C372.81,-189.24 427.86,-186.47 475.75,-175 481.24,-173.69 486.79,-172.07 492.32,-170.24"/>
<polygon fill="blue" stroke="blue" stroke-width="2" points="491.81,-174.14 500.06,-167.5 489.47,-167.54 491.81,-174.14"/>
<text text-anchor="middle" x="410.88" y="-192.06" font-family="Times,serif" font-size="14.00">. &#45;&gt; _</text>
</g>
<!-- node_2&#45;&gt;node_4 -->
<g id="edge7" class="edge">
<title>node_2&#45;&gt;node_4</title>
<path fill="none" stroke="blue" stroke-width="2" d="M328.36,-211.6C334.29,-212.93 340.21,-214.08 346,-215 390.35,-222.03 440.07,-224.06 481.99,-224.11"/>
<polygon fill="blue" stroke="blue" stroke-width="2" points="480.29,-227.62 490.28,-224.09 480.27,-220.62 480.29,-227.62"/>
<text text-anchor="middle" x="410.88" y="-243.75" font-family="Times,serif" font-size="14.00">?(content==joke): .</text>
<text text-anchor="middle" x="410.88" y="-227.25" font-family="Times,serif" font-size="14.00">&#45;&gt; _</text>
</g>
<!-- node_2&#45;&gt;node_5 -->
<g id="edge8" class="edge">
<title>node_2&#45;&gt;node_5</title>
<path fill="none" stroke="blue" stroke-width="2" d="M304.8,-131.09C323.48,-114.76 340.63,-100.45 346,-98 399.03,-73.81 419.57,-94.52 475.75,-79 478,-78.38 480.28,-77.72 482.56,-77.02"/>
<polygon fill="blue" stroke="blue" stroke-width="2" points="481.96,-80.9 490.4,-74.5 479.81,-74.23 481.96,-80.9"/>
<text text-anchor="middle" x="410.88" y="-117.7" font-family="Times,serif" font-size="14.00">?(content==yo_mama):</text>
<text text-anchor="middle" x="410.88" y="-101.2" font-family="Times,serif" font-size="14.00">. &#45;&gt; _</text>
</g>
<!-- node_6 -->
<g id="node7" class="node">
<title>node_6</title>
<polygon fill="#ececff" stroke="#9370db" points="753,-147 699,-147 699,-111 753,-111 753,-147"/>
<text text-anchor="middle" x="726" y="-123.95" font-family="Times,serif" font-size="14.00">End</text>
</g>
<!-- node_3&#45;&gt;node_6 -->
<g id="edge9" class="edge">
<title>node_3&#45;&gt;node_6</title>
<path fill="none" stroke="blue" stroke-width="2" d="M662.18,-129C670.95,-129 679.52,-129 687.36,-129"/>
<polygon fill="blue" stroke="blue" stroke-width="2" points="685.63,-132.5 695.63,-129 685.63,-125.5 685.63,-132.5"/>
</g>
<!-- node_4&#45;&gt;node_6 -->
<g id="edge10" class="edge">
<title>node_4&#45;&gt;node_6</title>
<path fill="none" stroke="blue" stroke-width="2" d="M647.77,-183.76C652.63,-180.87 657.41,-177.93 662,-175 672.02,-168.61 682.57,-161.19 692.11,-154.21"/>
<polygon fill="blue" stroke="blue" stroke-width="2" points="692.89,-157.99 698.83,-149.22 688.71,-152.37 692.89,-157.99"/>
</g>
<!-- node_5&#45;&gt;node_6 -->
<g id="edge11" class="edge">
<title>node_5&#45;&gt;node_6</title>
<path fill="none" stroke="blue" stroke-width="2" d="M647.77,-74.24C652.63,-77.13 657.41,-80.07 662,-83 672.02,-89.39 682.57,-96.81 692.11,-103.79"/>
<polygon fill="blue" stroke="blue" stroke-width="2" points="688.71,-105.63 698.83,-108.78 692.89,-100.01 688.71,-105.63"/>
</g>
</g>
</svg>
