<?xml version="1.0" encoding="UTF-8" standalone="no"?>
<!DOCTYPE svg PUBLIC "-//W3C//DTD SVG 1.1//EN"
 "http://www.w3.org/Graphics/SVG/1.1/DTD/svg11.dtd">
<!-- Generated by graphviz version 12.2.1 (20241206.2353)
 -->
<!-- Title: Router Pages: 1 -->
<svg width="761pt" height="291pt"
 viewBox="0.00 0.00 761.00 290.50" xmlns="http://www.w3.org/2000/svg" xmlns:xlink="http://www.w3.org/1999/xlink">
<g id="graph0" class="graph" transform="scale(1 1) rotate(0) translate(4 286.5)">
<title>Router</title>
<polygon fill="white" stroke="none" points="-4,4 -4,-286.5 757,-286.5 757,4 -4,4"/>
<text text-anchor="middle" x="376.5" y="-265.2" font-family="Times,serif" font-size="14.00">Router</text>
<!-- node_0 -->
<g id="node1" class="node">
<title>node_0</title>
<polygon fill="#ececff" stroke="#9370db" points="54,-146 0,-146 0,-110 54,-110 54,-146"/>
<text text-anchor="middle" x="27" y="-122.95" font-family="Times,serif" font-size="14.00">Start</text>
</g>
<!-- node_1 -->
<g id="node2" class="node">
<title>node_1</title>
<path fill="#ececff" stroke="#9370db" d="M273.25,-106.73C273.25,-108.53 260.08,-110 243.88,-110 227.67,-110 214.5,-108.53 214.5,-106.73 214.5,-106.73 214.5,-77.27 214.5,-77.27 214.5,-75.47 227.67,-74 243.88,-74 260.08,-74 273.25,-75.47 273.25,-77.27 273.25,-77.27 273.25,-106.73 273.25,-106.73"/>
<path fill="none" stroke="#9370db" d="M273.25,-106.73C273.25,-104.92 260.08,-103.45 243.88,-103.45 227.67,-103.45 214.5,-104.92 214.5,-106.73"/>
<text text-anchor="middle" x="243.88" y="-86.95" font-family="Times,serif" font-size="14.00">State[q]</text>
</g>
<!-- node_0&#45;&gt;node_1 -->
<g id="edge1" class="edge">
<title>node_0&#45;&gt;node_1</title>
<path fill="none" stroke="black" stroke-dasharray="5,2" d="M54.35,-123.59C91.51,-117.36 159.61,-105.95 202.99,-98.68"/>
<polygon fill="black" stroke="black" points="203.48,-102.15 212.77,-97.04 202.32,-95.25 203.48,-102.15"/>
</g>
<!-- node_2 -->
<g id="node3" class="node">
<title>node_2</title>
<polygon fill="#ececff" stroke="#9370db" points="328,-218 159.75,-218 159.75,-144 328,-144 328,-218"/>
<text text-anchor="middle" x="243.88" y="-200.7" font-family="Times,serif" font-size="14.00">router[</text>
<text text-anchor="middle" x="243.88" y="-184.2" font-family="Times,serif" font-size="14.00">Chat(model=&#39;gpt&#45;4o&#45;mini&#39;,</text>
<text text-anchor="middle" x="243.88" y="-167.7" font-family="Times,serif" font-size="14.00">required_keys={&#39;question&#39;},</text>
<text text-anchor="middle" x="243.88" y="-151.2" font-family="Times,serif" font-size="14.00">seed=42) ]</text>
</g>
<!-- node_0&#45;&gt;node_2 -->
<g id="edge5" class="edge">
<title>node_0&#45;&gt;node_2</title>
<path fill="none" stroke="blue" stroke-width="2" d="M54.35,-134.5C78.01,-140.34 114.22,-149.27 148.6,-157.75"/>
<polygon fill="blue" stroke="blue" stroke-width="2" points="146.2,-160.76 156.74,-159.76 147.87,-153.96 146.2,-160.76"/>
<text text-anchor="middle" x="106.88" y="-157.7" font-family="Times,serif" font-size="14.00">. &#45;&gt; question</text>
</g>
<!-- node_3 -->
<g id="node4" class="node">
<title>node_3</title>
<polygon fill="#ececff" stroke="#9370db" points="662,-166 493.75,-166 493.75,-92 662,-92 662,-166"/>
<text text-anchor="middle" x="577.88" y="-148.7" font-family="Times,serif" font-size="14.00">rhyme[</text>
<text text-anchor="middle" x="577.88" y="-132.2" font-family="Times,serif" font-size="14.00">Chat(model=&#39;gpt&#45;4o&#45;mini&#39;,</text>
<text text-anchor="middle" x="577.88" y="-115.7" font-family="Times,serif" font-size="14.00">required_keys={&#39;question&#39;},</text>
<text text-anchor="middle" x="577.88" y="-99.2" font-family="Times,serif" font-size="14.00">seed=42) ]</text>
</g>
<!-- node_1&#45;&gt;node_3 -->
<g id="edge2" class="edge">
<title>node_1&#45;&gt;node_3</title>
<path fill="none" stroke="black" stroke-dasharray="5,2" d="M273.68,-78.88C318.87,-60.34 408.2,-31.92 475.75,-62.5 486.8,-67.5 484.31,-75.4 493.75,-83 494.57,-83.66 495.39,-84.31 496.23,-84.96"/>
<polygon fill="black" stroke="black" points="494.13,-87.76 504.27,-90.82 498.25,-82.1 494.13,-87.76"/>
<text text-anchor="middle" x="410.88" y="-65.7" font-family="Times,serif" font-size="14.00">. &#45;&gt; question</text>
</g>
<!-- node_4 -->
<g id="node5" class="node">
<title>node_4</title>
<polygon fill="#ececff" stroke="#9370db" points="662,-258 493.75,-258 493.75,-184 662,-184 662,-258"/>
<text text-anchor="middle" x="577.88" y="-240.7" font-family="Times,serif" font-size="14.00">joke[</text>
<text text-anchor="middle" x="577.88" y="-224.2" font-family="Times,serif" font-size="14.00">Chat(model=&#39;gpt&#45;4o&#45;mini&#39;,</text>
<text text-anchor="middle" x="577.88" y="-207.7" font-family="Times,serif" font-size="14.00">required_keys={&#39;question&#39;},</text>
<text text-anchor="middle" x="577.88" y="-191.2" font-family="Times,serif" font-size="14.00">seed=42) ]</text>
</g>
<!-- node_1&#45;&gt;node_4 -->
<g id="edge3" class="edge">
<title>node_1&#45;&gt;node_4</title>
<path fill="none" stroke="black" stroke-dasharray="5,2" d="M273.38,-106.42C293.26,-115.9 320.67,-127.84 346,-135 402.11,-150.87 424.57,-126.56 475.75,-154.5 486.39,-160.31 484.31,-167.4 493.75,-175 494.57,-175.66 495.39,-176.31 496.23,-176.96"/>
<polygon fill="black" stroke="black" points="494.13,-179.76 504.27,-182.82 498.25,-174.1 494.13,-179.76"/>
<text text-anchor="middle" x="410.88" y="-157.7" font-family="Times,serif" font-size="14.00">. &#45;&gt; question</text>
</g>
<!-- node_5 -->
<g id="node6" class="node">
<title>node_5</title>
<polygon fill="#ececff" stroke="#9370db" points="662,-74 493.75,-74 493.75,0 662,0 662,-74"/>
<text text-anchor="middle" x="577.88" y="-56.7" font-family="Times,serif" font-size="14.00">yo_mama[</text>
<text text-anchor="middle" x="577.88" y="-40.2" font-family="Times,serif" font-size="14.00">Chat(model=&#39;gpt&#45;4o&#45;mini&#39;,</text>
<text text-anchor="middle" x="577.88" y="-23.7" font-family="Times,serif" font-size="14.00">required_keys={&#39;question&#39;},</text>
<text text-anchor="middle" x="577.88" y="-7.2" font-family="Times,serif" font-size="14.00">seed=42) ]</text>
</g>
<!-- node_1&#45;&gt;node_5 -->
<g id="edge4" class="edge">
<title>node_1&#45;&gt;node_5</title>
<path fill="none" stroke="black" stroke-dasharray="5,2" d="M265.26,-74.3C284.56,-58.79 315.12,-37.39 346,-28.5 389.52,-15.97 439.55,-16.15 481.9,-20.26"/>
<polygon fill="black" stroke="black" points="481.52,-23.74 491.83,-21.32 482.26,-16.78 481.52,-23.74"/>
<text text-anchor="middle" x="410.88" y="-31.7" font-family="Times,serif" font-size="14.00">. &#45;&gt; question</text>
</g>
<!-- node_2&#45;&gt;node_3 -->
<g id="edge6" class="edge">
<title>node_2&#45;&gt;node_3</title>
<path fill="none" stroke="blue" stroke-width="2" d="M328.43,-186.8C372.74,-187.88 427.79,-186.05 475.75,-175 481.36,-173.71 487.04,-172.09 492.69,-170.24"/>
<polygon fill="blue" stroke="blue" stroke-width="2" points="492.39,-174.06 500.66,-167.43 490.06,-167.46 492.39,-174.06"/>
<text text-anchor="middle" x="410.88" y="-190.27" font-family="Times,serif" font-size="14.00">. &#45;&gt; _</text>
</g>
<!-- node_2&#45;&gt;node_4 -->
<g id="edge7" class="edge">
<title>node_2&#45;&gt;node_4</title>
<path fill="none" stroke="blue" stroke-width="2" d="M328.25,-211.17C334.21,-212.66 340.16,-213.97 346,-215 390.3,-222.84 440.13,-224.96 482.12,-224.87"/>
<polygon fill="blue" stroke="blue" stroke-width="2" points="480.46,-228.38 490.43,-224.81 480.41,-221.38 480.46,-228.38"/>
<text text-anchor="middle" x="410.88" y="-244.54" font-family="Times,serif" font-size="14.00">?(content==joke): .</text>
<text text-anchor="middle" x="410.88" y="-228.04" font-family="Times,serif" font-size="14.00">&#45;&gt; _</text>
</g>
<!-- node_2&#45;&gt;node_5 -->
<g id="edge8" class="edge">
<title>node_2&#45;&gt;node_5</title>
<path fill="none" stroke="blue" stroke-width="2" d="M298.61,-143.66C308.7,-135.89 318.92,-127.48 328,-119 336.98,-110.61 335.23,-103.93 346,-98 397.04,-69.86 419.57,-94.52 475.75,-79 478,-78.38 480.28,-77.72 482.56,-77.02"/>
<polygon fill="blue" stroke="blue" stroke-width="2" points="481.96,-80.9 490.4,-74.5 479.81,-74.23 481.96,-80.9"/>
<text text-anchor="middle" x="410.88" y="-117.7" font-family="Times,serif" font-size="14.00">?(content==yo_mama):</text>
<text text-anchor="middle" x="410.88" y="-101.2" font-family="Times,serif" font-size="14.00">. &#45;&gt; _</text>
</g>
<!-- node_6 -->
<g id="node7" class="node">
<title>node_6</title>
<polygon fill="#ececff" stroke="#9370db" points="753,-147 699,-147 699,-111 753,-111 753,-147"/>
<text text-anchor="middle" x="726" y="-123.95" font-family="Times,serif" font-size="14.00">End</text>
</g>
<!-- node_3&#45;&gt;node_6 -->
<g id="edge9" class="edge">
<title>node_3&#45;&gt;node_6</title>
<path fill="none" stroke="blue" stroke-width="2" d="M662.18,-129C670.95,-129 679.52,-129 687.36,-129"/>
<polygon fill="blue" stroke="blue" stroke-width="2" points="685.63,-132.5 695.63,-129 685.63,-125.5 685.63,-132.5"/>
</g>
<!-- node_4&#45;&gt;node_6 -->
<g id="edge10" class="edge">
<title>node_4&#45;&gt;node_6</title>
<path fill="none" stroke="blue" stroke-width="2" d="M647.77,-183.76C652.63,-180.87 657.41,-177.93 662,-175 672.02,-168.61 682.57,-161.19 692.11,-154.21"/>
<polygon fill="blue" stroke="blue" stroke-width="2" points="692.89,-157.99 698.83,-149.22 688.71,-152.37 692.89,-157.99"/>
</g>
<!-- node_5&#45;&gt;node_6 -->
<g id="edge11" class="edge">
<title>node_5&#45;&gt;node_6</title>
<path fill="none" stroke="blue" stroke-width="2" d="M647.77,-74.24C652.63,-77.13 657.41,-80.07 662,-83 672.02,-89.39 682.57,-96.81 692.11,-103.79"/>
<polygon fill="blue" stroke="blue" stroke-width="2" points="688.71,-105.63 698.83,-108.78 692.89,-100.01 688.71,-105.63"/>
</g>
</g>
</svg>
