<?xml version="1.0" encoding="UTF-8" standalone="no"?>
<!DOCTYPE svg PUBLIC "-//W3C//DTD SVG 1.1//EN"
 "http://www.w3.org/Graphics/SVG/1.1/DTD/svg11.dtd">
<!-- Generated by graphviz version 12.2.1 (20241206.2353)
 -->
<!-- Title: parallel in decision Pages: 1 -->
<svg width="559pt" height="156pt"
 viewBox="0.00 0.00 559.25 156.19" xmlns="http://www.w3.org/2000/svg" xmlns:xlink="http://www.w3.org/1999/xlink">
<g id="graph0" class="graph" transform="scale(1 1) rotate(0) translate(4 152.19)">
<title>parallel in decision</title>
<polygon fill="white" stroke="none" points="-4,4 -4,-152.19 555.25,-152.19 555.25,4 -4,4"/>
<text text-anchor="middle" x="275.62" y="-130.89" font-family="Times,serif" font-size="14.00">parallel in decision</text>
<!-- node_0 -->
<g id="node1" class="node">
<title>node_0</title>
<polygon fill="#ececff" stroke="#9370db" points="177.5,-69.69 91,-69.69 91,-33.69 177.5,-33.69 177.5,-69.69"/>
<text text-anchor="middle" x="134.25" y="-46.64" font-family="Times,serif" font-size="14.00">parallel_start</text>
</g>
<!-- node_2 -->
<g id="node3" class="node">
<title>node_2</title>
<polygon fill="#ececff" stroke="#9370db" points="322,-123.69 214.5,-123.69 214.5,-87.69 322,-87.69 322,-123.69"/>
<text text-anchor="middle" x="268.25" y="-100.64" font-family="Times,serif" font-size="14.00">square[ Pow(2) ]</text>
</g>
<!-- node_0&#45;&gt;node_2 -->
<g id="edge1" class="edge">
<title>node_0&#45;&gt;node_2</title>
<path fill="none" stroke="black" d="M177.74,-69.08C188.48,-73.47 200.17,-78.25 211.46,-82.87"/>
<polygon fill="black" stroke="black" points="210.12,-86.11 220.7,-86.65 212.77,-79.63 210.12,-86.11"/>
</g>
<!-- node_3 -->
<g id="node4" class="node">
<title>node_3</title>
<polygon fill="#ececff" stroke="#9370db" points="317.12,-69.69 219.38,-69.69 219.38,-33.69 317.12,-33.69 317.12,-69.69"/>
<text text-anchor="middle" x="268.25" y="-46.64" font-family="Times,serif" font-size="14.00">cube[ Pow(3) ]</text>
</g>
<!-- node_0&#45;&gt;node_3 -->
<g id="edge2" class="edge">
<title>node_0&#45;&gt;node_3</title>
<path fill="none" stroke="black" d="M177.74,-51.69C187.38,-51.69 197.79,-51.69 207.98,-51.69"/>
<polygon fill="black" stroke="black" points="207.82,-55.19 217.82,-51.69 207.82,-48.19 207.82,-55.19"/>
</g>
<!-- node_1 -->
<g id="node2" class="node">
<title>node_1</title>
<polygon fill="#ececff" stroke="#9370db" points="54,-69.69 0,-69.69 0,-33.69 54,-33.69 54,-69.69"/>
<text text-anchor="middle" x="27" y="-46.64" font-family="Times,serif" font-size="14.00">Start</text>
</g>
<!-- node_1&#45;&gt;node_0 -->
<g id="edge3" class="edge">
<title>node_1&#45;&gt;node_0</title>
<path fill="none" stroke="blue" stroke-width="2" d="M54.29,-51.69C61.91,-51.69 70.52,-51.69 79.19,-51.69"/>
<polygon fill="blue" stroke="blue" stroke-width="2" points="77.5,-55.19 87.5,-51.69 77.5,-48.19 77.5,-55.19"/>
</g>
<!-- node_4 -->
<g id="node5" class="node">
<title>node_4</title>
<polygon fill="#ececff" stroke="#9370db" points="460.25,-69.69 388.75,-69.69 388.75,-33.69 460.25,-33.69 460.25,-69.69"/>
<text text-anchor="middle" x="424.5" y="-46.64" font-family="Times,serif" font-size="14.00">add[ add ]</text>
</g>
<!-- node_2&#45;&gt;node_4 -->
<g id="edge4" class="edge">
<title>node_2&#45;&gt;node_4</title>
<path fill="none" stroke="black" d="M322.41,-89.12C338.05,-84.06 355.15,-78.33 370.75,-72.69 373.09,-71.85 375.47,-70.97 377.88,-70.07"/>
<polygon fill="black" stroke="black" points="378.94,-73.41 387.02,-66.56 376.43,-66.87 378.94,-73.41"/>
<text text-anchor="middle" x="355.38" y="-86.45" font-family="Times,serif" font-size="14.00">. &#45;&gt; a</text>
</g>
<!-- node_3&#45;&gt;node_4 -->
<g id="edge5" class="edge">
<title>node_3&#45;&gt;node_4</title>
<path fill="none" stroke="black" d="M317.21,-51.69C336.25,-51.69 358.08,-51.69 376.97,-51.69"/>
<polygon fill="black" stroke="black" points="376.8,-55.19 386.8,-51.69 376.8,-48.19 376.8,-55.19"/>
<text text-anchor="middle" x="355.38" y="-54.89" font-family="Times,serif" font-size="14.00">. &#45;&gt; b</text>
</g>
<!-- node_4&#45;&gt;node_0 -->
<g id="edge6" class="edge">
<title>node_4&#45;&gt;node_0</title>
<path fill="none" stroke="blue" stroke-width="2" d="M390.32,-33.42C371.02,-23.83 345.85,-13.09 322,-8.19 275.2,1.41 260.78,3.67 214.5,-8.19 199.23,-12.11 183.75,-19.64 170.57,-27.36"/>
<polygon fill="blue" stroke="blue" stroke-width="2" points="170.26,-23.44 163.56,-31.65 173.92,-29.41 170.26,-23.44"/>
<text text-anchor="middle" x="268.25" y="-11.39" font-family="Times,serif" font-size="14.00">?(EqualsTo(12))</text>
</g>
<!-- node_5 -->
<g id="node6" class="node">
<title>node_5</title>
<polygon fill="#ececff" stroke="#9370db" points="551.25,-69.69 497.25,-69.69 497.25,-33.69 551.25,-33.69 551.25,-69.69"/>
<text text-anchor="middle" x="524.25" y="-46.64" font-family="Times,serif" font-size="14.00">End</text>
</g>
<!-- node_4&#45;&gt;node_5 -->
<g id="edge7" class="edge">
<title>node_4&#45;&gt;node_5</title>
<path fill="none" stroke="blue" stroke-width="2" d="M460.51,-51.69C468.63,-51.69 477.3,-51.69 485.53,-51.69"/>
<polygon fill="blue" stroke="blue" stroke-width="2" points="483.74,-55.19 493.74,-51.69 483.74,-48.19 483.74,-55.19"/>
</g>
</g>
</svg>
