<?xml version="1.0" encoding="UTF-8" standalone="no"?>
<!DOCTYPE svg PUBLIC "-//W3C//DTD SVG 1.1//EN"
 "http://www.w3.org/Graphics/SVG/1.1/DTD/svg11.dtd">
<!-- Generated by graphviz version 12.2.1 (20241206.2353)
 -->
<!-- Title: Undefined Behavior Pages: 1 -->
<svg width="370pt" height="133pt"
 viewBox="0.00 0.00 370.00 132.50" xmlns="http://www.w3.org/2000/svg" xmlns:xlink="http://www.w3.org/1999/xlink">
<g id="graph0" class="graph" transform="scale(1 1) rotate(0) translate(4 128.5)">
<title>Undefined Behavior</title>
<polygon fill="white" stroke="none" points="-4,4 -4,-128.5 366,-128.5 366,4 -4,4"/>
<text text-anchor="middle" x="181" y="-107.2" font-family="Times,serif" font-size="14.00">Undefined Behavior</text>
<!-- node_0 -->
<g id="node1" class="node">
<title>node_0</title>
<polygon fill="#ececff" stroke="#9370db" points="225.5,-100 91,-100 91,-59 225.5,-59 225.5,-100"/>
<text text-anchor="middle" x="158.25" y="-82.7" font-family="Times,serif" font-size="14.00">sub1[ Diagram(Break</text>
<text text-anchor="middle" x="158.25" y="-66.2" font-family="Times,serif" font-size="14.00">until 3 &#45; Inner) ]</text>
</g>
<!-- node_2 -->
<g id="node3" class="node">
<title>node_2</title>
<polygon fill="#ececff" stroke="#9370db" points="362,-67.5 308,-67.5 308,-31.5 362,-31.5 362,-67.5"/>
<text text-anchor="middle" x="335" y="-44.45" font-family="Times,serif" font-size="14.00">End</text>
</g>
<!-- node_0&#45;&gt;node_2 -->
<g id="edge1" class="edge">
<title>node_0&#45;&gt;node_2</title>
<path fill="none" stroke="black" d="M225.81,-68.07C249.79,-63.96 275.99,-59.46 296.6,-55.92"/>
<polygon fill="black" stroke="black" points="296.97,-59.41 306.23,-54.27 295.79,-52.51 296.97,-59.41"/>
<text text-anchor="middle" x="266.75" y="-67.7" font-family="Times,serif" font-size="14.00">. &#45;&gt; res1</text>
</g>
<!-- node_1 -->
<g id="node2" class="node">
<title>node_1</title>
<polygon fill="#ececff" stroke="#9370db" points="54,-67.5 0,-67.5 0,-31.5 54,-31.5 54,-67.5"/>
<text text-anchor="middle" x="27" y="-44.45" font-family="Times,serif" font-size="14.00">Start</text>
</g>
<!-- node_1&#45;&gt;node_0 -->
<g id="edge2" class="edge">
<title>node_1&#45;&gt;node_0</title>
<path fill="none" stroke="black" d="M54.47,-55.64C62.03,-57.4 70.68,-59.41 79.67,-61.49"/>
<polygon fill="black" stroke="black" points="78.76,-64.87 89.29,-63.73 80.34,-58.06 78.76,-64.87"/>
</g>
<!-- node_3 -->
<g id="node4" class="node">
<title>node_3</title>
<polygon fill="#ececff" stroke="#9370db" points="225.5,-41 91,-41 91,0 225.5,0 225.5,-41"/>
<text text-anchor="middle" x="158.25" y="-23.7" font-family="Times,serif" font-size="14.00">sub2[ Diagram(Break</text>
<text text-anchor="middle" x="158.25" y="-7.2" font-family="Times,serif" font-size="14.00">until 3 &#45; Inner) ]</text>
</g>
<!-- node_1&#45;&gt;node_3 -->
<g id="edge3" class="edge">
<title>node_1&#45;&gt;node_3</title>
<path fill="none" stroke="black" d="M54.47,-43.56C62.03,-41.86 70.68,-39.92 79.67,-37.91"/>
<polygon fill="black" stroke="black" points="80.3,-41.35 89.29,-35.75 78.77,-34.52 80.3,-41.35"/>
</g>
<!-- node_3&#45;&gt;node_2 -->
<g id="edge4" class="edge">
<title>node_3&#45;&gt;node_2</title>
<path fill="none" stroke="black" d="M225.81,-26.05C246.5,-28.4 269.31,-31.64 290,-36 292.17,-36.46 294.39,-36.97 296.61,-37.53"/>
<polygon fill="black" stroke="black" points="295.65,-40.9 306.22,-40.18 297.51,-34.15 295.65,-40.9"/>
<text text-anchor="middle" x="266.75" y="-39.2" font-family="Times,serif" font-size="14.00">. &#45;&gt; res2</text>
</g>
</g>
</svg>
