<?xml version="1.0" encoding="UTF-8" standalone="no"?>
<!DOCTYPE svg PUBLIC "-//W3C//DTD SVG 1.1//EN"
 "http://www.w3.org/Graphics/SVG/1.1/DTD/svg11.dtd">
<!-- Generated by graphviz version 12.2.1 (20241206.2353)
 -->
<!-- Title: monitor_add_answer Pages: 1 -->
<svg width="806pt" height="186pt"
 viewBox="0.00 0.00 805.75 185.55" xmlns="http://www.w3.org/2000/svg" xmlns:xlink="http://www.w3.org/1999/xlink">
<g id="graph0" class="graph" transform="scale(1 1) rotate(0) translate(4 181.55)">
<title>monitor_add_answer</title>
<polygon fill="white" stroke="none" points="-4,4 -4,-181.55 801.75,-181.55 801.75,4 -4,4"/>
<text text-anchor="middle" x="398.88" y="-160.25" font-family="Times,serif" font-size="14.00">monitor_add_answer</text>
<!-- node_0 -->
<g id="node1" class="node">
<title>node_0</title>
<polygon fill="#ececff" stroke="#9370db" points="347.5,-137.25 201.75,-137.25 201.75,-96.25 347.5,-96.25 347.5,-137.25"/>
<text text-anchor="middle" x="274.62" y="-119.95" font-family="Times,serif" font-size="14.00">acting_agent[</text>
<text text-anchor="middle" x="274.62" y="-103.45" font-family="Times,serif" font-size="14.00">Diagram(RAG Agent) ]</text>
</g>
<!-- node_2 -->
<g id="node3" class="node">
<title>node_2</title>
<polygon fill="#ececff" stroke="#9370db" points="644,-123.5 481.75,-123.5 481.75,0 644,0 644,-123.5"/>
<text text-anchor="middle" x="562.88" y="-106.2" font-family="Times,serif" font-size="14.00">monitor[</text>
<text text-anchor="middle" x="562.88" y="-89.7" font-family="Times,serif" font-size="14.00">Chat(model=&#39;gpt&#45;4o&#45;mini&#39;,</text>
<text text-anchor="middle" x="562.88" y="-73.2" font-family="Times,serif" font-size="14.00">required_keys={&#39;question&#39;,</text>
<text text-anchor="middle" x="562.88" y="-56.7" font-family="Times,serif" font-size="14.00">&#39;answer&#39;},</text>
<text text-anchor="middle" x="562.88" y="-40.2" font-family="Times,serif" font-size="14.00">choices=[&#39;safe&#39;,</text>
<text text-anchor="middle" x="562.88" y="-23.7" font-family="Times,serif" font-size="14.00">&#39;not safe&#39;],</text>
<text text-anchor="middle" x="562.88" y="-7.2" font-family="Times,serif" font-size="14.00">seed=42) ]</text>
</g>
<!-- node_0&#45;&gt;node_2 -->
<g id="edge1" class="edge">
<title>node_0&#45;&gt;node_2</title>
<path fill="none" stroke="black" d="M347.86,-102.87C384.94,-95.75 430.53,-86.99 470.08,-79.39"/>
<polygon fill="black" stroke="black" points="470.69,-82.83 479.85,-77.51 469.37,-75.96 470.69,-82.83"/>
<text text-anchor="middle" x="414.62" y="-102.16" font-family="Times,serif" font-size="14.00">content &#45;&gt; answer</text>
</g>
<!-- node_3 -->
<g id="node4" class="node">
<title>node_3</title>
<polygon fill="#ececff" stroke="#9370db" points="797.75,-128.75 743.75,-128.75 743.75,-92.75 797.75,-92.75 797.75,-128.75"/>
<text text-anchor="middle" x="770.75" y="-105.7" font-family="Times,serif" font-size="14.00">End</text>
</g>
<!-- node_0&#45;&gt;node_3 -->
<g id="edge2" class="edge">
<title>node_0&#45;&gt;node_3</title>
<path fill="none" stroke="black" d="M347.58,-123.32C387.15,-126.68 437.12,-130.52 481.75,-132.75 561.78,-136.74 581.87,-135.86 662,-136.75 690.33,-137.06 698.42,-144.22 725.75,-136.75 728.35,-136.04 730.95,-135.13 733.52,-134.08"/>
<polygon fill="black" stroke="black" points="734.94,-137.28 742.42,-129.78 731.89,-130.98 734.94,-137.28"/>
<text text-anchor="middle" x="562.88" y="-139.75" font-family="Times,serif" font-size="14.00">content &#45;&gt; answer</text>
</g>
<!-- node_1 -->
<g id="node2" class="node">
<title>node_1</title>
<polygon fill="#ececff" stroke="#9370db" points="54,-95.75 0,-95.75 0,-59.75 54,-59.75 54,-95.75"/>
<text text-anchor="middle" x="27" y="-72.7" font-family="Times,serif" font-size="14.00">Start</text>
</g>
<!-- node_1&#45;&gt;node_0 -->
<g id="edge3" class="edge">
<title>node_1&#45;&gt;node_0</title>
<path fill="none" stroke="black" d="M54.29,-81.92C86.54,-87.04 142.78,-95.98 190.24,-103.51"/>
<polygon fill="black" stroke="black" points="189.55,-106.94 199.98,-105.06 190.65,-100.03 189.55,-106.94"/>
<text text-anchor="middle" x="127.88" y="-105.09" font-family="Times,serif" font-size="14.00">question &#45;&gt; question</text>
</g>
<!-- node_1&#45;&gt;node_2 -->
<g id="edge4" class="edge">
<title>node_1&#45;&gt;node_2</title>
<path fill="none" stroke="black" d="M54.49,-76.67C88.56,-75.3 149.55,-72.91 201.75,-71.25 292.98,-68.34 397.23,-65.66 470.01,-63.89"/>
<polygon fill="black" stroke="black" points="469.99,-67.4 479.9,-63.66 469.82,-60.4 469.99,-67.4"/>
<text text-anchor="middle" x="274.62" y="-74.45" font-family="Times,serif" font-size="14.00">question &#45;&gt; question</text>
</g>
<!-- node_2&#45;&gt;node_3 -->
<g id="edge5" class="edge">
<title>node_2&#45;&gt;node_3</title>
<path fill="none" stroke="black" d="M644.36,-80.91C674.73,-88.13 707.85,-96.02 732.42,-101.87"/>
<polygon fill="black" stroke="black" points="731.39,-105.22 741.93,-104.13 733.01,-98.41 731.39,-105.22"/>
<text text-anchor="middle" x="693.88" y="-119.87" font-family="Times,serif" font-size="14.00">content &#45;&gt;</text>
<text text-anchor="middle" x="693.88" y="-103.37" font-family="Times,serif" font-size="14.00">safe_or_not</text>
</g>
</g>
</svg>
