<?xml version="1.0" encoding="UTF-8" standalone="no"?>
<!DOCTYPE svg PUBLIC "-//W3C//DTD SVG 1.1//EN"
 "http://www.w3.org/Graphics/SVG/1.1/DTD/svg11.dtd">
<!-- Generated by graphviz version 12.2.1 (20241206.2353)
 -->
<!-- Title: Several Decisions Pages: 1 -->
<svg width="505pt" height="166pt"
 viewBox="0.00 0.00 504.75 166.00" xmlns="http://www.w3.org/2000/svg" xmlns:xlink="http://www.w3.org/1999/xlink">
<g id="graph0" class="graph" transform="scale(1 1) rotate(0) translate(4 162)">
<title>Several Decisions</title>
<polygon fill="white" stroke="none" points="-4,4 -4,-162 500.75,-162 500.75,4 -4,4"/>
<text text-anchor="middle" x="248.38" y="-140.7" font-family="Times,serif" font-size="14.00">Several Decisions</text>
<!-- node_0 -->
<g id="node1" class="node">
<title>node_0</title>
<polygon fill="#ececff" stroke="#9370db" points="284.5,-133.5 163.5,-133.5 163.5,-76 284.5,-76 284.5,-133.5"/>
<text text-anchor="middle" x="224" y="-116.2" font-family="Times,serif" font-size="14.00">square_or_cube[</text>
<text text-anchor="middle" x="224" y="-99.7" font-family="Times,serif" font-size="14.00">Diagram(Square or</text>
<text text-anchor="middle" x="224" y="-83.2" font-family="Times,serif" font-size="14.00">Cube) ]</text>
</g>
<!-- node_2 -->
<g id="node3" class="node">
<title>node_2</title>
<polygon fill="#ececff" stroke="#9370db" points="496.75,-84.75 442.75,-84.75 442.75,-48.75 496.75,-48.75 496.75,-84.75"/>
<text text-anchor="middle" x="469.75" y="-61.7" font-family="Times,serif" font-size="14.00">End</text>
</g>
<!-- node_0&#45;&gt;node_2 -->
<g id="edge1" class="edge">
<title>node_0&#45;&gt;node_2</title>
<path fill="none" stroke="black" d="M284.58,-97.01C324.36,-91.62 377.8,-83.95 424.75,-75.75 426.79,-75.39 428.89,-75.01 431,-74.62"/>
<polygon fill="black" stroke="black" points="431.64,-78.06 440.79,-72.71 430.3,-71.19 431.64,-78.06"/>
<text text-anchor="middle" x="363.62" y="-113.74" font-family="Times,serif" font-size="14.00">. &#45;&gt;</text>
<text text-anchor="middle" x="363.62" y="-97.24" font-family="Times,serif" font-size="14.00">square_or_cube_result</text>
</g>
<!-- node_1 -->
<g id="node2" class="node">
<title>node_1</title>
<polygon fill="#ececff" stroke="#9370db" points="54,-84.75 0,-84.75 0,-48.75 54,-48.75 54,-84.75"/>
<text text-anchor="middle" x="27" y="-61.7" font-family="Times,serif" font-size="14.00">Start</text>
</g>
<!-- node_1&#45;&gt;node_0 -->
<g id="edge2" class="edge">
<title>node_1&#45;&gt;node_0</title>
<path fill="none" stroke="black" d="M54.3,-71.87C79.34,-76.76 118.17,-84.32 152.27,-90.97"/>
<polygon fill="black" stroke="black" points="151.18,-94.32 161.66,-92.8 152.52,-87.45 151.18,-94.32"/>
<text text-anchor="middle" x="108.75" y="-92.35" font-family="Times,serif" font-size="14.00">. &#45;&gt; **</text>
</g>
<!-- node_3 -->
<g id="node4" class="node">
<title>node_3</title>
<polygon fill="#ececff" stroke="#9370db" points="284.5,-57.5 163.5,-57.5 163.5,0 284.5,0 284.5,-57.5"/>
<text text-anchor="middle" x="224" y="-40.2" font-family="Times,serif" font-size="14.00">cube_or_square[</text>
<text text-anchor="middle" x="224" y="-23.7" font-family="Times,serif" font-size="14.00">Diagram(Square or</text>
<text text-anchor="middle" x="224" y="-7.2" font-family="Times,serif" font-size="14.00">Cube) ]</text>
</g>
<!-- node_1&#45;&gt;node_3 -->
<g id="edge3" class="edge">
<title>node_1&#45;&gt;node_3</title>
<path fill="none" stroke="black" d="M54.44,-59.46C60.21,-57.98 66.29,-56.49 72,-55.25 98.05,-49.57 126.84,-44.28 152.23,-39.94"/>
<polygon fill="black" stroke="black" points="152.48,-43.44 161.76,-38.33 151.32,-36.54 152.48,-43.44"/>
<text text-anchor="middle" x="108.75" y="-58.45" font-family="Times,serif" font-size="14.00">a &#45;&gt; b, b &#45;&gt; a</text>
</g>
<!-- node_3&#45;&gt;node_2 -->
<g id="edge4" class="edge">
<title>node_3&#45;&gt;node_2</title>
<path fill="none" stroke="black" d="M284.98,-23.86C325.4,-22.46 379.42,-24.31 424.75,-38.75 428.09,-39.81 431.43,-41.2 434.69,-42.78"/>
<polygon fill="black" stroke="black" points="432.98,-45.83 443.42,-47.63 436.38,-39.71 432.98,-45.83"/>
<text text-anchor="middle" x="363.62" y="-58.45" font-family="Times,serif" font-size="14.00">. &#45;&gt;</text>
<text text-anchor="middle" x="363.62" y="-41.95" font-family="Times,serif" font-size="14.00">cube_or_square_result</text>
</g>
</g>
</svg>
