<?xml version="1.0" encoding="UTF-8" standalone="no"?>
<!DOCTYPE svg PUBLIC "-//W3C//DTD SVG 1.1//EN"
 "http://www.w3.org/Graphics/SVG/1.1/DTD/svg11.dtd">
<!-- Generated by graphviz version 12.2.1 (20241206.2353)
 -->
<!-- Title: RAG Agent Pages: 1 -->
<svg width="621pt" height="137pt"
 viewBox="0.00 0.00 620.50 137.25" xmlns="http://www.w3.org/2000/svg" xmlns:xlink="http://www.w3.org/1999/xlink">
<g id="graph0" class="graph" transform="scale(1 1) rotate(0) translate(4 133.25)">
<title>RAG Agent</title>
<polygon fill="white" stroke="none" points="-4,4 -4,-133.25 616.5,-133.25 616.5,4 -4,4"/>
<text text-anchor="middle" x="306.25" y="-111.95" font-family="Times,serif" font-size="14.00">RAG Agent</text>
<!-- node_0 -->
<g id="node1" class="node">
<title>node_0</title>
<polygon fill="#ececff" stroke="#9370db" points="272.75,-104.75 164.5,-104.75 164.5,-63.75 272.75,-63.75 272.75,-104.75"/>
<text text-anchor="middle" x="218.62" y="-87.45" font-family="Times,serif" font-size="14.00">get_docs[</text>
<text text-anchor="middle" x="218.62" y="-70.95" font-family="Times,serif" font-size="14.00">query_example ]</text>
</g>
<!-- node_2 -->
<g id="node3" class="node">
<title>node_2</title>
<polygon fill="#ececff" stroke="#9370db" points="521.5,-90.5 359.25,-90.5 359.25,0 521.5,0 521.5,-90.5"/>
<text text-anchor="middle" x="440.38" y="-73.2" font-family="Times,serif" font-size="14.00">chat[</text>
<text text-anchor="middle" x="440.38" y="-56.7" font-family="Times,serif" font-size="14.00">Chat(model=&#39;gpt&#45;4o&#45;mini&#39;,</text>
<text text-anchor="middle" x="440.38" y="-40.2" font-family="Times,serif" font-size="14.00">required_keys={&#39;docs&#39;,</text>
<text text-anchor="middle" x="440.38" y="-23.7" font-family="Times,serif" font-size="14.00">&#39;question&#39;},</text>
<text text-anchor="middle" x="440.38" y="-7.2" font-family="Times,serif" font-size="14.00">seed=42) ]</text>
</g>
<!-- node_0&#45;&gt;node_2 -->
<g id="edge1" class="edge">
<title>node_0&#45;&gt;node_2</title>
<path fill="none" stroke="black" d="M273.1,-74.76C295.57,-70.77 322.35,-66.02 347.78,-61.51"/>
<polygon fill="black" stroke="black" points="348.24,-64.98 357.48,-59.78 347.02,-58.09 348.24,-64.98"/>
<text text-anchor="middle" x="316.88" y="-73.72" font-family="Times,serif" font-size="14.00">. &#45;&gt; docs</text>
</g>
<!-- node_1 -->
<g id="node2" class="node">
<title>node_1</title>
<polygon fill="#ececff" stroke="#9370db" points="54,-69.25 0,-69.25 0,-33.25 54,-33.25 54,-69.25"/>
<text text-anchor="middle" x="27" y="-46.2" font-family="Times,serif" font-size="14.00">Start</text>
</g>
<!-- node_1&#45;&gt;node_0 -->
<g id="edge2" class="edge">
<title>node_1&#45;&gt;node_0</title>
<path fill="none" stroke="black" d="M54.37,-55.84C79.78,-60.26 119.25,-67.13 153.02,-73.01"/>
<polygon fill="black" stroke="black" points="152.28,-76.43 162.73,-74.7 153.48,-69.53 152.28,-76.43"/>
<text text-anchor="middle" x="108.38" y="-73.91" font-family="Times,serif" font-size="14.00">question &#45;&gt; 0</text>
</g>
<!-- node_1&#45;&gt;node_2 -->
<g id="edge3" class="edge">
<title>node_1&#45;&gt;node_2</title>
<path fill="none" stroke="black" d="M54.29,-48.09C81.41,-44.99 124.96,-40.5 162.75,-38.75 224.35,-35.9 293.73,-37.54 347.6,-39.89"/>
<polygon fill="black" stroke="black" points="347.19,-43.37 357.33,-40.33 347.5,-36.38 347.19,-43.37"/>
<text text-anchor="middle" x="218.62" y="-41.95" font-family="Times,serif" font-size="14.00">question &#45;&gt; question</text>
</g>
<!-- node_3 -->
<g id="node4" class="node">
<title>node_3</title>
<polygon fill="#ececff" stroke="#9370db" points="612.5,-63.25 558.5,-63.25 558.5,-27.25 612.5,-27.25 612.5,-63.25"/>
<text text-anchor="middle" x="585.5" y="-40.2" font-family="Times,serif" font-size="14.00">End</text>
</g>
<!-- node_2&#45;&gt;node_3 -->
<g id="edge4" class="edge">
<title>node_2&#45;&gt;node_3</title>
<path fill="none" stroke="black" d="M521.72,-45.25C530.44,-45.25 538.98,-45.25 546.82,-45.25"/>
<polygon fill="black" stroke="black" points="546.59,-48.75 556.59,-45.25 546.59,-41.75 546.59,-48.75"/>
</g>
</g>
</svg>
