<?xml version="1.0" encoding="UTF-8" standalone="no"?>
<!DOCTYPE svg PUBLIC "-//W3C//DTD SVG 1.1//EN"
 "http://www.w3.org/Graphics/SVG/1.1/DTD/svg11.dtd">
<!-- Generated by graphviz version 12.2.1 (20241206.2353)
 -->
<!-- Title: monitor_add_answer Pages: 1 -->
<svg width="806pt" height="161pt"
 viewBox="0.00 0.00 805.75 160.86" xmlns="http://www.w3.org/2000/svg" xmlns:xlink="http://www.w3.org/1999/xlink">
<g id="graph0" class="graph" transform="scale(1 1) rotate(0) translate(4 156.86)">
<title>monitor_add_answer</title>
<polygon fill="white" stroke="none" points="-4,4 -4,-156.86 801.75,-156.86 801.75,4 -4,4"/>
<text text-anchor="middle" x="398.88" y="-135.56" font-family="Times,serif" font-size="14.00">monitor_add_answer</text>
<!-- node_0 -->
<g id="node1" class="node">
<title>node_0</title>
<polygon fill="#ececff" stroke="#9370db" points="347.5,-120.75 201.75,-120.75 201.75,-79.75 347.5,-79.75 347.5,-120.75"/>
<text text-anchor="middle" x="274.62" y="-103.45" font-family="Times,serif" font-size="14.00">acting_agent[</text>
<text text-anchor="middle" x="274.62" y="-86.95" font-family="Times,serif" font-size="14.00">Diagram(RAG Agent) ]</text>
</g>
<!-- node_2 -->
<g id="node3" class="node">
<title>node_2</title>
<polygon fill="#ececff" stroke="#9370db" points="644,-90.5 481.75,-90.5 481.75,0 644,0 644,-90.5"/>
<text text-anchor="middle" x="562.88" y="-73.2" font-family="Times,serif" font-size="14.00">monitor[</text>
<text text-anchor="middle" x="562.88" y="-56.7" font-family="Times,serif" font-size="14.00">Chat(model=&#39;gpt&#45;4o&#45;mini&#39;,</text>
<text text-anchor="middle" x="562.88" y="-40.2" font-family="Times,serif" font-size="14.00">required_keys={&#39;answer&#39;,</text>
<text text-anchor="middle" x="562.88" y="-23.7" font-family="Times,serif" font-size="14.00">&#39;question&#39;},</text>
<text text-anchor="middle" x="562.88" y="-7.2" font-family="Times,serif" font-size="14.00">seed=42) ]</text>
</g>
<!-- node_0&#45;&gt;node_2 -->
<g id="edge1" class="edge">
<title>node_0&#45;&gt;node_2</title>
<path fill="none" stroke="black" d="M347.86,-86.37C384.94,-79.25 430.53,-70.49 470.08,-62.89"/>
<polygon fill="black" stroke="black" points="470.69,-66.33 479.85,-61.01 469.37,-59.46 470.69,-66.33"/>
<text text-anchor="middle" x="414.62" y="-85.66" font-family="Times,serif" font-size="14.00">content &#45;&gt; answer</text>
</g>
<!-- node_3 -->
<g id="node4" class="node">
<title>node_3</title>
<polygon fill="#ececff" stroke="#9370db" points="797.75,-104.25 743.75,-104.25 743.75,-68.25 797.75,-68.25 797.75,-104.25"/>
<text text-anchor="middle" x="770.75" y="-81.2" font-family="Times,serif" font-size="14.00">End</text>
</g>
<!-- node_0&#45;&gt;node_3 -->
<g id="edge2" class="edge">
<title>node_0&#45;&gt;node_3</title>
<path fill="none" stroke="black" d="M347.89,-103.18C425.5,-106.17 552.45,-110.59 662,-112.25 690.33,-112.68 698.42,-119.72 725.75,-112.25 728.35,-111.54 730.95,-110.63 733.52,-109.58"/>
<polygon fill="black" stroke="black" points="734.94,-112.78 742.42,-105.28 731.89,-106.48 734.94,-112.78"/>
<text text-anchor="middle" x="562.88" y="-115.06" font-family="Times,serif" font-size="14.00">content &#45;&gt; answer</text>
</g>
<!-- node_1 -->
<g id="node2" class="node">
<title>node_1</title>
<polygon fill="#ececff" stroke="#9370db" points="54,-79.25 0,-79.25 0,-43.25 54,-43.25 54,-79.25"/>
<text text-anchor="middle" x="27" y="-56.2" font-family="Times,serif" font-size="14.00">Start</text>
</g>
<!-- node_1&#45;&gt;node_0 -->
<g id="edge3" class="edge">
<title>node_1&#45;&gt;node_0</title>
<path fill="none" stroke="black" d="M54.29,-65.42C86.54,-70.54 142.78,-79.48 190.24,-87.01"/>
<polygon fill="black" stroke="black" points="189.55,-90.44 199.98,-88.56 190.65,-83.53 189.55,-90.44"/>
<text text-anchor="middle" x="127.88" y="-88.59" font-family="Times,serif" font-size="14.00">question &#45;&gt; question</text>
</g>
<!-- node_1&#45;&gt;node_2 -->
<g id="edge4" class="edge">
<title>node_1&#45;&gt;node_2</title>
<path fill="none" stroke="black" d="M54.49,-60.17C88.56,-58.8 149.55,-56.41 201.75,-54.75 292.98,-51.84 397.23,-49.16 470.01,-47.39"/>
<polygon fill="black" stroke="black" points="469.99,-50.9 479.9,-47.16 469.82,-43.9 469.99,-50.9"/>
<text text-anchor="middle" x="274.62" y="-57.95" font-family="Times,serif" font-size="14.00">question &#45;&gt; question</text>
</g>
<!-- node_2&#45;&gt;node_3 -->
<g id="edge5" class="edge">
<title>node_2&#45;&gt;node_3</title>
<path fill="none" stroke="black" d="M644.36,-61.28C674.73,-67.33 707.85,-73.92 732.42,-78.82"/>
<polygon fill="black" stroke="black" points="731.43,-82.19 741.92,-80.71 732.8,-75.32 731.43,-82.19"/>
<text text-anchor="middle" x="693.88" y="-97.09" font-family="Times,serif" font-size="14.00">content &#45;&gt;</text>
<text text-anchor="middle" x="693.88" y="-80.59" font-family="Times,serif" font-size="14.00">safe_or_not</text>
</g>
</g>
</svg>
