<?xml version="1.0" encoding="UTF-8" standalone="no"?>
<!DOCTYPE svg PUBLIC "-//W3C//DTD SVG 1.1//EN"
 "http://www.w3.org/Graphics/SVG/1.1/DTD/svg11.dtd">
<!-- Generated by graphviz version 12.2.1 (20241206.2353)
 -->
<!-- Title: Break until 10 &#45; Outer Pages: 1 -->
<svg width="518pt" height="90pt"
 viewBox="0.00 0.00 518.25 90.00" xmlns="http://www.w3.org/2000/svg" xmlns:xlink="http://www.w3.org/1999/xlink">
<g id="graph0" class="graph" transform="scale(1 1) rotate(0) translate(4 86)">
<title>Break until 10 &#45; Outer</title>
<polygon fill="white" stroke="none" points="-4,4 -4,-86 514.25,-86 514.25,4 -4,4"/>
<text text-anchor="middle" x="255.12" y="-64.7" font-family="Times,serif" font-size="14.00">Break until 10 &#45; Outer</text>
<!-- node_0 -->
<g id="node1" class="node">
<title>node_0</title>
<polygon fill="#ececff" stroke="#9370db" points="220.25,-57.5 91,-57.5 91,0 220.25,0 220.25,-57.5"/>
<text text-anchor="middle" x="155.62" y="-40.2" font-family="Times,serif" font-size="14.00">SomeWork[</text>
<text text-anchor="middle" x="155.62" y="-23.7" font-family="Times,serif" font-size="14.00">Diagram(Break until</text>
<text text-anchor="middle" x="155.62" y="-7.2" font-family="Times,serif" font-size="14.00">3 &#45; Inner) ]</text>
</g>
<!-- node_2 -->
<g id="node3" class="node">
<title>node_2</title>
<polygon fill="#ececff" stroke="#9370db" stroke-dasharray="5,2" points="331,-46.75 257.25,-46.75 257.25,-10.75 331,-10.75 331,-46.75"/>
<text text-anchor="middle" x="294.12" y="-23.7" font-family="Times,serif" font-size="14.00">breakpoint</text>
</g>
<!-- node_0&#45;&gt;node_2 -->
<g id="edge1" class="edge">
<title>node_0&#45;&gt;node_2</title>
<path fill="none" stroke="blue" stroke-width="2" d="M220.48,-22.01C228.87,-21.96 237.35,-22.05 245.41,-22.28"/>
<polygon fill="blue" stroke="blue" stroke-width="2" points="243.71,-25.72 253.83,-22.59 243.97,-18.72 243.71,-25.72"/>
</g>
<!-- node_1 -->
<g id="node2" class="node">
<title>node_1</title>
<polygon fill="#ececff" stroke="#9370db" points="54,-46.75 0,-46.75 0,-10.75 54,-10.75 54,-46.75"/>
<text text-anchor="middle" x="27" y="-23.7" font-family="Times,serif" font-size="14.00">Start</text>
</g>
<!-- node_1&#45;&gt;node_0 -->
<g id="edge2" class="edge">
<title>node_1&#45;&gt;node_0</title>
<path fill="none" stroke="blue" stroke-width="2" d="M54.24,-28.75C61.72,-28.75 70.28,-28.75 79.17,-28.75"/>
<polygon fill="blue" stroke="blue" stroke-width="2" points="77.52,-32.25 87.52,-28.75 77.52,-25.25 77.52,-32.25"/>
</g>
<!-- node_2&#45;&gt;node_0 -->
<g id="edge3" class="edge">
<title>node_2&#45;&gt;node_0</title>
<path fill="none" stroke="blue" stroke-width="2" d="M256.86,-34.79C249.07,-35.16 240.56,-35.39 231.9,-35.47"/>
<polygon fill="blue" stroke="blue" stroke-width="2" points="233.5,-31.97 223.51,-35.48 233.51,-38.97 233.5,-31.97"/>
</g>
<!-- node_3 -->
<g id="node4" class="node">
<title>node_3</title>
<polygon fill="#ececff" stroke="#9370db" points="510.25,-46.75 456.25,-46.75 456.25,-10.75 510.25,-10.75 510.25,-46.75"/>
<text text-anchor="middle" x="483.25" y="-23.7" font-family="Times,serif" font-size="14.00">End</text>
</g>
<!-- node_2&#45;&gt;node_3 -->
<g id="edge4" class="edge">
<title>node_2&#45;&gt;node_3</title>
<path fill="none" stroke="blue" stroke-width="2" d="M331.2,-28.75C363.74,-28.75 411.42,-28.75 444.48,-28.75"/>
<polygon fill="blue" stroke="blue" stroke-width="2" points="442.91,-32.25 452.91,-28.75 442.91,-25.25 442.91,-32.25"/>
<text text-anchor="middle" x="393.62" y="-31.95" font-family="Times,serif" font-size="14.00">?(EqualsTo(10))</text>
</g>
</g>
</svg>
