<?xml version="1.0" encoding="UTF-8" standalone="no"?>
<!DOCTYPE svg PUBLIC "-//W3C//DTD SVG 1.1//EN"
 "http://www.w3.org/Graphics/SVG/1.1/DTD/svg11.dtd">
<!-- Generated by graphviz version 12.2.1 (20241206.2353)
 -->
<!-- Title: Break until 3 &#45; Inner Pages: 1 -->
<svg width="527pt" height="74pt"
 viewBox="0.00 0.00 526.50 73.50" xmlns="http://www.w3.org/2000/svg" xmlns:xlink="http://www.w3.org/1999/xlink">
<g id="graph0" class="graph" transform="scale(1 1) rotate(0) translate(4 69.5)">
<title>Break until 3 &#45; Inner</title>
<polygon fill="white" stroke="none" points="-4,4 -4,-69.5 522.5,-69.5 522.5,4 -4,4"/>
<text text-anchor="middle" x="259.25" y="-48.2" font-family="Times,serif" font-size="14.00">Break until 3 &#45; Inner</text>
<!-- node_0 -->
<g id="node1" class="node">
<title>node_0</title>
<polygon fill="#ececff" stroke="#9370db" points="235.25,-41 91,-41 91,0 235.25,0 235.25,-41"/>
<text text-anchor="middle" x="163.12" y="-23.7" font-family="Times,serif" font-size="14.00">SomeWork[ fake_work</text>
<text text-anchor="middle" x="163.12" y="-7.2" font-family="Times,serif" font-size="14.00">]</text>
</g>
<!-- node_2 -->
<g id="node3" class="node">
<title>node_2</title>
<polygon fill="#ececff" stroke="#9370db" stroke-dasharray="5,2" points="346,-38.5 272.25,-38.5 272.25,-2.5 346,-2.5 346,-38.5"/>
<text text-anchor="middle" x="309.12" y="-15.45" font-family="Times,serif" font-size="14.00">breakpoint</text>
</g>
<!-- node_0&#45;&gt;node_2 -->
<g id="edge1" class="edge">
<title>node_0&#45;&gt;node_2</title>
<path fill="none" stroke="blue" stroke-width="2" d="M235.7,-13.75C244.14,-13.75 252.59,-13.87 260.59,-14.11"/>
<polygon fill="blue" stroke="blue" stroke-width="2" points="258.76,-17.54 268.89,-14.44 259.04,-10.55 258.76,-17.54"/>
</g>
<!-- node_1 -->
<g id="node2" class="node">
<title>node_1</title>
<polygon fill="#ececff" stroke="#9370db" points="54,-38.5 0,-38.5 0,-2.5 54,-2.5 54,-38.5"/>
<text text-anchor="middle" x="27" y="-15.45" font-family="Times,serif" font-size="14.00">Start</text>
</g>
<!-- node_1&#45;&gt;node_0 -->
<g id="edge2" class="edge">
<title>node_1&#45;&gt;node_0</title>
<path fill="none" stroke="blue" stroke-width="2" d="M54.5,-20.5C61.91,-20.5 70.37,-20.5 79.23,-20.5"/>
<polygon fill="blue" stroke="blue" stroke-width="2" points="77.58,-24 87.58,-20.5 77.58,-17 77.58,-24"/>
</g>
<!-- node_2&#45;&gt;node_0 -->
<g id="edge3" class="edge">
<title>node_2&#45;&gt;node_0</title>
<path fill="none" stroke="blue" stroke-width="2" d="M271.92,-26.45C264.22,-26.82 255.79,-27.07 247.15,-27.18"/>
<polygon fill="blue" stroke="blue" stroke-width="2" points="248.71,-23.67 238.73,-27.23 248.75,-30.67 248.71,-23.67"/>
</g>
<!-- node_3 -->
<g id="node4" class="node">
<title>node_3</title>
<polygon fill="#ececff" stroke="#9370db" points="518.5,-38.5 464.5,-38.5 464.5,-2.5 518.5,-2.5 518.5,-38.5"/>
<text text-anchor="middle" x="491.5" y="-15.45" font-family="Times,serif" font-size="14.00">End</text>
</g>
<!-- node_2&#45;&gt;node_3 -->
<g id="edge4" class="edge">
<title>node_2&#45;&gt;node_3</title>
<path fill="none" stroke="blue" stroke-width="2" d="M346.19,-20.5C377.1,-20.5 421.45,-20.5 452.82,-20.5"/>
<polygon fill="blue" stroke="blue" stroke-width="2" points="451.12,-24 461.12,-20.5 451.12,-17 451.12,-24"/>
<text text-anchor="middle" x="405.25" y="-23.7" font-family="Times,serif" font-size="14.00">?(EqualsTo(3))</text>
</g>
</g>
</svg>
