<?xml version="1.0" encoding="UTF-8" standalone="no"?>
<!DOCTYPE svg PUBLIC "-//W3C//DTD SVG 1.1//EN"
 "http://www.w3.org/Graphics/SVG/1.1/DTD/svg11.dtd">
<!-- Generated by graphviz version 12.2.1 (20241206.2353)
 -->
<!-- Title: monitor_add_answer Pages: 1 -->
<svg width="828pt" height="187pt"
 viewBox="0.00 0.00 828.25 187.13" xmlns="http://www.w3.org/2000/svg" xmlns:xlink="http://www.w3.org/1999/xlink">
<g id="graph0" class="graph" transform="scale(1 1) rotate(0) translate(4 183.13)">
<title>monitor_add_answer</title>
<polygon fill="white" stroke="none" points="-4,4 -4,-183.13 824.25,-183.13 824.25,4 -4,4"/>
<text text-anchor="middle" x="410.12" y="-161.83" font-family="Times,serif" font-size="14.00">monitor_add_answer</text>
<!-- node_0 -->
<g id="node1" class="node">
<title>node_0</title>
<polygon fill="#ececff" stroke="#9370db" points="370,-154.25 201.75,-154.25 201.75,-80.25 370,-80.25 370,-154.25"/>
<text text-anchor="middle" x="285.88" y="-136.95" font-family="Times,serif" font-size="14.00">acting_agent[</text>
<text text-anchor="middle" x="285.88" y="-120.45" font-family="Times,serif" font-size="14.00">Chat(model=&#39;gpt&#45;4o&#45;mini&#39;,</text>
<text text-anchor="middle" x="285.88" y="-103.95" font-family="Times,serif" font-size="14.00">required_keys={&#39;question&#39;},</text>
<text text-anchor="middle" x="285.88" y="-87.45" font-family="Times,serif" font-size="14.00">seed=42) ]</text>
</g>
<!-- node_2 -->
<g id="node3" class="node">
<title>node_2</title>
<polygon fill="#ececff" stroke="#9370db" points="666.5,-90.5 504.25,-90.5 504.25,0 666.5,0 666.5,-90.5"/>
<text text-anchor="middle" x="585.38" y="-73.2" font-family="Times,serif" font-size="14.00">monitor[</text>
<text text-anchor="middle" x="585.38" y="-56.7" font-family="Times,serif" font-size="14.00">Chat(model=&#39;gpt&#45;4o&#45;mini&#39;,</text>
<text text-anchor="middle" x="585.38" y="-40.2" font-family="Times,serif" font-size="14.00">required_keys={&#39;answer&#39;,</text>
<text text-anchor="middle" x="585.38" y="-23.7" font-family="Times,serif" font-size="14.00">&#39;question&#39;},</text>
<text text-anchor="middle" x="585.38" y="-7.2" font-family="Times,serif" font-size="14.00">seed=42) ]</text>
</g>
<!-- node_0&#45;&gt;node_2 -->
<g id="edge1" class="edge">
<title>node_0&#45;&gt;node_2</title>
<path fill="none" stroke="black" d="M370.14,-97.1C408.32,-87.86 453.69,-76.88 492.82,-67.41"/>
<polygon fill="black" stroke="black" points="493.58,-70.82 502.48,-65.07 491.94,-64.02 493.58,-70.82"/>
<text text-anchor="middle" x="437.12" y="-95.11" font-family="Times,serif" font-size="14.00">content &#45;&gt; answer</text>
</g>
<!-- node_3 -->
<g id="node4" class="node">
<title>node_3</title>
<polygon fill="#ececff" stroke="#9370db" points="820.25,-104.25 766.25,-104.25 766.25,-68.25 820.25,-68.25 820.25,-104.25"/>
<text text-anchor="middle" x="793.25" y="-81.2" font-family="Times,serif" font-size="14.00">End</text>
</g>
<!-- node_0&#45;&gt;node_3 -->
<g id="edge2" class="edge">
<title>node_0&#45;&gt;node_3</title>
<path fill="none" stroke="black" d="M370.36,-129.09C464.2,-139.5 620.17,-148.01 748.25,-112.25 750.85,-111.53 753.45,-110.61 756.01,-109.55"/>
<polygon fill="black" stroke="black" points="757.44,-112.75 764.91,-105.23 754.38,-106.45 757.44,-112.75"/>
<text text-anchor="middle" x="585.38" y="-141.33" font-family="Times,serif" font-size="14.00">content &#45;&gt; answer</text>
</g>
<!-- node_1 -->
<g id="node2" class="node">
<title>node_1</title>
<polygon fill="#ececff" stroke="#9370db" points="54,-79.25 0,-79.25 0,-43.25 54,-43.25 54,-79.25"/>
<text text-anchor="middle" x="27" y="-56.2" font-family="Times,serif" font-size="14.00">Start</text>
</g>
<!-- node_1&#45;&gt;node_0 -->
<g id="edge3" class="edge">
<title>node_1&#45;&gt;node_0</title>
<path fill="none" stroke="black" d="M54.04,-66.93C85.88,-73.87 141.52,-86 190.2,-96.61"/>
<polygon fill="black" stroke="black" points="189.43,-100.03 199.95,-98.74 190.93,-93.19 189.43,-100.03"/>
<text text-anchor="middle" x="127.88" y="-97.47" font-family="Times,serif" font-size="14.00">question &#45;&gt; question</text>
</g>
<!-- node_1&#45;&gt;node_2 -->
<g id="edge4" class="edge">
<title>node_1&#45;&gt;node_2</title>
<path fill="none" stroke="black" d="M54.49,-60.16C88.56,-58.77 149.55,-56.37 201.75,-54.75 301.29,-51.65 415.43,-48.93 492.95,-47.2"/>
<polygon fill="black" stroke="black" points="492.69,-50.7 502.61,-46.98 492.53,-43.71 492.69,-50.7"/>
<text text-anchor="middle" x="285.88" y="-57.95" font-family="Times,serif" font-size="14.00">question &#45;&gt; question</text>
</g>
<!-- node_2&#45;&gt;node_3 -->
<g id="edge5" class="edge">
<title>node_2&#45;&gt;node_3</title>
<path fill="none" stroke="black" d="M666.86,-61.28C697.23,-67.33 730.35,-73.92 754.92,-78.82"/>
<polygon fill="black" stroke="black" points="753.93,-82.19 764.42,-80.71 755.3,-75.32 753.93,-82.19"/>
<text text-anchor="middle" x="716.38" y="-97.09" font-family="Times,serif" font-size="14.00">content &#45;&gt;</text>
<text text-anchor="middle" x="716.38" y="-80.59" font-family="Times,serif" font-size="14.00">safe_or_not</text>
</g>
</g>
</svg>
