<?xml version="1.0" encoding="UTF-8" standalone="no"?>
<!DOCTYPE svg PUBLIC "-//W3C//DTD SVG 1.1//EN"
 "http://www.w3.org/Graphics/SVG/1.1/DTD/svg11.dtd">
<!-- Generated by graphviz version 12.2.1 (20241206.2353)
 -->
<!-- Title: Router Pages: 1 -->
<svg width="942pt" height="291pt"
 viewBox="0.00 0.00 941.75 290.50" xmlns="http://www.w3.org/2000/svg" xmlns:xlink="http://www.w3.org/1999/xlink">
<g id="graph0" class="graph" transform="scale(1 1) rotate(0) translate(4 286.5)">
<title>Router</title>
<polygon fill="white" stroke="none" points="-4,4 -4,-286.5 937.75,-286.5 937.75,4 -4,4"/>
<text text-anchor="middle" x="466.88" y="-265.2" font-family="Times,serif" font-size="14.00">Router</text>
<!-- node_0 -->
<g id="node1" class="node">
<title>node_0</title>
<polygon fill="#ececff" stroke="#9370db" points="328,-254.5 159.75,-254.5 159.75,-147.5 328,-147.5 328,-254.5"/>
<text text-anchor="middle" x="243.88" y="-237.2" font-family="Times,serif" font-size="14.00">choose_route[</text>
<text text-anchor="middle" x="243.88" y="-220.7" font-family="Times,serif" font-size="14.00">Chat(model=&#39;gpt&#45;4o&#45;mini&#39;,</text>
<text text-anchor="middle" x="243.88" y="-204.2" font-family="Times,serif" font-size="14.00">required_keys={&#39;question&#39;},</text>
<text text-anchor="middle" x="243.88" y="-187.7" font-family="Times,serif" font-size="14.00">choices=[&#39;rhyme&#39;,</text>
<text text-anchor="middle" x="243.88" y="-171.2" font-family="Times,serif" font-size="14.00">&#39;joke&#39;, &#39;yo_mama&#39;],</text>
<text text-anchor="middle" x="243.88" y="-154.7" font-family="Times,serif" font-size="14.00">seed=42) ]</text>
</g>
<!-- node_2 -->
<g id="node3" class="node">
<title>node_2</title>
<polygon fill="#ececff" stroke="#9370db" points="513.25,-147 459.25,-147 459.25,-111 513.25,-111 513.25,-147"/>
<text text-anchor="middle" x="486.25" y="-123.95" font-family="Times,serif" font-size="14.00">router</text>
</g>
<!-- node_0&#45;&gt;node_2 -->
<g id="edge1" class="edge">
<title>node_0&#45;&gt;node_2</title>
<path fill="none" stroke="black" d="M328.27,-176.02C368.97,-163.83 415.9,-149.77 447.77,-140.23"/>
<polygon fill="black" stroke="black" points="448.76,-143.58 457.34,-137.36 446.75,-136.88 448.76,-143.58"/>
<text text-anchor="middle" x="393.62" y="-172.51" font-family="Times,serif" font-size="14.00">content &#45;&gt; choice</text>
</g>
<!-- node_1 -->
<g id="node2" class="node">
<title>node_1</title>
<polygon fill="#ececff" stroke="#9370db" points="54,-161 0,-161 0,-125 54,-125 54,-161"/>
<text text-anchor="middle" x="27" y="-137.95" font-family="Times,serif" font-size="14.00">Start</text>
</g>
<!-- node_1&#45;&gt;node_0 -->
<g id="edge2" class="edge">
<title>node_1&#45;&gt;node_0</title>
<path fill="none" stroke="black" d="M54.35,-150.11C78.01,-156.5 114.22,-166.27 148.6,-175.55"/>
<polygon fill="black" stroke="black" points="147.66,-178.92 158.22,-178.15 149.48,-172.17 147.66,-178.92"/>
<text text-anchor="middle" x="106.88" y="-175.2" font-family="Times,serif" font-size="14.00">. &#45;&gt; question</text>
</g>
<!-- node_1&#45;&gt;node_2 -->
<g id="edge3" class="edge">
<title>node_1&#45;&gt;node_2</title>
<path fill="none" stroke="black" d="M54.34,-137.41C80.83,-132.1 122.91,-124.49 159.75,-121.5 263.8,-113.07 387.13,-120.7 447.77,-125.61"/>
<polygon fill="black" stroke="black" points="447.27,-129.09 457.53,-126.43 447.86,-122.11 447.27,-129.09"/>
<text text-anchor="middle" x="243.88" y="-124.7" font-family="Times,serif" font-size="14.00">. &#45;&gt; question</text>
</g>
<!-- node_3 -->
<g id="node4" class="node">
<title>node_3</title>
<polygon fill="#ececff" stroke="#9370db" points="842.75,-258 674.5,-258 674.5,-184 842.75,-184 842.75,-258"/>
<text text-anchor="middle" x="758.62" y="-240.7" font-family="Times,serif" font-size="14.00">rhyme[</text>
<text text-anchor="middle" x="758.62" y="-224.2" font-family="Times,serif" font-size="14.00">Chat(model=&#39;gpt&#45;4o&#45;mini&#39;,</text>
<text text-anchor="middle" x="758.62" y="-207.7" font-family="Times,serif" font-size="14.00">required_keys={&#39;question&#39;},</text>
<text text-anchor="middle" x="758.62" y="-191.2" font-family="Times,serif" font-size="14.00">seed=42) ]</text>
</g>
<!-- node_2&#45;&gt;node_3 -->
<g id="edge4" class="edge">
<title>node_2&#45;&gt;node_3</title>
<path fill="none" stroke="blue" stroke-width="2" d="M505.14,-147.3C512.65,-154.06 521.81,-161.22 531.25,-166 572.07,-186.67 621.03,-199.82 662.95,-208.05"/>
<polygon fill="blue" stroke="blue" stroke-width="2" points="660.56,-211.16 671.04,-209.58 661.86,-204.28 660.56,-211.16"/>
<text text-anchor="middle" x="593.88" y="-208.77" font-family="Times,serif" font-size="14.00">question &#45;&gt; question</text>
</g>
<!-- node_5 -->
<g id="node6" class="node">
<title>node_5</title>
<polygon fill="#ececff" stroke="#9370db" points="842.75,-166 674.5,-166 674.5,-92 842.75,-92 842.75,-166"/>
<text text-anchor="middle" x="758.62" y="-148.7" font-family="Times,serif" font-size="14.00">joke[</text>
<text text-anchor="middle" x="758.62" y="-132.2" font-family="Times,serif" font-size="14.00">Chat(model=&#39;gpt&#45;4o&#45;mini&#39;,</text>
<text text-anchor="middle" x="758.62" y="-115.7" font-family="Times,serif" font-size="14.00">required_keys={&#39;question&#39;},</text>
<text text-anchor="middle" x="758.62" y="-99.2" font-family="Times,serif" font-size="14.00">seed=42) ]</text>
</g>
<!-- node_2&#45;&gt;node_5 -->
<g id="edge5" class="edge">
<title>node_2&#45;&gt;node_5</title>
<path fill="none" stroke="blue" stroke-width="2" d="M513.67,-129C548.02,-129 609.88,-129 662.71,-129"/>
<polygon fill="blue" stroke="blue" stroke-width="2" points="661.15,-132.5 671.15,-129 661.15,-125.5 661.15,-132.5"/>
<text text-anchor="middle" x="593.88" y="-148.7" font-family="Times,serif" font-size="14.00">?(choice==joke):</text>
<text text-anchor="middle" x="593.88" y="-132.2" font-family="Times,serif" font-size="14.00">question &#45;&gt; question</text>
</g>
<!-- node_6 -->
<g id="node7" class="node">
<title>node_6</title>
<polygon fill="#ececff" stroke="#9370db" points="842.75,-74 674.5,-74 674.5,0 842.75,0 842.75,-74"/>
<text text-anchor="middle" x="758.62" y="-56.7" font-family="Times,serif" font-size="14.00">yo_mama[</text>
<text text-anchor="middle" x="758.62" y="-40.2" font-family="Times,serif" font-size="14.00">Chat(model=&#39;gpt&#45;4o&#45;mini&#39;,</text>
<text text-anchor="middle" x="758.62" y="-23.7" font-family="Times,serif" font-size="14.00">required_keys={&#39;question&#39;},</text>
<text text-anchor="middle" x="758.62" y="-7.2" font-family="Times,serif" font-size="14.00">seed=42) ]</text>
</g>
<!-- node_2&#45;&gt;node_6 -->
<g id="edge6" class="edge">
<title>node_2&#45;&gt;node_6</title>
<path fill="none" stroke="blue" stroke-width="2" d="M505.14,-110.7C512.65,-103.94 521.81,-96.78 531.25,-92 572.07,-71.33 621.03,-58.18 662.95,-49.95"/>
<polygon fill="blue" stroke="blue" stroke-width="2" points="661.86,-53.72 671.04,-48.42 660.56,-46.84 661.86,-53.72"/>
<text text-anchor="middle" x="593.88" y="-111.7" font-family="Times,serif" font-size="14.00">?(choice==yo_mama):</text>
<text text-anchor="middle" x="593.88" y="-95.2" font-family="Times,serif" font-size="14.00">question &#45;&gt; question</text>
</g>
<!-- node_4 -->
<g id="node5" class="node">
<title>node_4</title>
<polygon fill="#ececff" stroke="#9370db" points="933.75,-147 879.75,-147 879.75,-111 933.75,-111 933.75,-147"/>
<text text-anchor="middle" x="906.75" y="-123.95" font-family="Times,serif" font-size="14.00">End</text>
</g>
<!-- node_3&#45;&gt;node_4 -->
<g id="edge7" class="edge">
<title>node_3&#45;&gt;node_4</title>
<path fill="none" stroke="blue" stroke-width="2" d="M828.52,-183.76C833.38,-180.87 838.16,-177.93 842.75,-175 852.77,-168.61 863.32,-161.19 872.86,-154.21"/>
<polygon fill="blue" stroke="blue" stroke-width="2" points="873.64,-157.99 879.58,-149.22 869.46,-152.37 873.64,-157.99"/>
</g>
<!-- node_5&#45;&gt;node_4 -->
<g id="edge8" class="edge">
<title>node_5&#45;&gt;node_4</title>
<path fill="none" stroke="blue" stroke-width="2" d="M842.93,-129C851.7,-129 860.27,-129 868.11,-129"/>
<polygon fill="blue" stroke="blue" stroke-width="2" points="866.38,-132.5 876.38,-129 866.38,-125.5 866.38,-132.5"/>
</g>
<!-- node_6&#45;&gt;node_4 -->
<g id="edge9" class="edge">
<title>node_6&#45;&gt;node_4</title>
<path fill="none" stroke="blue" stroke-width="2" d="M828.52,-74.24C833.38,-77.13 838.16,-80.07 842.75,-83 852.77,-89.39 863.32,-96.81 872.86,-103.79"/>
<polygon fill="blue" stroke="blue" stroke-width="2" points="869.46,-105.63 879.58,-108.78 873.64,-100.01 869.46,-105.63"/>
</g>
</g>
</svg>
