<?xml version="1.0" encoding="UTF-8" standalone="no"?>
<!DOCTYPE svg PUBLIC "-//W3C//DTD SVG 1.1//EN"
 "http://www.w3.org/Graphics/SVG/1.1/DTD/svg11.dtd">
<!-- Generated by graphviz version 12.2.1 (20241206.2353)
 -->
<!-- Title: yo mama agent Pages: 1 -->
<svg width="395pt" height="107pt"
 viewBox="0.00 0.00 394.75 106.50" xmlns="http://www.w3.org/2000/svg" xmlns:xlink="http://www.w3.org/1999/xlink">
<g id="graph0" class="graph" transform="scale(1 1) rotate(0) translate(4 102.5)">
<title>yo mama agent</title>
<polygon fill="white" stroke="none" points="-4,4 -4,-102.5 390.75,-102.5 390.75,4 -4,4"/>
<text text-anchor="middle" x="193.38" y="-81.2" font-family="Times,serif" font-size="14.00">yo mama agent</text>
<!-- node_0 -->
<g id="node1" class="node">
<title>node_0</title>
<polygon fill="#ececff" stroke="#9370db" points="295.75,-74 127.5,-74 127.5,0 295.75,0 295.75,-74"/>
<text text-anchor="middle" x="211.62" y="-56.7" font-family="Times,serif" font-size="14.00">yo mama[</text>
<text text-anchor="middle" x="211.62" y="-40.2" font-family="Times,serif" font-size="14.00">Chat(model=&#39;gpt&#45;4o&#45;mini&#39;,</text>
<text text-anchor="middle" x="211.62" y="-23.7" font-family="Times,serif" font-size="14.00">required_keys={&#39;question&#39;},</text>
<text text-anchor="middle" x="211.62" y="-7.2" font-family="Times,serif" font-size="14.00">seed=42) ]</text>
</g>
<!-- node_2 -->
<g id="node3" class="node">
<title>node_2</title>
<polygon fill="#ececff" stroke="#9370db" points="386.75,-55 332.75,-55 332.75,-19 386.75,-19 386.75,-55"/>
<text text-anchor="middle" x="359.75" y="-31.95" font-family="Times,serif" font-size="14.00">End</text>
</g>
<!-- node_0&#45;&gt;node_2 -->
<g id="edge1" class="edge">
<title>node_0&#45;&gt;node_2</title>
<path fill="none" stroke="black" d="M295.93,-37C304.7,-37 313.27,-37 321.11,-37"/>
<polygon fill="black" stroke="black" points="320.89,-40.5 330.89,-37 320.89,-33.5 320.89,-40.5"/>
</g>
<!-- node_1 -->
<g id="node2" class="node">
<title>node_1</title>
<polygon fill="#ececff" stroke="#9370db" points="54,-55 0,-55 0,-19 54,-19 54,-55"/>
<text text-anchor="middle" x="27" y="-31.95" font-family="Times,serif" font-size="14.00">Start</text>
</g>
<!-- node_1&#45;&gt;node_0 -->
<g id="edge2" class="edge">
<title>node_1&#45;&gt;node_0</title>
<path fill="none" stroke="black" d="M54.17,-37C70.62,-37 92.96,-37 115.6,-37"/>
<polygon fill="black" stroke="black" points="115.57,-40.5 125.57,-37 115.57,-33.5 115.57,-40.5"/>
<text text-anchor="middle" x="90.75" y="-40.2" font-family="Times,serif" font-size="14.00">. &#45;&gt; **</text>
</g>
</g>
</svg>
