<?xml version="1.0" encoding="UTF-8" standalone="no"?>
<!DOCTYPE svg PUBLIC "-//W3C//DTD SVG 1.1//EN"
 "http://www.w3.org/Graphics/SVG/1.1/DTD/svg11.dtd">
<!-- Generated by graphviz version 12.2.1 (20241206.2353)
 -->
<!-- Title: batch_adding Pages: 1 -->
<svg width="629pt" height="162pt"
 viewBox="0.00 0.00 628.50 161.97" xmlns="http://www.w3.org/2000/svg" xmlns:xlink="http://www.w3.org/1999/xlink">
<g id="graph0" class="graph" transform="scale(1 1) rotate(0) translate(4 157.97)">
<title>batch_adding</title>
<polygon fill="white" stroke="none" points="-4,4 -4,-157.97 624.5,-157.97 624.5,4 -4,4"/>
<text text-anchor="middle" x="310.25" y="-136.67" font-family="Times,serif" font-size="14.00">batch_adding</text>
<!-- node_0 -->
<g id="node1" class="node">
<title>node_0</title>
<polygon fill="#ececff" stroke="#9370db" points="269.5,-129.47 184.5,-129.47 184.5,-88.47 269.5,-88.47 269.5,-129.47"/>
<text text-anchor="middle" x="227" y="-112.17" font-family="Times,serif" font-size="14.00">task_list1[</text>
<text text-anchor="middle" x="227" y="-95.67" font-family="Times,serif" font-size="14.00">Range(2,1) ]</text>
</g>
<!-- node_3 -->
<g id="node4" class="node">
<title>node_3</title>
<polygon fill="#ececff" stroke="#9370db" stroke-width="2" points="469.25,-70.47 336.25,-70.47 336.25,-29.47 469.25,-29.47 469.25,-70.47"/>
<text text-anchor="middle" x="402.75" y="-53.17" font-family="Times,serif" font-size="14.00">add_task[ async_add,</text>
<text text-anchor="middle" x="402.75" y="-36.67" font-family="Times,serif" font-size="14.00">foreach=[a, b] ]</text>
</g>
<!-- node_0&#45;&gt;node_3 -->
<g id="edge1" class="edge">
<title>node_0&#45;&gt;node_3</title>
<path fill="none" stroke="black" d="M269.62,-94.84C287.49,-88.77 308.9,-81.5 329.24,-74.59"/>
<polygon fill="black" stroke="black" points="330.3,-77.93 338.64,-71.4 328.05,-71.3 330.3,-77.93"/>
<text text-anchor="middle" x="302.88" y="-91.4" font-family="Times,serif" font-size="14.00">. &#45;&gt; a</text>
</g>
<!-- node_1 -->
<g id="node2" class="node">
<title>node_1</title>
<polygon fill="#ececff" stroke="#9370db" points="54,-67.97 0,-67.97 0,-31.97 54,-31.97 54,-67.97"/>
<text text-anchor="middle" x="27" y="-44.92" font-family="Times,serif" font-size="14.00">Start</text>
</g>
<!-- node_1&#45;&gt;node_0 -->
<g id="edge2" class="edge">
<title>node_1&#45;&gt;node_0</title>
<path fill="none" stroke="black" d="M54.15,-63.52C59.94,-66.21 66.1,-68.86 72,-70.97 104.88,-82.73 142.97,-92.17 173.04,-98.69"/>
<polygon fill="black" stroke="black" points="172.16,-102.08 182.67,-100.73 173.61,-95.23 172.16,-102.08"/>
<text text-anchor="middle" x="119.25" y="-100.45" font-family="Times,serif" font-size="14.00">a &#45;&gt; initial_value</text>
</g>
<!-- node_2 -->
<g id="node3" class="node">
<title>node_2</title>
<polygon fill="#ececff" stroke="#9370db" points="269.5,-70.47 184.5,-70.47 184.5,-29.47 269.5,-29.47 269.5,-70.47"/>
<text text-anchor="middle" x="227" y="-53.17" font-family="Times,serif" font-size="14.00">task_list2[</text>
<text text-anchor="middle" x="227" y="-36.67" font-family="Times,serif" font-size="14.00">Range(2,1) ]</text>
</g>
<!-- node_1&#45;&gt;node_2 -->
<g id="edge3" class="edge">
<title>node_1&#45;&gt;node_2</title>
<path fill="none" stroke="black" d="M54.29,-49.97C84.32,-49.97 134.24,-49.97 172.54,-49.97"/>
<polygon fill="black" stroke="black" points="172.5,-53.47 182.5,-49.97 172.5,-46.47 172.5,-53.47"/>
<text text-anchor="middle" x="119.25" y="-53.17" font-family="Times,serif" font-size="14.00">b &#45;&gt; initial_value</text>
</g>
<!-- node_1&#45;&gt;node_3 -->
<g id="edge4" class="edge">
<title>node_1&#45;&gt;node_3</title>
<path fill="none" stroke="black" d="M54.38,-38.59C98.71,-20.87 191,9.93 269.5,-3.47 294.66,-7.76 321.41,-16.35 344.21,-24.98"/>
<polygon fill="black" stroke="black" points="342.73,-28.16 353.32,-28.52 345.27,-21.64 342.73,-28.16"/>
<text text-anchor="middle" x="227" y="-6.67" font-family="Times,serif" font-size="14.00">c &#45;&gt; c</text>
</g>
<!-- node_2&#45;&gt;node_3 -->
<g id="edge5" class="edge">
<title>node_2&#45;&gt;node_3</title>
<path fill="none" stroke="black" d="M269.62,-49.97C286.16,-49.97 305.73,-49.97 324.68,-49.97"/>
<polygon fill="black" stroke="black" points="324.53,-53.47 334.53,-49.97 324.53,-46.47 324.53,-53.47"/>
<text text-anchor="middle" x="302.88" y="-53.17" font-family="Times,serif" font-size="14.00">. &#45;&gt; b</text>
</g>
<!-- node_4 -->
<g id="node5" class="node">
<title>node_4</title>
<polygon fill="#ececff" stroke="#9370db" points="620.5,-70.47 506.25,-70.47 506.25,-29.47 620.5,-29.47 620.5,-70.47"/>
<text text-anchor="middle" x="563.38" y="-53.17" font-family="Times,serif" font-size="14.00">End[ &lt;built&#45;in</text>
<text text-anchor="middle" x="563.38" y="-36.67" font-family="Times,serif" font-size="14.00">function sorted&gt; ]</text>
</g>
<!-- node_3&#45;&gt;node_4 -->
<g id="edge6" class="edge">
<title>node_3&#45;&gt;node_4</title>
<path fill="none" stroke="black" d="M469.64,-49.97C477.86,-49.97 486.27,-49.97 494.52,-49.97"/>
<polygon fill="black" stroke="black" points="494.51,-53.47 504.51,-49.97 494.51,-46.47 494.51,-53.47"/>
</g>
</g>
</svg>
