<?xml version="1.0" encoding="UTF-8" standalone="no"?>
<!DOCTYPE svg PUBLIC "-//W3C//DTD SVG 1.1//EN"
 "http://www.w3.org/Graphics/SVG/1.1/DTD/svg11.dtd">
<!-- Generated by graphviz version 12.2.1 (20241206.2353)
 -->
<!-- Title: Summary based RAG Pages: 1 -->
<svg width="943pt" height="258pt"
 viewBox="0.00 0.00 942.75 257.50" xmlns="http://www.w3.org/2000/svg" xmlns:xlink="http://www.w3.org/1999/xlink">
<g id="graph0" class="graph" transform="scale(1 1) rotate(0) translate(4 253.5)">
<title>Summary based RAG</title>
<polygon fill="white" stroke="none" points="-4,4 -4,-253.5 938.75,-253.5 938.75,4 -4,4"/>
<text text-anchor="middle" x="467.38" y="-232.2" font-family="Times,serif" font-size="14.00">Summary based RAG</text>
<!-- node_0 -->
<g id="node1" class="node">
<title>node_0</title>
<polygon fill="#ececff" stroke="#9370db" points="334,-225 171.75,-225 171.75,-151 334,-151 334,-225"/>
<text text-anchor="middle" x="252.88" y="-207.7" font-family="Times,serif" font-size="14.00">guess_summary[</text>
<text text-anchor="middle" x="252.88" y="-191.2" font-family="Times,serif" font-size="14.00">Chat(model=&#39;gpt&#45;4o&#45;mini&#39;,</text>
<text text-anchor="middle" x="252.88" y="-174.7" font-family="Times,serif" font-size="14.00">required_keys={&#39;query&#39;},</text>
<text text-anchor="middle" x="252.88" y="-158.2" font-family="Times,serif" font-size="14.00">seed=42) ]</text>
</g>
<!-- node_2 -->
<g id="node3" class="node">
<title>node_2</title>
<polygon fill="#ececff" stroke="#9370db" points="596.75,-90.5 460.75,-90.5 460.75,-49.5 596.75,-49.5 596.75,-90.5"/>
<text text-anchor="middle" x="528.75" y="-73.2" font-family="Times,serif" font-size="14.00">get_docs[</text>
<text text-anchor="middle" x="528.75" y="-56.7" font-family="Times,serif" font-size="14.00">ChromaClient.query ]</text>
</g>
<!-- node_0&#45;&gt;node_2 -->
<g id="edge1" class="edge">
<title>node_0&#45;&gt;node_2</title>
<path fill="none" stroke="black" d="M334.2,-153.39C377.28,-134.83 429.44,-112.36 468.75,-95.42"/>
<polygon fill="black" stroke="black" points="470.04,-98.68 477.84,-91.51 467.27,-92.25 470.04,-98.68"/>
<text text-anchor="middle" x="397.38" y="-146.24" font-family="Times,serif" font-size="14.00">content &#45;&gt; query</text>
</g>
<!-- node_1 -->
<g id="node2" class="node">
<title>node_1</title>
<polygon fill="#ececff" stroke="#9370db" points="54,-85 0,-85 0,-49 54,-49 54,-85"/>
<text text-anchor="middle" x="27" y="-61.95" font-family="Times,serif" font-size="14.00">Start</text>
</g>
<!-- node_1&#45;&gt;node_0 -->
<g id="edge2" class="edge">
<title>node_1&#45;&gt;node_0</title>
<path fill="none" stroke="black" d="M54.12,-81.12C83.1,-96.78 131.27,-122.82 172.81,-145.27"/>
<polygon fill="black" stroke="black" points="171.14,-148.34 181.6,-150.02 174.47,-142.19 171.14,-148.34"/>
<text text-anchor="middle" x="112.88" y="-137.94" font-family="Times,serif" font-size="14.00">query &#45;&gt; query</text>
</g>
<!-- node_1&#45;&gt;node_2 -->
<g id="edge3" class="edge">
<title>node_1&#45;&gt;node_2</title>
<path fill="none" stroke="black" d="M54.17,-67.16C126.98,-67.59 334.13,-68.84 448.86,-69.53"/>
<polygon fill="black" stroke="black" points="448.82,-73.03 458.84,-69.59 448.86,-66.03 448.82,-73.03"/>
<text text-anchor="middle" x="252.88" y="-121.5" font-family="Times,serif" font-size="14.00">collection_name &#45;&gt;</text>
<text text-anchor="middle" x="252.88" y="-105" font-family="Times,serif" font-size="14.00">collection_name, k</text>
<text text-anchor="middle" x="252.88" y="-88.5" font-family="Times,serif" font-size="14.00">&#45;&gt; k, threshold &#45;&gt;</text>
<text text-anchor="middle" x="252.88" y="-72" font-family="Times,serif" font-size="14.00">threshold</text>
</g>
<!-- node_3 -->
<g id="node4" class="node">
<title>node_3</title>
<polygon fill="#ececff" stroke="#9370db" points="843.75,-74 681.5,-74 681.5,0 843.75,0 843.75,-74"/>
<text text-anchor="middle" x="762.62" y="-56.7" font-family="Times,serif" font-size="14.00">chat[</text>
<text text-anchor="middle" x="762.62" y="-40.2" font-family="Times,serif" font-size="14.00">Chat(model=&#39;gpt&#45;4o&#45;mini&#39;,</text>
<text text-anchor="middle" x="762.62" y="-23.7" font-family="Times,serif" font-size="14.00">required_keys={&#39;docs&#39;,</text>
<text text-anchor="middle" x="762.62" y="-7.2" font-family="Times,serif" font-size="14.00">&#39;input&#39;}, seed=42) ]</text>
</g>
<!-- node_1&#45;&gt;node_3 -->
<g id="edge4" class="edge">
<title>node_1&#45;&gt;node_3</title>
<path fill="none" stroke="black" d="M54.05,-64.48C59.95,-63.96 66.19,-63.43 72,-63 244.59,-50.28 287.8,-47.04 460.75,-41 530.89,-38.55 610.27,-37.57 669.88,-37.19"/>
<polygon fill="black" stroke="black" points="669.66,-40.69 679.64,-37.13 669.62,-33.69 669.66,-40.69"/>
<text text-anchor="middle" x="397.38" y="-48.33" font-family="Times,serif" font-size="14.00">query &#45;&gt; input</text>
</g>
<!-- node_2&#45;&gt;node_3 -->
<g id="edge5" class="edge">
<title>node_2&#45;&gt;node_3</title>
<path fill="none" stroke="black" d="M597.13,-60.41C619.97,-57.16 645.89,-53.47 670.28,-50"/>
<polygon fill="black" stroke="black" points="670.45,-53.51 679.86,-48.64 669.47,-46.58 670.45,-53.51"/>
<text text-anchor="middle" x="639.12" y="-60.63" font-family="Times,serif" font-size="14.00">. &#45;&gt; docs</text>
</g>
<!-- node_4 -->
<g id="node5" class="node">
<title>node_4</title>
<polygon fill="#ececff" stroke="#9370db" points="934.75,-55 880.75,-55 880.75,-19 934.75,-19 934.75,-55"/>
<text text-anchor="middle" x="907.75" y="-31.95" font-family="Times,serif" font-size="14.00">End</text>
</g>
<!-- node_3&#45;&gt;node_4 -->
<g id="edge6" class="edge">
<title>node_3&#45;&gt;node_4</title>
<path fill="none" stroke="black" d="M843.97,-37C852.69,-37 861.23,-37 869.07,-37"/>
<polygon fill="black" stroke="black" points="868.84,-40.5 878.84,-37 868.84,-33.5 868.84,-40.5"/>
</g>
</g>
</svg>
