<?xml version="1.0" encoding="UTF-8" standalone="no"?>
<!DOCTYPE svg PUBLIC "-//W3C//DTD SVG 1.1//EN"
 "http://www.w3.org/Graphics/SVG/1.1/DTD/svg11.dtd">
<!-- Generated by graphviz version 12.2.1 (20241206.2353)
 -->
<!-- Title: Rag Uploader Pages: 1 -->
<svg width="746pt" height="147pt"
 viewBox="0.00 0.00 746.00 147.25" xmlns="http://www.w3.org/2000/svg" xmlns:xlink="http://www.w3.org/1999/xlink">
<g id="graph0" class="graph" transform="scale(1 1) rotate(0) translate(4 143.25)">
<title>Rag Uploader</title>
<polygon fill="white" stroke="none" points="-4,4 -4,-143.25 742,-143.25 742,4 -4,4"/>
<text text-anchor="middle" x="369" y="-121.95" font-family="Times,serif" font-size="14.00">Rag Uploader</text>
<!-- node_0 -->
<g id="node1" class="node">
<title>node_0</title>
<polygon fill="#ececff" stroke="#9370db" stroke-width="2" points="251.5,-114.75 154.5,-114.75 154.5,-40.75 251.5,-40.75 251.5,-114.75"/>
<text text-anchor="middle" x="203" y="-97.45" font-family="Times,serif" font-size="14.00">split_texts[</text>
<text text-anchor="middle" x="203" y="-80.95" font-family="Times,serif" font-size="14.00">splitter,</text>
<text text-anchor="middle" x="203" y="-64.45" font-family="Times,serif" font-size="14.00">foreach=[doc],</text>
<text text-anchor="middle" x="203" y="-47.95" font-family="Times,serif" font-size="14.00">flat=True ]</text>
</g>
<!-- node_2 -->
<g id="node3" class="node">
<title>node_2</title>
<polygon fill="#ececff" stroke="#9370db" stroke-width="2" points="523.25,-114.75 394,-114.75 394,-40.75 523.25,-40.75 523.25,-114.75"/>
<text text-anchor="middle" x="458.62" y="-97.45" font-family="Times,serif" font-size="14.00">summarize[</text>
<text text-anchor="middle" x="458.62" y="-80.95" font-family="Times,serif" font-size="14.00">Diagram(summarize</text>
<text text-anchor="middle" x="458.62" y="-64.45" font-family="Times,serif" font-size="14.00">chunk),</text>
<text text-anchor="middle" x="458.62" y="-47.95" font-family="Times,serif" font-size="14.00">foreach=[doc] ]</text>
</g>
<!-- node_0&#45;&gt;node_2 -->
<g id="edge1" class="edge">
<title>node_0&#45;&gt;node_2</title>
<path fill="none" stroke="black" d="M251.7,-77.75C288.51,-77.75 340.11,-77.75 382.46,-77.75"/>
<polygon fill="black" stroke="black" points="382.34,-81.25 392.34,-77.75 382.34,-74.25 382.34,-81.25"/>
<text text-anchor="middle" x="322.75" y="-80.95" font-family="Times,serif" font-size="14.00">. &#45;&gt; doc</text>
</g>
<!-- node_1 -->
<g id="node2" class="node">
<title>node_1</title>
<polygon fill="#ececff" stroke="#9370db" points="54,-54.75 0,-54.75 0,-18.75 54,-18.75 54,-54.75"/>
<text text-anchor="middle" x="27" y="-31.7" font-family="Times,serif" font-size="14.00">Start</text>
</g>
<!-- node_1&#45;&gt;node_0 -->
<g id="edge2" class="edge">
<title>node_1&#45;&gt;node_0</title>
<path fill="none" stroke="black" d="M54.43,-42.98C77.97,-48.52 113.25,-56.84 143.41,-63.94"/>
<polygon fill="black" stroke="black" points="142.25,-67.27 152.79,-66.15 143.86,-60.45 142.25,-67.27"/>
<text text-anchor="middle" x="104.25" y="-65.33" font-family="Times,serif" font-size="14.00">docs &#45;&gt; doc</text>
</g>
<!-- node_3 -->
<g id="node4" class="node">
<title>node_3</title>
<polygon fill="#ececff" stroke="#9370db" points="738,-57.5 608,-57.5 608,0 738,0 738,-57.5"/>
<text text-anchor="middle" x="673" y="-40.2" font-family="Times,serif" font-size="14.00">End[</text>
<text text-anchor="middle" x="673" y="-23.7" font-family="Times,serif" font-size="14.00">ChromaClient.upsert</text>
<text text-anchor="middle" x="673" y="-7.2" font-family="Times,serif" font-size="14.00">]</text>
</g>
<!-- node_1&#45;&gt;node_3 -->
<g id="edge3" class="edge">
<title>node_1&#45;&gt;node_3</title>
<path fill="none" stroke="black" d="M54.16,-35.46C79.73,-34.26 119.78,-32.54 154.5,-31.75 311.69,-28.19 495.81,-28.09 596.58,-28.39"/>
<polygon fill="black" stroke="black" points="596.33,-31.89 606.34,-28.42 596.35,-24.89 596.33,-31.89"/>
<text text-anchor="middle" x="322.75" y="-49.4" font-family="Times,serif" font-size="14.00">collection_name &#45;&gt;</text>
<text text-anchor="middle" x="322.75" y="-32.9" font-family="Times,serif" font-size="14.00">collection_name</text>
</g>
<!-- node_2&#45;&gt;node_3 -->
<g id="edge4" class="edge">
<title>node_2&#45;&gt;node_3</title>
<path fill="none" stroke="black" d="M523.63,-62.98C546.62,-57.68 572.75,-51.65 596.61,-46.14"/>
<polygon fill="black" stroke="black" points="597.33,-49.57 606.28,-43.91 595.75,-42.75 597.33,-49.57"/>
<text text-anchor="middle" x="565.62" y="-60.84" font-family="Times,serif" font-size="14.00">. &#45;&gt; docs</text>
</g>
</g>
</svg>
