<?xml version="1.0" encoding="UTF-8" standalone="no"?>
<!DOCTYPE svg PUBLIC "-//W3C//DTD SVG 1.1//EN"
 "http://www.w3.org/Graphics/SVG/1.1/DTD/svg11.dtd">
<!-- Generated by graphviz version 12.2.1 (20241206.2353)
 -->
<!-- Title: batch_adding Pages: 1 -->
<svg width="906pt" height="139pt"
 viewBox="0.00 0.00 906.25 139.00" xmlns="http://www.w3.org/2000/svg" xmlns:xlink="http://www.w3.org/1999/xlink">
<g id="graph0" class="graph" transform="scale(1 1) rotate(0) translate(4 135)">
<title>batch_adding</title>
<polygon fill="white" stroke="none" points="-4,4 -4,-135 902.25,-135 902.25,4 -4,4"/>
<text text-anchor="middle" x="449.12" y="-113.7" font-family="Times,serif" font-size="14.00">batch_adding</text>
<!-- node_0 -->
<g id="node1" class="node">
<title>node_0</title>
<polygon fill="#ececff" stroke="#9370db" points="275.5,-82 183.75,-82 183.75,-41 275.5,-41 275.5,-82"/>
<text text-anchor="middle" x="229.62" y="-64.7" font-family="Times,serif" font-size="14.00">task_list[</text>
<text text-anchor="middle" x="229.62" y="-48.2" font-family="Times,serif" font-size="14.00">Range(3,10) ]</text>
</g>
<!-- node_2 -->
<g id="node3" class="node">
<title>node_2</title>
<polygon fill="#ececff" stroke="#9370db" stroke-width="2" points="548,-106.5 403,-106.5 403,-32.5 548,-32.5 548,-106.5"/>
<text text-anchor="middle" x="475.5" y="-89.2" font-family="Times,serif" font-size="14.00">sub_task_list[</text>
<text text-anchor="middle" x="475.5" y="-72.7" font-family="Times,serif" font-size="14.00">Range(2,1),</text>
<text text-anchor="middle" x="475.5" y="-56.2" font-family="Times,serif" font-size="14.00">foreach=[initial_value],</text>
<text text-anchor="middle" x="475.5" y="-39.7" font-family="Times,serif" font-size="14.00">flat=True ]</text>
</g>
<!-- node_0&#45;&gt;node_2 -->
<g id="edge1" class="edge">
<title>node_0&#45;&gt;node_2</title>
<path fill="none" stroke="black" d="M275.92,-62.99C308.27,-64.05 352.72,-65.51 391.36,-66.77"/>
<polygon fill="black" stroke="black" points="390.99,-70.26 401.1,-67.09 391.22,-63.27 390.99,-70.26"/>
<text text-anchor="middle" x="339.25" y="-69.65" font-family="Times,serif" font-size="14.00">. &#45;&gt; initial_value</text>
</g>
<!-- node_1 -->
<g id="node2" class="node">
<title>node_1</title>
<polygon fill="#ececff" stroke="#9370db" points="54,-38.5 0,-38.5 0,-2.5 54,-2.5 54,-38.5"/>
<text text-anchor="middle" x="27" y="-15.45" font-family="Times,serif" font-size="14.00">Start</text>
</g>
<!-- node_1&#45;&gt;node_0 -->
<g id="edge2" class="edge">
<title>node_1&#45;&gt;node_0</title>
<path fill="none" stroke="black" d="M54.23,-25.86C84.1,-31.96 133.77,-42.12 172.48,-50.03"/>
<polygon fill="black" stroke="black" points="171.62,-53.42 182.11,-51.99 173.02,-46.56 171.62,-53.42"/>
<text text-anchor="middle" x="118.88" y="-51.44" font-family="Times,serif" font-size="14.00">a &#45;&gt; initial_value</text>
</g>
<!-- node_3 -->
<g id="node4" class="node">
<title>node_3</title>
<polygon fill="#ececff" stroke="#9370db" stroke-width="2" points="747,-41 614,-41 614,0 747,0 747,-41"/>
<text text-anchor="middle" x="680.5" y="-23.7" font-family="Times,serif" font-size="14.00">add_task[ async_add,</text>
<text text-anchor="middle" x="680.5" y="-7.2" font-family="Times,serif" font-size="14.00">foreach=[a] ]</text>
</g>
<!-- node_1&#45;&gt;node_3 -->
<g id="edge3" class="edge">
<title>node_1&#45;&gt;node_3</title>
<path fill="none" stroke="black" d="M54.35,-20.5C146.42,-20.5 456.14,-20.5 602.13,-20.5"/>
<polygon fill="black" stroke="black" points="602.11,-24 612.11,-20.5 602.11,-17 602.11,-24"/>
<text text-anchor="middle" x="339.25" y="-23.7" font-family="Times,serif" font-size="14.00">b &#45;&gt; b, c &#45;&gt; c</text>
</g>
<!-- node_2&#45;&gt;node_3 -->
<g id="edge4" class="edge">
<title>node_2&#45;&gt;node_3</title>
<path fill="none" stroke="black" d="M548.36,-52.16C565.84,-47.93 584.61,-43.4 602.33,-39.13"/>
<polygon fill="black" stroke="black" points="603.13,-42.53 612.03,-36.78 601.49,-35.73 603.13,-42.53"/>
<text text-anchor="middle" x="581" y="-49.67" font-family="Times,serif" font-size="14.00">. &#45;&gt; a</text>
</g>
<!-- node_4 -->
<g id="node5" class="node">
<title>node_4</title>
<polygon fill="#ececff" stroke="#9370db" points="898.25,-41 784,-41 784,0 898.25,0 898.25,-41"/>
<text text-anchor="middle" x="841.12" y="-23.7" font-family="Times,serif" font-size="14.00">End[ &lt;built&#45;in</text>
<text text-anchor="middle" x="841.12" y="-7.2" font-family="Times,serif" font-size="14.00">function sorted&gt; ]</text>
</g>
<!-- node_3&#45;&gt;node_4 -->
<g id="edge5" class="edge">
<title>node_3&#45;&gt;node_4</title>
<path fill="none" stroke="black" d="M747.39,-20.5C755.61,-20.5 764.02,-20.5 772.27,-20.5"/>
<polygon fill="black" stroke="black" points="772.26,-24 782.26,-20.5 772.26,-17 772.26,-24"/>
</g>
</g>
</svg>
