<?xml version="1.0" encoding="UTF-8" standalone="no"?>
<!DOCTYPE svg PUBLIC "-//W3C//DTD SVG 1.1//EN"
 "http://www.w3.org/Graphics/SVG/1.1/DTD/svg11.dtd">
<!-- Generated by graphviz version 12.2.1 (20241206.2353)
 -->
<!-- Title: summarize chunk Pages: 1 -->
<svg width="627pt" height="171pt"
 viewBox="0.00 0.00 626.50 170.75" xmlns="http://www.w3.org/2000/svg" xmlns:xlink="http://www.w3.org/1999/xlink">
<g id="graph0" class="graph" transform="scale(1 1) rotate(0) translate(4 166.75)">
<title>summarize chunk</title>
<polygon fill="white" stroke="none" points="-4,4 -4,-166.75 622.5,-166.75 622.5,4 -4,4"/>
<text text-anchor="middle" x="309.25" y="-145.45" font-family="Times,serif" font-size="14.00">summarize chunk</text>
<!-- node_0 -->
<g id="node1" class="node">
<title>node_0</title>
<polygon fill="#ececff" stroke="#9370db" points="336.25,-138.25 174,-138.25 174,-64.25 336.25,-64.25 336.25,-138.25"/>
<text text-anchor="middle" x="255.12" y="-120.95" font-family="Times,serif" font-size="14.00">get_description[</text>
<text text-anchor="middle" x="255.12" y="-104.45" font-family="Times,serif" font-size="14.00">Chat(model=&#39;gpt&#45;4o&#45;mini&#39;,</text>
<text text-anchor="middle" x="255.12" y="-87.95" font-family="Times,serif" font-size="14.00">required_keys={&#39;text&#39;},</text>
<text text-anchor="middle" x="255.12" y="-71.45" font-family="Times,serif" font-size="14.00">seed=42) ]</text>
</g>
<!-- node_2 -->
<g id="node3" class="node">
<title>node_2</title>
<polygon fill="#ececff" stroke="#9370db" points="618.5,-90.5 432.25,-90.5 432.25,0 618.5,0 618.5,-90.5"/>
<text text-anchor="middle" x="525.38" y="-73.2" font-family="Times,serif" font-size="14.00">End[</text>
<text text-anchor="middle" x="525.38" y="-56.7" font-family="Times,serif" font-size="14.00">StructureJson(text=description,</text>
<text text-anchor="middle" x="525.38" y="-40.2" font-family="Times,serif" font-size="14.00">id=doc.id,</text>
<text text-anchor="middle" x="525.38" y="-23.7" font-family="Times,serif" font-size="14.00">metadata.full_text=doc.text)</text>
<text text-anchor="middle" x="525.38" y="-7.2" font-family="Times,serif" font-size="14.00">]</text>
</g>
<!-- node_0&#45;&gt;node_2 -->
<g id="edge1" class="edge">
<title>node_0&#45;&gt;node_2</title>
<path fill="none" stroke="black" d="M336.61,-84.45C363.18,-78.9 393.1,-72.65 421.13,-66.8"/>
<polygon fill="black" stroke="black" points="421.62,-70.28 430.7,-64.81 420.19,-63.42 421.62,-70.28"/>
<text text-anchor="middle" x="384.25" y="-99.61" font-family="Times,serif" font-size="14.00">content &#45;&gt;</text>
<text text-anchor="middle" x="384.25" y="-83.11" font-family="Times,serif" font-size="14.00">description</text>
</g>
<!-- node_1 -->
<g id="node2" class="node">
<title>node_1</title>
<polygon fill="#ececff" stroke="#9370db" points="54,-63.25 0,-63.25 0,-27.25 54,-27.25 54,-63.25"/>
<text text-anchor="middle" x="27" y="-40.2" font-family="Times,serif" font-size="14.00">Start</text>
</g>
<!-- node_1&#45;&gt;node_0 -->
<g id="edge2" class="edge">
<title>node_1&#45;&gt;node_0</title>
<path fill="none" stroke="black" d="M54.38,-51.78C80.95,-58.36 123.47,-68.89 162.47,-78.55"/>
<polygon fill="black" stroke="black" points="161.61,-81.94 172.15,-80.95 163.29,-75.15 161.61,-81.94"/>
<text text-anchor="middle" x="114" y="-79.8" font-family="Times,serif" font-size="14.00">doc.text &#45;&gt; text</text>
</g>
<!-- node_1&#45;&gt;node_2 -->
<g id="edge3" class="edge">
<title>node_1&#45;&gt;node_2</title>
<path fill="none" stroke="black" d="M54.36,-43.72C83.59,-42.11 132.15,-39.68 174,-38.75 246.09,-37.15 264.15,-37.5 336.25,-38.75 363.68,-39.22 393.34,-40.09 420.83,-41.03"/>
<polygon fill="black" stroke="black" points="420.43,-44.52 430.54,-41.37 420.67,-37.52 420.43,-44.52"/>
<text text-anchor="middle" x="255.12" y="-41.95" font-family="Times,serif" font-size="14.00">doc &#45;&gt; doc</text>
</g>
</g>
</svg>
