<?xml version="1.0" encoding="UTF-8" standalone="no"?>
<!DOCTYPE svg PUBLIC "-//W3C//DTD SVG 1.1//EN"
 "http://www.w3.org/Graphics/SVG/1.1/DTD/svg11.dtd">
<!-- Generated by graphviz version 12.2.1 (20241206.2353)
 -->
<!-- Title: batch_adding Pages: 1 -->
<svg width="777pt" height="90pt"
 viewBox="0.00 0.00 776.75 90.00" xmlns="http://www.w3.org/2000/svg" xmlns:xlink="http://www.w3.org/1999/xlink">
<g id="graph0" class="graph" transform="scale(1 1) rotate(0) translate(4 86)">
<title>batch_adding</title>
<polygon fill="white" stroke="none" points="-4,4 -4,-86 772.75,-86 772.75,4 -4,4"/>
<text text-anchor="middle" x="384.38" y="-64.7" font-family="Times,serif" font-size="14.00">batch_adding</text>
<!-- node_0 -->
<g id="node1" class="node">
<title>node_0</title>
<polygon fill="#ececff" stroke="#9370db" points="268.75,-49.25 183.75,-49.25 183.75,-8.25 268.75,-8.25 268.75,-49.25"/>
<text text-anchor="middle" x="226.25" y="-31.95" font-family="Times,serif" font-size="14.00">task_list1[</text>
<text text-anchor="middle" x="226.25" y="-15.45" font-family="Times,serif" font-size="14.00">Range(2,1) ]</text>
</g>
<!-- node_2 -->
<g id="node3" class="node">
<title>node_2</title>
<polygon fill="#ececff" stroke="#9370db" stroke-width="2" points="431.75,-57.5 334.75,-57.5 334.75,0 431.75,0 431.75,-57.5"/>
<text text-anchor="middle" x="383.25" y="-40.2" font-family="Times,serif" font-size="14.00">add_task[</text>
<text text-anchor="middle" x="383.25" y="-23.7" font-family="Times,serif" font-size="14.00">async_add100,</text>
<text text-anchor="middle" x="383.25" y="-7.2" font-family="Times,serif" font-size="14.00">foreach=[a] ]</text>
</g>
<!-- node_0&#45;&gt;node_2 -->
<g id="edge1" class="edge">
<title>node_0&#45;&gt;node_2</title>
<path fill="none" stroke="black" d="M269.2,-28.75C285.82,-28.75 305.24,-28.75 323.24,-28.75"/>
<polygon fill="black" stroke="black" points="323.01,-32.25 333.01,-28.75 323.01,-25.25 323.01,-32.25"/>
<text text-anchor="middle" x="301.75" y="-31.95" font-family="Times,serif" font-size="14.00">. &#45;&gt; a</text>
</g>
<!-- node_1 -->
<g id="node2" class="node">
<title>node_1</title>
<polygon fill="#ececff" stroke="#9370db" points="54,-46.75 0,-46.75 0,-10.75 54,-10.75 54,-46.75"/>
<text text-anchor="middle" x="27" y="-23.7" font-family="Times,serif" font-size="14.00">Start</text>
</g>
<!-- node_1&#45;&gt;node_0 -->
<g id="edge2" class="edge">
<title>node_1&#45;&gt;node_0</title>
<path fill="none" stroke="black" d="M54.19,-28.75C84.11,-28.75 133.84,-28.75 171.99,-28.75"/>
<polygon fill="black" stroke="black" points="171.91,-32.25 181.91,-28.75 171.91,-25.25 171.91,-32.25"/>
<text text-anchor="middle" x="118.88" y="-31.95" font-family="Times,serif" font-size="14.00">a &#45;&gt; initial_value</text>
</g>
<!-- node_3 -->
<g id="node4" class="node">
<title>node_3</title>
<polygon fill="#ececff" stroke="#9370db" points="589.75,-49.25 468.75,-49.25 468.75,-8.25 589.75,-8.25 589.75,-49.25"/>
<text text-anchor="middle" x="529.25" y="-31.95" font-family="Times,serif" font-size="14.00">sort_task[ &lt;built&#45;in</text>
<text text-anchor="middle" x="529.25" y="-15.45" font-family="Times,serif" font-size="14.00">function sorted&gt; ]</text>
</g>
<!-- node_2&#45;&gt;node_3 -->
<g id="edge3" class="edge">
<title>node_2&#45;&gt;node_3</title>
<path fill="none" stroke="black" d="M432.2,-28.75C440.19,-28.75 448.62,-28.75 457.04,-28.75"/>
<polygon fill="black" stroke="black" points="456.95,-32.25 466.95,-28.75 456.95,-25.25 456.95,-32.25"/>
</g>
<!-- node_4 -->
<g id="node5" class="node">
<title>node_4</title>
<polygon fill="#ececff" stroke="#9370db" points="768.75,-49.25 626.75,-49.25 626.75,-8.25 768.75,-8.25 768.75,-49.25"/>
<text text-anchor="middle" x="697.75" y="-31.95" font-family="Times,serif" font-size="14.00">End[ OutputQueue.add</text>
<text text-anchor="middle" x="697.75" y="-15.45" font-family="Times,serif" font-size="14.00">]</text>
</g>
<!-- node_3&#45;&gt;node_4 -->
<g id="edge4" class="edge">
<title>node_3&#45;&gt;node_4</title>
<path fill="none" stroke="black" d="M589.89,-28.75C598.04,-28.75 606.51,-28.75 614.97,-28.75"/>
<polygon fill="black" stroke="black" points="614.94,-32.25 624.94,-28.75 614.94,-25.25 614.94,-32.25"/>
</g>
</g>
</svg>
