<?xml version="1.0" encoding="UTF-8" standalone="no"?>
<!DOCTYPE svg PUBLIC "-//W3C//DTD SVG 1.1//EN"
 "http://www.w3.org/Graphics/SVG/1.1/DTD/svg11.dtd">
<!-- Generated by graphviz version 12.2.1 (20241206.2353)
 -->
<!-- Title: inner_break Pages: 1 -->
<svg width="150pt" height="334pt"
 viewBox="0.00 0.00 150.00 334.00" xmlns="http://www.w3.org/2000/svg" xmlns:xlink="http://www.w3.org/1999/xlink">
<g id="graph0" class="graph" transform="scale(1 1) rotate(0) translate(4 330)">
<title>inner_break</title>
<polygon fill="white" stroke="none" points="-4,4 -4,-330 146,-330 146,4 -4,4"/>
<text text-anchor="middle" x="71" y="-308.7" font-family="Times,serif" font-size="14.00">inner_break</text>
<!-- node_0 -->
<g id="node1" class="node">
<title>node_0</title>
<polygon fill="#ececff" stroke="#9370db" points="142,-213 0,-213 0,-177 142,-177 142,-213"/>
<text text-anchor="middle" x="71" y="-189.95" font-family="Times,serif" font-size="14.00">add[MessageAdder(0)]</text>
</g>
<!-- node_2 -->
<g id="node3" class="node">
<title>node_2</title>
<polygon fill="#ececff" stroke="#9370db" stroke-dasharray="5,2" points="98,-124.5 44,-124.5 44,-88.5 98,-88.5 98,-124.5"/>
<text text-anchor="middle" x="71" y="-101.45" font-family="Times,serif" font-size="14.00">break</text>
</g>
<!-- node_0&#45;&gt;node_2 -->
<g id="edge1" class="edge">
<title>node_0&#45;&gt;node_2</title>
<path fill="none" stroke="black" stroke-width="2" d="M69.81,-176.56C69.48,-170.96 69.16,-164.72 69,-159 68.79,-151.67 68.79,-149.83 69,-142.5 69.06,-140.44 69.14,-138.32 69.23,-136.19"/>
<polygon fill="black" stroke="black" stroke-width="2" points="72.63,-138.13 69.65,-127.96 65.64,-137.77 72.63,-138.13"/>
</g>
<!-- node_1 -->
<g id="node2" class="node">
<title>node_1</title>
<polygon fill="#ececff" stroke="#9370db" points="98,-301.5 44,-301.5 44,-265.5 98,-265.5 98,-301.5"/>
<text text-anchor="middle" x="71" y="-278.45" font-family="Times,serif" font-size="14.00">Start</text>
</g>
<!-- node_1&#45;&gt;node_0 -->
<g id="edge2" class="edge">
<title>node_1&#45;&gt;node_0</title>
<path fill="none" stroke="black" stroke-width="2" d="M71,-265.41C71,-253.76 71,-238.05 71,-224.52"/>
<polygon fill="black" stroke="black" stroke-width="2" points="74.5,-226.38 71,-216.38 67.5,-226.38 74.5,-226.38"/>
<text text-anchor="middle" x="86" y="-234.2" font-family="Times,serif" font-size="14.00">.&#45;&gt;**</text>
</g>
<!-- node_2&#45;&gt;node_0 -->
<g id="edge3" class="edge">
<title>node_2&#45;&gt;node_0</title>
<path fill="none" stroke="black" stroke-width="2" d="M71,-124.85C71,-136.56 71,-152.29 71,-165.78"/>
<polygon fill="black" stroke="black" stroke-width="2" points="67.5,-163.88 71,-173.88 74.5,-163.88 67.5,-163.88"/>
<text text-anchor="middle" x="86" y="-145.7" font-family="Times,serif" font-size="14.00">.&#45;&gt;**</text>
</g>
<!-- node_3 -->
<g id="node4" class="node">
<title>node_3</title>
<polygon fill="#ececff" stroke="#9370db" points="98,-36 44,-36 44,0 98,0 98,-36"/>
<text text-anchor="middle" x="71" y="-12.95" font-family="Times,serif" font-size="14.00">End</text>
</g>
<!-- node_2&#45;&gt;node_3 -->
<g id="edge4" class="edge">
<title>node_2&#45;&gt;node_3</title>
<path fill="none" stroke="black" stroke-width="2" d="M71,-88.41C71,-76.76 71,-61.05 71,-47.52"/>
<polygon fill="black" stroke="black" stroke-width="2" points="74.5,-49.38 71,-39.38 67.5,-49.38 74.5,-49.38"/>
<text text-anchor="middle" x="89.75" y="-57.2" font-family="Times,serif" font-size="14.00">?(is_3)</text>
</g>
</g>
</svg>
