<?xml version="1.0" encoding="UTF-8" standalone="no"?>
<!DOCTYPE svg PUBLIC "-//W3C//DTD SVG 1.1//EN"
 "http://www.w3.org/Graphics/SVG/1.1/DTD/svg11.dtd">
<!-- Generated by graphviz version 12.2.1 (20241206.2353)
 -->
<!-- Title: basic_flow2 Pages: 1 -->
<svg width="90pt" height="213pt"
 viewBox="0.00 0.00 90.00 212.50" xmlns="http://www.w3.org/2000/svg" xmlns:xlink="http://www.w3.org/1999/xlink">
<g id="graph0" class="graph" transform="scale(1 1) rotate(0) translate(4 208.5)">
<title>basic_flow2</title>
<polygon fill="white" stroke="none" points="-4,4 -4,-208.5 86,-208.5 86,4 -4,4"/>
<text text-anchor="middle" x="41" y="-187.2" font-family="Times,serif" font-size="14.00">basic_flow2</text>
<!-- node_0 -->
<g id="node1" class="node">
<title>node_0</title>
<polygon fill="#ececff" stroke="#9370db" points="68,-180 14,-180 14,-144 68,-144 68,-180"/>
<text text-anchor="middle" x="41" y="-156.95" font-family="Times,serif" font-size="14.00">Start</text>
</g>
<!-- node_1 -->
<g id="node2" class="node">
<title>node_1</title>
<polygon fill="#ececff" stroke="#9370db" points="69.62,-108 12.38,-108 12.38,-72 69.62,-72 69.62,-108"/>
<text text-anchor="middle" x="41" y="-84.95" font-family="Times,serif" font-size="14.00">transfer</text>
</g>
<!-- node_0&#45;&gt;node_1 -->
<g id="edge1" class="edge">
<title>node_0&#45;&gt;node_1</title>
<path fill="none" stroke="black" d="M41,-143.7C41,-136.41 41,-127.73 41,-119.54"/>
<polygon fill="black" stroke="black" points="44.5,-119.62 41,-109.62 37.5,-119.62 44.5,-119.62"/>
</g>
<!-- node_2 -->
<g id="node3" class="node">
<title>node_2</title>
<polygon fill="#ececff" stroke="#9370db" points="68,-36 14,-36 14,0 68,0 68,-36"/>
<text text-anchor="middle" x="41" y="-12.95" font-family="Times,serif" font-size="14.00">End</text>
</g>
<!-- node_1&#45;&gt;node_2 -->
<g id="edge2" class="edge">
<title>node_1&#45;&gt;node_2</title>
<path fill="none" stroke="black" d="M41,-71.7C41,-64.41 41,-55.73 41,-47.54"/>
<polygon fill="black" stroke="black" points="44.5,-47.62 41,-37.62 37.5,-47.62 44.5,-47.62"/>
</g>
</g>
</svg>
