<?xml version="1.0" encoding="UTF-8" standalone="no"?>
<!DOCTYPE svg PUBLIC "-//W3C//DTD SVG 1.1//EN"
 "http://www.w3.org/Graphics/SVG/1.1/DTD/svg11.dtd">
<!-- Generated by graphviz version 12.2.1 (20241206.2353)
 -->
<!-- Title: edge_types Pages: 1 -->
<svg width="442pt" height="535pt"
 viewBox="0.00 0.00 441.88 534.50" xmlns="http://www.w3.org/2000/svg" xmlns:xlink="http://www.w3.org/1999/xlink">
<g id="graph0" class="graph" transform="scale(1 1) rotate(0) translate(4 530.5)">
<title>edge_types</title>
<polygon fill="white" stroke="none" points="-4,4 -4,-530.5 437.88,-530.5 437.88,4 -4,4"/>
<text text-anchor="middle" x="216.94" y="-509.2" font-family="Times,serif" font-size="14.00">edge_types</text>
<!-- node_0 -->
<g id="node1" class="node">
<title>node_0</title>
<polygon fill="#ececff" stroke="#9370db" points="334.12,-429 183.12,-429 183.12,-393 334.12,-393 334.12,-429"/>
<text text-anchor="middle" x="258.62" y="-405.95" font-family="Times,serif" font-size="14.00">Conditional_node[plus1]</text>
</g>
<!-- node_3 -->
<g id="node4" class="node">
<title>node_3</title>
<polygon fill="#ececff" stroke="#9370db" points="250.75,-321 190.5,-321 190.5,-285 250.75,-285 250.75,-321"/>
<text text-anchor="middle" x="220.62" y="-297.95" font-family="Times,serif" font-size="14.00">Option1</text>
</g>
<!-- node_0&#45;&gt;node_3 -->
<g id="edge3" class="edge">
<title>node_0&#45;&gt;node_3</title>
<path fill="none" stroke="black" stroke-width="2" d="M239.8,-392.6C235.25,-387.39 230.89,-381.35 228.12,-375 222.4,-361.86 220.32,-346.11 219.75,-332.79"/>
<polygon fill="black" stroke="black" stroke-width="2" points="223.27,-334.36 219.64,-324.4 216.27,-334.45 223.27,-334.36"/>
<text text-anchor="middle" x="251.38" y="-351.95" font-family="Times,serif" font-size="14.00">?(mod2)</text>
</g>
<!-- node_4 -->
<g id="node5" class="node">
<title>node_4</title>
<polygon fill="#ececff" stroke="#9370db" points="345.5,-267 247.75,-267 247.75,-231 345.5,-231 345.5,-267"/>
<text text-anchor="middle" x="296.62" y="-243.95" font-family="Times,serif" font-size="14.00">Default_option</text>
</g>
<!-- node_0&#45;&gt;node_4 -->
<g id="edge4" class="edge">
<title>node_0&#45;&gt;node_4</title>
<path fill="none" stroke="black" stroke-width="2" d="M267.66,-392.54C270.22,-387.04 272.8,-380.87 274.62,-375 284.68,-342.67 290.59,-304.11 293.71,-278.45"/>
<polygon fill="black" stroke="black" stroke-width="2" points="296.98,-280.65 294.64,-270.32 290.03,-279.85 296.98,-280.65"/>
</g>
<!-- node_1 -->
<g id="node2" class="node">
<title>node_1</title>
<polygon fill="#ececff" stroke="#9370db" points="337.62,-502 283.62,-502 283.62,-466 337.62,-466 337.62,-502"/>
<text text-anchor="middle" x="310.62" y="-478.95" font-family="Times,serif" font-size="14.00">Start</text>
</g>
<!-- node_1&#45;&gt;node_0 -->
<g id="edge5" class="edge">
<title>node_1&#45;&gt;node_0</title>
<path fill="none" stroke="black" stroke-width="2" d="M298.04,-465.81C291.97,-457.53 284.56,-447.41 277.81,-438.19"/>
<polygon fill="black" stroke="black" stroke-width="2" points="281.62,-437.47 272.89,-431.47 275.97,-441.61 281.62,-437.47"/>
</g>
<!-- node_2 -->
<g id="node3" class="node">
<title>node_2</title>
<path fill="#ececff" stroke="#9370db" d="M400.25,-371.73C400.25,-373.53 383.39,-375 362.62,-375 341.86,-375 325,-373.53 325,-371.73 325,-371.73 325,-342.27 325,-342.27 325,-340.47 341.86,-339 362.62,-339 383.39,-339 400.25,-340.47 400.25,-342.27 400.25,-342.27 400.25,-371.73 400.25,-371.73"/>
<path fill="none" stroke="#9370db" d="M400.25,-371.73C400.25,-369.92 383.39,-368.45 362.62,-368.45 341.86,-368.45 325,-369.92 325,-371.73"/>
<text text-anchor="middle" x="362.62" y="-351.95" font-family="Times,serif" font-size="14.00">State[start]</text>
</g>
<!-- node_1&#45;&gt;node_2 -->
<g id="edge1" class="edge">
<title>node_1&#45;&gt;node_2</title>
<path fill="none" stroke="black" stroke-dasharray="5,2" d="M322.97,-465.69C329.83,-455.43 338.08,-441.93 343.62,-429 349.46,-415.39 353.91,-399.54 357.03,-386.27"/>
<polygon fill="black" stroke="black" points="360.36,-387.39 359.1,-376.87 353.53,-385.88 360.36,-387.39"/>
</g>
<!-- node_8 -->
<g id="node9" class="node">
<title>node_8</title>
<polygon fill="#ececff" stroke="#9370db" points="343.62,-36 289.62,-36 289.62,0 343.62,0 343.62,-36"/>
<text text-anchor="middle" x="316.62" y="-12.95" font-family="Times,serif" font-size="14.00">End</text>
</g>
<!-- node_2&#45;&gt;node_8 -->
<g id="edge2" class="edge">
<title>node_2&#45;&gt;node_8</title>
<path fill="none" stroke="black" stroke-dasharray="5,2" d="M362.62,-338.74C362.62,-317.76 362.62,-281.28 362.62,-250 362.62,-250 362.62,-250 362.62,-105.5 362.62,-83.46 350.84,-61.57 339.2,-45.33"/>
<polygon fill="black" stroke="black" points="342.21,-43.5 333.37,-37.66 336.64,-47.74 342.21,-43.5"/>
<text text-anchor="middle" x="398.25" y="-189.95" font-family="Times,serif" font-size="14.00">.&#45;&gt;start_state</text>
</g>
<!-- node_5 -->
<g id="node6" class="node">
<title>node_5</title>
<polygon fill="#ececff" stroke="#9370db" points="135.25,-213 0,-213 0,-177 135.25,-177 135.25,-213"/>
<text text-anchor="middle" x="67.62" y="-189.95" font-family="Times,serif" font-size="14.00">Parallel_node1[plus1]</text>
</g>
<!-- node_3&#45;&gt;node_5 -->
<g id="edge6" class="edge">
<title>node_3&#45;&gt;node_5</title>
<path fill="none" stroke="black" d="M195.7,-284.73C170.22,-267.08 130.44,-239.52 101.97,-219.8"/>
<polygon fill="black" stroke="black" points="104.25,-217.12 94.04,-214.3 100.26,-222.87 104.25,-217.12"/>
</g>
<!-- node_6 -->
<g id="node7" class="node">
<title>node_6</title>
<polygon fill="#ececff" stroke="#9370db" points="288.25,-213 153,-213 153,-177 288.25,-177 288.25,-213"/>
<text text-anchor="middle" x="220.62" y="-189.95" font-family="Times,serif" font-size="14.00">Parallel_node2[plus2]</text>
</g>
<!-- node_3&#45;&gt;node_6 -->
<g id="edge7" class="edge">
<title>node_3&#45;&gt;node_6</title>
<path fill="none" stroke="black" d="M220.62,-284.97C220.62,-268.76 220.62,-244.06 220.62,-224.79"/>
<polygon fill="black" stroke="black" points="224.13,-224.85 220.63,-214.85 217.13,-224.85 224.13,-224.85"/>
</g>
<!-- node_4&#45;&gt;node_8 -->
<g id="edge8" class="edge">
<title>node_4&#45;&gt;node_8</title>
<path fill="none" stroke="black" stroke-width="2" d="M298.13,-230.79C301.54,-191.75 309.89,-96.13 314.1,-47.87"/>
<polygon fill="black" stroke="black" stroke-width="2" points="317.46,-49.69 314.84,-39.43 310.48,-49.09 317.46,-49.69"/>
</g>
<!-- node_7 -->
<g id="node8" class="node">
<title>node_7</title>
<polygon fill="#ececff" stroke="#9370db" points="262.38,-124.5 178.88,-124.5 178.88,-88.5 262.38,-88.5 262.38,-124.5"/>
<text text-anchor="middle" x="220.62" y="-101.45" font-family="Times,serif" font-size="14.00">Parallel_end</text>
</g>
<!-- node_5&#45;&gt;node_7 -->
<g id="edge9" class="edge">
<title>node_5&#45;&gt;node_7</title>
<path fill="none" stroke="black" d="M98.22,-176.7C121.7,-163.43 154.34,-144.98 180.01,-130.46"/>
<polygon fill="black" stroke="black" points="181.52,-133.63 188.5,-125.66 178.08,-127.53 181.52,-133.63"/>
<text text-anchor="middle" x="169.45" y="-145.7" font-family="Times,serif" font-size="14.00">.&#45;&gt;x</text>
</g>
<!-- node_6&#45;&gt;node_7 -->
<g id="edge10" class="edge">
<title>node_6&#45;&gt;node_7</title>
<path fill="none" stroke="black" d="M220.62,-176.91C220.62,-165.26 220.62,-149.55 220.62,-136.02"/>
<polygon fill="black" stroke="black" points="224.13,-136.36 220.63,-126.36 217.13,-136.36 224.13,-136.36"/>
<text text-anchor="middle" x="232.25" y="-145.7" font-family="Times,serif" font-size="14.00">.&#45;&gt;y</text>
</g>
<!-- node_7&#45;&gt;node_8 -->
<g id="edge11" class="edge">
<title>node_7&#45;&gt;node_8</title>
<path fill="none" stroke="black" stroke-width="2" d="M237.04,-88.33C247.06,-78.08 260.28,-64.97 272.62,-54 276.61,-50.46 280.9,-46.84 285.18,-43.33"/>
<polygon fill="black" stroke="black" stroke-width="2" points="285.9,-47.24 291.5,-38.24 281.51,-41.79 285.9,-47.24"/>
<text text-anchor="middle" x="287.62" y="-57.2" font-family="Times,serif" font-size="14.00">.&#45;&gt;**</text>
</g>
</g>
</svg>
