<?xml version="1.0" encoding="UTF-8" standalone="no"?>
<!DOCTYPE svg PUBLIC "-//W3C//DTD SVG 1.1//EN"
 "http://www.w3.org/Graphics/SVG/1.1/DTD/svg11.dtd">
<!-- Generated by graphviz version 12.2.1 (20241206.2353)
 -->
<!-- Title: async_adder Pages: 1 -->
<svg width="107pt" height="230pt"
 viewBox="0.00 0.00 106.50 230.00" xmlns="http://www.w3.org/2000/svg" xmlns:xlink="http://www.w3.org/1999/xlink">
<g id="graph0" class="graph" transform="scale(1 1) rotate(0) translate(4 226)">
<title>async_adder</title>
<polygon fill="white" stroke="none" points="-4,4 -4,-226 102.5,-226 102.5,4 -4,4"/>
<text text-anchor="middle" x="49.25" y="-204.7" font-family="Times,serif" font-size="14.00">async_adder</text>
<!-- node_0 -->
<g id="node1" class="node">
<title>node_0</title>
<polygon fill="#ececff" stroke="#9370db" points="98.5,-109 0,-109 0,-73 98.5,-73 98.5,-109"/>
<text text-anchor="middle" x="49.25" y="-85.95" font-family="Times,serif" font-size="14.00">add[add_sleep]</text>
</g>
<!-- node_2 -->
<g id="node3" class="node">
<title>node_2</title>
<polygon fill="#ececff" stroke="#9370db" points="76.25,-36 22.25,-36 22.25,0 76.25,0 76.25,-36"/>
<text text-anchor="middle" x="49.25" y="-12.95" font-family="Times,serif" font-size="14.00">End</text>
</g>
<!-- node_0&#45;&gt;node_2 -->
<g id="edge1" class="edge">
<title>node_0&#45;&gt;node_2</title>
<path fill="none" stroke="black" stroke-width="2" d="M49.25,-72.81C49.25,-65.23 49.25,-56.1 49.25,-47.54"/>
<polygon fill="black" stroke="black" stroke-width="2" points="52.75,-49.06 49.25,-39.06 45.75,-49.06 52.75,-49.06"/>
</g>
<!-- node_1 -->
<g id="node2" class="node">
<title>node_1</title>
<polygon fill="#ececff" stroke="#9370db" points="76.25,-197.5 22.25,-197.5 22.25,-161.5 76.25,-161.5 76.25,-197.5"/>
<text text-anchor="middle" x="49.25" y="-174.45" font-family="Times,serif" font-size="14.00">Start</text>
</g>
<!-- node_1&#45;&gt;node_0 -->
<g id="edge2" class="edge">
<title>node_1&#45;&gt;node_0</title>
<path fill="none" stroke="black" stroke-width="2" d="M49.25,-161.41C49.25,-149.76 49.25,-134.05 49.25,-120.52"/>
<polygon fill="black" stroke="black" stroke-width="2" points="52.75,-122.38 49.25,-112.38 45.75,-122.38 52.75,-122.38"/>
<text text-anchor="middle" x="62.38" y="-130.2" font-family="Times,serif" font-size="14.00">x&#45;&gt;x</text>
</g>
</g>
</svg>
