<?xml version="1.0" encoding="UTF-8" standalone="no"?>
<!DOCTYPE svg PUBLIC "-//W3C//DTD SVG 1.1//EN"
 "http://www.w3.org/Graphics/SVG/1.1/DTD/svg11.dtd">
<!-- Generated by graphviz version 12.2.1 (20241206.2353)
 -->
<!-- Title: Distilation Rag Uploader Pages: 1 -->
<svg width="276pt" height="319pt"
 viewBox="0.00 0.00 276.00 318.50" xmlns="http://www.w3.org/2000/svg" xmlns:xlink="http://www.w3.org/1999/xlink">
<g id="graph0" class="graph" transform="scale(1 1) rotate(0) translate(4 314.5)">
<title>Distilation Rag Uploader</title>
<polygon fill="white" stroke="none" points="-4,4 -4,-314.5 272,-314.5 272,4 -4,4"/>
<text text-anchor="middle" x="134" y="-293.2" font-family="Times,serif" font-size="14.00">Distilation Rag Uploader</text>
<!-- node_0 -->
<g id="node1" class="node">
<title>node_0</title>
<polygon fill="#ececff" stroke="#9370db" stroke-width="2" points="264.62,-197.5 3.38,-197.5 3.38,-161.5 264.62,-161.5 264.62,-197.5"/>
<text text-anchor="middle" x="134" y="-174.45" font-family="Times,serif" font-size="14.00">split_texts[splitter, foreach=[doc], flat=True]</text>
</g>
<!-- node_2 -->
<g id="node3" class="node">
<title>node_2</title>
<polygon fill="#ececff" stroke="#9370db" stroke-width="2" points="268,-109 0,-109 0,-73 268,-73 268,-109"/>
<text text-anchor="middle" x="134" y="-85.95" font-family="Times,serif" font-size="14.00">summarize_texts[summarizer, foreach=[text]]</text>
</g>
<!-- node_0&#45;&gt;node_2 -->
<g id="edge1" class="edge">
<title>node_0&#45;&gt;node_2</title>
<path fill="none" stroke="black" d="M134,-161.41C134,-149.76 134,-134.05 134,-120.52"/>
<polygon fill="black" stroke="black" points="137.5,-120.86 134,-110.86 130.5,-120.86 137.5,-120.86"/>
<text text-anchor="middle" x="160.62" y="-130.2" font-family="Times,serif" font-size="14.00">text&#45;&gt;text</text>
</g>
<!-- node_1 -->
<g id="node2" class="node">
<title>node_1</title>
<polygon fill="#ececff" stroke="#9370db" points="161,-286 107,-286 107,-250 161,-250 161,-286"/>
<text text-anchor="middle" x="134" y="-262.95" font-family="Times,serif" font-size="14.00">Start</text>
</g>
<!-- node_1&#45;&gt;node_0 -->
<g id="edge2" class="edge">
<title>node_1&#45;&gt;node_0</title>
<path fill="none" stroke="black" d="M134,-249.91C134,-238.26 134,-222.55 134,-209.02"/>
<polygon fill="black" stroke="black" points="137.5,-209.36 134,-199.36 130.5,-209.36 137.5,-209.36"/>
<text text-anchor="middle" x="152" y="-218.7" font-family="Times,serif" font-size="14.00">.&#45;&gt;doc</text>
</g>
<!-- node_3 -->
<g id="node4" class="node">
<title>node_3</title>
<polygon fill="#ececff" stroke="#9370db" points="167.5,-36 100.5,-36 100.5,0 167.5,0 167.5,-36"/>
<text text-anchor="middle" x="134" y="-12.95" font-family="Times,serif" font-size="14.00">End[sort]</text>
</g>
<!-- node_2&#45;&gt;node_3 -->
<g id="edge3" class="edge">
<title>node_2&#45;&gt;node_3</title>
<path fill="none" stroke="black" d="M134,-72.81C134,-65.23 134,-56.1 134,-47.54"/>
<polygon fill="black" stroke="black" points="137.5,-47.54 134,-37.54 130.5,-47.54 137.5,-47.54"/>
</g>
</g>
</svg>
