<?xml version="1.0" encoding="UTF-8" standalone="no"?>
<!DOCTYPE svg PUBLIC "-//W3C//DTD SVG 1.1//EN"
 "http://www.w3.org/Graphics/SVG/1.1/DTD/svg11.dtd">
<!-- Generated by graphviz version 12.2.1 (20241206.2353)
 -->
<!-- Title: far ancestor writing to state Pages: 1 -->
<svg width="251pt" height="423pt"
 viewBox="0.00 0.00 250.50 422.50" xmlns="http://www.w3.org/2000/svg" xmlns:xlink="http://www.w3.org/1999/xlink">
<g id="graph0" class="graph" transform="scale(1 1) rotate(0) translate(4 418.5)">
<title>far ancestor writing to state</title>
<polygon fill="white" stroke="none" points="-4,4 -4,-418.5 246.5,-418.5 246.5,4 -4,4"/>
<text text-anchor="middle" x="121.25" y="-397.2" font-family="Times,serif" font-size="14.00">far ancestor writing to state</text>
<!-- node_0 -->
<g id="node1" class="node">
<title>node_0</title>
<polygon fill="#ececff" stroke="#9370db" points="128.5,-301.5 0,-301.5 0,-265.5 128.5,-265.5 128.5,-301.5"/>
<text text-anchor="middle" x="64.25" y="-278.45" font-family="Times,serif" font-size="14.00">a[MessageAdder(0)]</text>
</g>
<!-- node_1 -->
<g id="node2" class="node">
<title>node_1</title>
<path fill="#ececff" stroke="#9370db" d="M131,-32.73C131,-34.53 110.94,-36 86.25,-36 61.56,-36 41.5,-34.53 41.5,-32.73 41.5,-32.73 41.5,-3.27 41.5,-3.27 41.5,-1.47 61.56,0 86.25,0 110.94,0 131,-1.47 131,-3.27 131,-3.27 131,-32.73 131,-32.73"/>
<path fill="none" stroke="#9370db" d="M131,-32.73C131,-30.92 110.94,-29.45 86.25,-29.45 61.56,-29.45 41.5,-30.92 41.5,-32.73"/>
<text text-anchor="middle" x="86.25" y="-12.95" font-family="Times,serif" font-size="14.00">State[history]</text>
</g>
<!-- node_0&#45;&gt;node_1 -->
<g id="edge1" class="edge">
<title>node_0&#45;&gt;node_1</title>
<path fill="none" stroke="black" stroke-dasharray="5,2" d="M64.26,-265.3C64.38,-244.39 64.95,-208.06 67.25,-177 70.62,-131.56 77.53,-79.09 82.03,-47.51"/>
<polygon fill="black" stroke="black" points="85.44,-48.38 83.4,-37.98 78.51,-47.38 85.44,-48.38"/>
</g>
<!-- node_2 -->
<g id="node3" class="node">
<title>node_2</title>
<polygon fill="#ececff" stroke="#9370db" points="205.88,-213 76.62,-213 76.62,-177 205.88,-177 205.88,-213"/>
<text text-anchor="middle" x="141.25" y="-189.95" font-family="Times,serif" font-size="14.00">b[MessageAdder(0)]</text>
</g>
<!-- node_0&#45;&gt;node_2 -->
<g id="edge4" class="edge">
<title>node_0&#45;&gt;node_2</title>
<path fill="none" stroke="black" d="M79.46,-265.41C90.57,-252.93 105.82,-235.8 118.39,-221.68"/>
<polygon fill="black" stroke="black" points="120.76,-224.28 124.8,-214.48 115.54,-219.62 120.76,-224.28"/>
<text text-anchor="middle" x="124.65" y="-234.2" font-family="Times,serif" font-size="14.00">.&#45;&gt;**</text>
</g>
<!-- node_2&#45;&gt;node_1 -->
<g id="edge2" class="edge">
<title>node_2&#45;&gt;node_1</title>
<path fill="none" stroke="black" stroke-dasharray="5,2" d="M130.4,-176.65C122.3,-162.97 111.6,-143.15 105.25,-124.5 96.64,-99.2 91.71,-69.08 89.04,-47.52"/>
<polygon fill="black" stroke="black" points="92.53,-47.25 87.92,-37.71 85.58,-48.04 92.53,-47.25"/>
</g>
<!-- node_3 -->
<g id="node4" class="node">
<title>node_3</title>
<polygon fill="#ececff" stroke="#9370db" points="242.5,-124.5 114,-124.5 114,-88.5 242.5,-88.5 242.5,-124.5"/>
<text text-anchor="middle" x="178.25" y="-101.45" font-family="Times,serif" font-size="14.00">c[MessageAdder(0)]</text>
</g>
<!-- node_2&#45;&gt;node_3 -->
<g id="edge5" class="edge">
<title>node_2&#45;&gt;node_3</title>
<path fill="none" stroke="black" d="M148.56,-176.91C153.65,-165.02 160.54,-148.91 166.4,-135.2"/>
<polygon fill="black" stroke="black" points="169.52,-136.81 170.23,-126.24 163.08,-134.06 169.52,-136.81"/>
<text text-anchor="middle" x="178.06" y="-145.7" font-family="Times,serif" font-size="14.00">.&#45;&gt;**</text>
</g>
<!-- node_3&#45;&gt;node_1 -->
<g id="edge3" class="edge">
<title>node_3&#45;&gt;node_1</title>
<path fill="none" stroke="black" stroke-dasharray="5,2" d="M160.07,-88.41C146.55,-75.7 127.9,-58.16 112.72,-43.89"/>
<polygon fill="black" stroke="black" points="115.49,-41.69 105.81,-37.39 110.69,-46.79 115.49,-41.69"/>
</g>
<!-- node_5 -->
<g id="node6" class="node">
<title>node_5</title>
<polygon fill="#ececff" stroke="#9370db" points="205.25,-36 151.25,-36 151.25,0 205.25,0 205.25,-36"/>
<text text-anchor="middle" x="178.25" y="-12.95" font-family="Times,serif" font-size="14.00">End</text>
</g>
<!-- node_3&#45;&gt;node_5 -->
<g id="edge6" class="edge">
<title>node_3&#45;&gt;node_5</title>
<path fill="none" stroke="black" d="M178.25,-88.41C178.25,-76.76 178.25,-61.05 178.25,-47.52"/>
<polygon fill="black" stroke="black" points="181.75,-47.86 178.25,-37.86 174.75,-47.86 181.75,-47.86"/>
<text text-anchor="middle" x="193.25" y="-57.2" font-family="Times,serif" font-size="14.00">.&#45;&gt;**</text>
</g>
<!-- node_4 -->
<g id="node5" class="node">
<title>node_4</title>
<polygon fill="#ececff" stroke="#9370db" points="91.25,-390 37.25,-390 37.25,-354 91.25,-354 91.25,-390"/>
<text text-anchor="middle" x="64.25" y="-366.95" font-family="Times,serif" font-size="14.00">Start</text>
</g>
<!-- node_4&#45;&gt;node_0 -->
<g id="edge7" class="edge">
<title>node_4&#45;&gt;node_0</title>
<path fill="none" stroke="black" d="M64.25,-353.91C64.25,-342.26 64.25,-326.55 64.25,-313.02"/>
<polygon fill="black" stroke="black" points="67.75,-313.36 64.25,-303.36 60.75,-313.36 67.75,-313.36"/>
<text text-anchor="middle" x="79.25" y="-322.7" font-family="Times,serif" font-size="14.00">.&#45;&gt;**</text>
</g>
</g>
</svg>
