<?xml version="1.0" encoding="UTF-8" standalone="no"?>
<!DOCTYPE svg PUBLIC "-//W3C//DTD SVG 1.1//EN"
 "http://www.w3.org/Graphics/SVG/1.1/DTD/svg11.dtd">
<!-- Generated by graphviz version 12.2.1 (20241206.2353)
 -->
<!-- Title: outer_break Pages: 1 -->
<svg width="230pt" height="334pt"
 viewBox="0.00 0.00 230.25 334.00" xmlns="http://www.w3.org/2000/svg" xmlns:xlink="http://www.w3.org/1999/xlink">
<g id="graph0" class="graph" transform="scale(1 1) rotate(0) translate(4 330)">
<title>outer_break</title>
<polygon fill="white" stroke="none" points="-4,4 -4,-330 226.25,-330 226.25,4 -4,4"/>
<text text-anchor="middle" x="111.12" y="-308.7" font-family="Times,serif" font-size="14.00">outer_break</text>
<!-- node_0 -->
<g id="node1" class="node">
<title>node_0</title>
<polygon fill="#ececff" stroke="#9370db" points="222.25,-213 0,-213 0,-177 222.25,-177 222.25,-213"/>
<text text-anchor="middle" x="111.12" y="-189.95" font-family="Times,serif" font-size="14.00">inner[DecisionDiagram(inner_break)]</text>
</g>
<!-- node_2 -->
<g id="node3" class="node">
<title>node_2</title>
<polygon fill="#ececff" stroke="#9370db" stroke-dasharray="5,2" points="138.12,-124.5 84.12,-124.5 84.12,-88.5 138.12,-88.5 138.12,-124.5"/>
<text text-anchor="middle" x="111.12" y="-101.45" font-family="Times,serif" font-size="14.00">break</text>
</g>
<!-- node_0&#45;&gt;node_2 -->
<g id="edge1" class="edge">
<title>node_0&#45;&gt;node_2</title>
<path fill="none" stroke="black" stroke-width="2" d="M109.93,-176.56C109.6,-170.96 109.29,-164.72 109.12,-159 108.92,-151.67 108.92,-149.83 109.12,-142.5 109.18,-140.44 109.26,-138.32 109.35,-136.19"/>
<polygon fill="black" stroke="black" stroke-width="2" points="112.76,-138.13 109.78,-127.96 105.77,-137.77 112.76,-138.13"/>
</g>
<!-- node_1 -->
<g id="node2" class="node">
<title>node_1</title>
<polygon fill="#ececff" stroke="#9370db" points="138.12,-301.5 84.12,-301.5 84.12,-265.5 138.12,-265.5 138.12,-301.5"/>
<text text-anchor="middle" x="111.12" y="-278.45" font-family="Times,serif" font-size="14.00">Start</text>
</g>
<!-- node_1&#45;&gt;node_0 -->
<g id="edge2" class="edge">
<title>node_1&#45;&gt;node_0</title>
<path fill="none" stroke="black" stroke-width="2" d="M111.12,-265.41C111.12,-253.76 111.12,-238.05 111.12,-224.52"/>
<polygon fill="black" stroke="black" stroke-width="2" points="114.63,-226.38 111.13,-216.38 107.63,-226.38 114.63,-226.38"/>
<text text-anchor="middle" x="126.12" y="-234.2" font-family="Times,serif" font-size="14.00">.&#45;&gt;**</text>
</g>
<!-- node_2&#45;&gt;node_0 -->
<g id="edge3" class="edge">
<title>node_2&#45;&gt;node_0</title>
<path fill="none" stroke="black" stroke-width="2" d="M111.12,-124.85C111.12,-136.56 111.12,-152.29 111.12,-165.78"/>
<polygon fill="black" stroke="black" stroke-width="2" points="107.63,-163.88 111.13,-173.88 114.63,-163.88 107.63,-163.88"/>
<text text-anchor="middle" x="126.12" y="-145.7" font-family="Times,serif" font-size="14.00">.&#45;&gt;**</text>
</g>
<!-- node_3 -->
<g id="node4" class="node">
<title>node_3</title>
<polygon fill="#ececff" stroke="#9370db" points="138.12,-36 84.12,-36 84.12,0 138.12,0 138.12,-36"/>
<text text-anchor="middle" x="111.12" y="-12.95" font-family="Times,serif" font-size="14.00">End</text>
</g>
<!-- node_2&#45;&gt;node_3 -->
<g id="edge4" class="edge">
<title>node_2&#45;&gt;node_3</title>
<path fill="none" stroke="black" stroke-width="2" d="M111.12,-88.41C111.12,-76.76 111.12,-61.05 111.12,-47.52"/>
<polygon fill="black" stroke="black" stroke-width="2" points="114.63,-49.38 111.13,-39.38 107.63,-49.38 114.63,-49.38"/>
<text text-anchor="middle" x="133.25" y="-57.2" font-family="Times,serif" font-size="14.00">?(is_10)</text>
</g>
</g>
</svg>
