<?xml version="1.0" encoding="UTF-8" standalone="no"?>
<!DOCTYPE svg PUBLIC "-//W3C//DTD SVG 1.1//EN"
 "http://www.w3.org/Graphics/SVG/1.1/DTD/svg11.dtd">
<!-- Generated by graphviz version 12.2.1 (20241206.2353)
 -->
<!-- Title: basic_batch Pages: 1 -->
<svg width="486pt" height="303pt"
 viewBox="0.00 0.00 486.00 303.00" xmlns="http://www.w3.org/2000/svg" xmlns:xlink="http://www.w3.org/1999/xlink">
<g id="graph0" class="graph" transform="scale(1 1) rotate(0) translate(4 299)">
<title>basic_batch</title>
<polygon fill="white" stroke="none" points="-4,4 -4,-299 482,-299 482,4 -4,4"/>
<text text-anchor="middle" x="239" y="-277.7" font-family="Times,serif" font-size="14.00">basic_batch</text>
<!-- node_0 -->
<g id="node1" class="node">
<title>node_0</title>
<polygon fill="#ececff" stroke="#9370db" points="409.75,-197.5 68.25,-197.5 68.25,-161.5 409.75,-161.5 409.75,-197.5"/>
<text text-anchor="middle" x="239" y="-174.45" font-family="Times,serif" font-size="14.00">make_items[MakeItems(num_items=3,delta=1,sleep=0.1)]</text>
</g>
<!-- node_2 -->
<g id="node3" class="node">
<title>node_2</title>
<polygon fill="#ececff" stroke="#9370db" stroke-width="2" points="478,-109 0,-109 0,-73 478,-73 478,-109"/>
<text text-anchor="middle" x="239" y="-85.95" font-family="Times,serif" font-size="14.00">more_items[MakeItems(num_items=3,delta=10,sleep=0.1), foreach=[x], flat=True]</text>
</g>
<!-- node_0&#45;&gt;node_2 -->
<g id="edge1" class="edge">
<title>node_0&#45;&gt;node_2</title>
<path fill="none" stroke="black" d="M239,-161.41C239,-149.76 239,-134.05 239,-120.52"/>
<polygon fill="black" stroke="black" points="242.5,-120.86 239,-110.86 235.5,-120.86 242.5,-120.86"/>
<text text-anchor="middle" x="250.62" y="-130.2" font-family="Times,serif" font-size="14.00">.&#45;&gt;x</text>
</g>
<!-- node_1 -->
<g id="node2" class="node">
<title>node_1</title>
<polygon fill="#ececff" stroke="#9370db" points="266,-270.5 212,-270.5 212,-234.5 266,-234.5 266,-270.5"/>
<text text-anchor="middle" x="239" y="-247.45" font-family="Times,serif" font-size="14.00">Start</text>
</g>
<!-- node_1&#45;&gt;node_0 -->
<g id="edge2" class="edge">
<title>node_1&#45;&gt;node_0</title>
<path fill="none" stroke="black" d="M239,-234.31C239,-226.73 239,-217.6 239,-209.04"/>
<polygon fill="black" stroke="black" points="242.5,-209.04 239,-199.04 235.5,-209.04 242.5,-209.04"/>
</g>
<!-- node_3 -->
<g id="node4" class="node">
<title>node_3</title>
<polygon fill="#ececff" stroke="#9370db" points="272.5,-36 205.5,-36 205.5,0 272.5,0 272.5,-36"/>
<text text-anchor="middle" x="239" y="-12.95" font-family="Times,serif" font-size="14.00">End[sort]</text>
</g>
<!-- node_2&#45;&gt;node_3 -->
<g id="edge3" class="edge">
<title>node_2&#45;&gt;node_3</title>
<path fill="none" stroke="black" d="M239,-72.81C239,-65.23 239,-56.1 239,-47.54"/>
<polygon fill="black" stroke="black" points="242.5,-47.54 239,-37.54 235.5,-47.54 242.5,-47.54"/>
</g>
</g>
</svg>
