<?xml version="1.0" encoding="UTF-8" standalone="no"?>
<!DOCTYPE svg PUBLIC "-//W3C//DTD SVG 1.1//EN"
 "http://www.w3.org/Graphics/SVG/1.1/DTD/svg11.dtd">
<!-- Generated by graphviz version 12.2.1 (20241206.2353)
 -->
<!-- Title: ports Pages: 1 -->
<svg width="105pt" height="246pt"
 viewBox="0.00 0.00 104.88 245.50" xmlns="http://www.w3.org/2000/svg" xmlns:xlink="http://www.w3.org/1999/xlink">
<g id="graph0" class="graph" transform="scale(1 1) rotate(0) translate(4 241.5)">
<title>ports</title>
<polygon fill="white" stroke="none" points="-4,4 -4,-241.5 100.88,-241.5 100.88,4 -4,4"/>
<text text-anchor="middle" x="48.44" y="-220.2" font-family="Times,serif" font-size="14.00">ports</text>
<!-- node_0 -->
<g id="node1" class="node">
<title>node_0</title>
<polygon fill="#ececff" stroke="#9370db" points="55.62,-213 1.62,-213 1.62,-177 55.62,-177 55.62,-213"/>
<text text-anchor="middle" x="28.62" y="-189.95" font-family="Times,serif" font-size="14.00">Start</text>
</g>
<!-- node_1 -->
<g id="node2" class="node">
<title>node_1</title>
<polygon fill="#ececff" stroke="#9370db" points="57.25,-124.5 0,-124.5 0,-88.5 57.25,-88.5 57.25,-124.5"/>
<text text-anchor="middle" x="28.62" y="-101.45" font-family="Times,serif" font-size="14.00">transfer</text>
</g>
<!-- node_0&#45;&gt;node_1 -->
<g id="edge1" class="edge">
<title>node_0&#45;&gt;node_1</title>
<path fill="none" stroke="black" d="M28.62,-176.91C28.62,-165.26 28.62,-149.55 28.62,-136.02"/>
<polygon fill="black" stroke="black" points="32.13,-136.36 28.63,-126.36 25.13,-136.36 32.13,-136.36"/>
<text text-anchor="middle" x="56.38" y="-145.7" font-family="Times,serif" font-size="14.00">a&#45;&gt;x,b&#45;&gt;y</text>
</g>
<!-- node_2 -->
<g id="node3" class="node">
<title>node_2</title>
<polygon fill="#ececff" stroke="#9370db" points="55.62,-36 1.62,-36 1.62,0 55.62,0 55.62,-36"/>
<text text-anchor="middle" x="28.62" y="-12.95" font-family="Times,serif" font-size="14.00">End</text>
</g>
<!-- node_1&#45;&gt;node_2 -->
<g id="edge2" class="edge">
<title>node_1&#45;&gt;node_2</title>
<path fill="none" stroke="black" d="M28.62,-88.41C28.62,-76.76 28.62,-61.05 28.62,-47.52"/>
<polygon fill="black" stroke="black" points="32.13,-47.86 28.63,-37.86 25.13,-47.86 32.13,-47.86"/>
<text text-anchor="middle" x="62.75" y="-57.2" font-family="Times,serif" font-size="14.00">x&#45;&gt;e1,y&#45;&gt;e2</text>
</g>
</g>
</svg>
