<?xml version="1.0" encoding="UTF-8" standalone="no"?>
<!DOCTYPE svg PUBLIC "-//W3C//DTD SVG 1.1//EN"
 "http://www.w3.org/Graphics/SVG/1.1/DTD/svg11.dtd">
<!-- Generated by graphviz version 12.2.1 (20241206.2353)
 -->
<!-- Title: batch_processing_comb Pages: 1 -->
<svg width="816pt" height="407pt"
 viewBox="0.00 0.00 815.67 407.00" xmlns="http://www.w3.org/2000/svg" xmlns:xlink="http://www.w3.org/1999/xlink">
<g id="graph0" class="graph" transform="scale(1 1) rotate(0) translate(4 403)">
<title>batch_processing_comb</title>
<polygon fill="white" stroke="none" points="-4,4 -4,-403 811.67,-403 811.67,4 -4,4"/>
<text text-anchor="middle" x="403.83" y="-381.7" font-family="Times,serif" font-size="14.00">batch_processing_comb</text>
<!-- node_0 -->
<g id="node1" class="node">
<title>node_0</title>
<polygon fill="#ececff" stroke="#9370db" points="269.92,-286 94.17,-286 94.17,-250 269.92,-250 269.92,-286"/>
<text text-anchor="middle" x="182.04" y="-262.95" font-family="Times,serif" font-size="14.00">non_stream_first[add_to_arr]</text>
</g>
<!-- node_4 -->
<g id="node5" class="node">
<title>node_4</title>
<polygon fill="#ececff" stroke="#9370db" points="277.79,-197.5 86.29,-197.5 86.29,-161.5 277.79,-161.5 277.79,-197.5"/>
<text text-anchor="middle" x="182.04" y="-174.45" font-family="Times,serif" font-size="14.00">non_stream_second[add_to_arr]</text>
</g>
<!-- node_0&#45;&gt;node_4 -->
<g id="edge3" class="edge">
<title>node_0&#45;&gt;node_4</title>
<path fill="none" stroke="black" d="M182.04,-249.91C182.04,-238.26 182.04,-222.55 182.04,-209.02"/>
<polygon fill="black" stroke="black" points="185.54,-209.36 182.04,-199.36 178.54,-209.36 185.54,-209.36"/>
<text text-anchor="middle" x="193.67" y="-218.7" font-family="Times,serif" font-size="14.00">.&#45;&gt;_</text>
</g>
<!-- node_6 -->
<g id="node7" class="node">
<title>node_6</title>
<polygon fill="#ececff" stroke="#9370db" stroke-width="2" points="590.54,-197.5 295.54,-197.5 295.54,-161.5 590.54,-161.5 590.54,-197.5"/>
<text text-anchor="middle" x="443.04" y="-174.45" font-family="Times,serif" font-size="14.00">stream_second[add_to_arr, foreach=[x], flat=True]</text>
</g>
<!-- node_0&#45;&gt;node_6 -->
<g id="edge4" class="edge">
<title>node_0&#45;&gt;node_6</title>
<path fill="none" stroke="black" d="M234.55,-249.6C276.49,-235.7 335.42,-216.17 379.93,-201.42"/>
<polygon fill="black" stroke="black" points="380.8,-204.82 389.19,-198.35 378.59,-198.17 380.8,-204.82"/>
<text text-anchor="middle" x="351.67" y="-218.7" font-family="Times,serif" font-size="14.00">.&#45;&gt;arr</text>
</g>
<!-- state_x -->
<g id="node2" class="node">
<title>state_x</title>
<path fill="none" stroke="#9370db" d="M377.42,-371.23C377.42,-373.03 364.25,-374.5 348.04,-374.5 331.84,-374.5 318.67,-373.03 318.67,-371.23 318.67,-371.23 318.67,-341.77 318.67,-341.77 318.67,-339.97 331.84,-338.5 348.04,-338.5 364.25,-338.5 377.42,-339.97 377.42,-341.77 377.42,-341.77 377.42,-371.23 377.42,-371.23"/>
<path fill="none" stroke="#9370db" d="M377.42,-371.23C377.42,-369.42 364.25,-367.95 348.04,-367.95 331.84,-367.95 318.67,-369.42 318.67,-371.23"/>
<text text-anchor="middle" x="348.04" y="-351.45" font-family="Times,serif" font-size="14.00">State[x]</text>
</g>
<!-- node_2 -->
<g id="node3" class="node">
<title>node_2</title>
<polygon fill="#ececff" stroke="#9370db" points="301.04,-374.5 247.04,-374.5 247.04,-338.5 301.04,-338.5 301.04,-374.5"/>
<text text-anchor="middle" x="274.04" y="-351.45" font-family="Times,serif" font-size="14.00">Start</text>
</g>
<!-- node_2&#45;&gt;node_0 -->
<g id="edge5" class="edge">
<title>node_2&#45;&gt;node_0</title>
<path fill="none" stroke="black" d="M255.87,-338.41C242.35,-325.7 223.69,-308.16 208.52,-293.89"/>
<polygon fill="black" stroke="black" points="211.28,-291.69 201.6,-287.39 206.49,-296.79 211.28,-291.69"/>
<text text-anchor="middle" x="252.03" y="-307.2" font-family="Times,serif" font-size="14.00">.&#45;&gt;arr</text>
</g>
<!-- node_3 -->
<g id="node4" class="node">
<title>node_3</title>
<polygon fill="#ececff" stroke="#9370db" stroke-width="2" points="807.67,-286 288.42,-286 288.42,-250 807.67,-250 807.67,-286"/>
<text text-anchor="middle" x="548.04" y="-262.95" font-family="Times,serif" font-size="14.00">stream_first[MakeItemsAsync(num_items=3,delta=10,sleep=0.05), foreach=[x], flat=True]</text>
</g>
<!-- node_2&#45;&gt;node_3 -->
<g id="edge6" class="edge">
<title>node_2&#45;&gt;node_3</title>
<path fill="none" stroke="black" d="M301.37,-342.05C304.27,-340.79 307.2,-339.58 310.04,-338.5 361.18,-319.1 420.19,-301.83 466.65,-289.37"/>
<polygon fill="black" stroke="black" points="467.35,-292.8 476.12,-286.85 465.55,-286.04 467.35,-292.8"/>
<text text-anchor="middle" x="424.92" y="-307.2" font-family="Times,serif" font-size="14.00">.&#45;&gt;x</text>
</g>
<!-- node_3&#45;&gt;node_4 -->
<g id="edge7" class="edge">
<title>node_3&#45;&gt;node_4</title>
<path fill="none" stroke="black" d="M493.41,-249.57C458.61,-238.85 412.46,-225.33 371.04,-215.5 344.65,-209.23 315.96,-203.42 289.09,-198.4"/>
<polygon fill="black" stroke="black" points="290.06,-195.02 279.59,-196.64 288.79,-201.9 290.06,-195.02"/>
<text text-anchor="middle" x="445.64" y="-218.7" font-family="Times,serif" font-size="14.00">.&#45;&gt;arr</text>
</g>
<!-- node_3&#45;&gt;node_6 -->
<g id="edge8" class="edge">
<title>node_3&#45;&gt;node_6</title>
<path fill="none" stroke="black" d="M527.05,-249.7C511.45,-236.86 489.97,-219.16 472.64,-204.88"/>
<polygon fill="black" stroke="black" points="475.12,-202.39 465.17,-198.73 470.66,-207.79 475.12,-202.39"/>
<text text-anchor="middle" x="516.57" y="-218.7" font-family="Times,serif" font-size="14.00">.&#45;&gt;x</text>
</g>
<!-- node_7 -->
<g id="node8" class="node">
<title>node_7</title>
<polygon fill="#ececff" stroke="#9370db" points="361.29,-109 262.79,-109 262.79,-73 361.29,-73 361.29,-109"/>
<text text-anchor="middle" x="312.04" y="-85.95" font-family="Times,serif" font-size="14.00">Concat[concat]</text>
</g>
<!-- node_4&#45;&gt;node_7 -->
<g id="edge9" class="edge">
<title>node_4&#45;&gt;node_7</title>
<path fill="none" stroke="black" d="M208.04,-161.2C227.7,-148.12 254.92,-130.01 276.58,-115.6"/>
<polygon fill="black" stroke="black" points="278.45,-118.56 284.83,-110.11 274.57,-112.73 278.45,-118.56"/>
</g>
<!-- state_y -->
<g id="node6" class="node">
<title>state_y</title>
<path fill="none" stroke="#9370db" d="M454.42,-371.23C454.42,-373.03 441.25,-374.5 425.04,-374.5 408.84,-374.5 395.67,-373.03 395.67,-371.23 395.67,-371.23 395.67,-341.77 395.67,-341.77 395.67,-339.97 408.84,-338.5 425.04,-338.5 441.25,-338.5 454.42,-339.97 454.42,-341.77 454.42,-341.77 454.42,-371.23 454.42,-371.23"/>
<path fill="none" stroke="#9370db" d="M454.42,-371.23C454.42,-369.42 441.25,-367.95 425.04,-367.95 408.84,-367.95 395.67,-369.42 395.67,-371.23"/>
<text text-anchor="middle" x="425.04" y="-351.45" font-family="Times,serif" font-size="14.00">State[y]</text>
</g>
<!-- node_6&#45;&gt;node_7 -->
<g id="edge10" class="edge">
<title>node_6&#45;&gt;node_7</title>
<path fill="none" stroke="black" d="M416.85,-161.2C397.04,-148.12 369.61,-130.01 347.78,-115.6"/>
<polygon fill="black" stroke="black" points="349.73,-112.69 339.46,-110.1 345.87,-118.53 349.73,-112.69"/>
<text text-anchor="middle" x="400.9" y="-130.2" font-family="Times,serif" font-size="14.00">.&#45;&gt;1</text>
</g>
<!-- node_8 -->
<g id="node9" class="node">
<title>node_8</title>
<polygon fill="#ececff" stroke="#9370db" points="345.54,-36 278.54,-36 278.54,0 345.54,0 345.54,-36"/>
<text text-anchor="middle" x="312.04" y="-12.95" font-family="Times,serif" font-size="14.00">End[sort]</text>
</g>
<!-- node_7&#45;&gt;node_8 -->
<g id="edge11" class="edge">
<title>node_7&#45;&gt;node_8</title>
<path fill="none" stroke="black" d="M312.04,-72.81C312.04,-65.23 312.04,-56.1 312.04,-47.54"/>
<polygon fill="black" stroke="black" points="315.54,-47.54 312.04,-37.54 308.54,-47.54 315.54,-47.54"/>
</g>
<!-- node_1 -->
<g id="node10" class="node">
<title>node_1</title>
<ellipse fill="none" stroke="black" cx="182.04" cy="-356.5" rx="38.04" ry="18"/>
<text text-anchor="middle" x="182.04" y="-351.45" font-family="Times,serif" font-size="14.00">node_1</text>
</g>
<!-- node_1&#45;&gt;node_0 -->
<g id="edge1" class="edge">
<title>node_1&#45;&gt;node_0</title>
<path fill="none" stroke="black" stroke-dasharray="5,2" d="M182.04,-338.41C182.04,-326.76 182.04,-311.05 182.04,-297.52"/>
<polygon fill="black" stroke="black" points="185.54,-297.86 182.04,-287.86 178.54,-297.86 185.54,-297.86"/>
<text text-anchor="middle" x="193.67" y="-307.2" font-family="Times,serif" font-size="14.00">.&#45;&gt;x</text>
</g>
<!-- node_5 -->
<g id="node11" class="node">
<title>node_5</title>
<ellipse fill="none" stroke="black" cx="38.04" cy="-268" rx="38.04" ry="18"/>
<text text-anchor="middle" x="38.04" y="-262.95" font-family="Times,serif" font-size="14.00">node_5</text>
</g>
<!-- node_5&#45;&gt;node_4 -->
<g id="edge2" class="edge">
<title>node_5&#45;&gt;node_4</title>
<path fill="none" stroke="black" stroke-dasharray="5,2" d="M60.86,-253.29C83.01,-239.99 117.06,-219.54 143.43,-203.69"/>
<polygon fill="black" stroke="black" points="145.06,-206.8 151.83,-198.65 141.45,-200.8 145.06,-206.8"/>
<text text-anchor="middle" x="134.57" y="-218.7" font-family="Times,serif" font-size="14.00">.&#45;&gt;x</text>
</g>
</g>
</svg>
