<?xml version="1.0" encoding="UTF-8" standalone="no"?>
<!DOCTYPE svg PUBLIC "-//W3C//DTD SVG 1.1//EN"
 "http://www.w3.org/Graphics/SVG/1.1/DTD/svg11.dtd">
<!-- Generated by graphviz version 12.2.1 (20241206.2353)
 -->
<!-- Title: states Pages: 1 -->
<svg width="354pt" height="246pt"
 viewBox="0.00 0.00 353.88 245.50" xmlns="http://www.w3.org/2000/svg" xmlns:xlink="http://www.w3.org/1999/xlink">
<g id="graph0" class="graph" transform="scale(1 1) rotate(0) translate(4 241.5)">
<title>states</title>
<polygon fill="white" stroke="none" points="-4,4 -4,-241.5 349.88,-241.5 349.88,4 -4,4"/>
<text text-anchor="middle" x="172.94" y="-220.2" font-family="Times,serif" font-size="14.00">states</text>
<!-- node_0 -->
<g id="node1" class="node">
<title>node_0</title>
<polygon fill="#ececff" stroke="#9370db" points="98.5,-124.5 0,-124.5 0,-88.5 98.5,-88.5 98.5,-124.5"/>
<text text-anchor="middle" x="49.25" y="-101.45" font-family="Times,serif" font-size="14.00">Option1[plus2]</text>
</g>
<!-- node_4 -->
<g id="node5" class="node">
<title>node_4</title>
<polygon fill="#ececff" stroke="#9370db" points="211.25,-36 157.25,-36 157.25,0 211.25,0 211.25,-36"/>
<text text-anchor="middle" x="184.25" y="-12.95" font-family="Times,serif" font-size="14.00">End</text>
</g>
<!-- node_0&#45;&gt;node_4 -->
<g id="edge3" class="edge">
<title>node_0&#45;&gt;node_4</title>
<path fill="none" stroke="black" stroke-width="2" d="M76.24,-88.2C96.76,-75.06 125.18,-56.85 147.73,-42.4"/>
<polygon fill="black" stroke="black" stroke-width="2" points="148.22,-46.24 154.75,-37.9 144.45,-40.35 148.22,-46.24"/>
</g>
<!-- node_1 -->
<g id="node2" class="node">
<title>node_1</title>
<polygon fill="#ececff" stroke="#9370db" points="252.25,-124.5 116.25,-124.5 116.25,-88.5 252.25,-88.5 252.25,-124.5"/>
<text text-anchor="middle" x="184.25" y="-101.45" font-family="Times,serif" font-size="14.00">Default_option[plus1]</text>
</g>
<!-- node_1&#45;&gt;node_4 -->
<g id="edge4" class="edge">
<title>node_1&#45;&gt;node_4</title>
<path fill="none" stroke="black" stroke-width="2" d="M184.25,-88.41C184.25,-76.76 184.25,-61.05 184.25,-47.52"/>
<polygon fill="black" stroke="black" stroke-width="2" points="187.75,-49.38 184.25,-39.38 180.75,-49.38 187.75,-49.38"/>
</g>
<!-- node_2 -->
<g id="node3" class="node">
<title>node_2</title>
<polygon fill="#ececff" stroke="#9370db" points="211.25,-213 157.25,-213 157.25,-177 211.25,-177 211.25,-213"/>
<text text-anchor="middle" x="184.25" y="-189.95" font-family="Times,serif" font-size="14.00">Start</text>
</g>
<!-- node_2&#45;&gt;node_0 -->
<g id="edge5" class="edge">
<title>node_2&#45;&gt;node_0</title>
<path fill="none" stroke="black" stroke-width="2" d="M157.26,-176.7C136.74,-163.56 108.32,-145.35 85.77,-130.9"/>
<polygon fill="black" stroke="black" stroke-width="2" points="89.05,-128.85 78.75,-126.4 85.28,-134.74 89.05,-128.85"/>
<text text-anchor="middle" x="152.09" y="-145.7" font-family="Times,serif" font-size="14.00">?(mod2)</text>
</g>
<!-- node_2&#45;&gt;node_1 -->
<g id="edge6" class="edge">
<title>node_2&#45;&gt;node_1</title>
<path fill="none" stroke="black" stroke-width="2" d="M184.25,-176.91C184.25,-165.26 184.25,-149.55 184.25,-136.02"/>
<polygon fill="black" stroke="black" stroke-width="2" points="187.75,-137.88 184.25,-127.88 180.75,-137.88 187.75,-137.88"/>
</g>
<!-- node_3 -->
<g id="node4" class="node">
<title>node_3</title>
<path fill="#ececff" stroke="#9370db" d="M345.88,-121.23C345.88,-123.03 329.01,-124.5 308.25,-124.5 287.49,-124.5 270.62,-123.03 270.62,-121.23 270.62,-121.23 270.62,-91.77 270.62,-91.77 270.62,-89.97 287.49,-88.5 308.25,-88.5 329.01,-88.5 345.88,-89.97 345.88,-91.77 345.88,-91.77 345.88,-121.23 345.88,-121.23"/>
<path fill="none" stroke="#9370db" d="M345.88,-121.23C345.88,-119.42 329.01,-117.95 308.25,-117.95 287.49,-117.95 270.62,-119.42 270.62,-121.23"/>
<text text-anchor="middle" x="308.25" y="-101.45" font-family="Times,serif" font-size="14.00">State[start]</text>
</g>
<!-- node_2&#45;&gt;node_3 -->
<g id="edge1" class="edge">
<title>node_2&#45;&gt;node_3</title>
<path fill="none" stroke="black" stroke-dasharray="5,2" d="M209.05,-176.7C227.84,-163.59 253.87,-145.44 274.55,-131.01"/>
<polygon fill="black" stroke="black" points="276.48,-133.93 282.68,-125.34 272.47,-128.19 276.48,-133.93"/>
</g>
<!-- node_3&#45;&gt;node_4 -->
<g id="edge2" class="edge">
<title>node_3&#45;&gt;node_4</title>
<path fill="none" stroke="black" stroke-dasharray="5,2" d="M283.75,-88.41C265.11,-75.4 239.21,-57.34 218.52,-42.9"/>
<polygon fill="black" stroke="black" points="220.57,-40.07 210.36,-37.22 216.56,-45.81 220.57,-40.07"/>
<text text-anchor="middle" x="292.98" y="-57.2" font-family="Times,serif" font-size="14.00">.&#45;&gt;start_state</text>
</g>
</g>
</svg>
