<?xml version="1.0" encoding="UTF-8" standalone="no"?>
<!DOCTYPE svg PUBLIC "-//W3C//DTD SVG 1.1//EN"
 "http://www.w3.org/Graphics/SVG/1.1/DTD/svg11.dtd">
<!-- Generated by graphviz version 12.2.1 (20241206.2353)
 -->
<!-- Title: unnamed_ports Pages: 1 -->
<svg width="123pt" height="319pt"
 viewBox="0.00 0.00 122.97 318.50" xmlns="http://www.w3.org/2000/svg" xmlns:xlink="http://www.w3.org/1999/xlink">
<g id="graph0" class="graph" transform="scale(1 1) rotate(0) translate(4 314.5)">
<title>unnamed_ports</title>
<polygon fill="white" stroke="none" points="-4,4 -4,-314.5 118.97,-314.5 118.97,4 -4,4"/>
<text text-anchor="middle" x="57.49" y="-293.2" font-family="Times,serif" font-size="14.00">unnamed_ports</text>
<!-- node_0 -->
<g id="node1" class="node">
<title>node_0</title>
<polygon fill="#ececff" stroke="#9370db" points="90.88,-286 36.88,-286 36.88,-250 90.88,-250 90.88,-286"/>
<text text-anchor="middle" x="63.88" y="-262.95" font-family="Times,serif" font-size="14.00">Start</text>
</g>
<!-- node_1 -->
<g id="node2" class="node">
<title>node_1</title>
<polygon fill="#ececff" stroke="#9370db" points="61.75,-197.5 0,-197.5 0,-161.5 61.75,-161.5 61.75,-197.5"/>
<text text-anchor="middle" x="30.88" y="-174.45" font-family="Times,serif" font-size="14.00">Transfer</text>
</g>
<!-- node_0&#45;&gt;node_1 -->
<g id="edge1" class="edge">
<title>node_0&#45;&gt;node_1</title>
<path fill="none" stroke="black" d="M57.36,-249.91C52.82,-238.02 46.67,-221.91 41.44,-208.2"/>
<polygon fill="black" stroke="black" points="44.87,-207.36 38.03,-199.26 38.33,-209.86 44.87,-207.36"/>
<text text-anchor="middle" x="63.46" y="-218.7" font-family="Times,serif" font-size="14.00">y&#45;&gt;y</text>
</g>
<!-- node_2 -->
<g id="node3" class="node">
<title>node_2</title>
<polygon fill="#ececff" stroke="#9370db" points="102.25,-109 25.5,-109 25.5,-73 102.25,-73 102.25,-109"/>
<text text-anchor="middle" x="63.88" y="-85.95" font-family="Times,serif" font-size="14.00">plus[plus1]</text>
</g>
<!-- node_0&#45;&gt;node_2 -->
<g id="edge2" class="edge">
<title>node_0&#45;&gt;node_2</title>
<path fill="none" stroke="black" d="M74.15,-249.77C76.89,-244.28 79.48,-238.06 80.88,-232 91.34,-186.52 91.34,-172.48 80.88,-127 80.31,-124.54 79.55,-122.05 78.66,-119.6"/>
<polygon fill="black" stroke="black" points="81.95,-118.4 74.75,-110.62 75.53,-121.19 81.95,-118.4"/>
<text text-anchor="middle" x="101.85" y="-174.45" font-family="Times,serif" font-size="14.00">x&#45;&gt;_</text>
</g>
<!-- node_1&#45;&gt;node_2 -->
<g id="edge3" class="edge">
<title>node_1&#45;&gt;node_2</title>
<path fill="none" stroke="black" d="M37.39,-161.41C41.93,-149.52 48.08,-133.41 53.31,-119.7"/>
<polygon fill="black" stroke="black" points="56.42,-121.36 56.72,-110.76 49.88,-118.86 56.42,-121.36"/>
<text text-anchor="middle" x="63.46" y="-130.2" font-family="Times,serif" font-size="14.00">y&#45;&gt;x</text>
</g>
<!-- node_3 -->
<g id="node4" class="node">
<title>node_3</title>
<polygon fill="#ececff" stroke="#9370db" points="90.88,-36 36.88,-36 36.88,0 90.88,0 90.88,-36"/>
<text text-anchor="middle" x="63.88" y="-12.95" font-family="Times,serif" font-size="14.00">End</text>
</g>
<!-- node_2&#45;&gt;node_3 -->
<g id="edge4" class="edge">
<title>node_2&#45;&gt;node_3</title>
<path fill="none" stroke="black" d="M63.88,-72.81C63.88,-65.23 63.88,-56.1 63.88,-47.54"/>
<polygon fill="black" stroke="black" points="67.38,-47.54 63.88,-37.54 60.38,-47.54 67.38,-47.54"/>
</g>
</g>
</svg>
