<?xml version="1.0" encoding="UTF-8" standalone="no"?>
<!DOCTYPE svg PUBLIC "-//W3C//DTD SVG 1.1//EN"
 "http://www.w3.org/Graphics/SVG/1.1/DTD/svg11.dtd">
<!-- Generated by graphviz version 12.2.1 (20241206.2353)
 -->
<!-- Title: constructed_flow Pages: 1 -->
<svg width="267pt" height="213pt"
 viewBox="0.00 0.00 267.00 212.50" xmlns="http://www.w3.org/2000/svg" xmlns:xlink="http://www.w3.org/1999/xlink">
<g id="graph0" class="graph" transform="scale(1 1) rotate(0) translate(4 208.5)">
<title>constructed_flow</title>
<polygon fill="white" stroke="none" points="-4,4 -4,-208.5 263,-208.5 263,4 -4,4"/>
<text text-anchor="middle" x="129.5" y="-187.2" font-family="Times,serif" font-size="14.00">constructed_flow</text>
<!-- node_0 -->
<g id="node1" class="node">
<title>node_0</title>
<polygon fill="#ececff" stroke="#9370db" points="156.5,-180 102.5,-180 102.5,-144 156.5,-144 156.5,-180"/>
<text text-anchor="middle" x="129.5" y="-156.95" font-family="Times,serif" font-size="14.00">Start</text>
</g>
<!-- node_2 -->
<g id="node3" class="node">
<title>node_2</title>
<polygon fill="#ececff" stroke="#9370db" points="259,-108 0,-108 0,-72 259,-72 259,-108"/>
<text text-anchor="middle" x="129.5" y="-84.95" font-family="Times,serif" font-size="14.00">parallel_adder[FlowDiagram(parallel_flow)]</text>
</g>
<!-- node_0&#45;&gt;node_2 -->
<g id="edge1" class="edge">
<title>node_0&#45;&gt;node_2</title>
<path fill="none" stroke="black" d="M129.5,-143.7C129.5,-136.41 129.5,-127.73 129.5,-119.54"/>
<polygon fill="black" stroke="black" points="133,-119.62 129.5,-109.62 126,-119.62 133,-119.62"/>
</g>
<!-- node_1 -->
<g id="node2" class="node">
<title>node_1</title>
<polygon fill="#ececff" stroke="#9370db" points="156.5,-36 102.5,-36 102.5,0 156.5,0 156.5,-36"/>
<text text-anchor="middle" x="129.5" y="-12.95" font-family="Times,serif" font-size="14.00">End</text>
</g>
<!-- node_2&#45;&gt;node_1 -->
<g id="edge2" class="edge">
<title>node_2&#45;&gt;node_1</title>
<path fill="none" stroke="black" d="M129.5,-71.7C129.5,-64.41 129.5,-55.73 129.5,-47.54"/>
<polygon fill="black" stroke="black" points="133,-47.62 129.5,-37.62 126,-47.62 133,-47.62"/>
</g>
</g>
</svg>
