<?xml version="1.0" encoding="UTF-8" standalone="no"?>
<!DOCTYPE svg PUBLIC "-//W3C//DTD SVG 1.1//EN"
 "http://www.w3.org/Graphics/SVG/1.1/DTD/svg11.dtd">
<!-- Generated by graphviz version 12.2.1 (20241206.2353)
 -->
<!-- Title: batch_processing_sleep_product Pages: 1 -->
<svg width="1085pt" height="319pt"
 viewBox="0.00 0.00 1085.38 318.50" xmlns="http://www.w3.org/2000/svg" xmlns:xlink="http://www.w3.org/1999/xlink">
<g id="graph0" class="graph" transform="scale(1 1) rotate(0) translate(4 314.5)">
<title>batch_processing_sleep_product</title>
<polygon fill="white" stroke="none" points="-4,4 -4,-314.5 1081.38,-314.5 1081.38,4 -4,4"/>
<text text-anchor="middle" x="538.69" y="-293.2" font-family="Times,serif" font-size="14.00">batch_processing_sleep_product</text>
<!-- node_0 -->
<g id="node1" class="node">
<title>node_0</title>
<polygon fill="#ececff" stroke="#9370db" points="335.5,-197.5 0,-197.5 0,-161.5 335.5,-161.5 335.5,-197.5"/>
<text text-anchor="middle" x="167.75" y="-174.45" font-family="Times,serif" font-size="14.00">one[MakeItemsAsync(num_items=2,delta=1,sleep=0.05)]</text>
</g>
<!-- node_4 -->
<g id="node5" class="node">
<title>node_4</title>
<polygon fill="#ececff" stroke="#9370db" stroke-width="2" points="617.12,-109 432.38,-109 432.38,-73 617.12,-73 617.12,-109"/>
<text text-anchor="middle" x="524.75" y="-85.95" font-family="Times,serif" font-size="14.00">sum[sum_all, foreach=[0,1,2]]</text>
</g>
<!-- node_0&#45;&gt;node_4 -->
<g id="edge1" class="edge">
<title>node_0&#45;&gt;node_4</title>
<path fill="none" stroke="black" d="M239.56,-161.1C297.93,-146.96 380.34,-126.99 441.57,-112.15"/>
<polygon fill="black" stroke="black" points="442.38,-115.56 451.27,-109.8 440.73,-108.76 442.38,-115.56"/>
</g>
<!-- node_1 -->
<g id="node2" class="node">
<title>node_1</title>
<polygon fill="#ececff" stroke="#9370db" points="551.75,-286 497.75,-286 497.75,-250 551.75,-250 551.75,-286"/>
<text text-anchor="middle" x="524.75" y="-262.95" font-family="Times,serif" font-size="14.00">Start</text>
</g>
<!-- node_1&#45;&gt;node_0 -->
<g id="edge2" class="edge">
<title>node_1&#45;&gt;node_0</title>
<path fill="none" stroke="black" d="M497.33,-260.36C445.25,-247.74 330.13,-219.84 250.74,-200.61"/>
<polygon fill="black" stroke="black" points="251.8,-197.26 241.25,-198.31 250.15,-204.07 251.8,-197.26"/>
<text text-anchor="middle" x="391.35" y="-218.7" font-family="Times,serif" font-size="14.00">1&#45;&gt;0</text>
</g>
<!-- node_2 -->
<g id="node3" class="node">
<title>node_2</title>
<polygon fill="#ececff" stroke="#9370db" points="696.25,-197.5 353.25,-197.5 353.25,-161.5 696.25,-161.5 696.25,-197.5"/>
<text text-anchor="middle" x="524.75" y="-174.45" font-family="Times,serif" font-size="14.00">two[MakeItemsAsync(num_items=2,delta=100,sleep=0.1)]</text>
</g>
<!-- node_1&#45;&gt;node_2 -->
<g id="edge3" class="edge">
<title>node_1&#45;&gt;node_2</title>
<path fill="none" stroke="black" d="M524.75,-249.91C524.75,-238.26 524.75,-222.55 524.75,-209.02"/>
<polygon fill="black" stroke="black" points="528.25,-209.36 524.75,-199.36 521.25,-209.36 528.25,-209.36"/>
<text text-anchor="middle" x="537.88" y="-218.7" font-family="Times,serif" font-size="14.00">2&#45;&gt;0</text>
</g>
<!-- node_3 -->
<g id="node4" class="node">
<title>node_3</title>
<polygon fill="#ececff" stroke="#9370db" points="1077.38,-197.5 714.12,-197.5 714.12,-161.5 1077.38,-161.5 1077.38,-197.5"/>
<text text-anchor="middle" x="895.75" y="-174.45" font-family="Times,serif" font-size="14.00">three[MakeItemsAsync(num_items=2,delta=10000,sleep=0.2)]</text>
</g>
<!-- node_1&#45;&gt;node_3 -->
<g id="edge4" class="edge">
<title>node_1&#45;&gt;node_3</title>
<path fill="none" stroke="black" d="M552.03,-260.64C605.68,-248.13 726.92,-219.86 810.06,-200.48"/>
<polygon fill="black" stroke="black" points="810.6,-203.95 819.54,-198.27 809.01,-197.13 810.6,-203.95"/>
<text text-anchor="middle" x="756.6" y="-218.7" font-family="Times,serif" font-size="14.00">3&#45;&gt;0</text>
</g>
<!-- node_2&#45;&gt;node_4 -->
<g id="edge5" class="edge">
<title>node_2&#45;&gt;node_4</title>
<path fill="none" stroke="black" d="M524.75,-161.41C524.75,-149.76 524.75,-134.05 524.75,-120.52"/>
<polygon fill="black" stroke="black" points="528.25,-120.86 524.75,-110.86 521.25,-120.86 528.25,-120.86"/>
<text text-anchor="middle" x="536.38" y="-130.2" font-family="Times,serif" font-size="14.00">.&#45;&gt;1</text>
</g>
<!-- node_3&#45;&gt;node_4 -->
<g id="edge6" class="edge">
<title>node_3&#45;&gt;node_4</title>
<path fill="none" stroke="black" d="M821.12,-161.1C760.21,-146.9 674.11,-126.82 610.4,-111.97"/>
<polygon fill="black" stroke="black" points="611.59,-108.65 601.05,-109.79 610,-115.47 611.59,-108.65"/>
<text text-anchor="middle" x="755.1" y="-130.2" font-family="Times,serif" font-size="14.00">.&#45;&gt;2</text>
</g>
<!-- node_5 -->
<g id="node6" class="node">
<title>node_5</title>
<polygon fill="#ececff" stroke="#9370db" points="558.25,-36 491.25,-36 491.25,0 558.25,0 558.25,-36"/>
<text text-anchor="middle" x="524.75" y="-12.95" font-family="Times,serif" font-size="14.00">End[sort]</text>
</g>
<!-- node_4&#45;&gt;node_5 -->
<g id="edge7" class="edge">
<title>node_4&#45;&gt;node_5</title>
<path fill="none" stroke="black" d="M524.75,-72.81C524.75,-65.23 524.75,-56.1 524.75,-47.54"/>
<polygon fill="black" stroke="black" points="528.25,-47.54 524.75,-37.54 521.25,-47.54 528.25,-47.54"/>
</g>
</g>
</svg>
