<?xml version="1.0" encoding="UTF-8" standalone="no"?>
<!DOCTYPE svg PUBLIC "-//W3C//DTD SVG 1.1//EN"
 "http://www.w3.org/Graphics/SVG/1.1/DTD/svg11.dtd">
<!-- Generated by graphviz version 12.2.1 (20241206.2353)
 -->
<!-- Title: parallel_flow Pages: 1 -->
<svg width="242pt" height="230pt"
 viewBox="0.00 0.00 242.25 230.00" xmlns="http://www.w3.org/2000/svg" xmlns:xlink="http://www.w3.org/1999/xlink">
<g id="graph0" class="graph" transform="scale(1 1) rotate(0) translate(4 226)">
<title>parallel_flow</title>
<polygon fill="white" stroke="none" points="-4,4 -4,-226 238.25,-226 238.25,4 -4,4"/>
<text text-anchor="middle" x="117.12" y="-204.7" font-family="Times,serif" font-size="14.00">parallel_flow</text>
<!-- node_0 -->
<g id="node1" class="node">
<title>node_0</title>
<polygon fill="#ececff" stroke="#9370db" points="143.12,-197.5 89.12,-197.5 89.12,-161.5 143.12,-161.5 143.12,-197.5"/>
<text text-anchor="middle" x="116.12" y="-174.45" font-family="Times,serif" font-size="14.00">Start</text>
</g>
<!-- node_2 -->
<g id="node3" class="node">
<title>node_2</title>
<polygon fill="#ececff" stroke="#9370db" points="108.25,-124.5 0,-124.5 0,-88.5 108.25,-88.5 108.25,-124.5"/>
<text text-anchor="middle" x="54.12" y="-101.45" font-family="Times,serif" font-size="14.00">parallel_1[plus1]</text>
</g>
<!-- node_0&#45;&gt;node_2 -->
<g id="edge1" class="edge">
<title>node_0&#45;&gt;node_2</title>
<path fill="none" stroke="black" d="M101.12,-161.31C93.73,-152.85 84.67,-142.48 76.49,-133.11"/>
<polygon fill="black" stroke="black" points="79.2,-130.9 69.99,-125.67 73.93,-135.5 79.2,-130.9"/>
</g>
<!-- node_3 -->
<g id="node4" class="node">
<title>node_3</title>
<polygon fill="#ececff" stroke="#9370db" points="234.25,-124.5 126,-124.5 126,-88.5 234.25,-88.5 234.25,-124.5"/>
<text text-anchor="middle" x="180.12" y="-101.45" font-family="Times,serif" font-size="14.00">parallel_2[plus2]</text>
</g>
<!-- node_0&#45;&gt;node_3 -->
<g id="edge2" class="edge">
<title>node_0&#45;&gt;node_3</title>
<path fill="none" stroke="black" d="M131.62,-161.31C139.32,-152.77 148.78,-142.27 157.3,-132.82"/>
<polygon fill="black" stroke="black" points="159.67,-135.42 163.76,-125.65 154.47,-130.74 159.67,-135.42"/>
</g>
<!-- node_1 -->
<g id="node2" class="node">
<title>node_1</title>
<polygon fill="#ececff" stroke="#9370db" points="143.12,-36 89.12,-36 89.12,0 143.12,0 143.12,-36"/>
<text text-anchor="middle" x="116.12" y="-12.95" font-family="Times,serif" font-size="14.00">End</text>
</g>
<!-- node_2&#45;&gt;node_1 -->
<g id="edge3" class="edge">
<title>node_2&#45;&gt;node_1</title>
<path fill="none" stroke="black" d="M66.37,-88.41C75.15,-76.17 87.13,-59.45 97.14,-45.49"/>
<polygon fill="black" stroke="black" points="99.83,-47.75 102.81,-37.58 94.14,-43.67 99.83,-47.75"/>
<text text-anchor="middle" x="105.68" y="-57.2" font-family="Times,serif" font-size="14.00">.&#45;&gt;x1</text>
</g>
<!-- node_3&#45;&gt;node_1 -->
<g id="edge4" class="edge">
<title>node_3&#45;&gt;node_1</title>
<path fill="none" stroke="black" d="M167.48,-88.41C158.42,-76.17 146.05,-59.45 135.72,-45.49"/>
<polygon fill="black" stroke="black" points="138.62,-43.52 129.86,-37.57 133,-47.69 138.62,-43.52"/>
<text text-anchor="middle" x="168.86" y="-57.2" font-family="Times,serif" font-size="14.00">.&#45;&gt;x2</text>
</g>
</g>
</svg>
