<?xml version="1.0" encoding="UTF-8" standalone="no"?>
<!DOCTYPE svg PUBLIC "-//W3C//DTD SVG 1.1//EN"
 "http://www.w3.org/Graphics/SVG/1.1/DTD/svg11.dtd">
<!-- Generated by graphviz version 12.2.1 (20241206.2353)
 -->
<!-- Title: paralell2 Pages: 1 -->
<svg width="432pt" height="246pt"
 viewBox="0.00 0.00 431.75 245.50" xmlns="http://www.w3.org/2000/svg" xmlns:xlink="http://www.w3.org/1999/xlink">
<g id="graph0" class="graph" transform="scale(1 1) rotate(0) translate(4 241.5)">
<title>paralell2</title>
<polygon fill="white" stroke="none" points="-4,4 -4,-241.5 427.75,-241.5 427.75,4 -4,4"/>
<text text-anchor="middle" x="211.88" y="-220.2" font-family="Times,serif" font-size="14.00">paralell2</text>
<!-- node_0 -->
<g id="node1" class="node">
<title>node_0</title>
<polygon fill="#ececff" stroke="#9370db" points="282,-213 134,-213 134,-177 282,-177 282,-213"/>
<text text-anchor="middle" x="208" y="-189.95" font-family="Times,serif" font-size="14.00">Start[MessageAdder(1)]</text>
</g>
<!-- node_1 -->
<g id="node2" class="node">
<title>node_1</title>
<polygon fill="#ececff" stroke="#9370db" points="196,-124.5 0,-124.5 0,-88.5 196,-88.5 196,-124.5"/>
<text text-anchor="middle" x="98" y="-101.45" font-family="Times,serif" font-size="14.00">add10[DecisionDiagram(add10)]</text>
</g>
<!-- node_0&#45;&gt;node_1 -->
<g id="edge1" class="edge">
<title>node_0&#45;&gt;node_1</title>
<path fill="none" stroke="black" d="M186,-176.7C169.67,-163.86 147.16,-146.16 129,-131.88"/>
<polygon fill="black" stroke="black" points="131.17,-129.13 121.15,-125.7 126.84,-134.63 131.17,-129.13"/>
<text text-anchor="middle" x="177.85" y="-145.7" font-family="Times,serif" font-size="14.00">.&#45;&gt;**</text>
</g>
<!-- node_2 -->
<g id="node3" class="node">
<title>node_2</title>
<polygon fill="#ececff" stroke="#9370db" points="423.75,-124.5 214.25,-124.5 214.25,-88.5 423.75,-88.5 423.75,-124.5"/>
<text text-anchor="middle" x="319" y="-101.45" font-family="Times,serif" font-size="14.00">add100[DecisionDiagram(add100)]</text>
</g>
<!-- node_0&#45;&gt;node_2 -->
<g id="edge2" class="edge">
<title>node_0&#45;&gt;node_2</title>
<path fill="none" stroke="black" d="M230.2,-176.7C246.76,-163.8 269.6,-146 287.97,-131.68"/>
<polygon fill="black" stroke="black" points="289.91,-134.6 295.65,-125.7 285.61,-129.08 289.91,-134.6"/>
<text text-anchor="middle" x="288.44" y="-145.7" font-family="Times,serif" font-size="14.00">.&#45;&gt;**</text>
</g>
<!-- node_3 -->
<g id="node4" class="node">
<title>node_3</title>
<polygon fill="#ececff" stroke="#9370db" points="268.12,-36 147.88,-36 147.88,0 268.12,0 268.12,-36"/>
<text text-anchor="middle" x="208" y="-12.95" font-family="Times,serif" font-size="14.00">End[MessageSum]</text>
</g>
<!-- node_1&#45;&gt;node_3 -->
<g id="edge3" class="edge">
<title>node_1&#45;&gt;node_3</title>
<path fill="none" stroke="black" d="M120,-88.2C136.33,-75.36 158.84,-57.66 177,-43.38"/>
<polygon fill="black" stroke="black" points="179.16,-46.13 184.85,-37.2 174.83,-40.63 179.16,-46.13"/>
<text text-anchor="middle" x="174.48" y="-57.2" font-family="Times,serif" font-size="14.00">.&#45;&gt;y</text>
</g>
<!-- node_2&#45;&gt;node_3 -->
<g id="edge4" class="edge">
<title>node_2&#45;&gt;node_3</title>
<path fill="none" stroke="black" d="M296.8,-88.2C280.24,-75.3 257.4,-57.5 239.03,-43.18"/>
<polygon fill="black" stroke="black" points="241.39,-40.58 231.35,-37.2 237.09,-46.1 241.39,-40.58"/>
<text text-anchor="middle" x="285.07" y="-57.2" font-family="Times,serif" font-size="14.00">.&#45;&gt;x</text>
</g>
</g>
</svg>
