<?xml version="1.0" encoding="UTF-8" standalone="no"?>
<!DOCTYPE svg PUBLIC "-//W3C//DTD SVG 1.1//EN"
 "http://www.w3.org/Graphics/SVG/1.1/DTD/svg11.dtd">
<!-- Generated by graphviz version 12.2.1 (20241206.2353)
 -->
<!-- Title: parallel_flow_explicit Pages: 1 -->
<svg width="296pt" height="407pt"
 viewBox="0.00 0.00 296.25 407.00" xmlns="http://www.w3.org/2000/svg" xmlns:xlink="http://www.w3.org/1999/xlink">
<g id="graph0" class="graph" transform="scale(1 1) rotate(0) translate(4 403)">
<title>parallel_flow_explicit</title>
<polygon fill="white" stroke="none" points="-4,4 -4,-403 292.25,-403 292.25,4 -4,4"/>
<text text-anchor="middle" x="144.12" y="-381.7" font-family="Times,serif" font-size="14.00">parallel_flow_explicit</text>
<!-- node_0 -->
<g id="node1" class="node">
<title>node_0</title>
<polygon fill="#ececff" stroke="#9370db" points="170.62,-374.5 116.62,-374.5 116.62,-338.5 170.62,-338.5 170.62,-374.5"/>
<text text-anchor="middle" x="143.62" y="-351.45" font-family="Times,serif" font-size="14.00">Start</text>
</g>
<!-- node_1 -->
<g id="node2" class="node">
<title>node_1</title>
<polygon fill="#ececff" stroke="#9370db" points="135.25,-286 0,-286 0,-250 135.25,-250 135.25,-286"/>
<text text-anchor="middle" x="67.62" y="-262.95" font-family="Times,serif" font-size="14.00">Parallel_node1[plus1]</text>
</g>
<!-- node_0&#45;&gt;node_1 -->
<g id="edge1" class="edge">
<title>node_0&#45;&gt;node_1</title>
<path fill="none" stroke="black" d="M128.61,-338.41C117.65,-325.93 102.6,-308.8 90.19,-294.68"/>
<polygon fill="black" stroke="black" points="93.1,-292.69 83.87,-287.49 87.84,-297.31 93.1,-292.69"/>
<text text-anchor="middle" x="125.56" y="-307.2" font-family="Times,serif" font-size="14.00">x&#45;&gt;x</text>
</g>
<!-- node_2 -->
<g id="node3" class="node">
<title>node_2</title>
<polygon fill="#ececff" stroke="#9370db" points="288.25,-286 153,-286 153,-250 288.25,-250 288.25,-286"/>
<text text-anchor="middle" x="220.62" y="-262.95" font-family="Times,serif" font-size="14.00">Parallel_node2[plus2]</text>
</g>
<!-- node_0&#45;&gt;node_2 -->
<g id="edge2" class="edge">
<title>node_0&#45;&gt;node_2</title>
<path fill="none" stroke="black" d="M158.84,-338.41C169.94,-325.93 185.19,-308.8 197.76,-294.68"/>
<polygon fill="black" stroke="black" points="200.14,-297.28 204.17,-287.48 194.91,-292.62 200.14,-297.28"/>
<text text-anchor="middle" x="202.15" y="-307.2" font-family="Times,serif" font-size="14.00">y&#45;&gt;y</text>
</g>
<!-- node_3 -->
<g id="node4" class="node">
<title>node_3</title>
<polygon fill="#ececff" stroke="#9370db" points="185.38,-197.5 101.88,-197.5 101.88,-161.5 185.38,-161.5 185.38,-197.5"/>
<text text-anchor="middle" x="143.62" y="-174.45" font-family="Times,serif" font-size="14.00">Parallel_end</text>
</g>
<!-- node_1&#45;&gt;node_3 -->
<g id="edge3" class="edge">
<title>node_1&#45;&gt;node_3</title>
<path fill="none" stroke="black" d="M82.64,-249.91C93.6,-237.43 108.65,-220.3 121.06,-206.18"/>
<polygon fill="black" stroke="black" points="123.41,-208.81 127.38,-198.99 118.15,-204.19 123.41,-208.81"/>
<text text-anchor="middle" x="124.06" y="-218.7" font-family="Times,serif" font-size="14.00">.&#45;&gt;x</text>
</g>
<!-- node_2&#45;&gt;node_3 -->
<g id="edge4" class="edge">
<title>node_2&#45;&gt;node_3</title>
<path fill="none" stroke="black" d="M205.41,-249.91C194.31,-237.43 179.06,-220.3 166.49,-206.18"/>
<polygon fill="black" stroke="black" points="169.34,-204.12 160.08,-198.98 164.11,-208.78 169.34,-204.12"/>
<text text-anchor="middle" x="200.65" y="-218.7" font-family="Times,serif" font-size="14.00">.&#45;&gt;y</text>
</g>
<!-- node_4 -->
<g id="node5" class="node">
<title>node_4</title>
<polygon fill="#ececff" stroke="#9370db" points="183.88,-109 103.38,-109 103.38,-73 183.88,-73 183.88,-109"/>
<text text-anchor="middle" x="143.62" y="-85.95" font-family="Times,serif" font-size="14.00">Sum[sum2]</text>
</g>
<!-- node_3&#45;&gt;node_4 -->
<g id="edge5" class="edge">
<title>node_3&#45;&gt;node_4</title>
<path fill="none" stroke="black" d="M143.62,-161.41C143.62,-149.76 143.62,-134.05 143.62,-120.52"/>
<polygon fill="black" stroke="black" points="147.13,-120.86 143.63,-110.86 140.13,-120.86 147.13,-120.86"/>
<text text-anchor="middle" x="171.75" y="-130.2" font-family="Times,serif" font-size="14.00">x&#45;&gt;x,y&#45;&gt;y</text>
</g>
<!-- node_5 -->
<g id="node6" class="node">
<title>node_5</title>
<polygon fill="#ececff" stroke="#9370db" points="170.62,-36 116.62,-36 116.62,0 170.62,0 170.62,-36"/>
<text text-anchor="middle" x="143.62" y="-12.95" font-family="Times,serif" font-size="14.00">End</text>
</g>
<!-- node_4&#45;&gt;node_5 -->
<g id="edge6" class="edge">
<title>node_4&#45;&gt;node_5</title>
<path fill="none" stroke="black" d="M143.62,-72.81C143.62,-65.23 143.62,-56.1 143.62,-47.54"/>
<polygon fill="black" stroke="black" points="147.13,-47.54 143.63,-37.54 140.13,-47.54 147.13,-47.54"/>
</g>
</g>
</svg>
