<?xml version="1.0" encoding="UTF-8" standalone="no"?>
<!DOCTYPE svg PUBLIC "-//W3C//DTD SVG 1.1//EN"
 "http://www.w3.org/Graphics/SVG/1.1/DTD/svg11.dtd">
<!-- Generated by graphviz version 12.2.1 (20241206.2353)
 -->
<!-- Title: decision with break Pages: 1 -->
<svg width="131pt" height="303pt"
 viewBox="0.00 0.00 130.50 303.00" xmlns="http://www.w3.org/2000/svg" xmlns:xlink="http://www.w3.org/1999/xlink">
<g id="graph0" class="graph" transform="scale(1 1) rotate(0) translate(4 299)">
<title>decision with break</title>
<polygon fill="white" stroke="none" points="-4,4 -4,-299 126.5,-299 126.5,4 -4,4"/>
<text text-anchor="middle" x="61.25" y="-277.7" font-family="Times,serif" font-size="14.00">decision with break</text>
<!-- node_0 -->
<g id="node1" class="node">
<title>node_0</title>
<polygon fill="#ececff" stroke="#9370db" points="108.38,-197.5 27.88,-197.5 27.88,-161.5 108.38,-161.5 108.38,-197.5"/>
<text text-anchor="middle" x="68.12" y="-174.45" font-family="Times,serif" font-size="14.00">add1[plus2]</text>
</g>
<!-- node_2 -->
<g id="node3" class="node">
<title>node_2</title>
<polygon fill="#ececff" stroke="#9370db" stroke-dasharray="5,2" points="68.12,-109 14.12,-109 14.12,-73 68.12,-73 68.12,-109"/>
<text text-anchor="middle" x="41.12" y="-85.95" font-family="Times,serif" font-size="14.00">break</text>
</g>
<!-- node_0&#45;&gt;node_2 -->
<g id="edge1" class="edge">
<title>node_0&#45;&gt;node_2</title>
<path fill="none" stroke="black" stroke-width="2" d="M50.26,-161.07C46.03,-155.86 42.11,-149.83 39.88,-143.5 37.33,-136.31 36.63,-128.19 36.81,-120.56"/>
<polygon fill="black" stroke="black" stroke-width="2" points="40.17,-122.44 37.46,-112.2 33.19,-121.89 40.17,-122.44"/>
<text text-anchor="middle" x="62" y="-130.2" font-family="Times,serif" font-size="14.00">?(is112)</text>
</g>
<!-- node_3 -->
<g id="node4" class="node">
<title>node_3</title>
<polygon fill="#ececff" stroke="#9370db" points="97.12,-36 43.12,-36 43.12,0 97.12,0 97.12,-36"/>
<text text-anchor="middle" x="70.12" y="-12.95" font-family="Times,serif" font-size="14.00">End</text>
</g>
<!-- node_0&#45;&gt;node_3 -->
<g id="edge2" class="edge">
<title>node_0&#45;&gt;node_3</title>
<path fill="none" stroke="black" stroke-width="2" d="M77.8,-161.21C80.38,-155.72 82.82,-149.51 84.12,-143.5 91.24,-110.84 84.77,-72.53 78.46,-47.12"/>
<polygon fill="black" stroke="black" stroke-width="2" points="82.25,-47.79 76.3,-39.02 75.49,-49.58 82.25,-47.79"/>
</g>
<!-- node_1 -->
<g id="node2" class="node">
<title>node_1</title>
<polygon fill="#ececff" stroke="#9370db" points="95.12,-270.5 41.12,-270.5 41.12,-234.5 95.12,-234.5 95.12,-270.5"/>
<text text-anchor="middle" x="68.12" y="-247.45" font-family="Times,serif" font-size="14.00">Start</text>
</g>
<!-- node_1&#45;&gt;node_0 -->
<g id="edge3" class="edge">
<title>node_1&#45;&gt;node_0</title>
<path fill="none" stroke="black" stroke-width="2" d="M68.12,-234.31C68.12,-226.73 68.12,-217.6 68.12,-209.04"/>
<polygon fill="black" stroke="black" stroke-width="2" points="71.63,-210.56 68.13,-200.56 64.63,-210.56 71.63,-210.56"/>
</g>
<!-- node_2&#45;&gt;node_3 -->
<g id="edge4" class="edge">
<title>node_2&#45;&gt;node_3</title>
<path fill="none" stroke="black" stroke-width="2" d="M48.15,-72.81C51.35,-64.96 55.23,-55.47 58.83,-46.66"/>
<polygon fill="black" stroke="black" stroke-width="2" points="61.48,-49.41 62.02,-38.83 55,-46.77 61.48,-49.41"/>
</g>
</g>
</svg>
