<?xml version="1.0" encoding="UTF-8" standalone="no"?>
<!DOCTYPE svg PUBLIC "-//W3C//DTD SVG 1.1//EN"
 "http://www.w3.org/Graphics/SVG/1.1/DTD/svg11.dtd">
<!-- Generated by graphviz version 12.2.1 (20241206.2353)
 -->
<!-- Title: decision with break Pages: 1 -->
<svg width="131pt" height="303pt"
 viewBox="0.00 0.00 130.50 303.00" xmlns="http://www.w3.org/2000/svg" xmlns:xlink="http://www.w3.org/1999/xlink">
<g id="graph0" class="graph" transform="scale(1 1) rotate(0) translate(4 299)">
<title>decision with break</title>
<polygon fill="white" stroke="none" points="-4,4 -4,-299 126.5,-299 126.5,4 -4,4"/>
<text text-anchor="middle" x="61.25" y="-277.7" font-family="Times,serif" font-size="14.00">decision with break</text>
<!-- node_0 -->
<g id="node1" class="node">
<title>node_0</title>
<polygon fill="#ececff" stroke="#9370db" points="99.5,-197.5 19,-197.5 19,-161.5 99.5,-161.5 99.5,-197.5"/>
<text text-anchor="middle" x="59.25" y="-174.45" font-family="Times,serif" font-size="14.00">add1[plus2]</text>
</g>
<!-- node_2 -->
<g id="node3" class="node">
<title>node_2</title>
<polygon fill="#ececff" stroke="#9370db" stroke-dasharray="5,2" points="86.25,-124.5 32.25,-124.5 32.25,-88.5 86.25,-88.5 86.25,-124.5"/>
<text text-anchor="middle" x="59.25" y="-101.45" font-family="Times,serif" font-size="14.00">break</text>
</g>
<!-- node_0&#45;&gt;node_2 -->
<g id="edge1" class="edge">
<title>node_0&#45;&gt;node_2</title>
<path fill="none" stroke="black" stroke-width="2" d="M53.37,-161.31C52.57,-153.64 52.32,-144.39 52.63,-135.74"/>
<polygon fill="black" stroke="black" stroke-width="2" points="56,-137.76 53.18,-127.55 49.01,-137.29 56,-137.76"/>
</g>
<!-- node_1 -->
<g id="node2" class="node">
<title>node_1</title>
<polygon fill="#ececff" stroke="#9370db" points="86.25,-270.5 32.25,-270.5 32.25,-234.5 86.25,-234.5 86.25,-270.5"/>
<text text-anchor="middle" x="59.25" y="-247.45" font-family="Times,serif" font-size="14.00">Start</text>
</g>
<!-- node_1&#45;&gt;node_0 -->
<g id="edge2" class="edge">
<title>node_1&#45;&gt;node_0</title>
<path fill="none" stroke="black" stroke-width="2" d="M59.25,-234.31C59.25,-226.73 59.25,-217.6 59.25,-209.04"/>
<polygon fill="black" stroke="black" stroke-width="2" points="62.75,-210.56 59.25,-200.56 55.75,-210.56 62.75,-210.56"/>
</g>
<!-- node_2&#45;&gt;node_0 -->
<g id="edge3" class="edge">
<title>node_2&#45;&gt;node_0</title>
<path fill="none" stroke="black" stroke-width="2" d="M65.11,-124.53C65.92,-132.18 66.18,-141.42 65.88,-150.08"/>
<polygon fill="black" stroke="black" stroke-width="2" points="62.51,-148.08 65.33,-158.29 69.49,-148.55 62.51,-148.08"/>
</g>
<!-- node_3 -->
<g id="node4" class="node">
<title>node_3</title>
<polygon fill="#ececff" stroke="#9370db" points="86.25,-36 32.25,-36 32.25,0 86.25,0 86.25,-36"/>
<text text-anchor="middle" x="59.25" y="-12.95" font-family="Times,serif" font-size="14.00">End</text>
</g>
<!-- node_2&#45;&gt;node_3 -->
<g id="edge4" class="edge">
<title>node_2&#45;&gt;node_3</title>
<path fill="none" stroke="black" stroke-width="2" d="M59.25,-88.41C59.25,-76.76 59.25,-61.05 59.25,-47.52"/>
<polygon fill="black" stroke="black" stroke-width="2" points="62.75,-49.38 59.25,-39.38 55.75,-49.38 62.75,-49.38"/>
<text text-anchor="middle" x="81.38" y="-57.2" font-family="Times,serif" font-size="14.00">?(is112)</text>
</g>
</g>
</svg>
