<?xml version="1.0" encoding="UTF-8" standalone="no"?>
<!DOCTYPE svg PUBLIC "-//W3C//DTD SVG 1.1//EN"
 "http://www.w3.org/Graphics/SVG/1.1/DTD/svg11.dtd">
<!-- Generated by graphviz version 12.2.1 (20241206.2353)
 -->
<!-- Title: batch_processing_comb_bad Pages: 1 -->
<svg width="748pt" height="319pt"
 viewBox="0.00 0.00 748.00 318.50" xmlns="http://www.w3.org/2000/svg" xmlns:xlink="http://www.w3.org/1999/xlink">
<g id="graph0" class="graph" transform="scale(1 1) rotate(0) translate(4 314.5)">
<title>batch_processing_comb_bad</title>
<polygon fill="white" stroke="none" points="-4,4 -4,-314.5 744,-314.5 744,4 -4,4"/>
<text text-anchor="middle" x="370" y="-293.2" font-family="Times,serif" font-size="14.00">batch_processing_comb_bad</text>
<!-- node_0 -->
<g id="node1" class="node">
<title>node_0</title>
<polygon fill="#ececff" stroke="#9370db" points="713.5,-197.5 537.75,-197.5 537.75,-161.5 713.5,-161.5 713.5,-197.5"/>
<text text-anchor="middle" x="625.62" y="-174.45" font-family="Times,serif" font-size="14.00">non_stream_first[add_to_arr]</text>
</g>
<!-- node_4 -->
<g id="node5" class="node">
<title>node_4</title>
<polygon fill="#ececff" stroke="#9370db" points="491.88,-109 393.38,-109 393.38,-73 491.88,-73 491.88,-109"/>
<text text-anchor="middle" x="442.62" y="-85.95" font-family="Times,serif" font-size="14.00">Concat[concat]</text>
</g>
<!-- node_0&#45;&gt;node_4 -->
<g id="edge2" class="edge">
<title>node_0&#45;&gt;node_4</title>
<path fill="none" stroke="black" d="M589.03,-161.2C560.45,-147.69 520.53,-128.82 489.59,-114.2"/>
<polygon fill="black" stroke="black" points="491.37,-111.17 480.84,-110.06 488.38,-117.5 491.37,-111.17"/>
</g>
<!-- state_x -->
<g id="node2" class="node">
<title>state_x</title>
<path fill="none" stroke="#9370db" d="M740,-282.73C740,-284.53 726.83,-286 710.62,-286 694.42,-286 681.25,-284.53 681.25,-282.73 681.25,-282.73 681.25,-253.27 681.25,-253.27 681.25,-251.47 694.42,-250 710.62,-250 726.83,-250 740,-251.47 740,-253.27 740,-253.27 740,-282.73 740,-282.73"/>
<path fill="none" stroke="#9370db" d="M740,-282.73C740,-280.92 726.83,-279.45 710.62,-279.45 694.42,-279.45 681.25,-280.92 681.25,-282.73"/>
<text text-anchor="middle" x="710.62" y="-262.95" font-family="Times,serif" font-size="14.00">State[x]</text>
</g>
<!-- node_2 -->
<g id="node3" class="node">
<title>node_2</title>
<polygon fill="#ececff" stroke="#9370db" points="560.62,-286 506.62,-286 506.62,-250 560.62,-250 560.62,-286"/>
<text text-anchor="middle" x="533.62" y="-262.95" font-family="Times,serif" font-size="14.00">Start</text>
</g>
<!-- node_2&#45;&gt;node_0 -->
<g id="edge3" class="edge">
<title>node_2&#45;&gt;node_0</title>
<path fill="none" stroke="black" d="M551.8,-249.91C565.32,-237.2 583.98,-219.66 599.15,-205.39"/>
<polygon fill="black" stroke="black" points="601.18,-208.29 606.07,-198.89 596.39,-203.19 601.18,-208.29"/>
<text text-anchor="middle" x="603.62" y="-218.7" font-family="Times,serif" font-size="14.00">.&#45;&gt;arr</text>
</g>
<!-- node_3 -->
<g id="node4" class="node">
<title>node_3</title>
<polygon fill="#ececff" stroke="#9370db" stroke-width="2" points="519.25,-197.5 0,-197.5 0,-161.5 519.25,-161.5 519.25,-197.5"/>
<text text-anchor="middle" x="259.62" y="-174.45" font-family="Times,serif" font-size="14.00">stream_first[MakeItemsAsync(num_items=3,delta=10,sleep=0.05), foreach=[x], flat=True]</text>
</g>
<!-- node_2&#45;&gt;node_3 -->
<g id="edge4" class="edge">
<title>node_2&#45;&gt;node_3</title>
<path fill="none" stroke="black" d="M506.35,-258.39C464.58,-245.2 383.52,-219.61 325.72,-201.37"/>
<polygon fill="black" stroke="black" points="326.88,-198.06 316.29,-198.39 324.77,-204.74 326.88,-198.06"/>
<text text-anchor="middle" x="432.79" y="-218.7" font-family="Times,serif" font-size="14.00">.&#45;&gt;x</text>
</g>
<!-- node_3&#45;&gt;node_4 -->
<g id="edge5" class="edge">
<title>node_3&#45;&gt;node_4</title>
<path fill="none" stroke="black" d="M296.22,-161.2C324.8,-147.69 364.72,-128.82 395.66,-114.2"/>
<polygon fill="black" stroke="black" points="396.87,-117.5 404.41,-110.06 393.88,-111.17 396.87,-117.5"/>
<text text-anchor="middle" x="379.14" y="-130.2" font-family="Times,serif" font-size="14.00">.&#45;&gt;1</text>
</g>
<!-- node_5 -->
<g id="node6" class="node">
<title>node_5</title>
<polygon fill="#ececff" stroke="#9370db" points="469.62,-36 415.62,-36 415.62,0 469.62,0 469.62,-36"/>
<text text-anchor="middle" x="442.62" y="-12.95" font-family="Times,serif" font-size="14.00">End</text>
</g>
<!-- node_4&#45;&gt;node_5 -->
<g id="edge6" class="edge">
<title>node_4&#45;&gt;node_5</title>
<path fill="none" stroke="black" d="M442.62,-72.81C442.62,-65.23 442.62,-56.1 442.62,-47.54"/>
<polygon fill="black" stroke="black" points="446.13,-47.54 442.63,-37.54 439.13,-47.54 446.13,-47.54"/>
</g>
<!-- node_1 -->
<g id="node7" class="node">
<title>node_1</title>
<ellipse fill="none" stroke="black" cx="625.62" cy="-268" rx="38.04" ry="18"/>
<text text-anchor="middle" x="625.62" y="-262.95" font-family="Times,serif" font-size="14.00">node_1</text>
</g>
<!-- node_1&#45;&gt;node_0 -->
<g id="edge1" class="edge">
<title>node_1&#45;&gt;node_0</title>
<path fill="none" stroke="black" stroke-dasharray="5,2" d="M625.62,-249.91C625.62,-238.26 625.62,-222.55 625.62,-209.02"/>
<polygon fill="black" stroke="black" points="629.13,-209.36 625.63,-199.36 622.13,-209.36 629.13,-209.36"/>
<text text-anchor="middle" x="637.25" y="-218.7" font-family="Times,serif" font-size="14.00">.&#45;&gt;x</text>
</g>
</g>
</svg>
