<?xml version="1.0" encoding="UTF-8" standalone="no"?>
<!DOCTYPE svg PUBLIC "-//W3C//DTD SVG 1.1//EN"
 "http://www.w3.org/Graphics/SVG/1.1/DTD/svg11.dtd">
<!-- Generated by graphviz version 12.2.1 (20241206.2353)
 -->
<!-- Title: ports Pages: 1 -->
<svg width="175pt" height="230pt"
 viewBox="0.00 0.00 175.38 230.00" xmlns="http://www.w3.org/2000/svg" xmlns:xlink="http://www.w3.org/1999/xlink">
<g id="graph0" class="graph" transform="scale(1 1) rotate(0) translate(4 226)">
<title>ports</title>
<polygon fill="white" stroke="none" points="-4,4 -4,-226 171.38,-226 171.38,4 -4,4"/>
<text text-anchor="middle" x="83.69" y="-204.7" font-family="Times,serif" font-size="14.00">ports</text>
<!-- node_0 -->
<g id="node1" class="node">
<title>node_0</title>
<polygon fill="#ececff" stroke="#9370db" points="55.62,-197.5 1.62,-197.5 1.62,-161.5 55.62,-161.5 55.62,-197.5"/>
<text text-anchor="middle" x="28.62" y="-174.45" font-family="Times,serif" font-size="14.00">Start</text>
</g>
<!-- node_1 -->
<g id="node2" class="node">
<title>node_1</title>
<polygon fill="#ececff" stroke="#9370db" points="57.25,-109 0,-109 0,-73 57.25,-73 57.25,-109"/>
<text text-anchor="middle" x="28.62" y="-85.95" font-family="Times,serif" font-size="14.00">transfer</text>
</g>
<!-- node_0&#45;&gt;node_1 -->
<g id="edge1" class="edge">
<title>node_0&#45;&gt;node_1</title>
<path fill="none" stroke="black" d="M28.62,-161.41C28.62,-149.76 28.62,-134.05 28.62,-120.52"/>
<polygon fill="black" stroke="black" points="32.13,-120.86 28.63,-110.86 25.13,-120.86 32.13,-120.86"/>
<text text-anchor="middle" x="98" y="-130.2" font-family="Times,serif" font-size="14.00">output_port&#45;&gt;input1_port</text>
</g>
<!-- node_2 -->
<g id="node3" class="node">
<title>node_2</title>
<polygon fill="#ececff" stroke="#9370db" points="55.62,-36 1.62,-36 1.62,0 55.62,0 55.62,-36"/>
<text text-anchor="middle" x="28.62" y="-12.95" font-family="Times,serif" font-size="14.00">End</text>
</g>
<!-- node_1&#45;&gt;node_2 -->
<g id="edge2" class="edge">
<title>node_1&#45;&gt;node_2</title>
<path fill="none" stroke="black" d="M28.62,-72.81C28.62,-65.23 28.62,-56.1 28.62,-47.54"/>
<polygon fill="black" stroke="black" points="32.13,-47.54 28.63,-37.54 25.13,-47.54 32.13,-47.54"/>
</g>
</g>
</svg>
