<?xml version="1.0" encoding="UTF-8" standalone="no"?>
<!DOCTYPE svg PUBLIC "-//W3C//DTD SVG 1.1//EN"
 "http://www.w3.org/Graphics/SVG/1.1/DTD/svg11.dtd">
<!-- Generated by graphviz version 12.2.1 (20241206.2353)
 -->
<!-- Title: decision with break loop Pages: 1 -->
<svg width="158pt" height="230pt"
 viewBox="0.00 0.00 158.25 230.00" xmlns="http://www.w3.org/2000/svg" xmlns:xlink="http://www.w3.org/1999/xlink">
<g id="graph0" class="graph" transform="scale(1 1) rotate(0) translate(4 226)">
<title>decision with break loop</title>
<polygon fill="white" stroke="none" points="-4,4 -4,-226 154.25,-226 154.25,4 -4,4"/>
<text text-anchor="middle" x="75.12" y="-204.7" font-family="Times,serif" font-size="14.00">decision with break loop</text>
<!-- node_0 -->
<g id="node1" class="node">
<title>node_0</title>
<polygon fill="#ececff" stroke="#9370db" points="86,-124.5 5.5,-124.5 5.5,-88.5 86,-88.5 86,-124.5"/>
<text text-anchor="middle" x="45.75" y="-101.45" font-family="Times,serif" font-size="14.00">add1[plus2]</text>
</g>
<!-- node_2 -->
<g id="node3" class="node">
<title>node_2</title>
<polygon fill="#ececff" stroke="#9370db" stroke-dasharray="5,2" points="72.75,-36 18.75,-36 18.75,0 72.75,0 72.75,-36"/>
<text text-anchor="middle" x="45.75" y="-12.95" font-family="Times,serif" font-size="14.00">break</text>
</g>
<!-- node_0&#45;&gt;node_2 -->
<g id="edge2" class="edge">
<title>node_0&#45;&gt;node_2</title>
<path fill="none" stroke="black" stroke-width="2" d="M40.25,-88.41C38.97,-76.76 38.67,-61.05 39.36,-47.52"/>
<polygon fill="black" stroke="black" stroke-width="2" points="42.71,-49.61 39.99,-39.37 35.73,-49.07 42.71,-49.61"/>
</g>
<!-- node_3 -->
<g id="node4" class="node">
<title>node_3</title>
<polygon fill="#ececff" stroke="#9370db" points="144.75,-36 90.75,-36 90.75,0 144.75,0 144.75,-36"/>
<text text-anchor="middle" x="117.75" y="-12.95" font-family="Times,serif" font-size="14.00">End</text>
</g>
<!-- node_0&#45;&gt;node_3 -->
<g id="edge1" class="edge">
<title>node_0&#45;&gt;node_3</title>
<path fill="none" stroke="black" stroke-width="2" d="M59.97,-88.41C70.26,-76.05 84.35,-59.13 96.04,-45.08"/>
<polygon fill="black" stroke="black" stroke-width="2" points="97.66,-48.6 101.37,-38.68 92.28,-44.12 97.66,-48.6"/>
<text text-anchor="middle" x="110.32" y="-57.2" font-family="Times,serif" font-size="14.00">?(is112)</text>
</g>
<!-- node_1 -->
<g id="node2" class="node">
<title>node_1</title>
<polygon fill="#ececff" stroke="#9370db" points="72.75,-197.5 18.75,-197.5 18.75,-161.5 72.75,-161.5 72.75,-197.5"/>
<text text-anchor="middle" x="45.75" y="-174.45" font-family="Times,serif" font-size="14.00">Start</text>
</g>
<!-- node_1&#45;&gt;node_0 -->
<g id="edge3" class="edge">
<title>node_1&#45;&gt;node_0</title>
<path fill="none" stroke="black" stroke-width="2" d="M45.75,-161.31C45.75,-153.73 45.75,-144.6 45.75,-136.04"/>
<polygon fill="black" stroke="black" stroke-width="2" points="49.25,-137.56 45.75,-127.56 42.25,-137.56 49.25,-137.56"/>
</g>
<!-- node_2&#45;&gt;node_0 -->
<g id="edge4" class="edge">
<title>node_2&#45;&gt;node_0</title>
<path fill="none" stroke="black" stroke-width="2" d="M51.28,-36.35C52.55,-48.06 52.83,-63.79 52.12,-77.28"/>
<polygon fill="black" stroke="black" stroke-width="2" points="48.78,-75.15 51.49,-85.39 55.76,-75.7 48.78,-75.15"/>
</g>
</g>
</svg>
