<?xml version="1.0" encoding="UTF-8" standalone="no"?>
<!DOCTYPE svg PUBLIC "-//W3C//DTD SVG 1.1//EN"
 "http://www.w3.org/Graphics/SVG/1.1/DTD/svg11.dtd">
<!-- Generated by graphviz version 12.2.1 (20241206.2353)
 -->
<!-- Title: test Pages: 1 -->
<svg width="248pt" height="303pt"
 viewBox="0.00 0.00 248.25 303.00" xmlns="http://www.w3.org/2000/svg" xmlns:xlink="http://www.w3.org/1999/xlink">
<g id="graph0" class="graph" transform="scale(1 1) rotate(0) translate(4 299)">
<title>test</title>
<polygon fill="white" stroke="none" points="-4,4 -4,-299 244.25,-299 244.25,4 -4,4"/>
<text text-anchor="middle" x="120.12" y="-277.7" font-family="Times,serif" font-size="14.00">test</text>
<!-- node_0 -->
<g id="node1" class="node">
<title>node_0</title>
<polygon fill="#ececff" stroke="#9370db" points="111.25,-197.5 0,-197.5 0,-161.5 111.25,-161.5 111.25,-197.5"/>
<text text-anchor="middle" x="55.62" y="-174.45" font-family="Times,serif" font-size="14.00">add1[plus1async]</text>
</g>
<!-- node_3 -->
<g id="node4" class="node">
<title>node_3</title>
<polygon fill="#ececff" stroke="#9370db" points="152.75,-109 86.5,-109 86.5,-73 152.75,-73 152.75,-109"/>
<text text-anchor="middle" x="119.62" y="-85.95" font-family="Times,serif" font-size="14.00">prep_end</text>
</g>
<!-- node_0&#45;&gt;node_3 -->
<g id="edge1" class="edge">
<title>node_0&#45;&gt;node_3</title>
<path fill="none" stroke="black" d="M68.27,-161.41C77.33,-149.17 89.7,-132.45 100.03,-118.49"/>
<polygon fill="black" stroke="black" points="102.75,-120.69 105.89,-110.57 97.13,-116.52 102.75,-120.69"/>
<text text-anchor="middle" x="104.98" y="-130.2" font-family="Times,serif" font-size="14.00">.&#45;&gt;x</text>
</g>
<!-- node_1 -->
<g id="node2" class="node">
<title>node_1</title>
<polygon fill="#ececff" stroke="#9370db" points="240.25,-197.5 129,-197.5 129,-161.5 240.25,-161.5 240.25,-197.5"/>
<text text-anchor="middle" x="184.62" y="-174.45" font-family="Times,serif" font-size="14.00">add2[plus1async]</text>
</g>
<!-- node_1&#45;&gt;node_3 -->
<g id="edge2" class="edge">
<title>node_1&#45;&gt;node_3</title>
<path fill="none" stroke="black" d="M171.78,-161.41C162.58,-149.17 150.02,-132.45 139.53,-118.49"/>
<polygon fill="black" stroke="black" points="142.38,-116.45 133.57,-110.56 136.78,-120.66 142.38,-116.45"/>
<text text-anchor="middle" x="169.57" y="-130.2" font-family="Times,serif" font-size="14.00">.&#45;&gt;y</text>
</g>
<!-- node_2 -->
<g id="node3" class="node">
<title>node_2</title>
<polygon fill="#ececff" stroke="#9370db" points="146.62,-270.5 92.62,-270.5 92.62,-234.5 146.62,-234.5 146.62,-270.5"/>
<text text-anchor="middle" x="119.62" y="-247.45" font-family="Times,serif" font-size="14.00">Start</text>
</g>
<!-- node_2&#45;&gt;node_0 -->
<g id="edge3" class="edge">
<title>node_2&#45;&gt;node_0</title>
<path fill="none" stroke="black" d="M104.13,-234.31C96.43,-225.77 86.97,-215.27 78.45,-205.82"/>
<polygon fill="black" stroke="black" points="81.28,-203.74 71.99,-198.65 76.08,-208.42 81.28,-203.74"/>
</g>
<!-- node_2&#45;&gt;node_1 -->
<g id="edge4" class="edge">
<title>node_2&#45;&gt;node_1</title>
<path fill="none" stroke="black" d="M135.36,-234.31C143.18,-225.77 152.79,-215.27 161.44,-205.82"/>
<polygon fill="black" stroke="black" points="163.84,-208.38 168.01,-198.65 158.68,-203.66 163.84,-208.38"/>
</g>
<!-- node_4 -->
<g id="node5" class="node">
<title>node_4</title>
<polygon fill="#ececff" stroke="#9370db" points="146.62,-36 92.62,-36 92.62,0 146.62,0 146.62,-36"/>
<text text-anchor="middle" x="119.62" y="-12.95" font-family="Times,serif" font-size="14.00">End</text>
</g>
<!-- node_3&#45;&gt;node_4 -->
<g id="edge5" class="edge">
<title>node_3&#45;&gt;node_4</title>
<path fill="none" stroke="black" d="M119.62,-72.81C119.62,-65.23 119.62,-56.1 119.62,-47.54"/>
<polygon fill="black" stroke="black" points="123.13,-47.54 119.63,-37.54 116.13,-47.54 123.13,-47.54"/>
</g>
</g>
</svg>
