<?xml version="1.0" encoding="UTF-8" standalone="no"?>
<!DOCTYPE svg PUBLIC "-//W3C//DTD SVG 1.1//EN"
 "http://www.w3.org/Graphics/SVG/1.1/DTD/svg11.dtd">
<!-- Generated by graphviz version 12.2.1 (20241206.2353)
 -->
<!-- Title: parallel_flow Pages: 1 -->
<svg width="296pt" height="392pt"
 viewBox="0.00 0.00 296.25 391.50" xmlns="http://www.w3.org/2000/svg" xmlns:xlink="http://www.w3.org/1999/xlink">
<g id="graph0" class="graph" transform="scale(1 1) rotate(0) translate(4 387.5)">
<title>parallel_flow</title>
<polygon fill="white" stroke="none" points="-4,4 -4,-387.5 292.25,-387.5 292.25,4 -4,4"/>
<text text-anchor="middle" x="144.12" y="-366.2" font-family="Times,serif" font-size="14.00">parallel_flow</text>
<!-- node_0 -->
<g id="node1" class="node">
<title>node_0</title>
<polygon fill="#ececff" stroke="#9370db" points="170.62,-359 116.62,-359 116.62,-323 170.62,-323 170.62,-359"/>
<text text-anchor="middle" x="143.62" y="-335.95" font-family="Times,serif" font-size="14.00">Start</text>
</g>
<!-- node_1 -->
<g id="node2" class="node">
<title>node_1</title>
<polygon fill="#ececff" stroke="#9370db" points="135.25,-270.5 0,-270.5 0,-234.5 135.25,-234.5 135.25,-270.5"/>
<text text-anchor="middle" x="67.62" y="-247.45" font-family="Times,serif" font-size="14.00">Parallel_node1[plus1]</text>
</g>
<!-- node_0&#45;&gt;node_1 -->
<g id="edge1" class="edge">
<title>node_0&#45;&gt;node_1</title>
<path fill="none" stroke="black" d="M128.61,-322.91C117.65,-310.43 102.6,-293.3 90.19,-279.18"/>
<polygon fill="black" stroke="black" points="93.1,-277.19 83.87,-271.99 87.84,-281.81 93.1,-277.19"/>
<text text-anchor="middle" x="125.56" y="-291.7" font-family="Times,serif" font-size="14.00">x&#45;&gt;x</text>
</g>
<!-- node_2 -->
<g id="node3" class="node">
<title>node_2</title>
<polygon fill="#ececff" stroke="#9370db" points="288.25,-270.5 153,-270.5 153,-234.5 288.25,-234.5 288.25,-270.5"/>
<text text-anchor="middle" x="220.62" y="-247.45" font-family="Times,serif" font-size="14.00">Parallel_node2[plus2]</text>
</g>
<!-- node_0&#45;&gt;node_2 -->
<g id="edge2" class="edge">
<title>node_0&#45;&gt;node_2</title>
<path fill="none" stroke="black" d="M158.84,-322.91C169.94,-310.43 185.19,-293.3 197.76,-279.18"/>
<polygon fill="black" stroke="black" points="200.14,-281.78 204.17,-271.98 194.91,-277.12 200.14,-281.78"/>
<text text-anchor="middle" x="202.15" y="-291.7" font-family="Times,serif" font-size="14.00">y&#45;&gt;y</text>
</g>
<!-- node_3 -->
<g id="node4" class="node">
<title>node_3</title>
<polygon fill="#ececff" stroke="#9370db" points="185.38,-182 101.88,-182 101.88,-146 185.38,-146 185.38,-182"/>
<text text-anchor="middle" x="143.62" y="-158.95" font-family="Times,serif" font-size="14.00">Parallel_end</text>
</g>
<!-- node_1&#45;&gt;node_3 -->
<g id="edge3" class="edge">
<title>node_1&#45;&gt;node_3</title>
<path fill="none" stroke="black" d="M82.64,-234.41C93.6,-221.93 108.65,-204.8 121.06,-190.68"/>
<polygon fill="black" stroke="black" points="123.41,-193.31 127.38,-183.49 118.15,-188.69 123.41,-193.31"/>
<text text-anchor="middle" x="124.06" y="-203.2" font-family="Times,serif" font-size="14.00">.&#45;&gt;x</text>
</g>
<!-- node_2&#45;&gt;node_3 -->
<g id="edge4" class="edge">
<title>node_2&#45;&gt;node_3</title>
<path fill="none" stroke="black" d="M205.41,-234.41C194.31,-221.93 179.06,-204.8 166.49,-190.68"/>
<polygon fill="black" stroke="black" points="169.34,-188.62 160.08,-183.48 164.11,-193.28 169.34,-188.62"/>
<text text-anchor="middle" x="200.65" y="-203.2" font-family="Times,serif" font-size="14.00">.&#45;&gt;y</text>
</g>
<!-- node_4 -->
<g id="node5" class="node">
<title>node_4</title>
<polygon fill="#ececff" stroke="#9370db" points="234.88,-109 52.38,-109 52.38,-73 234.88,-73 234.88,-109"/>
<text text-anchor="middle" x="143.62" y="-85.95" font-family="Times,serif" font-size="14.00">Sum[&lt;built&#45;in function sum&gt;]</text>
</g>
<!-- node_3&#45;&gt;node_4 -->
<g id="edge5" class="edge">
<title>node_3&#45;&gt;node_4</title>
<path fill="none" stroke="black" d="M143.62,-145.81C143.62,-138.23 143.62,-129.1 143.62,-120.54"/>
<polygon fill="black" stroke="black" points="147.13,-120.54 143.63,-110.54 140.13,-120.54 147.13,-120.54"/>
</g>
<!-- node_5 -->
<g id="node6" class="node">
<title>node_5</title>
<polygon fill="#ececff" stroke="#9370db" points="170.62,-36 116.62,-36 116.62,0 170.62,0 170.62,-36"/>
<text text-anchor="middle" x="143.62" y="-12.95" font-family="Times,serif" font-size="14.00">End</text>
</g>
<!-- node_4&#45;&gt;node_5 -->
<g id="edge6" class="edge">
<title>node_4&#45;&gt;node_5</title>
<path fill="none" stroke="black" d="M143.62,-72.81C143.62,-65.23 143.62,-56.1 143.62,-47.54"/>
<polygon fill="black" stroke="black" points="147.13,-47.54 143.63,-37.54 140.13,-47.54 147.13,-47.54"/>
</g>
</g>
</svg>
