<?xml version="1.0" encoding="UTF-8" standalone="no"?>
<!DOCTYPE svg PUBLIC "-//W3C//DTD SVG 1.1//EN"
 "http://www.w3.org/Graphics/SVG/1.1/DTD/svg11.dtd">
<!-- Generated by graphviz version 12.2.1 (20241206.2353)
 -->
<!-- Title: save_state Pages: 1 -->
<svg width="156pt" height="213pt"
 viewBox="0.00 0.00 156.00 212.50" xmlns="http://www.w3.org/2000/svg" xmlns:xlink="http://www.w3.org/1999/xlink">
<g id="graph0" class="graph" transform="scale(1 1) rotate(0) translate(4 208.5)">
<title>save_state</title>
<polygon fill="white" stroke="none" points="-4,4 -4,-208.5 152,-208.5 152,4 -4,4"/>
<text text-anchor="middle" x="74" y="-187.2" font-family="Times,serif" font-size="14.00">save_state</text>
<!-- node_0 -->
<g id="node1" class="node">
<title>node_0</title>
<polygon fill="#ececff" stroke="#9370db" points="115.88,-108 42.12,-108 42.12,-72 115.88,-72 115.88,-108"/>
<text text-anchor="middle" x="79" y="-84.95" font-family="Times,serif" font-size="14.00">add[plus1]</text>
</g>
<!-- node_1 -->
<g id="node2" class="node">
<title>node_1</title>
<path fill="#ececff" stroke="#9370db" d="M76,-32.73C76,-34.53 58.97,-36 38,-36 17.03,-36 0,-34.53 0,-32.73 0,-32.73 0,-3.27 0,-3.27 0,-1.47 17.03,0 38,0 58.97,0 76,-1.47 76,-3.27 76,-3.27 76,-32.73 76,-32.73"/>
<path fill="none" stroke="#9370db" d="M76,-32.73C76,-30.92 58.97,-29.45 38,-29.45 17.03,-29.45 0,-30.92 0,-32.73"/>
<text text-anchor="middle" x="38" y="-12.95" font-family="Times,serif" font-size="14.00">State[save]</text>
</g>
<!-- node_0&#45;&gt;node_1 -->
<g id="edge1" class="edge">
<title>node_0&#45;&gt;node_1</title>
<path fill="none" stroke="black" stroke-dasharray="5,2" d="M68.87,-71.7C64.3,-63.9 58.8,-54.51 53.71,-45.83"/>
<polygon fill="black" stroke="black" points="56.86,-44.27 48.78,-37.41 50.82,-47.81 56.86,-44.27"/>
</g>
<!-- node_3 -->
<g id="node4" class="node">
<title>node_3</title>
<polygon fill="#ececff" stroke="#9370db" points="148,-36 94,-36 94,0 148,0 148,-36"/>
<text text-anchor="middle" x="121" y="-12.95" font-family="Times,serif" font-size="14.00">End</text>
</g>
<!-- node_0&#45;&gt;node_3 -->
<g id="edge2" class="edge">
<title>node_0&#45;&gt;node_3</title>
<path fill="none" stroke="black" stroke-width="2" d="M89.38,-71.7C94.06,-63.9 99.69,-54.51 104.9,-45.83"/>
<polygon fill="black" stroke="black" stroke-width="2" points="107.04,-49.08 109.18,-38.7 101.03,-45.47 107.04,-49.08"/>
</g>
<!-- node_2 -->
<g id="node3" class="node">
<title>node_2</title>
<polygon fill="#ececff" stroke="#9370db" points="106,-180 52,-180 52,-144 106,-144 106,-180"/>
<text text-anchor="middle" x="79" y="-156.95" font-family="Times,serif" font-size="14.00">Start</text>
</g>
<!-- node_2&#45;&gt;node_0 -->
<g id="edge3" class="edge">
<title>node_2&#45;&gt;node_0</title>
<path fill="none" stroke="black" stroke-width="2" d="M79,-143.7C79,-136.41 79,-127.73 79,-119.54"/>
<polygon fill="black" stroke="black" stroke-width="2" points="82.5,-121.13 79,-111.13 75.5,-121.13 82.5,-121.13"/>
</g>
</g>
</svg>
