<?xml version="1.0" encoding="UTF-8" standalone="no"?>
<!DOCTYPE svg PUBLIC "-//W3C//DTD SVG 1.1//EN"
 "http://www.w3.org/Graphics/SVG/1.1/DTD/svg11.dtd">
<!-- Generated by graphviz version 12.2.1 (20241206.2353)
 -->
<!-- Title: decision_diagram Pages: 1 -->
<svg width="184pt" height="303pt"
 viewBox="0.00 0.00 184.00 303.00" xmlns="http://www.w3.org/2000/svg" xmlns:xlink="http://www.w3.org/1999/xlink">
<g id="graph0" class="graph" transform="scale(1 1) rotate(0) translate(4 299)">
<title>decision_diagram</title>
<polygon fill="white" stroke="none" points="-4,4 -4,-299 180,-299 180,4 -4,4"/>
<text text-anchor="middle" x="88" y="-277.7" font-family="Times,serif" font-size="14.00">decision_diagram</text>
<!-- node_0 -->
<g id="node1" class="node">
<title>node_0</title>
<polygon fill="#ececff" stroke="#9370db" points="153.62,-197.5 2.62,-197.5 2.62,-161.5 153.62,-161.5 153.62,-197.5"/>
<text text-anchor="middle" x="78.12" y="-174.45" font-family="Times,serif" font-size="14.00">Conditional_node[plus1]</text>
</g>
<!-- node_2 -->
<g id="node3" class="node">
<title>node_2</title>
<polygon fill="#ececff" stroke="#9370db" points="60.25,-109 0,-109 0,-73 60.25,-73 60.25,-109"/>
<text text-anchor="middle" x="30.12" y="-85.95" font-family="Times,serif" font-size="14.00">Option1</text>
</g>
<!-- node_0&#45;&gt;node_2 -->
<g id="edge1" class="edge">
<title>node_0&#45;&gt;node_2</title>
<path fill="none" stroke="black" stroke-width="2" d="M67.77,-161.13C64.48,-155.53 60.86,-149.28 57.62,-143.5 53.27,-135.72 48.66,-127.2 44.48,-119.37"/>
<polygon fill="black" stroke="black" stroke-width="2" points="48.32,-119.13 40.54,-111.93 42.13,-122.41 48.32,-119.13"/>
<text text-anchor="middle" x="80.88" y="-130.2" font-family="Times,serif" font-size="14.00">?(mod2)</text>
</g>
<!-- node_3 -->
<g id="node4" class="node">
<title>node_3</title>
<polygon fill="#ececff" stroke="#9370db" points="176,-109 78.25,-109 78.25,-73 176,-73 176,-109"/>
<text text-anchor="middle" x="127.12" y="-85.95" font-family="Times,serif" font-size="14.00">Default_option</text>
</g>
<!-- node_0&#45;&gt;node_3 -->
<g id="edge2" class="edge">
<title>node_0&#45;&gt;node_3</title>
<path fill="none" stroke="black" stroke-width="2" d="M92.13,-161.21C96.26,-155.72 100.61,-149.51 104.12,-143.5 108.5,-136.03 112.59,-127.58 116.08,-119.72"/>
<polygon fill="black" stroke="black" stroke-width="2" points="118.69,-122.52 119.38,-111.95 112.25,-119.78 118.69,-122.52"/>
</g>
<!-- node_1 -->
<g id="node2" class="node">
<title>node_1</title>
<polygon fill="#ececff" stroke="#9370db" points="105.12,-270.5 51.12,-270.5 51.12,-234.5 105.12,-234.5 105.12,-270.5"/>
<text text-anchor="middle" x="78.12" y="-247.45" font-family="Times,serif" font-size="14.00">Start</text>
</g>
<!-- node_1&#45;&gt;node_0 -->
<g id="edge3" class="edge">
<title>node_1&#45;&gt;node_0</title>
<path fill="none" stroke="black" stroke-width="2" d="M78.12,-234.31C78.12,-226.73 78.12,-217.6 78.12,-209.04"/>
<polygon fill="black" stroke="black" stroke-width="2" points="81.63,-210.56 78.13,-200.56 74.63,-210.56 81.63,-210.56"/>
</g>
<!-- node_4 -->
<g id="node5" class="node">
<title>node_4</title>
<polygon fill="#ececff" stroke="#9370db" points="105.12,-36 51.12,-36 51.12,0 105.12,0 105.12,-36"/>
<text text-anchor="middle" x="78.12" y="-12.95" font-family="Times,serif" font-size="14.00">End</text>
</g>
<!-- node_2&#45;&gt;node_4 -->
<g id="edge4" class="edge">
<title>node_2&#45;&gt;node_4</title>
<path fill="none" stroke="black" stroke-width="2" d="M41.74,-72.81C47.29,-64.62 54.04,-54.62 60.22,-45.48"/>
<polygon fill="black" stroke="black" stroke-width="2" points="62.22,-48.78 64.92,-38.54 56.42,-44.86 62.22,-48.78"/>
</g>
<!-- node_3&#45;&gt;node_4 -->
<g id="edge5" class="edge">
<title>node_3&#45;&gt;node_4</title>
<path fill="none" stroke="black" stroke-width="2" d="M115.26,-72.81C109.61,-64.62 102.71,-54.62 96.4,-45.48"/>
<polygon fill="black" stroke="black" stroke-width="2" points="100.16,-44.76 91.6,-38.52 94.4,-48.74 100.16,-44.76"/>
</g>
</g>
</svg>
