<?xml version="1.0" encoding="UTF-8" standalone="no"?>
<!DOCTYPE svg PUBLIC "-//W3C//DTD SVG 1.1//EN"
 "http://www.w3.org/Graphics/SVG/1.1/DTD/svg11.dtd">
<!-- Generated by graphviz version 12.2.1 (20241206.2353)
 -->
<!-- Title: paralell with choice Pages: 1 -->
<svg width="524pt" height="407pt"
 viewBox="0.00 0.00 524.02 407.00" xmlns="http://www.w3.org/2000/svg" xmlns:xlink="http://www.w3.org/1999/xlink">
<g id="graph0" class="graph" transform="scale(1 1) rotate(0) translate(4 403)">
<title>paralell with choice</title>
<polygon fill="white" stroke="none" points="-4,4 -4,-403 520.02,-403 520.02,4 -4,4"/>
<text text-anchor="middle" x="258.01" y="-381.7" font-family="Times,serif" font-size="14.00">paralell with choice</text>
<!-- node_0 -->
<g id="node1" class="node">
<title>node_0</title>
<polygon fill="#ececff" stroke="#9370db" points="393.38,-286 244.62,-286 244.62,-250 393.38,-250 393.38,-286"/>
<text text-anchor="middle" x="319" y="-262.95" font-family="Times,serif" font-size="14.00">add1[MessageAdder(1)]</text>
</g>
<!-- node_2 -->
<g id="node3" class="node">
<title>node_2</title>
<polygon fill="#ececff" stroke="#9370db" points="196,-197.5 0,-197.5 0,-161.5 196,-161.5 196,-197.5"/>
<text text-anchor="middle" x="98" y="-174.45" font-family="Times,serif" font-size="14.00">add10[DecisionDiagram(add10)]</text>
</g>
<!-- node_0&#45;&gt;node_2 -->
<g id="edge1" class="edge">
<title>node_0&#45;&gt;node_2</title>
<path fill="none" stroke="black" d="M274.54,-249.6C239.4,-235.85 190.19,-216.58 152.64,-201.89"/>
<polygon fill="black" stroke="black" points="154.38,-198.81 143.8,-198.42 151.83,-205.33 154.38,-198.81"/>
<text text-anchor="middle" x="243.29" y="-218.7" font-family="Times,serif" font-size="14.00">.&#45;&gt;**</text>
</g>
<!-- node_3 -->
<g id="node4" class="node">
<title>node_3</title>
<polygon fill="#ececff" stroke="#9370db" points="423.75,-197.5 214.25,-197.5 214.25,-161.5 423.75,-161.5 423.75,-197.5"/>
<text text-anchor="middle" x="319" y="-174.45" font-family="Times,serif" font-size="14.00">add100[DecisionDiagram(add100)]</text>
</g>
<!-- node_0&#45;&gt;node_3 -->
<g id="edge2" class="edge">
<title>node_0&#45;&gt;node_3</title>
<path fill="none" stroke="black" d="M319,-249.91C319,-238.26 319,-222.55 319,-209.02"/>
<polygon fill="black" stroke="black" points="322.5,-209.36 319,-199.36 315.5,-209.36 322.5,-209.36"/>
<text text-anchor="middle" x="334" y="-218.7" font-family="Times,serif" font-size="14.00">.&#45;&gt;**</text>
</g>
<!-- node_1 -->
<g id="node2" class="node">
<title>node_1</title>
<polygon fill="#ececff" stroke="#9370db" points="346,-374.5 292,-374.5 292,-338.5 346,-338.5 346,-374.5"/>
<text text-anchor="middle" x="319" y="-351.45" font-family="Times,serif" font-size="14.00">Start</text>
</g>
<!-- node_1&#45;&gt;node_0 -->
<g id="edge3" class="edge">
<title>node_1&#45;&gt;node_0</title>
<path fill="none" stroke="black" stroke-width="2" d="M319,-338.41C319,-326.76 319,-311.05 319,-297.52"/>
<polygon fill="black" stroke="black" stroke-width="2" points="322.5,-299.38 319,-289.38 315.5,-299.38 322.5,-299.38"/>
<text text-anchor="middle" x="334" y="-307.2" font-family="Times,serif" font-size="14.00">.&#45;&gt;**</text>
</g>
<!-- node_4 -->
<g id="node5" class="node">
<title>node_4</title>
<polygon fill="#ececff" stroke="#9370db" points="379.88,-109 258.12,-109 258.12,-73 379.88,-73 379.88,-109"/>
<text text-anchor="middle" x="319" y="-85.95" font-family="Times,serif" font-size="14.00">sum[MessageSum]</text>
</g>
<!-- node_2&#45;&gt;node_4 -->
<g id="edge4" class="edge">
<title>node_2&#45;&gt;node_4</title>
<path fill="none" stroke="black" d="M142.46,-161.1C177.6,-147.35 226.81,-128.08 264.36,-113.39"/>
<polygon fill="black" stroke="black" points="265.17,-116.83 273.2,-109.92 262.62,-110.31 265.17,-116.83"/>
<text text-anchor="middle" x="239.92" y="-130.2" font-family="Times,serif" font-size="14.00">.&#45;&gt;y</text>
</g>
<!-- node_3&#45;&gt;node_4 -->
<g id="edge5" class="edge">
<title>node_3&#45;&gt;node_4</title>
<path fill="none" stroke="black" d="M319,-161.41C319,-149.76 319,-134.05 319,-120.52"/>
<polygon fill="black" stroke="black" points="322.5,-120.86 319,-110.86 315.5,-120.86 322.5,-120.86"/>
<text text-anchor="middle" x="330.62" y="-130.2" font-family="Times,serif" font-size="14.00">.&#45;&gt;x</text>
</g>
<!-- node_4&#45;&gt;node_0 -->
<g id="edge7" class="edge">
<title>node_4&#45;&gt;node_0</title>
<path fill="none" stroke="black" stroke-width="2" d="M363.6,-109.34C404,-127.87 454.19,-159.76 433,-197.5 421.3,-218.34 400.52,-233.67 379.89,-244.55"/>
<polygon fill="black" stroke="black" stroke-width="2" points="379.93,-240.62 372.52,-248.19 383.03,-246.89 379.93,-240.62"/>
<text text-anchor="middle" x="477.02" y="-174.45" font-family="Times,serif" font-size="14.00">?(is112):.&#45;&gt;**</text>
</g>
<!-- node_5 -->
<g id="node6" class="node">
<title>node_5</title>
<polygon fill="#ececff" stroke="#9370db" points="346,-36 292,-36 292,0 346,0 346,-36"/>
<text text-anchor="middle" x="319" y="-12.95" font-family="Times,serif" font-size="14.00">End</text>
</g>
<!-- node_4&#45;&gt;node_5 -->
<g id="edge6" class="edge">
<title>node_4&#45;&gt;node_5</title>
<path fill="none" stroke="black" stroke-width="2" d="M319,-72.81C319,-65.23 319,-56.1 319,-47.54"/>
<polygon fill="black" stroke="black" stroke-width="2" points="322.5,-49.06 319,-39.06 315.5,-49.06 322.5,-49.06"/>
</g>
</g>
</svg>
