<?xml version="1.0" encoding="UTF-8" standalone="no"?>
<!DOCTYPE svg PUBLIC "-//W3C//DTD SVG 1.1//EN"
 "http://www.w3.org/Graphics/SVG/1.1/DTD/svg11.dtd">
<!-- Generated by graphviz version 12.2.1 (20241206.2353)
 -->
<!-- Title: init_state_no_clash Pages: 1 -->
<svg width="276pt" height="407pt"
 viewBox="0.00 0.00 275.88 407.00" xmlns="http://www.w3.org/2000/svg" xmlns:xlink="http://www.w3.org/1999/xlink">
<g id="graph0" class="graph" transform="scale(1 1) rotate(0) translate(4 403)">
<title>init_state_no_clash</title>
<polygon fill="white" stroke="none" points="-4,4 -4,-403 271.88,-403 271.88,4 -4,4"/>
<text text-anchor="middle" x="133.94" y="-381.7" font-family="Times,serif" font-size="14.00">init_state_no_clash</text>
<!-- node_0 -->
<g id="node1" class="node">
<title>node_0</title>
<polygon fill="#ececff" stroke="#9370db" points="136.75,-286 63,-286 63,-250 136.75,-250 136.75,-286"/>
<text text-anchor="middle" x="99.88" y="-262.95" font-family="Times,serif" font-size="14.00">add1[plus]</text>
</g>
<!-- node_2 -->
<g id="node3" class="node">
<title>node_2</title>
<path fill="#ececff" stroke="#9370db" d="M103.75,-194.23C103.75,-196.03 80.5,-197.5 51.88,-197.5 23.25,-197.5 0,-196.03 0,-194.23 0,-194.23 0,-164.77 0,-164.77 0,-162.97 23.25,-161.5 51.88,-161.5 80.5,-161.5 103.75,-162.97 103.75,-164.77 103.75,-164.77 103.75,-194.23 103.75,-194.23"/>
<path fill="none" stroke="#9370db" d="M103.75,-194.23C103.75,-192.42 80.5,-190.95 51.88,-190.95 23.25,-190.95 0,-192.42 0,-194.23"/>
<text text-anchor="middle" x="51.88" y="-174.45" font-family="Times,serif" font-size="14.00">State[first_sum]</text>
</g>
<!-- node_0&#45;&gt;node_2 -->
<g id="edge2" class="edge">
<title>node_0&#45;&gt;node_2</title>
<path fill="none" stroke="black" stroke-dasharray="5,2" d="M90.39,-249.91C83.73,-237.9 74.68,-221.59 67.02,-207.8"/>
<polygon fill="black" stroke="black" points="70.15,-206.22 62.24,-199.17 64.03,-209.62 70.15,-206.22"/>
</g>
<!-- node_4 -->
<g id="node5" class="node">
<title>node_4</title>
<polygon fill="#ececff" stroke="#9370db" stroke-dasharray="5,2" points="175.88,-197.5 121.88,-197.5 121.88,-161.5 175.88,-161.5 175.88,-197.5"/>
<text text-anchor="middle" x="148.88" y="-174.45" font-family="Times,serif" font-size="14.00">break</text>
</g>
<!-- node_0&#45;&gt;node_4 -->
<g id="edge4" class="edge">
<title>node_0&#45;&gt;node_4</title>
<path fill="none" stroke="black" stroke-width="2" d="M109.56,-249.91C116.36,-237.9 125.6,-221.59 133.41,-207.8"/>
<polygon fill="black" stroke="black" stroke-width="2" points="135.67,-210.91 137.55,-200.48 129.58,-207.46 135.67,-210.91"/>
<text text-anchor="middle" x="140.39" y="-218.7" font-family="Times,serif" font-size="14.00">.&#45;&gt;x</text>
</g>
<!-- state_init -->
<g id="node2" class="node">
<title>state_init</title>
<path fill="none" stroke="#9370db" d="M267.88,-371.23C267.88,-373.03 252.19,-374.5 232.88,-374.5 213.56,-374.5 197.88,-373.03 197.88,-371.23 197.88,-371.23 197.88,-341.77 197.88,-341.77 197.88,-339.97 213.56,-338.5 232.88,-338.5 252.19,-338.5 267.88,-339.97 267.88,-341.77 267.88,-341.77 267.88,-371.23 267.88,-371.23"/>
<path fill="none" stroke="#9370db" d="M267.88,-371.23C267.88,-369.42 252.19,-367.95 232.88,-367.95 213.56,-367.95 197.88,-369.42 197.88,-371.23"/>
<text text-anchor="middle" x="232.88" y="-351.45" font-family="Times,serif" font-size="14.00">State[init]</text>
</g>
<!-- node_5 -->
<g id="node6" class="node">
<title>node_5</title>
<polygon fill="#ececff" stroke="#9370db" points="136.75,-109 63,-109 63,-73 136.75,-73 136.75,-109"/>
<text text-anchor="middle" x="99.88" y="-85.95" font-family="Times,serif" font-size="14.00">add2[plus]</text>
</g>
<!-- node_2&#45;&gt;node_5 -->
<g id="edge3" class="edge">
<title>node_2&#45;&gt;node_5</title>
<path fill="none" stroke="black" stroke-dasharray="5,2" d="M61.36,-161.41C68.02,-149.4 77.07,-133.09 84.73,-119.3"/>
<polygon fill="black" stroke="black" points="87.72,-121.12 89.51,-110.67 81.6,-117.72 87.72,-121.12"/>
<text text-anchor="middle" x="91.8" y="-130.2" font-family="Times,serif" font-size="14.00">.&#45;&gt;y</text>
</g>
<!-- node_3 -->
<g id="node4" class="node">
<title>node_3</title>
<polygon fill="#ececff" stroke="#9370db" points="85.88,-374.5 31.88,-374.5 31.88,-338.5 85.88,-338.5 85.88,-374.5"/>
<text text-anchor="middle" x="58.88" y="-351.45" font-family="Times,serif" font-size="14.00">Start</text>
</g>
<!-- node_3&#45;&gt;node_0 -->
<g id="edge5" class="edge">
<title>node_3&#45;&gt;node_0</title>
<path fill="none" stroke="black" stroke-width="2" d="M66.98,-338.41C72.61,-326.52 80.25,-310.41 86.74,-296.7"/>
<polygon fill="black" stroke="black" stroke-width="2" points="89.23,-299.62 90.35,-289.09 82.91,-296.62 89.23,-299.62"/>
<text text-anchor="middle" x="94.67" y="-307.2" font-family="Times,serif" font-size="14.00">.&#45;&gt;x</text>
</g>
<!-- node_4&#45;&gt;node_5 -->
<g id="edge6" class="edge">
<title>node_4&#45;&gt;node_5</title>
<path fill="none" stroke="black" stroke-width="2" d="M139.19,-161.41C132.39,-149.4 123.15,-133.09 115.34,-119.3"/>
<polygon fill="black" stroke="black" stroke-width="2" points="119.17,-118.96 111.2,-111.98 113.08,-122.41 119.17,-118.96"/>
<text text-anchor="middle" x="140.39" y="-130.2" font-family="Times,serif" font-size="14.00">.&#45;&gt;x</text>
</g>
<!-- node_6 -->
<g id="node7" class="node">
<title>node_6</title>
<polygon fill="#ececff" stroke="#9370db" points="126.88,-36 72.88,-36 72.88,0 126.88,0 126.88,-36"/>
<text text-anchor="middle" x="99.88" y="-12.95" font-family="Times,serif" font-size="14.00">End</text>
</g>
<!-- node_5&#45;&gt;node_6 -->
<g id="edge7" class="edge">
<title>node_5&#45;&gt;node_6</title>
<path fill="none" stroke="black" stroke-width="2" d="M99.88,-72.81C99.88,-65.23 99.88,-56.1 99.88,-47.54"/>
<polygon fill="black" stroke="black" stroke-width="2" points="103.38,-49.06 99.88,-39.06 96.38,-49.06 103.38,-49.06"/>
</g>
<!-- node_1 -->
<g id="node8" class="node">
<title>node_1</title>
<ellipse fill="none" stroke="black" cx="141.88" cy="-356.5" rx="38.04" ry="18"/>
<text text-anchor="middle" x="141.88" y="-351.45" font-family="Times,serif" font-size="14.00">node_1</text>
</g>
<!-- node_1&#45;&gt;node_0 -->
<g id="edge1" class="edge">
<title>node_1&#45;&gt;node_0</title>
<path fill="none" stroke="black" stroke-dasharray="5,2" d="M133.78,-338.82C127.93,-326.77 119.89,-310.23 113.12,-296.27"/>
<polygon fill="black" stroke="black" points="116.41,-295.05 108.9,-287.58 110.12,-298.1 116.41,-295.05"/>
<text text-anchor="middle" x="136.26" y="-307.2" font-family="Times,serif" font-size="14.00">.&#45;&gt;y</text>
</g>
</g>
</svg>
