<?xml version="1.0" encoding="UTF-8" standalone="no"?>
<!DOCTYPE svg PUBLIC "-//W3C//DTD SVG 1.1//EN"
 "http://www.w3.org/Graphics/SVG/1.1/DTD/svg11.dtd">
<!-- Generated by graphviz version 12.2.1 (20241206.2353)
 -->
<!-- Title: nested_foreach Pages: 1 -->
<svg width="377pt" height="319pt"
 viewBox="0.00 0.00 376.50 318.50" xmlns="http://www.w3.org/2000/svg" xmlns:xlink="http://www.w3.org/1999/xlink">
<g id="graph0" class="graph" transform="scale(1 1) rotate(0) translate(4 314.5)">
<title>nested_foreach</title>
<polygon fill="white" stroke="none" points="-4,4 -4,-314.5 372.5,-314.5 372.5,4 -4,4"/>
<text text-anchor="middle" x="184.25" y="-293.2" font-family="Times,serif" font-size="14.00">nested_foreach</text>
<!-- node_0 -->
<g id="node1" class="node">
<title>node_0</title>
<polygon fill="#ececff" stroke="#9370db" points="368.5,-197.5 0,-197.5 0,-161.5 368.5,-161.5 368.5,-197.5"/>
<text text-anchor="middle" x="184.25" y="-174.45" font-family="Times,serif" font-size="14.00">generate[MakeItemsAsync(num_items=3,delta=10,sleep=0.05)]</text>
</g>
<!-- node_2 -->
<g id="node3" class="node">
<title>node_2</title>
<polygon fill="#ececff" stroke="#9370db" stroke-width="2" points="328.75,-109 39.75,-109 39.75,-73 328.75,-73 328.75,-109"/>
<text text-anchor="middle" x="184.25" y="-85.95" font-family="Times,serif" font-size="14.00">add[DecisionDiagram(async_adder), foreach=[x]]</text>
</g>
<!-- node_0&#45;&gt;node_2 -->
<g id="edge1" class="edge">
<title>node_0&#45;&gt;node_2</title>
<path fill="none" stroke="black" d="M184.25,-161.41C184.25,-149.76 184.25,-134.05 184.25,-120.52"/>
<polygon fill="black" stroke="black" points="187.75,-120.86 184.25,-110.86 180.75,-120.86 187.75,-120.86"/>
<text text-anchor="middle" x="195.88" y="-130.2" font-family="Times,serif" font-size="14.00">.&#45;&gt;x</text>
</g>
<!-- node_1 -->
<g id="node2" class="node">
<title>node_1</title>
<polygon fill="#ececff" stroke="#9370db" points="211.25,-286 157.25,-286 157.25,-250 211.25,-250 211.25,-286"/>
<text text-anchor="middle" x="184.25" y="-262.95" font-family="Times,serif" font-size="14.00">Start</text>
</g>
<!-- node_1&#45;&gt;node_0 -->
<g id="edge2" class="edge">
<title>node_1&#45;&gt;node_0</title>
<path fill="none" stroke="black" d="M184.25,-249.91C184.25,-238.26 184.25,-222.55 184.25,-209.02"/>
<polygon fill="black" stroke="black" points="187.75,-209.36 184.25,-199.36 180.75,-209.36 187.75,-209.36"/>
<text text-anchor="middle" x="199.25" y="-218.7" font-family="Times,serif" font-size="14.00">.&#45;&gt;**</text>
</g>
<!-- node_3 -->
<g id="node4" class="node">
<title>node_3</title>
<polygon fill="#ececff" stroke="#9370db" points="217.75,-36 150.75,-36 150.75,0 217.75,0 217.75,-36"/>
<text text-anchor="middle" x="184.25" y="-12.95" font-family="Times,serif" font-size="14.00">End[sort]</text>
</g>
<!-- node_2&#45;&gt;node_3 -->
<g id="edge3" class="edge">
<title>node_2&#45;&gt;node_3</title>
<path fill="none" stroke="black" d="M184.25,-72.81C184.25,-65.23 184.25,-56.1 184.25,-47.54"/>
<polygon fill="black" stroke="black" points="187.75,-47.54 184.25,-37.54 180.75,-47.54 187.75,-47.54"/>
</g>
</g>
</svg>
