<?xml version="1.0" encoding="UTF-8" standalone="no"?>
<!DOCTYPE svg PUBLIC "-//W3C//DTD SVG 1.1//EN"
 "http://www.w3.org/Graphics/SVG/1.1/DTD/svg11.dtd">
<!-- Generated by graphviz version 12.2.1 (20241206.2353)
 -->
<!-- Title: Remember Input Pages: 1 -->
<svg width="502pt" height="177pt"
 viewBox="0.00 0.00 501.75 176.50" xmlns="http://www.w3.org/2000/svg" xmlns:xlink="http://www.w3.org/1999/xlink">
<g id="graph0" class="graph" transform="scale(1 1) rotate(0) translate(4 172.5)">
<title>Remember Input</title>
<polygon fill="white" stroke="none" points="-4,4 -4,-172.5 497.75,-172.5 497.75,4 -4,4"/>
<text text-anchor="middle" x="246.88" y="-151.2" font-family="Times,serif" font-size="14.00">Remember Input</text>
<!-- node_0 -->
<g id="node1" class="node">
<title>node_0</title>
<polygon fill="#ececff" stroke="#9370db" points="307.75,-144 200.25,-144 200.25,-108 307.75,-108 307.75,-144"/>
<text text-anchor="middle" x="254" y="-120.95" font-family="Times,serif" font-size="14.00">square[ Pow(2) ]</text>
</g>
<!-- node_3 -->
<g id="node4" class="node">
<title>node_3</title>
<polygon fill="#ececff" stroke="#9370db" points="493.75,-90 439.75,-90 439.75,-54 493.75,-54 493.75,-90"/>
<text text-anchor="middle" x="466.75" y="-66.95" font-family="Times,serif" font-size="14.00">End</text>
</g>
<!-- node_0&#45;&gt;node_3 -->
<g id="edge3" class="edge">
<title>node_0&#45;&gt;node_3</title>
<path fill="none" stroke="blue" stroke-width="2" d="M308.07,-118.97C341.27,-113.72 384.64,-105.31 421.75,-93 424.26,-92.17 426.81,-91.23 429.35,-90.21"/>
<polygon fill="blue" stroke="blue" stroke-width="2" points="429.1,-94.14 436.89,-86.96 426.32,-87.71 429.1,-94.14"/>
<text text-anchor="middle" x="373.75" y="-118.86" font-family="Times,serif" font-size="14.00">. &#45;&gt; square_result</text>
</g>
<!-- node_1 -->
<g id="node2" class="node">
<title>node_1</title>
<polygon fill="#ececff" stroke="#9370db" points="54,-90 0,-90 0,-54 54,-54 54,-90"/>
<text text-anchor="middle" x="27" y="-66.95" font-family="Times,serif" font-size="14.00">Start</text>
</g>
<!-- node_1&#45;&gt;node_0 -->
<g id="edge4" class="edge">
<title>node_1&#45;&gt;node_0</title>
<path fill="none" stroke="blue" stroke-width="2" d="M54.06,-85.83C59.85,-88.5 66.04,-91.07 72,-93 109.84,-105.24 153.7,-113.38 188.76,-118.51"/>
<polygon fill="blue" stroke="blue" stroke-width="2" points="186.43,-121.72 196.82,-119.65 187.41,-114.79 186.43,-121.72"/>
<text text-anchor="middle" x="127.12" y="-120.16" font-family="Times,serif" font-size="14.00">?(is_b_even): b &#45;&gt; a</text>
</g>
<!-- node_2 -->
<g id="node3" class="node">
<title>node_2</title>
<path fill="#ececff" stroke="#9370db" d="M295.38,-86.73C295.38,-88.53 276.83,-90 254,-90 231.17,-90 212.62,-88.53 212.62,-86.73 212.62,-86.73 212.62,-57.27 212.62,-57.27 212.62,-55.47 231.17,-54 254,-54 276.83,-54 295.38,-55.47 295.38,-57.27 295.38,-57.27 295.38,-86.73 295.38,-86.73"/>
<path fill="none" stroke="#9370db" d="M295.38,-86.73C295.38,-84.92 276.83,-83.45 254,-83.45 231.17,-83.45 212.62,-84.92 212.62,-86.73"/>
<text text-anchor="middle" x="254" y="-66.95" font-family="Times,serif" font-size="14.00">State[init_a]</text>
</g>
<!-- node_1&#45;&gt;node_2 -->
<g id="edge1" class="edge">
<title>node_1&#45;&gt;node_2</title>
<path fill="none" stroke="black" stroke-dasharray="5,2" d="M54.25,-72C90.16,-72 155.36,-72 201.27,-72"/>
<polygon fill="black" stroke="black" points="200.98,-75.5 210.98,-72 200.98,-68.5 200.98,-75.5"/>
<text text-anchor="middle" x="127.12" y="-75.2" font-family="Times,serif" font-size="14.00">a &#45;&gt; 0</text>
</g>
<!-- node_4 -->
<g id="node5" class="node">
<title>node_4</title>
<polygon fill="#ececff" stroke="#9370db" points="302.88,-36 205.12,-36 205.12,0 302.88,0 302.88,-36"/>
<text text-anchor="middle" x="254" y="-12.95" font-family="Times,serif" font-size="14.00">cube[ Pow(3) ]</text>
</g>
<!-- node_1&#45;&gt;node_4 -->
<g id="edge5" class="edge">
<title>node_1&#45;&gt;node_4</title>
<path fill="none" stroke="blue" stroke-width="2" d="M54.09,-58.53C59.88,-55.91 66.06,-53.4 72,-51.5 111.69,-38.81 157.9,-30.35 193.7,-25.11"/>
<polygon fill="blue" stroke="blue" stroke-width="2" points="192.53,-28.82 201.94,-23.95 191.54,-21.88 192.53,-28.82"/>
<text text-anchor="middle" x="127.12" y="-54.7" font-family="Times,serif" font-size="14.00">b &#45;&gt; a</text>
</g>
<!-- node_2&#45;&gt;node_3 -->
<g id="edge2" class="edge">
<title>node_2&#45;&gt;node_3</title>
<path fill="none" stroke="black" stroke-dasharray="5,2" d="M295.63,-72C333.95,-72 390.91,-72 428.19,-72"/>
<polygon fill="black" stroke="black" points="428.04,-75.5 438.04,-72 428.04,-68.5 428.04,-75.5"/>
<text text-anchor="middle" x="373.75" y="-75.2" font-family="Times,serif" font-size="14.00">. &#45;&gt; init_a</text>
</g>
<!-- node_4&#45;&gt;node_3 -->
<g id="edge6" class="edge">
<title>node_4&#45;&gt;node_3</title>
<path fill="none" stroke="blue" stroke-width="2" d="M303.22,-24.58C336.94,-29.92 382.75,-38.7 421.75,-51.5 424.16,-52.29 426.61,-53.18 429.05,-54.13"/>
<polygon fill="blue" stroke="blue" stroke-width="2" points="426.28,-56.75 436.85,-57.42 429,-50.31 426.28,-56.75"/>
<text text-anchor="middle" x="373.75" y="-54.7" font-family="Times,serif" font-size="14.00">. &#45;&gt; cube_result</text>
</g>
</g>
</svg>
