<?xml version="1.0" encoding="UTF-8" standalone="no"?>
<!DOCTYPE svg PUBLIC "-//W3C//DTD SVG 1.1//EN"
 "http://www.w3.org/Graphics/SVG/1.1/DTD/svg11.dtd">
<!-- Generated by graphviz version 12.2.1 (20241206.2353)
 -->
<!-- Title: Hello World Decision Pages: 1 -->
<svg width="502pt" height="145pt"
 viewBox="0.00 0.00 501.75 145.27" xmlns="http://www.w3.org/2000/svg" xmlns:xlink="http://www.w3.org/1999/xlink">
<g id="graph0" class="graph" transform="scale(1 1) rotate(0) translate(4 141.27)">
<title>Hello World Decision</title>
<polygon fill="white" stroke="none" points="-4,4 -4,-141.27 497.75,-141.27 497.75,4 -4,4"/>
<text text-anchor="middle" x="246.88" y="-119.97" font-family="Times,serif" font-size="14.00">Hello World Decision</text>
<!-- node_0 -->
<g id="node1" class="node">
<title>node_0</title>
<polygon fill="#ececff" stroke="#9370db" points="307.75,-90 200.25,-90 200.25,-54 307.75,-54 307.75,-90"/>
<text text-anchor="middle" x="254" y="-66.95" font-family="Times,serif" font-size="14.00">square[ Pow(2) ]</text>
</g>
<!-- node_2 -->
<g id="node3" class="node">
<title>node_2</title>
<polygon fill="#ececff" stroke="#9370db" points="493.75,-63 439.75,-63 439.75,-27 493.75,-27 493.75,-63"/>
<text text-anchor="middle" x="466.75" y="-39.95" font-family="Times,serif" font-size="14.00">End</text>
</g>
<!-- node_0&#45;&gt;node_2 -->
<g id="edge1" class="edge">
<title>node_0&#45;&gt;node_2</title>
<path fill="none" stroke="blue" stroke-width="2" d="M308.18,-65.19C345.6,-60.39 394.75,-54.1 428.14,-49.82"/>
<polygon fill="blue" stroke="blue" stroke-width="2" points="426.78,-53.52 436.25,-48.78 425.89,-46.58 426.78,-53.52"/>
<text text-anchor="middle" x="373.75" y="-65.7" font-family="Times,serif" font-size="14.00">. &#45;&gt; square_result</text>
</g>
<!-- node_1 -->
<g id="node2" class="node">
<title>node_1</title>
<polygon fill="#ececff" stroke="#9370db" points="54,-63 0,-63 0,-27 54,-27 54,-63"/>
<text text-anchor="middle" x="27" y="-39.95" font-family="Times,serif" font-size="14.00">Start</text>
</g>
<!-- node_1&#45;&gt;node_0 -->
<g id="edge2" class="edge">
<title>node_1&#45;&gt;node_0</title>
<path fill="none" stroke="blue" stroke-width="2" d="M54.25,-48.15C86.99,-52.08 144.08,-58.93 188.7,-64.28"/>
<polygon fill="blue" stroke="blue" stroke-width="2" points="186.69,-67.57 197.04,-65.28 187.53,-60.62 186.69,-67.57"/>
<text text-anchor="middle" x="127.12" y="-99.47" font-family="Times,serif" font-size="14.00">?((is_b_even &amp;</text>
<text text-anchor="middle" x="127.12" y="-82.97" font-family="Times,serif" font-size="14.00">b_smaller_than_5)):</text>
<text text-anchor="middle" x="127.12" y="-66.47" font-family="Times,serif" font-size="14.00">b &#45;&gt; a</text>
</g>
<!-- node_3 -->
<g id="node4" class="node">
<title>node_3</title>
<polygon fill="#ececff" stroke="#9370db" points="302.88,-36 205.12,-36 205.12,0 302.88,0 302.88,-36"/>
<text text-anchor="middle" x="254" y="-12.95" font-family="Times,serif" font-size="14.00">cube[ Pow(3) ]</text>
</g>
<!-- node_1&#45;&gt;node_3 -->
<g id="edge3" class="edge">
<title>node_1&#45;&gt;node_3</title>
<path fill="none" stroke="blue" stroke-width="2" d="M54.24,-35.17C60.02,-33.34 66.16,-31.65 72,-30.5 112.16,-22.62 158.19,-19.52 193.77,-18.38"/>
<polygon fill="blue" stroke="blue" stroke-width="2" points="192.01,-21.93 201.91,-18.16 191.82,-14.93 192.01,-21.93"/>
<text text-anchor="middle" x="127.12" y="-33.7" font-family="Times,serif" font-size="14.00">b &#45;&gt; a</text>
</g>
<!-- node_3&#45;&gt;node_2 -->
<g id="edge4" class="edge">
<title>node_3&#45;&gt;node_2</title>
<path fill="none" stroke="blue" stroke-width="2" d="M303.22,-18.52C336.74,-19.63 382.32,-22.65 421.75,-30.5 424.03,-30.95 426.36,-31.49 428.69,-32.08"/>
<polygon fill="blue" stroke="blue" stroke-width="2" points="426.02,-34.96 436.6,-34.36 427.95,-28.23 426.02,-34.96"/>
<text text-anchor="middle" x="373.75" y="-33.7" font-family="Times,serif" font-size="14.00">. &#45;&gt; cube_result</text>
</g>
</g>
</svg>
