<?xml version="1.0" encoding="UTF-8" standalone="no"?>
<!DOCTYPE svg PUBLIC "-//W3C//DTD SVG 1.1//EN"
 "http://www.w3.org/Graphics/SVG/1.1/DTD/svg11.dtd">
<!-- Generated by graphviz version 12.2.1 (20241206.2353)
 -->
<!-- Title: hello world flow Pages: 1 -->
<svg width="425pt" height="123pt"
 viewBox="0.00 0.00 424.50 122.50" xmlns="http://www.w3.org/2000/svg" xmlns:xlink="http://www.w3.org/1999/xlink">
<g id="graph0" class="graph" transform="scale(1 1) rotate(0) translate(4 118.5)">
<title>hello world flow</title>
<polygon fill="white" stroke="none" points="-4,4 -4,-118.5 420.5,-118.5 420.5,4 -4,4"/>
<text text-anchor="middle" x="208.25" y="-97.2" font-family="Times,serif" font-size="14.00">hello world flow</text>
<!-- node_0 -->
<g id="node1" class="node">
<title>node_0</title>
<polygon fill="#ececff" stroke="#9370db" points="230.5,-90 123,-90 123,-54 230.5,-54 230.5,-90"/>
<text text-anchor="middle" x="176.75" y="-66.95" font-family="Times,serif" font-size="14.00">square[ Pow(2) ]</text>
</g>
<!-- node_2 -->
<g id="node3" class="node">
<title>node_2</title>
<polygon fill="#ececff" stroke="#9370db" points="416.5,-63 362.5,-63 362.5,-27 416.5,-27 416.5,-63"/>
<text text-anchor="middle" x="389.5" y="-39.95" font-family="Times,serif" font-size="14.00">End</text>
</g>
<!-- node_0&#45;&gt;node_2 -->
<g id="edge1" class="edge">
<title>node_0&#45;&gt;node_2</title>
<path fill="none" stroke="black" d="M230.93,-65.19C268.35,-60.39 317.5,-54.1 350.89,-49.82"/>
<polygon fill="black" stroke="black" points="351.03,-53.33 360.5,-48.59 350.14,-46.39 351.03,-53.33"/>
<text text-anchor="middle" x="296.5" y="-65.7" font-family="Times,serif" font-size="14.00">. &#45;&gt; square_result</text>
</g>
<!-- node_1 -->
<g id="node2" class="node">
<title>node_1</title>
<polygon fill="#ececff" stroke="#9370db" points="54,-63 0,-63 0,-27 54,-27 54,-63"/>
<text text-anchor="middle" x="27" y="-39.95" font-family="Times,serif" font-size="14.00">Start</text>
</g>
<!-- node_1&#45;&gt;node_0 -->
<g id="edge2" class="edge">
<title>node_1&#45;&gt;node_0</title>
<path fill="none" stroke="black" d="M54.41,-49.83C70.31,-52.73 91.29,-56.56 111.32,-60.23"/>
<polygon fill="black" stroke="black" points="110.68,-63.67 121.15,-62.02 111.94,-56.78 110.68,-63.67"/>
<text text-anchor="middle" x="88.5" y="-61.7" font-family="Times,serif" font-size="14.00">b &#45;&gt; a</text>
</g>
<!-- node_3 -->
<g id="node4" class="node">
<title>node_3</title>
<polygon fill="#ececff" stroke="#9370db" points="225.62,-36 127.88,-36 127.88,0 225.62,0 225.62,-36"/>
<text text-anchor="middle" x="176.75" y="-12.95" font-family="Times,serif" font-size="14.00">cube[ Pow(3) ]</text>
</g>
<!-- node_1&#45;&gt;node_3 -->
<g id="edge3" class="edge">
<title>node_1&#45;&gt;node_3</title>
<path fill="none" stroke="black" d="M54.42,-37.6C60.18,-36.13 66.28,-34.67 72,-33.5 86.22,-30.59 101.64,-27.99 116.14,-25.79"/>
<polygon fill="black" stroke="black" points="116.64,-29.25 126.03,-24.33 115.62,-22.32 116.64,-29.25"/>
<text text-anchor="middle" x="88.5" y="-36.7" font-family="Times,serif" font-size="14.00">b &#45;&gt; a</text>
</g>
<!-- node_3&#45;&gt;node_2 -->
<g id="edge4" class="edge">
<title>node_3&#45;&gt;node_2</title>
<path fill="none" stroke="black" d="M225.97,-18.52C259.49,-19.63 305.07,-22.65 344.5,-30.5 346.78,-30.95 349.11,-31.49 351.44,-32.08"/>
<polygon fill="black" stroke="black" points="350.22,-35.38 360.8,-34.78 352.16,-28.65 350.22,-35.38"/>
<text text-anchor="middle" x="296.5" y="-33.7" font-family="Times,serif" font-size="14.00">. &#45;&gt; cube_result</text>
</g>
</g>
</svg>
