<?xml version="1.0" encoding="UTF-8" standalone="no"?>
<!DOCTYPE svg PUBLIC "-//W3C//DTD SVG 1.1//EN"
 "http://www.w3.org/Graphics/SVG/1.1/DTD/svg11.dtd">
<!-- Generated by graphviz version 12.2.1 (20241206.2353)
 -->
<!-- Title: Answer to Life with Feedback Pages: 1 -->
<svg width="706pt" height="106pt"
 viewBox="0.00 0.00 705.75 106.32" xmlns="http://www.w3.org/2000/svg" xmlns:xlink="http://www.w3.org/1999/xlink">
<g id="graph0" class="graph" transform="scale(1 1) rotate(0) translate(4 102.32)">
<title>Answer to Life with Feedback</title>
<polygon fill="white" stroke="none" points="-4,4 -4,-102.32 701.75,-102.32 701.75,4 -4,4"/>
<text text-anchor="middle" x="348.88" y="-81.02" font-family="Times,serif" font-size="14.00">Answer to Life with Feedback</text>
<!-- node_0 -->
<g id="node1" class="node">
<title>node_0</title>
<polygon fill="#ececff" stroke="#9370db" points="199,-63.5 127.5,-63.5 127.5,-27.5 199,-27.5 199,-63.5"/>
<text text-anchor="middle" x="163.25" y="-40.45" font-family="Times,serif" font-size="14.00">add[ add ]</text>
</g>
<!-- node_2 -->
<g id="node3" class="node">
<title>node_2</title>
<polygon fill="#ececff" stroke="#9370db" points="697.75,-62.5 643.75,-62.5 643.75,-26.5 697.75,-26.5 697.75,-62.5"/>
<text text-anchor="middle" x="670.75" y="-39.45" font-family="Times,serif" font-size="14.00">End</text>
</g>
<!-- node_0&#45;&gt;node_2 -->
<g id="edge1" class="edge">
<title>node_0&#45;&gt;node_2</title>
<path fill="none" stroke="blue" stroke-width="2" d="M199.3,-53.09C205.19,-54.09 211.25,-54.96 217,-55.5 230.61,-56.78 234.08,-55.59 247.75,-55.5 415.76,-54.39 458.2,-62.98 625.75,-50.5 627.79,-50.35 629.89,-50.16 632,-49.95"/>
<polygon fill="blue" stroke="blue" stroke-width="2" points="630.74,-53.62 640.27,-48.99 629.94,-46.67 630.74,-53.62"/>
<text text-anchor="middle" x="411.5" y="-60.52" font-family="Times,serif" font-size="14.00">?(x: x==42)</text>
</g>
<!-- node_3 -->
<g id="node4" class="node">
<title>node_3</title>
<polygon fill="#ececff" stroke="#9370db" points="360.5,-41 265.75,-41 265.75,0 360.5,0 360.5,-41"/>
<text text-anchor="middle" x="313.12" y="-23.7" font-family="Times,serif" font-size="14.00">Reflect[</text>
<text text-anchor="middle" x="313.12" y="-7.2" font-family="Times,serif" font-size="14.00">question_life ]</text>
</g>
<!-- node_0&#45;&gt;node_3 -->
<g id="edge2" class="edge">
<title>node_0&#45;&gt;node_3</title>
<path fill="none" stroke="blue" stroke-width="2" d="M199.29,-39.58C215.63,-36.81 235.51,-33.45 254.01,-30.33"/>
<polygon fill="blue" stroke="blue" stroke-width="2" points="253.04,-34.04 262.32,-28.92 251.87,-27.14 253.04,-34.04"/>
<text text-anchor="middle" x="232.38" y="-39.17" font-family="Times,serif" font-size="14.00">. &#45;&gt; x</text>
</g>
<!-- node_1 -->
<g id="node2" class="node">
<title>node_1</title>
<polygon fill="#ececff" stroke="#9370db" points="54,-63.5 0,-63.5 0,-27.5 54,-27.5 54,-63.5"/>
<text text-anchor="middle" x="27" y="-40.45" font-family="Times,serif" font-size="14.00">Start</text>
</g>
<!-- node_1&#45;&gt;node_0 -->
<g id="edge3" class="edge">
<title>node_1&#45;&gt;node_0</title>
<path fill="none" stroke="blue" stroke-width="2" d="M54.2,-45.5C71.7,-45.5 95.19,-45.5 115.8,-45.5"/>
<polygon fill="blue" stroke="blue" stroke-width="2" points="114.19,-49 124.19,-45.5 114.19,-42 114.19,-49"/>
<text text-anchor="middle" x="90.75" y="-48.7" font-family="Times,serif" font-size="14.00">. &#45;&gt; **</text>
</g>
<!-- node_4 -->
<g id="node5" class="node">
<title>node_4</title>
<polygon fill="#ececff" stroke="#9370db" stroke-dasharray="5,2" points="606.75,-41 462.5,-41 462.5,0 606.75,0 606.75,-41"/>
<text text-anchor="middle" x="534.62" y="-23.7" font-family="Times,serif" font-size="14.00">GetFeedback[ yes_man</text>
<text text-anchor="middle" x="534.62" y="-7.2" font-family="Times,serif" font-size="14.00">]</text>
</g>
<!-- node_3&#45;&gt;node_4 -->
<g id="edge4" class="edge">
<title>node_3&#45;&gt;node_4</title>
<path fill="none" stroke="blue" stroke-width="2" d="M360.94,-20.5C387.07,-20.5 420.38,-20.5 450.76,-20.5"/>
<polygon fill="blue" stroke="blue" stroke-width="2" points="449.21,-24 459.21,-20.5 449.21,-17 449.21,-24"/>
</g>
<!-- node_4&#45;&gt;node_2 -->
<g id="edge5" class="edge">
<title>node_4&#45;&gt;node_2</title>
<path fill="none" stroke="blue" stroke-width="2" d="M607.01,-33.27C615.75,-34.84 624.39,-36.38 632.34,-37.81"/>
<polygon fill="blue" stroke="blue" stroke-width="2" points="629.98,-40.94 640.44,-39.26 631.21,-34.05 629.98,-40.94"/>
</g>
</g>
</svg>
