<?xml version="1.0" encoding="UTF-8" standalone="no"?>
<!DOCTYPE svg PUBLIC "-//W3C//DTD SVG 1.1//EN"
 "http://www.w3.org/Graphics/SVG/1.1/DTD/svg11.dtd">
<!-- Generated by graphviz version 12.2.1 (20241206.2353)
 -->
<!-- Title: monitor_add_answer Pages: 1 -->
<svg width="828pt" height="203pt"
 viewBox="0.00 0.00 828.25 203.25" xmlns="http://www.w3.org/2000/svg" xmlns:xlink="http://www.w3.org/1999/xlink">
<g id="graph0" class="graph" transform="scale(1 1) rotate(0) translate(4 199.25)">
<title>monitor_add_answer</title>
<polygon fill="white" stroke="none" points="-4,4 -4,-199.25 824.25,-199.25 824.25,4 -4,4"/>
<text text-anchor="middle" x="410.12" y="-177.95" font-family="Times,serif" font-size="14.00">monitor_add_answer</text>
<!-- node_0 -->
<g id="node1" class="node">
<title>node_0</title>
<polygon fill="#ececff" stroke="#9370db" points="370,-170.75 201.75,-170.75 201.75,-96.75 370,-96.75 370,-170.75"/>
<text text-anchor="middle" x="285.88" y="-153.45" font-family="Times,serif" font-size="14.00">acting_agent[</text>
<text text-anchor="middle" x="285.88" y="-136.95" font-family="Times,serif" font-size="14.00">Chat(model=&#39;gpt&#45;4o&#45;mini&#39;,</text>
<text text-anchor="middle" x="285.88" y="-120.45" font-family="Times,serif" font-size="14.00">required_keys={&#39;question&#39;},</text>
<text text-anchor="middle" x="285.88" y="-103.95" font-family="Times,serif" font-size="14.00">seed=42) ]</text>
</g>
<!-- node_2 -->
<g id="node3" class="node">
<title>node_2</title>
<polygon fill="#ececff" stroke="#9370db" points="666.5,-123.5 504.25,-123.5 504.25,0 666.5,0 666.5,-123.5"/>
<text text-anchor="middle" x="585.38" y="-106.2" font-family="Times,serif" font-size="14.00">monitor[</text>
<text text-anchor="middle" x="585.38" y="-89.7" font-family="Times,serif" font-size="14.00">Chat(model=&#39;gpt&#45;4o&#45;mini&#39;,</text>
<text text-anchor="middle" x="585.38" y="-73.2" font-family="Times,serif" font-size="14.00">required_keys={&#39;question&#39;,</text>
<text text-anchor="middle" x="585.38" y="-56.7" font-family="Times,serif" font-size="14.00">&#39;answer&#39;},</text>
<text text-anchor="middle" x="585.38" y="-40.2" font-family="Times,serif" font-size="14.00">choices=[&#39;safe&#39;,</text>
<text text-anchor="middle" x="585.38" y="-23.7" font-family="Times,serif" font-size="14.00">&#39;not safe&#39;],</text>
<text text-anchor="middle" x="585.38" y="-7.2" font-family="Times,serif" font-size="14.00">seed=42) ]</text>
</g>
<!-- node_0&#45;&gt;node_2 -->
<g id="edge1" class="edge">
<title>node_0&#45;&gt;node_2</title>
<path fill="none" stroke="black" d="M370.14,-113.6C408.32,-104.36 453.69,-93.38 492.82,-83.91"/>
<polygon fill="black" stroke="black" points="493.58,-87.32 502.48,-81.57 491.94,-80.52 493.58,-87.32"/>
<text text-anchor="middle" x="437.12" y="-111.61" font-family="Times,serif" font-size="14.00">content &#45;&gt; answer</text>
</g>
<!-- node_3 -->
<g id="node4" class="node">
<title>node_3</title>
<polygon fill="#ececff" stroke="#9370db" points="820.25,-128.75 766.25,-128.75 766.25,-92.75 820.25,-92.75 820.25,-128.75"/>
<text text-anchor="middle" x="793.25" y="-105.7" font-family="Times,serif" font-size="14.00">End</text>
</g>
<!-- node_0&#45;&gt;node_3 -->
<g id="edge2" class="edge">
<title>node_0&#45;&gt;node_3</title>
<path fill="none" stroke="black" d="M370.27,-134.56C450.72,-135.3 575.94,-136.34 684.5,-136.75 712.83,-136.86 720.92,-144.22 748.25,-136.75 750.85,-136.04 753.45,-135.13 756.02,-134.08"/>
<polygon fill="black" stroke="black" points="757.44,-137.28 764.92,-129.78 754.39,-130.98 757.44,-137.28"/>
<text text-anchor="middle" x="585.38" y="-139.85" font-family="Times,serif" font-size="14.00">content &#45;&gt; answer</text>
</g>
<!-- node_1 -->
<g id="node2" class="node">
<title>node_1</title>
<polygon fill="#ececff" stroke="#9370db" points="54,-95.75 0,-95.75 0,-59.75 54,-59.75 54,-95.75"/>
<text text-anchor="middle" x="27" y="-72.7" font-family="Times,serif" font-size="14.00">Start</text>
</g>
<!-- node_1&#45;&gt;node_0 -->
<g id="edge3" class="edge">
<title>node_1&#45;&gt;node_0</title>
<path fill="none" stroke="black" d="M54.04,-83.43C85.88,-90.37 141.52,-102.5 190.2,-113.11"/>
<polygon fill="black" stroke="black" points="189.43,-116.53 199.95,-115.24 190.93,-109.69 189.43,-116.53"/>
<text text-anchor="middle" x="127.88" y="-113.97" font-family="Times,serif" font-size="14.00">question &#45;&gt; question</text>
</g>
<!-- node_1&#45;&gt;node_2 -->
<g id="edge4" class="edge">
<title>node_1&#45;&gt;node_2</title>
<path fill="none" stroke="black" d="M54.49,-76.66C88.56,-75.27 149.55,-72.87 201.75,-71.25 301.29,-68.15 415.43,-65.43 492.95,-63.7"/>
<polygon fill="black" stroke="black" points="492.69,-67.2 502.61,-63.48 492.53,-60.21 492.69,-67.2"/>
<text text-anchor="middle" x="285.88" y="-74.45" font-family="Times,serif" font-size="14.00">question &#45;&gt; question</text>
</g>
<!-- node_2&#45;&gt;node_3 -->
<g id="edge5" class="edge">
<title>node_2&#45;&gt;node_3</title>
<path fill="none" stroke="black" d="M666.86,-80.91C697.23,-88.13 730.35,-96.02 754.92,-101.87"/>
<polygon fill="black" stroke="black" points="753.89,-105.22 764.43,-104.13 755.51,-98.41 753.89,-105.22"/>
<text text-anchor="middle" x="716.38" y="-119.87" font-family="Times,serif" font-size="14.00">content &#45;&gt;</text>
<text text-anchor="middle" x="716.38" y="-103.37" font-family="Times,serif" font-size="14.00">safe_or_not</text>
</g>
</g>
</svg>
