<?xml version="1.0" encoding="UTF-8" standalone="no"?>
<!DOCTYPE svg PUBLIC "-//W3C//DTD SVG 1.1//EN"
 "http://www.w3.org/Graphics/SVG/1.1/DTD/svg11.dtd">
<!-- Generated by graphviz version 12.2.1 (20241206.2353)
 -->
<!-- Title: monitor_feedback Pages: 1 -->
<svg width="961pt" height="210pt"
 viewBox="0.00 0.00 961.25 210.25" xmlns="http://www.w3.org/2000/svg" xmlns:xlink="http://www.w3.org/1999/xlink">
<g id="graph0" class="graph" transform="scale(1 1) rotate(0) translate(4 206.25)">
<title>monitor_feedback</title>
<polygon fill="white" stroke="none" points="-4,4 -4,-206.25 957.25,-206.25 957.25,4 -4,4"/>
<text text-anchor="middle" x="476.62" y="-184.95" font-family="Times,serif" font-size="14.00">monitor_feedback</text>
<!-- node_0 -->
<g id="node1" class="node">
<title>node_0</title>
<polygon fill="#ececff" stroke="#9370db" points="370,-124 201.75,-124 201.75,-33.5 370,-33.5 370,-124"/>
<text text-anchor="middle" x="285.88" y="-106.7" font-family="Times,serif" font-size="14.00">acting_agent[</text>
<text text-anchor="middle" x="285.88" y="-90.2" font-family="Times,serif" font-size="14.00">Chat(model=&#39;gpt&#45;4o&#45;mini&#39;,</text>
<text text-anchor="middle" x="285.88" y="-73.7" font-family="Times,serif" font-size="14.00">required_keys={&#39;question&#39;},</text>
<text text-anchor="middle" x="285.88" y="-57.2" font-family="Times,serif" font-size="14.00">seed=42,</text>
<text text-anchor="middle" x="285.88" y="-40.7" font-family="Times,serif" font-size="14.00">save_history=True) ]</text>
</g>
<!-- node_1 -->
<g id="node2" class="node">
<title>node_1</title>
<path fill="#ececff" stroke="#9370db" d="M643.25,-174.47C643.25,-176.28 617.31,-177.75 585.38,-177.75 553.44,-177.75 527.5,-176.28 527.5,-174.47 527.5,-174.47 527.5,-145.02 527.5,-145.02 527.5,-143.21 553.44,-141.75 585.38,-141.75 617.31,-141.75 643.25,-143.21 643.25,-145.02 643.25,-145.02 643.25,-174.47 643.25,-174.47"/>
<path fill="none" stroke="#9370db" d="M643.25,-174.47C643.25,-172.67 617.31,-171.2 585.38,-171.2 553.44,-171.2 527.5,-172.67 527.5,-174.47"/>
<text text-anchor="middle" x="585.38" y="-154.7" font-family="Times,serif" font-size="14.00">State[last_answer]</text>
</g>
<!-- node_0&#45;&gt;node_1 -->
<g id="edge1" class="edge">
<title>node_0&#45;&gt;node_1</title>
<path fill="none" stroke="black" stroke-dasharray="5,2" d="M370.14,-101.42C416.16,-113.95 472.62,-129.32 516.02,-141.14"/>
<polygon fill="black" stroke="black" points="515.02,-144.49 525.59,-143.74 516.86,-137.74 515.02,-144.49"/>
</g>
<!-- node_3 -->
<g id="node4" class="node">
<title>node_3</title>
<polygon fill="#ececff" stroke="#9370db" points="666.5,-124 504.25,-124 504.25,-33.5 666.5,-33.5 666.5,-124"/>
<text text-anchor="middle" x="585.38" y="-106.7" font-family="Times,serif" font-size="14.00">monitor[</text>
<text text-anchor="middle" x="585.38" y="-90.2" font-family="Times,serif" font-size="14.00">Chat(model=&#39;gpt&#45;4o&#45;mini&#39;,</text>
<text text-anchor="middle" x="585.38" y="-73.7" font-family="Times,serif" font-size="14.00">required_keys={&#39;answer&#39;},</text>
<text text-anchor="middle" x="585.38" y="-57.2" font-family="Times,serif" font-size="14.00">output_schema=Decision,</text>
<text text-anchor="middle" x="585.38" y="-40.7" font-family="Times,serif" font-size="14.00">seed=42) ]</text>
</g>
<!-- node_0&#45;&gt;node_3 -->
<g id="edge3" class="edge">
<title>node_0&#45;&gt;node_3</title>
<path fill="none" stroke="blue" stroke-width="2" d="M370.14,-78.75C408.24,-78.75 453.49,-78.75 492.57,-78.75"/>
<polygon fill="blue" stroke="blue" stroke-width="2" points="490.92,-82.25 500.92,-78.75 490.92,-75.25 490.92,-82.25"/>
<text text-anchor="middle" x="437.12" y="-81.95" font-family="Times,serif" font-size="14.00">content &#45;&gt; answer</text>
</g>
<!-- node_4 -->
<g id="node5" class="node">
<title>node_4</title>
<polygon fill="#ececff" stroke="#9370db" points="910.75,-116.75 856.75,-116.75 856.75,-80.75 910.75,-80.75 910.75,-116.75"/>
<text text-anchor="middle" x="883.75" y="-93.7" font-family="Times,serif" font-size="14.00">End</text>
</g>
<!-- node_1&#45;&gt;node_4 -->
<g id="edge2" class="edge">
<title>node_1&#45;&gt;node_4</title>
<path fill="none" stroke="black" stroke-dasharray="5,2" d="M643.54,-154.73C686.08,-150.23 745.34,-142.37 796.25,-129.75 812.82,-125.64 830.65,-119.55 845.8,-113.85"/>
<polygon fill="black" stroke="black" points="846.81,-117.21 854.88,-110.35 844.29,-110.68 846.81,-117.21"/>
</g>
<!-- node_2 -->
<g id="node3" class="node">
<title>node_2</title>
<polygon fill="#ececff" stroke="#9370db" points="54,-96.75 0,-96.75 0,-60.75 54,-60.75 54,-96.75"/>
<text text-anchor="middle" x="27" y="-73.7" font-family="Times,serif" font-size="14.00">Start</text>
</g>
<!-- node_2&#45;&gt;node_0 -->
<g id="edge4" class="edge">
<title>node_2&#45;&gt;node_0</title>
<path fill="none" stroke="blue" stroke-width="2" d="M54.04,-78.75C85.88,-78.75 141.52,-78.75 190.2,-78.75"/>
<polygon fill="blue" stroke="blue" stroke-width="2" points="188.4,-82.25 198.4,-78.75 188.4,-75.25 188.4,-82.25"/>
<text text-anchor="middle" x="127.88" y="-81.95" font-family="Times,serif" font-size="14.00">question &#45;&gt; question</text>
</g>
<!-- node_3&#45;&gt;node_4 -->
<g id="edge5" class="edge">
<title>node_3&#45;&gt;node_4</title>
<path fill="none" stroke="blue" stroke-width="2" d="M666.97,-84.18C724.91,-88.09 800.39,-93.19 845,-96.2"/>
<polygon fill="blue" stroke="blue" stroke-width="2" points="843.22,-99.59 853.44,-96.77 843.7,-92.6 843.22,-99.59"/>
<text text-anchor="middle" x="740.38" y="-112.54" font-family="Times,serif" font-size="14.00">?(no_feedback): . &#45;&gt;</text>
<text text-anchor="middle" x="740.38" y="-96.04" font-family="Times,serif" font-size="14.00">_</text>
</g>
<!-- node_5 -->
<g id="node6" class="node">
<title>node_5</title>
<polygon fill="#ececff" stroke="#9370db" points="953.25,-51.25 814.25,-51.25 814.25,-10.25 953.25,-10.25 953.25,-51.25"/>
<text text-anchor="middle" x="883.75" y="-33.95" font-family="Times,serif" font-size="14.00">as_system_messages[</text>
<text text-anchor="middle" x="883.75" y="-17.45" font-family="Times,serif" font-size="14.00">as_system_messages ]</text>
</g>
<!-- node_3&#45;&gt;node_5 -->
<g id="edge6" class="edge">
<title>node_3&#45;&gt;node_5</title>
<path fill="none" stroke="blue" stroke-width="2" d="M666.97,-65.69C709.21,-58.85 760.77,-50.5 802.89,-43.68"/>
<polygon fill="blue" stroke="blue" stroke-width="2" points="801.93,-47.38 811.24,-42.33 800.81,-40.47 801.93,-47.38"/>
<text text-anchor="middle" x="740.38" y="-65.05" font-family="Times,serif" font-size="14.00">. &#45;&gt; message</text>
</g>
<!-- node_5&#45;&gt;node_0 -->
<g id="edge7" class="edge">
<title>node_5&#45;&gt;node_0</title>
<path fill="none" stroke="blue" stroke-width="2" d="M813.94,-17.81C737.76,-5.53 611.53,8.72 504.25,-8.25 462.79,-14.8 418.47,-27.98 380.74,-41.19"/>
<polygon fill="blue" stroke="blue" stroke-width="2" points="381.38,-37.24 373.13,-43.89 383.72,-43.84 381.38,-37.24"/>
<text text-anchor="middle" x="585.38" y="-11.45" font-family="Times,serif" font-size="14.00">. &#45;&gt; messages</text>
</g>
</g>
</svg>
