<?xml version="1.0" encoding="UTF-8" standalone="no"?>
<!DOCTYPE svg PUBLIC "-//W3C//DTD SVG 1.1//EN"
 "http://www.w3.org/Graphics/SVG/1.1/DTD/svg11.dtd">
<!-- Generated by graphviz version 12.2.1 (20241206.2353)
 -->
<!-- Title: something with total age Pages: 1 -->
<svg width="405pt" height="110pt"
 viewBox="0.00 0.00 405.00 110.00" xmlns="http://www.w3.org/2000/svg" xmlns:xlink="http://www.w3.org/1999/xlink">
<g id="graph0" class="graph" transform="scale(1 1) rotate(0) translate(4 106)">
<title>something with total age</title>
<polygon fill="white" stroke="none" points="-4,4 -4,-106 401,-106 401,4 -4,4"/>
<text text-anchor="middle" x="198.5" y="-84.7" font-family="Times,serif" font-size="14.00">something with total age</text>
<!-- node_0 -->
<g id="node1" class="node">
<title>node_0</title>
<polygon fill="#ececff" stroke="#9370db" points="234.25,-77.5 120.75,-77.5 120.75,-36.5 234.25,-36.5 234.25,-77.5"/>
<text text-anchor="middle" x="177.5" y="-60.2" font-family="Times,serif" font-size="14.00">get_total_age[</text>
<text text-anchor="middle" x="177.5" y="-43.7" font-family="Times,serif" font-size="14.00">total_age_devdb ]</text>
</g>
<!-- node_2 -->
<g id="node3" class="node">
<title>node_2</title>
<polygon fill="#ececff" stroke="#9370db" points="397,-36 343,-36 343,0 397,0 397,-36"/>
<text text-anchor="middle" x="370" y="-12.95" font-family="Times,serif" font-size="14.00">End</text>
</g>
<!-- node_0&#45;&gt;node_2 -->
<g id="edge1" class="edge">
<title>node_0&#45;&gt;node_2</title>
<path fill="none" stroke="black" d="M234.63,-45.51C265.84,-39.12 303.83,-31.34 331.44,-25.69"/>
<polygon fill="black" stroke="black" points="332.02,-29.14 341.11,-23.71 330.61,-22.29 332.02,-29.14"/>
<text text-anchor="middle" x="288.62" y="-44.19" font-family="Times,serif" font-size="14.00">. &#45;&gt; age_sum</text>
</g>
<!-- node_1 -->
<g id="node2" class="node">
<title>node_1</title>
<polygon fill="#ececff" stroke="#9370db" points="54,-42 0,-42 0,-6 54,-6 54,-42"/>
<text text-anchor="middle" x="27" y="-18.95" font-family="Times,serif" font-size="14.00">Start</text>
</g>
<!-- node_1&#45;&gt;node_0 -->
<g id="edge2" class="edge">
<title>node_1&#45;&gt;node_0</title>
<path fill="none" stroke="black" d="M54.21,-29.82C69.59,-33.24 89.8,-37.73 109.34,-42.08"/>
<polygon fill="black" stroke="black" points="108.42,-45.46 118.94,-44.21 109.93,-38.62 108.42,-45.46"/>
<text text-anchor="middle" x="87.38" y="-43.7" font-family="Times,serif" font-size="14.00">. &#45;&gt; _</text>
</g>
<!-- node_1&#45;&gt;node_2 -->
<g id="edge3" class="edge">
<title>node_1&#45;&gt;node_2</title>
<path fill="none" stroke="black" d="M54.29,-19.5C72.81,-16.57 98.22,-13.01 120.75,-11.5 195.26,-6.5 282.6,-11.24 331.29,-14.83"/>
<polygon fill="black" stroke="black" points="330.77,-18.3 341,-15.58 331.3,-11.32 330.77,-18.3"/>
<text text-anchor="middle" x="177.5" y="-14.7" font-family="Times,serif" font-size="14.00">. &#45;&gt; **</text>
</g>
</g>
</svg>
