<?xml version="1.0" encoding="UTF-8" standalone="no"?>
<!DOCTYPE svg PUBLIC "-//W3C//DTD SVG 1.1//EN"
 "http://www.w3.org/Graphics/SVG/1.1/DTD/svg11.dtd">
<!-- Generated by graphviz version 12.2.1 (20241206.2353)
 -->
<!-- Title: Router Pages: 1 -->
<svg width="928pt" height="209pt"
 viewBox="0.00 0.00 928.25 208.50" xmlns="http://www.w3.org/2000/svg" xmlns:xlink="http://www.w3.org/1999/xlink">
<g id="graph0" class="graph" transform="scale(1 1) rotate(0) translate(4 204.5)">
<title>Router</title>
<polygon fill="white" stroke="none" points="-4,4 -4,-204.5 924.25,-204.5 924.25,4 -4,4"/>
<text text-anchor="middle" x="460.12" y="-183.2" font-family="Times,serif" font-size="14.00">Router</text>
<!-- node_0 -->
<g id="node1" class="node">
<title>node_0</title>
<polygon fill="#ececff" stroke="#9370db" points="328,-176 159.75,-176 159.75,-102 328,-102 328,-176"/>
<text text-anchor="middle" x="243.88" y="-158.7" font-family="Times,serif" font-size="14.00">choose_route[</text>
<text text-anchor="middle" x="243.88" y="-142.2" font-family="Times,serif" font-size="14.00">Chat(model=&#39;gpt&#45;4o&#45;mini&#39;,</text>
<text text-anchor="middle" x="243.88" y="-125.7" font-family="Times,serif" font-size="14.00">required_keys={&#39;question&#39;},</text>
<text text-anchor="middle" x="243.88" y="-109.2" font-family="Times,serif" font-size="14.00">seed=42) ]</text>
</g>
<!-- node_2 -->
<g id="node3" class="node">
<title>node_2</title>
<polygon fill="#ececff" stroke="#9370db" points="513.25,-101 459.25,-101 459.25,-65 513.25,-65 513.25,-101"/>
<text text-anchor="middle" x="486.25" y="-77.95" font-family="Times,serif" font-size="14.00">router</text>
</g>
<!-- node_0&#45;&gt;node_2 -->
<g id="edge1" class="edge">
<title>node_0&#45;&gt;node_2</title>
<path fill="none" stroke="black" d="M328.27,-119.57C368.97,-110.09 415.9,-99.16 447.77,-91.73"/>
<polygon fill="black" stroke="black" points="448.37,-95.19 457.31,-89.51 446.78,-88.37 448.37,-95.19"/>
<text text-anchor="middle" x="393.62" y="-117.55" font-family="Times,serif" font-size="14.00">content &#45;&gt; choice</text>
</g>
<!-- node_1 -->
<g id="node2" class="node">
<title>node_1</title>
<polygon fill="#ececff" stroke="#9370db" points="54,-101 0,-101 0,-65 54,-65 54,-101"/>
<text text-anchor="middle" x="27" y="-77.95" font-family="Times,serif" font-size="14.00">Start</text>
</g>
<!-- node_1&#45;&gt;node_0 -->
<g id="edge2" class="edge">
<title>node_1&#45;&gt;node_0</title>
<path fill="none" stroke="black" d="M54.35,-89.87C78.01,-96.03 114.22,-105.47 148.6,-114.43"/>
<polygon fill="black" stroke="black" points="147.66,-117.8 158.22,-116.94 149.42,-111.03 147.66,-117.8"/>
<text text-anchor="middle" x="106.88" y="-114.2" font-family="Times,serif" font-size="14.00">. &#45;&gt; question</text>
</g>
<!-- node_1&#45;&gt;node_2 -->
<g id="edge3" class="edge">
<title>node_1&#45;&gt;node_2</title>
<path fill="none" stroke="black" d="M54.48,-81.31C81.08,-79.7 123.23,-77.4 159.75,-76.5 234.51,-74.66 253.24,-74.96 328,-76.5 368.82,-77.34 415.55,-79.42 447.4,-81"/>
<polygon fill="black" stroke="black" points="447.15,-84.49 457.32,-81.5 447.51,-77.5 447.15,-84.49"/>
<text text-anchor="middle" x="243.88" y="-79.7" font-family="Times,serif" font-size="14.00">. &#45;&gt; question</text>
</g>
<!-- node_3 -->
<g id="node4" class="node">
<title>node_3</title>
<polygon fill="#ececff" stroke="#9370db" points="829.25,-166 661,-166 661,-92 829.25,-92 829.25,-166"/>
<text text-anchor="middle" x="745.12" y="-148.7" font-family="Times,serif" font-size="14.00">rhyme[</text>
<text text-anchor="middle" x="745.12" y="-132.2" font-family="Times,serif" font-size="14.00">Chat(model=&#39;gpt&#45;4o&#45;mini&#39;,</text>
<text text-anchor="middle" x="745.12" y="-115.7" font-family="Times,serif" font-size="14.00">required_keys={&#39;question&#39;},</text>
<text text-anchor="middle" x="745.12" y="-99.2" font-family="Times,serif" font-size="14.00">seed=42) ]</text>
</g>
<!-- node_2&#45;&gt;node_3 -->
<g id="edge4" class="edge">
<title>node_2&#45;&gt;node_3</title>
<path fill="none" stroke="blue" stroke-width="2" d="M513.75,-88.55C519.51,-89.72 525.58,-90.93 531.25,-92 569.83,-99.3 612.45,-106.81 649.36,-113.15"/>
<polygon fill="blue" stroke="blue" stroke-width="2" points="647.18,-116.33 657.63,-114.56 648.36,-109.43 647.18,-116.33"/>
<text text-anchor="middle" x="587.12" y="-114.99" font-family="Times,serif" font-size="14.00">question &#45;&gt; question</text>
</g>
<!-- node_5 -->
<g id="node6" class="node">
<title>node_5</title>
<polygon fill="#ececff" stroke="#9370db" points="829.25,-74 661,-74 661,0 829.25,0 829.25,-74"/>
<text text-anchor="middle" x="745.12" y="-56.7" font-family="Times,serif" font-size="14.00">joke[</text>
<text text-anchor="middle" x="745.12" y="-40.2" font-family="Times,serif" font-size="14.00">Chat(model=&#39;gpt&#45;4o&#45;mini&#39;,</text>
<text text-anchor="middle" x="745.12" y="-23.7" font-family="Times,serif" font-size="14.00">required_keys={&#39;question&#39;},</text>
<text text-anchor="middle" x="745.12" y="-7.2" font-family="Times,serif" font-size="14.00">seed=42) ]</text>
</g>
<!-- node_2&#45;&gt;node_5 -->
<g id="edge5" class="edge">
<title>node_2&#45;&gt;node_5</title>
<path fill="none" stroke="blue" stroke-width="2" d="M511.31,-64.78C517.52,-60.92 524.39,-57.32 531.25,-55 568.59,-42.4 611.61,-37.15 649.16,-35.33"/>
<polygon fill="blue" stroke="blue" stroke-width="2" points="647.74,-38.89 657.6,-35 647.46,-31.9 647.74,-38.89"/>
<text text-anchor="middle" x="587.12" y="-74.7" font-family="Times,serif" font-size="14.00">?(choice==joke):</text>
<text text-anchor="middle" x="587.12" y="-58.2" font-family="Times,serif" font-size="14.00">question &#45;&gt; question</text>
</g>
<!-- node_4 -->
<g id="node5" class="node">
<title>node_4</title>
<polygon fill="#ececff" stroke="#9370db" points="920.25,-100 866.25,-100 866.25,-64 920.25,-64 920.25,-100"/>
<text text-anchor="middle" x="893.25" y="-76.95" font-family="Times,serif" font-size="14.00">End</text>
</g>
<!-- node_3&#45;&gt;node_4 -->
<g id="edge6" class="edge">
<title>node_3&#45;&gt;node_4</title>
<path fill="none" stroke="blue" stroke-width="2" d="M829.43,-102.2C838.41,-99.32 847.17,-96.5 855.17,-93.93"/>
<polygon fill="blue" stroke="blue" stroke-width="2" points="854.57,-97.79 863.02,-91.4 852.43,-91.13 854.57,-97.79"/>
</g>
<!-- node_5&#45;&gt;node_4 -->
<g id="edge7" class="edge">
<title>node_5&#45;&gt;node_4</title>
<path fill="none" stroke="blue" stroke-width="2" d="M829.43,-62.65C838.41,-65.42 847.17,-68.12 855.17,-70.58"/>
<polygon fill="blue" stroke="blue" stroke-width="2" points="852.42,-73.4 863.01,-73 854.48,-66.71 852.42,-73.4"/>
</g>
</g>
</svg>
