<?xml version="1.0" encoding="UTF-8" standalone="no"?>
<!DOCTYPE svg PUBLIC "-//W3C//DTD SVG 1.1//EN"
 "http://www.w3.org/Graphics/SVG/1.1/DTD/svg11.dtd">
<!-- Generated by graphviz version 12.2.1 (20241206.2353)
 -->
<!-- Title: collect user data Pages: 1 -->
<svg width="594pt" height="781pt"
 viewBox="0.00 0.00 594.00 780.50" xmlns="http://www.w3.org/2000/svg" xmlns:xlink="http://www.w3.org/1999/xlink">
<g id="graph0" class="graph" transform="scale(1 1) rotate(0) translate(4 776.5)">
<title>collect user data</title>
<polygon fill="white" stroke="none" points="-4,4 -4,-776.5 590,-776.5 590,4 -4,4"/>
<text text-anchor="middle" x="293" y="-755.2" font-family="Times,serif" font-size="14.00">collect user data</text>
<!-- node_0 -->
<g id="node1" class="node">
<title>node_0</title>
<polygon fill="#ececff" stroke="#9370db" points="279,-675 225,-675 225,-639 279,-639 279,-675"/>
<text text-anchor="middle" x="252" y="-651.95" font-family="Times,serif" font-size="14.00">Start</text>
</g>
<!-- node_2 -->
<g id="node3" class="node">
<title>node_2</title>
<polygon fill="#ececff" stroke="#9370db" points="346.62,-586.5 157.38,-586.5 157.38,-529 346.62,-529 346.62,-586.5"/>
<text text-anchor="middle" x="252" y="-569.2" font-family="Times,serif" font-size="14.00">get_missing_keys[</text>
<text text-anchor="middle" x="252" y="-552.7" font-family="Times,serif" font-size="14.00">MissingKeys.get_missing_keys</text>
<text text-anchor="middle" x="252" y="-536.2" font-family="Times,serif" font-size="14.00">]</text>
</g>
<!-- node_0&#45;&gt;node_2 -->
<g id="edge7" class="edge">
<title>node_0&#45;&gt;node_2</title>
<path fill="none" stroke="blue" stroke-width="2" d="M252,-638.61C252,-627.35 252,-612.2 252,-598.12"/>
<polygon fill="blue" stroke="blue" stroke-width="2" points="255.5,-599.69 252,-589.69 248.5,-599.69 255.5,-599.69"/>
<text text-anchor="middle" x="346.88" y="-607.7" font-family="Times,serif" font-size="14.00">?(MissingKeys.has_missing_keys)</text>
</g>
<!-- node_4 -->
<g id="node5" class="node">
<title>node_4</title>
<polygon fill="#ececff" stroke="#9370db" points="485,-36 431,-36 431,0 485,0 485,-36"/>
<text text-anchor="middle" x="458" y="-12.95" font-family="Times,serif" font-size="14.00">End</text>
</g>
<!-- node_0&#45;&gt;node_4 -->
<g id="edge8" class="edge">
<title>node_0&#45;&gt;node_4</title>
<path fill="none" stroke="blue" stroke-width="2" d="M279.33,-653.95C359.1,-647.22 586,-622.47 586,-558.75 586,-558.75 586,-558.75 586,-149.25 586,-97.01 532.97,-58.06 495.18,-36.93"/>
<polygon fill="blue" stroke="blue" stroke-width="2" points="498.59,-34.79 488.12,-33.13 495.27,-40.95 498.59,-34.79"/>
</g>
<!-- node_1 -->
<g id="node2" class="node">
<title>node_1</title>
<path fill="#ececff" stroke="#9370db" d="M154.88,-744.73C154.88,-746.53 132.97,-748 106,-748 79.03,-748 57.12,-746.53 57.12,-744.73 57.12,-744.73 57.12,-715.27 57.12,-715.27 57.12,-713.47 79.03,-712 106,-712 132.97,-712 154.88,-713.47 154.88,-715.27 154.88,-715.27 154.88,-744.73 154.88,-744.73"/>
<path fill="none" stroke="#9370db" d="M154.88,-744.73C154.88,-742.92 132.97,-741.45 106,-741.45 79.03,-741.45 57.12,-742.92 57.12,-744.73"/>
<text text-anchor="middle" x="106" y="-724.95" font-family="Times,serif" font-size="14.00">State[get_user]</text>
</g>
<!-- node_1&#45;&gt;node_0 -->
<g id="edge1" class="edge">
<title>node_1&#45;&gt;node_0</title>
<path fill="none" stroke="black" stroke-dasharray="5,2" d="M140.6,-712.17C162.88,-701.34 191.82,-687.27 214.62,-676.18"/>
<polygon fill="black" stroke="black" points="216.12,-679.34 223.58,-671.82 213.06,-673.05 216.12,-679.34"/>
</g>
<!-- node_5 -->
<g id="node6" class="node">
<title>node_5</title>
<polygon fill="#ececff" stroke="#9370db" points="224.38,-476.5 27.62,-476.5 27.62,-402.5 224.38,-402.5 224.38,-476.5"/>
<text text-anchor="middle" x="126" y="-459.2" font-family="Times,serif" font-size="14.00">ask_missing_data[</text>
<text text-anchor="middle" x="126" y="-442.7" font-family="Times,serif" font-size="14.00">Chat(model=&#39;gpt&#45;4o&#45;mini&#39;,</text>
<text text-anchor="middle" x="126" y="-426.2" font-family="Times,serif" font-size="14.00">required_keys={&#39;missing_keys&#39;},</text>
<text text-anchor="middle" x="126" y="-409.7" font-family="Times,serif" font-size="14.00">seed=42) ]</text>
</g>
<!-- node_1&#45;&gt;node_5 -->
<g id="edge3" class="edge">
<title>node_1&#45;&gt;node_5</title>
<path fill="none" stroke="black" stroke-dasharray="5,2" d="M107.19,-711.82C110.2,-668.45 118.18,-553.34 122.72,-487.84"/>
<polygon fill="black" stroke="black" points="126.19,-488.33 123.39,-478.12 119.21,-487.85 126.19,-488.33"/>
<text text-anchor="middle" x="159.99" y="-607.7" font-family="Times,serif" font-size="14.00">. &#45;&gt; current_info</text>
</g>
<!-- node_7 -->
<g id="node8" class="node">
<title>node_7</title>
<polygon fill="#ececff" stroke="#9370db" points="343,-212 153,-212 153,-88.5 343,-88.5 343,-212"/>
<text text-anchor="middle" x="248" y="-194.7" font-family="Times,serif" font-size="14.00">format_new_info[</text>
<text text-anchor="middle" x="248" y="-178.2" font-family="Times,serif" font-size="14.00">Chat(model=&#39;gpt&#45;4o&#45;mini&#39;,</text>
<text text-anchor="middle" x="248" y="-161.7" font-family="Times,serif" font-size="14.00">required_keys={&#39;missing_keys&#39;,</text>
<text text-anchor="middle" x="248" y="-145.2" font-family="Times,serif" font-size="14.00">&#39;input&#39;,</text>
<text text-anchor="middle" x="248" y="-128.7" font-family="Times,serif" font-size="14.00">&#39;current_info&#39;},</text>
<text text-anchor="middle" x="248" y="-112.2" font-family="Times,serif" font-size="14.00">output_schema=User,</text>
<text text-anchor="middle" x="248" y="-95.7" font-family="Times,serif" font-size="14.00">seed=42) ]</text>
</g>
<!-- node_1&#45;&gt;node_7 -->
<g id="edge4" class="edge">
<title>node_1&#45;&gt;node_7</title>
<path fill="none" stroke="black" stroke-dasharray="5,2" d="M56.72,-716.22C29.04,-705.74 0,-687.68 0,-658 0,-658 0,-658 0,-281.5 0,-213.32 74.38,-180.75 141.67,-165.24"/>
<polygon fill="black" stroke="black" points="142.32,-168.68 151.35,-163.13 140.83,-161.84 142.32,-168.68"/>
<text text-anchor="middle" x="45.38" y="-497.7" font-family="Times,serif" font-size="14.00">. &#45;&gt; current_info</text>
</g>
<!-- node_3 -->
<g id="node4" class="node">
<title>node_3</title>
<path fill="#ececff" stroke="#9370db" d="M571.12,-366.23C571.12,-368.03 542.83,-369.5 508,-369.5 473.17,-369.5 444.88,-368.03 444.88,-366.23 444.88,-366.23 444.88,-336.77 444.88,-336.77 444.88,-334.97 473.17,-333.5 508,-333.5 542.83,-333.5 571.12,-334.97 571.12,-336.77 571.12,-336.77 571.12,-366.23 571.12,-366.23"/>
<path fill="none" stroke="#9370db" d="M571.12,-366.23C571.12,-364.42 542.83,-362.95 508,-362.95 473.17,-362.95 444.88,-364.42 444.88,-366.23"/>
<text text-anchor="middle" x="508" y="-346.45" font-family="Times,serif" font-size="14.00">State[missing_keys]</text>
</g>
<!-- node_2&#45;&gt;node_3 -->
<g id="edge2" class="edge">
<title>node_2&#45;&gt;node_3</title>
<path fill="none" stroke="black" stroke-dasharray="5,2" d="M287.33,-528.56C337.73,-488.35 429.47,-415.16 477.24,-377.05"/>
<polygon fill="black" stroke="black" points="479.36,-379.83 484.99,-370.86 474.99,-374.36 479.36,-379.83"/>
</g>
<!-- node_2&#45;&gt;node_5 -->
<g id="edge9" class="edge">
<title>node_2&#45;&gt;node_5</title>
<path fill="none" stroke="blue" stroke-width="2" d="M159.59,-528.6C152.16,-523.65 145.36,-517.83 139.75,-511 134.3,-504.37 130.78,-496.21 128.56,-487.82"/>
<polygon fill="blue" stroke="blue" stroke-width="2" points="132.34,-488.84 126.92,-479.73 125.48,-490.23 132.34,-488.84"/>
<text text-anchor="middle" x="188.88" y="-497.7" font-family="Times,serif" font-size="14.00">. &#45;&gt; missing_keys</text>
</g>
<!-- node_3&#45;&gt;node_7 -->
<g id="edge5" class="edge">
<title>node_3&#45;&gt;node_7</title>
<path fill="none" stroke="black" stroke-dasharray="5,2" d="M485.38,-333.17C452.5,-307.97 389.68,-259.83 336.92,-219.39"/>
<polygon fill="black" stroke="black" points="339.14,-216.68 329.07,-213.38 334.88,-222.24 339.14,-216.68"/>
<text text-anchor="middle" x="491.36" y="-277.45" font-family="Times,serif" font-size="14.00">. &#45;&gt; missing_keys</text>
</g>
<!-- node_6 -->
<g id="node7" class="node">
<title>node_6</title>
<polygon fill="#ececff" stroke="#9370db" stroke-dasharray="5,2" points="189,-300.5 135,-300.5 135,-264.5 189,-264.5 189,-300.5"/>
<text text-anchor="middle" x="162" y="-277.45" font-family="Times,serif" font-size="14.00">break</text>
</g>
<!-- node_5&#45;&gt;node_6 -->
<g id="edge10" class="edge">
<title>node_5&#45;&gt;node_6</title>
<path fill="none" stroke="blue" stroke-width="2" d="M134.44,-402.16C140.83,-374.66 149.48,-337.42 155.37,-312.04"/>
<polygon fill="blue" stroke="blue" stroke-width="2" points="158.41,-314.44 157.26,-303.91 151.59,-312.86 158.41,-314.44"/>
</g>
<!-- node_6&#45;&gt;node_7 -->
<g id="edge11" class="edge">
<title>node_6&#45;&gt;node_7</title>
<path fill="none" stroke="blue" stroke-width="2" d="M167.26,-264.16C170.76,-253.86 175.88,-240.74 182.25,-230 183.91,-227.2 185.67,-224.4 187.5,-221.61"/>
<polygon fill="blue" stroke="blue" stroke-width="2" points="189.48,-224.9 192.28,-214.69 183.72,-220.93 189.48,-224.9"/>
<text text-anchor="middle" x="208.12" y="-233.2" font-family="Times,serif" font-size="14.00">. &#45;&gt; input</text>
</g>
<!-- node_7&#45;&gt;node_2 -->
<g id="edge12" class="edge">
<title>node_7&#45;&gt;node_2</title>
<path fill="none" stroke="blue" stroke-width="2" d="M246.19,-212.41C245.34,-244.07 244.42,-283.36 244,-318.5 243.65,-347.83 243.32,-355.17 244,-384.5 245.06,-430.21 247.7,-482.69 249.66,-517.59"/>
<polygon fill="blue" stroke="blue" stroke-width="2" points="246.06,-515.91 250.13,-525.7 253.05,-515.51 246.06,-515.91"/>
<text text-anchor="middle" x="340" y="-371.2" font-family="Times,serif" font-size="14.00">?(Condition(</text>
<text text-anchor="middle" x="340" y="-354.7" font-family="Times,serif" font-size="14.00">(0=content) ) &#45;&gt;</text>
<text text-anchor="middle" x="340" y="-338.2" font-family="Times,serif" font-size="14.00">(MissingKeys.has_missing_keys)):</text>
<text text-anchor="middle" x="340" y="-321.7" font-family="Times,serif" font-size="14.00">content &#45;&gt; 0</text>
</g>
<!-- node_7&#45;&gt;node_4 -->
<g id="edge13" class="edge">
<title>node_7&#45;&gt;node_4</title>
<path fill="none" stroke="blue" stroke-width="2" d="M343.48,-90.03C370.97,-72.98 399.35,-55.38 420.98,-41.96"/>
<polygon fill="blue" stroke="blue" stroke-width="2" points="421.49,-45.76 428.15,-37.52 417.8,-39.81 421.49,-45.76"/>
</g>
<!-- node_8 -->
<g id="node9" class="node">
<title>node_8</title>
<path fill="#ececff" stroke="#9370db" d="M298.38,-32.73C298.38,-34.53 275.8,-36 248,-36 220.2,-36 197.62,-34.53 197.62,-32.73 197.62,-32.73 197.62,-3.27 197.62,-3.27 197.62,-1.47 220.2,0 248,0 275.8,0 298.38,-1.47 298.38,-3.27 298.38,-3.27 298.38,-32.73 298.38,-32.73"/>
<path fill="none" stroke="#9370db" d="M298.38,-32.73C298.38,-30.92 275.8,-29.45 248,-29.45 220.2,-29.45 197.62,-30.92 197.62,-32.73"/>
<text text-anchor="middle" x="248" y="-12.95" font-family="Times,serif" font-size="14.00">State[add_user]</text>
</g>
<!-- node_7&#45;&gt;node_8 -->
<g id="edge6" class="edge">
<title>node_7&#45;&gt;node_8</title>
<path fill="none" stroke="black" stroke-dasharray="5,2" d="M248,-88.32C248,-74.17 248,-59.75 248,-47.76"/>
<polygon fill="black" stroke="black" points="251.5,-47.76 248,-37.76 244.5,-47.76 251.5,-47.76"/>
<text text-anchor="middle" x="281.38" y="-57.2" font-family="Times,serif" font-size="14.00">content &#45;&gt; 0</text>
</g>
</g>
</svg>
